<?xml version="1.0" encoding="UTF-8"?>
<svg id="Layer_2" data-name="Layer 2" xmlns="http://www.w3.org/2000/svg" viewBox="0 0 1381.96 945.72">
  <defs>
    <style>
      .cls-1 {
        fill: #004078;
      }

      .cls-2 {
        fill: #f8c806;
      }

      .cls-3 {
        fill: #fff;
      }

      .cls-4 {
        fill: #e85821;
      }

      .cls-5 {
        fill: #0a4576;
      }
    </style>
  </defs>
  <g id="Layer_1-2" data-name="Layer 1">
    <g>
      <path class="cls-5" d="M1354.9,150.3c-11.77-13.09-24.6-25-36.94-37.44-21.73-24.94-50.89-41.38-84.56-40.9-24.2,1.56-146.19-4.36-167.33,4.95-8.8-3.24-18.17-4.95-27.64-4.95-38.52,3.27-174.02-9.81-207.14,12.37-29.91-22.33-183.73-9.06-220.83-12.4-10.68,0-21.03,2.08-30.61,6.05-23.42-10.76-116.68-4.4-142.79-6C403.35,38.6,372.58-1.89,320.2.07c0,0-201.67,0-201.67,0-38.7,0-71.81,27.64-78.71,65.72L1.29,278.1c-4.25,23.4,2.06,47.3,17.3,65.55,11.36,12.3,23.53,23.77,35.31,35.61l-18.31,100.98c-4.24,23.4,2.07,47.29,17.31,65.55,11.27,12.14,23.23,23.57,34.96,35.21,16.86,19.7,39.76,34,66.45,33.51,11.55-.48,199.64-.1,208.84,0-4.56,20.91-6.68,44.34,3.16,63.83-25.09,30.24-28.97,95.39-36.75,133.05-8.97,49.86,28.14,75.46,59.03,106.76,15.16,17.07,36.79,26.83,59.7,26.86q222.2.29,222.24.29c9.03,0,17.98-1.55,26.44-4.52,16.93,8.51,163.37,3.12,184.51,4.52,58.27,1.32,111.72-55.33,120.06-112.62,2.24-16.74,23.6-126.22,22.44-140.82,0-29.96-9.4-56.53-27.83-78.37,5.2-.83,10.31-2.15,15.23-3.97,17.45,9.59,186.04,3.35,208.43,5.01,85.3-1.24,81.79-93.49,94.76-154.16,3.33-18.34,3.23-36.46-.07-53.41,42.31-15.63,51.79-57.02,56.07-97.98,13.3-52.5,22.09-117.18-15.66-158.69Z"/>
      <path class="cls-4" d="M1314.9,110.3c-20.65-24.73-49.59-38.34-81.51-38.34h-134.83c-11.03,0-21.9,1.66-32.5,4.95-8.8-3.24-18.17-4.95-27.64-4.95h-156.85c-17.26,0-34.42,4.29-50.29,12.37-15.27-8.11-32.38-12.4-50.24-12.4h-170.6c-10.68,0-21.03,2.08-30.61,6.04-11.22-3.96-23.12-6-35.31-6h-121.37c-4.76-11.93-11.23-22.89-19.27-32.51C382.67,14.06,352.96.07,320.2.07H118.53C79.82.07,46.72,27.71,39.81,65.79L1.29,278.1c-4.25,23.4,2.06,47.3,17.3,65.55,9.92,11.88,22.85,20.46,37.23,25.01l-20.24,111.58c-4.24,23.4,2.07,47.29,17.31,65.55,15.24,18.26,37.62,28.73,61.41,28.73h261.67c-5.34,8.6-9.13,18.33-10.93,28.86l-4.82,28.27c-2.74,16.03-.53,32.25,6.08,46.7-12.27,17.29-20.34,37.29-24.08,59.7l-12.67,73.34c-4.02,23.29,2.39,47.02,17.6,65.11,15.21,18.09,37.49,28.48,61.12,28.51q222.2.29,222.24.29c9.03,0,17.98-1.55,26.44-4.52,9.64,2.98,19.72,4.52,29.91,4.52h154.6c31.45,0,61.72-14.52,85.25-40.88,18.51-20.75,30.22-44.9,34.81-71.73l20.33-117.69c1.4-7.74,2.11-15.52,2.11-23.13,0-27.76-8.02-52.46-23.85-73.41-1.29-1.7-2.61-3.36-3.98-4.96,5.2-.83,10.31-2.15,15.23-3.97,10.22,3.3,20.98,5.01,31.92,5.01h176.51c38.7,0,71.8-27.64,78.71-65.71l16.05-88.44c3.32-18.34,3.22-36.46-.08-53.41,25.31-9.83,44.64-32.23,49.73-60.3l5.25-28.92c.53-2.9.89-5.82,1.09-8.76.84-2.83,1.53-5.71,2.06-8.61l7.43-40.98c.1-.5.2-1,.29-1.49,7.3-40.29-1.97-79.51-25.43-107.61Z"/>
      <path class="cls-2" d="M1284.2,135.94c-12.92-15.47-30.96-23.98-50.8-23.98h-134.83c-12.1,0-23.9,3.27-34.73,9.12-7.1-5.84-16.06-9.12-25.41-9.12h-156.85c-18.71,0-36.66,7.99-51.24,21.38-13-13.83-30.34-21.4-49.29-21.4h-170.6c-10.97,0-21.05,4.46-28.34,11.78-10.93-7.65-23.82-11.74-37.58-11.74h-152.4c-1.91-17.94-8.36-34.19-18.95-46.88-13.47-16.14-32.29-25.03-52.97-25.03H118.53c-19.34,0-35.91,13.83-39.36,32.86l-38.52,212.31c-2.12,11.67,1.05,23.67,8.65,32.78,7.6,9.1,18.85,14.36,30.71,14.36h26.17c-2.8,4.33-4.8,9.25-5.77,14.59l-25.46,140.4c-2.12,11.67,1.05,23.67,8.65,32.77,7.6,9.1,18.85,14.36,30.7,14.36h68.86c5.46,0,10.69-1.1,15.48-3.11,4.84,2.03,10.09,3.11,15.46,3.11h63.11c5.46,0,10.69-1.1,15.48-3.11,4.84,2.03,10.09,3.11,15.46,3.11h68.86c9,0,17.41-3,24.16-8.13,9.37,5.32,19.96,8.15,31.16,8.15h176.51c4.84,0,9.51-.87,13.84-2.47,4.35,1.59,8.99,2.45,13.73,2.45h68.86c16.05,0,30.19-9.53,36.51-23.65,1.48,3.31,3.43,6.44,5.8,9.29,7.6,9.1,18.85,14.36,30.7,14.36h68.86c11.16,0,21.4-4.62,28.73-12.18,11.21,7.93,24.47,12.18,38.62,12.18h29.05c9.85,0,18.97-3.59,26.02-9.63,9.96,6.29,21.46,9.65,33.68,9.65h176.51c19.34,0,35.9-13.83,39.36-32.86l16.05-88.43c5.2-28.69-.93-56.05-16.81-75.07-1.72-2.06-3.53-3.98-5.43-5.79h32.54c19.34,0,35.9-13.83,39.36-32.86l5.25-28.92c.53-2.94.73-5.91.61-8.85,1.14-2.69,2-5.54,2.54-8.52l7.51-41.41c.07-.35.14-.71.21-1.06,5.18-28.59-.93-55.87-16.77-74.84Z"/>
      <path class="cls-2" d="M1284.2,135.94c-12.92-15.47-30.96-23.98-50.8-23.98h-134.83c-12.1,0-23.9,3.27-34.73,9.12-7.1-5.84-16.06-9.12-25.41-9.12h-156.85c-18.71,0-36.66,7.99-51.24,21.38-13-13.83-30.34-21.4-49.29-21.4h-170.6c-10.97,0-21.05,4.46-28.34,11.78-10.93-7.65-23.82-11.74-37.58-11.74h-152.4c-1.91-17.94-8.36-34.19-18.95-46.88-13.47-16.14-32.29-25.03-52.97-25.03H118.53c-19.34,0-35.91,13.83-39.36,32.86l-38.52,212.31c-2.12,11.67,1.05,23.67,8.65,32.78,7.6,9.1,18.85,14.36,30.71,14.36h26.17c-2.8,4.33-4.8,9.25-5.77,14.59l-25.46,140.4c-2.12,11.67,1.05,23.67,8.65,32.77,7.6,9.1,18.85,14.36,30.7,14.36h262.72c9,0,17.41-3,24.16-8.13,9.37,5.32,19.96,8.15,31.16,8.15h176.51c4.84,0,9.51-.87,13.84-2.47,4.35,1.59,8.99,2.45,13.73,2.45h68.86c16.05,0,30.19-9.53,36.51-23.65,1.48,3.31,3.43,6.44,5.8,9.29,7.6,9.1,18.85,14.36,30.7,14.36h68.86c11.16,0,21.4-4.62,28.73-12.18,11.21,7.93,24.47,12.18,38.62,12.18h29.05c9.85,0,18.97-3.59,26.02-9.63,9.96,6.29,21.46,9.65,33.68,9.65h176.51c19.34,0,35.9-13.83,39.36-32.86l16.05-88.43c5.2-28.69-.93-56.05-16.81-75.07-1.72-2.06-3.53-3.98-5.43-5.79h32.54c19.34,0,35.9-13.83,39.36-32.86l5.25-28.92c.53-2.94.73-5.91.61-8.85,1.14-2.69,2-5.54,2.54-8.52l7.51-41.41c.07-.35.14-.71.21-1.06,5.18-28.59-.93-55.87-16.77-74.84Z"/>
      <g>
        <path d="M290.7,301.38c22.98,0,46.27-25.61,52.01-57.21l-.02-.02,17.75-97.88c3.87-21.31-1.25-39.88-12.03-49.73-.72-.8-5.97-6.04-6.75-6.75-5.52-6.14-12.86-9.73-21.46-9.73H118.53l-38.52,212.31,9,9h201.69ZM191.14,117.98h92.2c.3,0,.59.04.88.06.68,2.74.79,5.94.17,9.36l-21.34,117.66v-.02c-1.84,10.16-9.34,18.42-16.73,18.42h-81.56l26.39-145.48Z"/>
        <path d="M1259.6,167.58c-.71-.8-5.97-6.05-6.75-6.75-4.99-5.6-11.65-8.88-19.46-8.88h-134.83c-20.76,0-41.79,23.15-46.97,51.69l-6.72,37.05c-3.51,19.34,1.17,36.2,11.01,45.06.71.8,5.97,6.05,6.75,6.75,4.99,5.6,11.65,8.88,19.46,8.88h172.42l5.25-28.92-9-9h-128.54c-.15,0-.29-.02-.44-.03-.54-2.47-.59-5.31-.04-8.32h141.16l7.7-42.47h.02c3.51-19.34-1.17-36.2-11.01-45.06ZM1193.11,201.65l-2.81,15.56h-61.67l1.19-6.56c2.08-11.48,10.54-20.78,18.88-20.78h42.07c.65,0,1.27.08,1.88.18,1.02,3.31,1.25,7.3.47,11.6Z"/>
        <path d="M389.86,370.28c-.72-.8-5.97-6.04-6.75-6.75-5.32-5.95-12.42-9.42-20.73-9.42h-222.6l-25.46,140.4,9,9h68.86l20.23-111.49h20.31l-18.6,102.49,9,9h63.11l20.23-111.49h19.1c.38,2.14.38,4.53-.08,7.08l-17.31,95.41,9,9h68.86l15.47-85.27c3.73-20.56-1.21-38.48-11.64-47.96Z"/>
        <path d="M969.04,354.1h-68.86l-15.55,85.71h.02c-3.7,20.41,1.21,38.19,11.56,47.59.72.8,5.97,6.04,6.75,6.75,5.28,5.91,12.32,9.35,20.57,9.35h29.05l25.46-140.4-9-9Z"/>
        <path d="M622.85,369.8c-.71-.8-5.97-6.05-6.75-6.75-5.02-5.63-11.72-8.93-19.57-8.93v-.02h-172.91l-5.25,28.92,9,9h129.16c.17,0,.32.03.49.03.55,2.5.61,5.37.05,8.42h-107.67c-18.89,0-38.03,21.06-42.73,47.02-3.21,17.69,1.11,33.1,10.16,41.12.71.8,5.96,6.05,6.75,6.75,4.55,5.14,10.63,8.15,17.77,8.15h176.51l16.05-88.42c3.52-19.45-1.18-36.39-11.06-45.3ZM484.52,456.51c1.81-9.99,9.19-18.11,16.46-18.11h49.21l-4.94,27.21h-59.84c-.26,0-.5-.03-.75-.05-.64-2.67-.74-5.75-.14-9.05Z"/>
        <path d="M860.01,370.26c-.72-.8-5.97-6.04-6.75-6.75-5.32-5.95-12.42-9.42-20.73-9.42l-.03.02h-170.6l-25.46,140.4,9,9h68.86l20.23-111.49h54.14c1.38,0,2.69.21,3.91.6,1.83,4.46,2.38,10.14,1.25,16.33l-15.52,85.56,9,9h68.86l15.47-85.27c3.73-20.57-1.22-38.5-11.64-47.98Z"/>
        <path d="M1193.78,369.8c-.71-.8-5.97-6.05-6.75-6.75-5.02-5.63-11.72-8.93-19.57-8.93v-.02h-172.91l-5.25,28.92,9,9h129.16c.17,0,.32.03.49.03.55,2.5.61,5.37.05,8.42h-107.67c-18.89,0-38.03,21.06-42.73,47.02-3.21,17.69,1.11,33.1,10.16,41.12.71.8,5.96,6.05,6.75,6.75,4.55,5.14,10.63,8.15,17.77,8.15h176.51l16.05-88.42c3.52-19.45-1.18-36.39-11.06-45.3ZM1055.47,456.51c1.81-9.99,9.19-18.11,16.46-18.11h49.21l-4.94,27.21h-59.84c-.26,0-.5-.03-.75-.05-.64-2.67-.74-5.75-.14-9.05Z"/>
        <path d="M972.68,316.76c-1.27-1.96-3.18-3.16-5.51-3.16h-50.4c-5.1,0-10.25,5.69-11.53,12.69-.97,5.34.6,9.91,3.66,11.78.61.94,5.87,6.21,6.75,6.75,2.49,2.09,3.17,3.16,5.51,3.16h50.4c5.1,0,10.25-5.69,11.53-12.69.97-5.34-.83-8.49-3.66-11.78-.61-.94-5.87-6.21-6.75-6.75Z"/>
        <path d="M375.37,189.89h129.16c.17,0,.32.03.49.03.55,2.5.61,5.37.05,8.42h-107.67c-18.89,0-38.03,21.06-42.73,47.02-3.21,17.69,1.11,33.1,10.16,41.12.71.8,5.96,6.05,6.75,6.75,4.55,5.14,10.63,8.15,17.77,8.15v-.02h176.51l16.05-88.43c3.52-19.45-1.18-36.39-11.06-45.3-.71-.8-5.97-6.05-6.75-6.75-5.02-5.63-11.72-8.93-19.57-8.93h-172.91l-5.25,28.92,9,9ZM432.53,254.35c1.81-9.99,9.19-18.11,16.46-18.11h49.21l-4.94,27.21h-59.84c-.26,0-.5-.03-.75-.05-.64-2.67-.74-5.75-.14-9.05Z"/>
        <path d="M593.98,301.33h68.86l20.23-111.49h54.14c1.38,0,2.69.21,3.91.6,1.83,4.46,2.38,10.14,1.25,16.33l-.03.02-15.52,85.56,9,9h68.86l15.47-85.27c3.73-20.57-1.22-38.5-11.64-47.98-.72-.8-5.97-6.04-6.75-6.75-5.32-5.95-12.42-9.42-20.73-9.42h-170.6l-25.46,140.4,9,9Z"/>
        <path d="M840.01,286.21c.71.8,5.97,6.05,6.75,6.75,4.7,5.3,10.98,8.4,18.35,8.4h156.85l5.25-28.92-.02.02-8.98-9.02-.02.02h-105.25c-1.23,0-2.39-.17-3.49-.49-1.66-4.24-2.15-9.58-1.09-15.39l5.95-32.83c2.49-13.74,12.61-24.88,22.62-24.88h105.25l5.25-28.92-9-9h-156.85c-19.53,0-39.31,21.77-44.17,48.59l-7.83,43.22c-3.31,18.25,1.13,34.14,10.44,42.44Z"/>
        <polygon points="202.17 195.22 208.42 196.66 203.25 205.65 212.25 214.65 214.72 213.03 213.99 224.36 222.99 233.36 231.02 206.49 240.53 214.65 237.34 199.55 257.68 195.22 248.68 186.22 242.42 184.78 247.59 175.78 238.59 166.78 236.1 168.4 236.84 157.06 227.84 148.06 219.82 174.95 210.31 166.78 213.51 181.89 193.17 186.22 202.17 195.22"/>
      </g>
      <g>
        <path class="cls-5" d="M399.13,118.97h152.4c13.76,0,26.65,4.09,37.58,11.74,7.3-7.33,17.37-11.78,28.34-11.78h170.6c18.95,0,36.29,7.57,49.29,21.4,14.58-13.39,32.53-21.38,51.24-21.38h156.85c9.35,0,18.31,3.28,25.41,9.12,10.84-5.85,22.63-9.12,34.73-9.12h134.83c16.03,0,30.88,5.56,42.81,15.85-12.84-14.74-30.46-22.85-49.81-22.85h-134.83c-12.1,0-23.9,3.27-34.73,9.12-7.1-5.84-16.06-9.12-25.41-9.12h-156.85c-18.71,0-36.66,7.99-51.24,21.38-13-13.83-30.34-21.4-49.29-21.4h-170.6c-10.97,0-21.05,4.46-28.34,11.78-10.93-7.65-23.82-11.74-37.58-11.74h-152.4l7,7Z"/>
        <path class="cls-5" d="M47.65,292.24l38.52-212.31c3.45-19.03,20.02-32.86,39.36-32.86h201.67c16.77,0,32.3,5.84,44.76,16.64-13.38-15.25-31.68-23.64-51.76-23.64H118.53c-19.34,0-35.91,13.83-39.36,32.86l-38.52,212.31c-2.12,11.67,1.05,23.67,8.65,32.78,1.85,2.22,3.93,4.21,6.17,5.95-6.99-8.97-9.86-20.5-7.83-31.73Z"/>
        <path class="cls-5" d="M81.95,494.37l25.46-140.4c.97-5.34,2.97-10.26,5.77-14.59l-7-7s-4.43,6.09-5.77,14.59l-25.46,140.4c-2.12,11.67,1.05,23.67,8.65,32.77,1.85,2.22,3.93,4.21,6.17,5.95-6.99-8.97-9.86-20.5-7.83-31.73Z"/>
      </g>
      <g>
        <path class="cls-1" d="M290.7,301.38c22.98,0,46.27-25.61,52.01-57.21l-.02-.02,17.75-97.88c3.87-21.31-1.25-39.88-12.03-49.73-.72-.8-5.97-6.04-6.75-6.75-5.52-6.14-12.86-9.73-21.46-9.73H118.53l-38.52,212.31,9,9h201.69ZM191.14,117.98h92.2c.3,0,.59.04.88.06.68,2.74.79,5.94.17,9.36l-21.34,117.66v-.02c-1.84,10.16-9.34,18.42-16.73,18.42h-81.56l26.39-145.48Z"/>
        <path class="cls-1" d="M1259.6,167.58c-.71-.8-5.97-6.05-6.75-6.75-4.99-5.6-11.65-8.88-19.46-8.88h-134.83c-20.76,0-41.79,23.15-46.97,51.69l-6.72,37.05c-3.51,19.34,1.17,36.2,11.01,45.06.71.8,5.97,6.05,6.75,6.75,4.99,5.6,11.65,8.88,19.46,8.88h172.42l5.25-28.92-9-9h-128.54c-.15,0-.29-.02-.44-.03-.54-2.47-.59-5.31-.04-8.32h141.16l7.7-42.47h.02c3.51-19.34-1.17-36.2-11.01-45.06ZM1193.11,201.65l-2.81,15.56h-61.67l1.19-6.56c2.08-11.48,10.54-20.78,18.88-20.78h42.07c.65,0,1.27.08,1.88.18,1.02,3.31,1.25,7.3.47,11.6Z"/>
        <path class="cls-1" d="M389.86,370.28c-.72-.8-5.97-6.04-6.75-6.75-5.32-5.95-12.42-9.42-20.73-9.42h-222.6l-25.46,140.4,9,9h68.86l20.23-111.49h20.31l-18.6,102.49,9,9h63.11l20.23-111.49h19.1c.38,2.14.38,4.53-.08,7.08l-17.31,95.41,9,9h68.86l15.47-85.27c3.73-20.56-1.21-38.48-11.64-47.96Z"/>
        <path class="cls-1" d="M969.04,354.1h-68.86l-15.55,85.71h.02c-3.7,20.41,1.21,38.19,11.56,47.59.72.8,5.97,6.04,6.75,6.75,5.28,5.91,12.32,9.35,20.57,9.35h29.05l25.46-140.4-9-9Z"/>
        <path class="cls-1" d="M622.85,369.8c-.71-.8-5.97-6.05-6.75-6.75-5.02-5.63-11.72-8.93-19.57-8.93v-.02h-172.91l-5.25,28.92,9,9h129.16c.17,0,.32.03.49.03.55,2.5.61,5.37.05,8.42h-107.67c-18.89,0-38.03,21.06-42.73,47.02-3.21,17.69,1.11,33.1,10.16,41.12.71.8,5.96,6.05,6.75,6.75,4.55,5.14,10.63,8.15,17.77,8.15h176.51l16.05-88.42c3.52-19.45-1.18-36.39-11.06-45.3ZM484.52,456.51c1.81-9.99,9.19-18.11,16.46-18.11h49.21l-4.94,27.21h-59.84c-.26,0-.5-.03-.75-.05-.64-2.67-.74-5.75-.14-9.05Z"/>
        <path class="cls-1" d="M860.01,370.26c-.72-.8-5.97-6.04-6.75-6.75-5.32-5.95-12.42-9.42-20.73-9.42l-.03.02h-170.6l-25.46,140.4,9,9h68.86l20.23-111.49h54.14c1.38,0,2.69.21,3.91.6,1.83,4.46,2.38,10.14,1.25,16.33l-15.52,85.56,9,9h68.86l15.47-85.27c3.73-20.57-1.22-38.5-11.64-47.98Z"/>
        <path class="cls-1" d="M1193.78,369.8c-.71-.8-5.97-6.05-6.75-6.75-5.02-5.63-11.72-8.93-19.57-8.93v-.02h-172.91l-5.25,28.92,9,9h129.16c.17,0,.32.03.49.03.55,2.5.61,5.37.05,8.42h-107.67c-18.89,0-38.03,21.06-42.73,47.02-3.21,17.69,1.11,33.1,10.16,41.12.71.8,5.96,6.05,6.75,6.75,4.55,5.14,10.63,8.15,17.77,8.15h176.51l16.05-88.42c3.52-19.45-1.18-36.39-11.06-45.3ZM1055.47,456.51c1.81-9.99,9.19-18.11,16.46-18.11h49.21l-4.94,27.21h-59.84c-.26,0-.5-.03-.75-.05-.64-2.67-.74-5.75-.14-9.05Z"/>
        <path class="cls-1" d="M972.68,316.76c-1.27-1.96-3.18-3.16-5.51-3.16h-50.4c-5.1,0-10.25,5.69-11.53,12.69-.97,5.34.6,9.91,3.66,11.78.61.94,5.87,6.21,6.75,6.75,2.49,2.09,3.17,3.16,5.51,3.16h50.4c5.1,0,10.25-5.69,11.53-12.69.97-5.34-.83-8.49-3.66-11.78-.61-.94-5.87-6.21-6.75-6.75Z"/>
        <path class="cls-1" d="M375.37,189.89h129.16c.17,0,.32.03.49.03.55,2.5.61,5.37.05,8.42h-107.67c-18.89,0-38.03,21.06-42.73,47.02-3.21,17.69,1.11,33.1,10.16,41.12.71.8,5.96,6.05,6.75,6.75,4.55,5.14,10.63,8.15,17.77,8.15v-.02h176.51l16.05-88.43c3.52-19.45-1.18-36.39-11.06-45.3-.71-.8-5.97-6.05-6.75-6.75-5.02-5.63-11.72-8.93-19.57-8.93h-172.91l-5.25,28.92,9,9ZM432.53,254.35c1.81-9.99,9.19-18.11,16.46-18.11h49.21l-4.94,27.21h-59.84c-.26,0-.5-.03-.75-.05-.64-2.67-.74-5.75-.14-9.05Z"/>
        <path class="cls-1" d="M593.98,301.33h68.86l20.23-111.49h54.14c1.38,0,2.69.21,3.91.6,1.83,4.46,2.38,10.14,1.25,16.33l-.03.02-15.52,85.56,9,9h68.86l15.47-85.27c3.73-20.57-1.22-38.5-11.64-47.98-.72-.8-5.97-6.04-6.75-6.75-5.32-5.95-12.42-9.42-20.73-9.42h-170.6l-25.46,140.4,9,9Z"/>
        <path class="cls-1" d="M840.01,286.21c.71.8,5.97,6.05,6.75,6.75,4.7,5.3,10.98,8.4,18.35,8.4h156.85l5.25-28.92-.02.02-8.98-9.02-.02.02h-105.25c-1.23,0-2.39-.17-3.49-.49-1.66-4.24-2.15-9.58-1.09-15.39l5.95-32.83c2.49-13.74,12.61-24.88,22.62-24.88h105.25l5.25-28.92-9-9h-156.85c-19.53,0-39.31,21.77-44.17,48.59l-7.83,43.22c-3.31,18.25,1.13,34.14,10.44,42.44Z"/>
        <polygon class="cls-1" points="202.17 195.22 208.42 196.66 203.25 205.65 212.25 214.65 214.72 213.03 213.99 224.36 222.99 233.36 231.02 206.49 240.53 214.65 237.34 199.55 257.68 195.22 248.68 186.22 242.42 184.78 247.59 175.78 238.59 166.78 236.1 168.4 236.84 157.06 227.84 148.06 219.82 174.95 210.31 166.78 213.51 181.89 193.17 186.22 202.17 195.22"/>
      </g>
      <g>
        <path class="cls-4" d="M333.71,235.17l-.02-.02,17.75-97.88c5.73-31.59-8.26-57.21-31.24-57.21H118.53l-38.52,212.31h201.69c22.98,0,46.27-25.61,52.01-57.21ZM246.32,263.46h-92.2l28.02-154.48h92.2c7.39,0,11.91,8.24,10.05,18.42l-21.34,117.66v-.02c-1.84,10.16-9.34,18.42-16.73,18.42Z"/>
        <path class="cls-4" d="M380.35,292.4v-.02h176.51l16.05-88.43c5.2-28.71-7.5-51.98-28.38-51.98h-172.91l-5.25,28.92h129.16c7.01,0,11.29,7.82,9.54,17.46h-107.67c-18.89,0-38.03,21.06-42.73,47.02-4.72,25.97,6.78,47.03,25.68,47.03ZM423.53,245.35c1.81-9.99,9.19-18.11,16.46-18.11h59.84l-6.57,36.21h-59.84c-7.27,0-11.7-8.11-9.89-18.11Z"/>
        <path class="cls-4" d="M674.08,180.85h54.14c10.42,0,16.76,11.6,14.16,25.93l-.03.02-15.52,85.56h68.86l15.47-85.27c5.52-30.46-7.96-55.16-30.12-55.16h-170.6l-25.46,140.4h68.86l20.23-111.49Z"/>
        <path class="cls-4" d="M856.11,292.36h156.85l5.25-28.92-.02.02h-105.25c-9.99,0-16.08-11.14-13.58-24.88l5.95-32.83c2.49-13.74,12.61-24.88,22.62-24.88h105.25l5.25-28.92h-156.85c-19.53,0-39.31,21.77-44.17,48.59l-7.83,43.22c-4.87,26.85,7.01,48.59,26.54,48.59Z"/>
        <path class="cls-4" d="M1233.39,151.95h-134.83c-20.76,0-41.79,23.15-46.97,51.69l-6.72,37.05c-5.17,28.54,7.45,51.69,28.22,51.69h172.42l5.25-28.92h-128.54c-6.97,0-11.21-7.78-9.48-17.35h141.16l7.7-42.47h.02c5.17-28.54-7.45-51.69-28.22-51.69ZM1193.11,201.65l-2.81,15.56h-72.3l2.81-15.56c2.08-11.48,10.54-20.78,18.88-20.78h42.07c8.35,0,13.43,9.3,11.35,20.78Z"/>
        <path class="cls-4" d="M362.38,354.1h-222.6l-25.46,140.4h68.86l20.23-111.49h30.94l-20.23,111.49h63.11l20.23-111.49h19.24c6.46,0,10.39,7.19,8.78,16.08l-17.31,95.41h68.86l15.47-85.27c5.52-30.44-7.96-55.14-30.12-55.14Z"/>
        <path class="cls-4" d="M884.64,439.81h.02c-5.48,30.21,7.89,54.7,29.88,54.7h29.05l25.46-140.4h-68.86l-15.55,85.71Z"/>
        <path class="cls-4" d="M967.17,313.6h-50.4c-5.1,0-10.25,5.69-11.53,12.69-1.28,7,1.83,12.69,6.92,12.69h50.4c5.1,0,10.25-5.69,11.53-12.69,1.28-7-1.83-12.69-6.92-12.69Z"/>
        <path class="cls-4" d="M596.53,354.13v-.02h-172.91l-5.25,28.92h129.16c7.01,0,11.29,7.82,9.54,17.46h-107.67c-18.89,0-38.03,21.06-42.73,47.02-4.72,25.97,6.78,47.02,25.68,47.02h176.51l16.05-88.42c5.2-28.71-7.5-51.98-28.38-51.98ZM545.25,465.61h-59.84c-7.27,0-11.7-8.11-9.89-18.11,1.81-9.99,9.19-18.11,16.46-18.11h59.84l-6.57,36.21Z"/>
        <path class="cls-4" d="M832.53,354.08l-.03.02h-170.6l-25.46,140.4h68.86l20.23-111.49h54.14c10.42,0,16.76,11.6,14.16,25.93l-15.52,85.56h68.86l15.47-85.27c5.52-30.46-7.96-55.16-30.12-55.16Z"/>
        <path class="cls-4" d="M1167.46,354.13v-.02h-172.91l-5.25,28.92h129.16c7.01,0,11.29,7.82,9.54,17.46h-107.67c-18.89,0-38.03,21.06-42.73,47.02-4.72,25.97,6.78,47.02,25.68,47.02h176.51l16.05-88.42c5.2-28.71-7.5-51.98-28.38-51.98ZM1116.2,465.61h-59.84c-7.27,0-11.7-8.11-9.89-18.11,1.81-9.99,9.19-18.11,16.46-18.11h59.84l-6.57,36.21Z"/>
        <polygon class="cls-4" points="238.59 166.78 226.1 174.95 227.84 148.06 219.82 174.95 210.31 166.78 213.51 181.89 193.17 186.22 211.94 190.55 203.25 205.65 215.73 197.49 213.99 224.36 222.02 197.49 231.53 205.65 228.34 190.55 248.68 186.22 229.9 181.89 238.59 166.78"/>
      </g>
      <path class="cls-1" d="M928.2,602.58c-12.69-16.79-30.72-26.04-50.77-26.04h-154.6c-16.8,0-32.6,6.4-47.11,18.99-11.97-12.14-27.1-18.7-43.67-18.7h-188.15c-19.5,0-36.15,14.05-39.43,33.27l-4.82,28.27c-1.98,11.62,1.26,23.52,8.86,32.52,3.19,3.78,7.01,6.89,11.24,9.22-4.04,2.99-8.1,6.55-12.11,10.78-13.72,14.47-22.46,32.58-25.98,53.83l-12.69,73.47c-2.01,11.62,1.21,23.53,8.8,32.55,7.59,9.02,18.77,14.24,30.56,14.26,0,0,222.17.29,222.19.29,9.34,0,18.03-3.23,24.91-8.71,9.47,5.7,20.15,8.71,31.45,8.71h154.6c14.07,0,35.11-4.77,55.4-27.51,13.44-15.06,21.93-32.55,25.25-51.91l20.36-117.86c1-5.45,1.5-10.88,1.5-16.16,0-18.86-5.3-35.44-15.76-49.29Z"/>
      <path class="cls-3" d="M421.1,751.4c2.19-13.35,7.38-24.34,15.57-32.98,8.19-8.64,16.88-12.96,26.09-12.96h102.84c4.82,0,9.24-2.23,13.27-6.69,4.02-4.46,6.61-10.06,7.79-16.8l2.41-13.97c.29-1.98.44-3.97.44-5.95,0-11.3-4.53-16.95-13.6-16.95h-136.83l4.82-28.27h188.15c7.46,0,13.85,3.89,19.19,11.66,5.33,7.78,8,16.58,8,26.42,0,2.56-.22,5.02-.66,7.38l-3.95,24.5c-2.05,12.4-7.46,23.17-16.23,32.33-8.77,9.15-17.54,13.72-26.31,13.72h-102.84c-4.82,0-9.25,2.26-13.27,6.77-4.02,4.52-6.54,10.01-7.57,16.49l-7.02,41.52h153.94l-4.82,27.68-222.14-.29,12.72-73.61Z"/>
      <path class="cls-3" d="M882.69,779.08c-2.05,11.98-7.27,22.67-15.68,32.1-8.41,9.42-16.92,14.13-25.55,14.13h-154.6c-7.46,0-13.85-3.63-19.19-10.9-5.34-7.26-8-16-8-26.21,0-3.14.29-6.18.88-9.13l20.17-116.6c2.04-11.97,7.46-22.62,16.23-31.95,8.77-9.32,17.4-13.99,25.88-13.99h154.6c7.46,0,13.74,3.39,18.86,10.16,5.12,6.77,7.68,15.16,7.68,25.18,0,2.94-.29,5.99-.88,9.13l-20.39,118.08ZM756.38,649.96c-3.95,4.03-6.51,9.47-7.67,16.34l-18.64,108.36c-.29,1.77-.44,3.53-.44,5.3,0,5.3,1.28,9.62,3.84,12.96,2.56,3.34,5.74,5.01,9.54,5.01h51.53c4.68,0,8.95-2.21,12.83-6.63,3.87-4.42,6.32-9.47,7.35-15.16l19.08-111.01c.29-1.57.44-3.14.44-4.71,0-4.71-1.24-8.64-3.73-11.78-2.49-3.14-5.63-4.71-9.43-4.71h-51.75c-4.68,0-8.99,2.02-12.94,6.04Z"/>
    </g>
  </g>
</svg>