<?xml version="1.0" encoding="UTF-8"?>
<svg id="Layer_2" data-name="Layer 2" xmlns="http://www.w3.org/2000/svg" viewBox="0 0 1382.14 947.26">
  <defs>
    <style>
      .cls-1 {
        fill: #fffe00;
      }

      .cls-2 {
        fill: #170c44;
      }

      .cls-3 {
        fill: #f8c806;
      }

      .cls-4 {
        fill: #fff;
      }

      .cls-5 {
        fill: #f70001;
      }
    </style>
  </defs>
  <g id="Layer_1-2" data-name="Layer 1">
    <g>
      <path class="cls-2" d="M1354.9,150.25c-13.96-15.33-29.06-29.43-43.61-44.11-20.35-22.12-47.8-34.23-77.9-34.23h-134.83c-11.03,0-21.9,1.66-32.5,4.95-8.8-3.24-18.17-4.95-27.64-4.95h-156.85c-17.26,0-34.42,4.29-50.29,12.37-15.27-8.11-32.38-12.4-50.24-12.4h-170.6c-10.68,0-21.03,2.08-30.61,6.04-23.38-10.75-116.7-4.41-142.79-6C401.7,37.52,374.82-.96,320.2.02c0,0-201.67,0-201.67,0C79.82.02,46.72,27.66,39.81,65.74L1.29,278.05c-4.25,23.4,2.06,47.3,17.3,65.55,11.36,12.3,23.53,23.77,35.31,35.61,0,0-18.31,100.98-18.31,100.98-4.24,23.4,2.07,47.29,17.31,65.55,11.27,12.14,23.23,23.57,34.96,35.21,38.44,46.54,82.78,30.97,135.31,33.51,41.84,0,98.57,0,140.31,0-4.59,21.56-7.42,45.67,2.82,65.83-25.26,30.25-28.85,95.38-36.75,133.05-5.92,30.85,8.85,60.6,32.36,80.09,25.53,25.43,46.58,54.22,86.39,53.53q429.69.3,429.72.3c38.97,0,72.12-27.87,78.81-66.26,4.93-25.15,10.85-53.54-2.39-77.13,22.15-31.89,23.49-42.56,30.52-86.21,6.35-36.71-4.18-75.31-28.57-103.19,16.4-.19,39.7,1.61,54.97-4.99,17.45,9.59,186.04,3.35,208.43,5.01,86.96-2.81,80.85-92.07,94.76-154.16,3.33-18.34,3.22-36.46-.08-53.41,43.3-16.82,51.2-55.88,56.07-97.98,13.13-54.88,22.79-114.42-15.66-158.69Z"/>
      <path class="cls-1" d="M1314.9,110.25c-20.65-24.73-49.59-38.34-81.51-38.34h-134.83c-11.03,0-21.9,1.66-32.5,4.95-8.8-3.24-18.17-4.95-27.64-4.95h-156.85c-17.26,0-34.42,4.29-50.29,12.37-15.27-8.11-32.38-12.4-50.24-12.4h-170.6c-10.68,0-21.03,2.08-30.61,6.04-11.22-3.96-23.12-6-35.31-6h-121.37c-4.76-11.93-11.23-22.89-19.27-32.51C382.67,14.01,352.96.02,320.2.02H118.53C79.82.02,46.72,27.66,39.81,65.74L1.29,278.05c-4.25,23.4,2.06,47.3,17.3,65.55,9.92,11.88,22.85,20.46,37.23,25.01l-20.24,111.58c-4.24,23.4,2.07,47.29,17.31,65.55,15.24,18.26,37.62,28.73,61.41,28.73h262.72c.08,0,.16,0,.24,0-6.03,9.08-10.29,19.51-12.22,30.87l-4.82,28.27c-2.74,16.03-.53,32.26,6.08,46.7-12.27,17.29-20.35,37.29-24.08,59.71l-12.67,73.34c-4.02,23.29,2.39,47.02,17.6,65.1,15.21,18.09,37.48,28.48,61.15,28.52q429.69.29,429.72.29c38.97,0,72.12-27.87,78.81-66.26l4.82-27.68c2.97-17.04.35-34.31-7.21-49.45,13.88-18.2,22.82-39.01,26.63-62.06,0,0,.53-3.32,3.89-24.15,1.19-6.77,1.79-13.77,1.79-20.79,0-26.25-7.42-50.37-22.05-71.7-2.59-3.78-5.37-7.35-8.3-10.71h27.19c9.55,0,18.95-1.71,27.78-4.99,10.22,3.3,20.98,5.01,31.92,5.01h176.51c38.7,0,71.8-27.64,78.71-65.71l16.05-88.44c3.32-18.34,3.22-36.46-.08-53.41,25.31-9.83,44.64-32.23,49.73-60.3l5.25-28.92c.53-2.9.89-5.82,1.09-8.76.84-2.83,1.53-5.71,2.06-8.61l7.43-40.98c.1-.5.2-1,.29-1.49,7.3-40.29-1.97-79.51-25.43-107.61Z"/>
      <path class="cls-2" d="M891.72,607.8c-12.85-18.72-31.38-29.02-52.16-29.02h-168.15c-10,0-19.25,3.71-26.34,9.91-9.82-6.48-21.04-9.91-33.02-9.91h-168.15c-19.49,0-36.15,14.05-39.43,33.27l-4.82,28.27c-1.98,11.62,1.26,23.52,8.86,32.52,3.19,3.78,7.01,6.89,11.24,9.22-4.04,2.99-8.1,6.55-12.11,10.78-13.72,14.47-22.46,32.58-25.98,53.83l-12.69,73.46c-2.01,11.62,1.21,23.53,8.8,32.55,7.59,9.02,18.77,14.24,30.56,14.26,0,0,429.68.29,429.7.29,19.44,0,36.07-13.98,39.4-33.13l4.82-27.68c2.03-11.63-1.19-23.57-8.79-32.61-4.15-4.94-9.38-8.74-15.2-11.17,5.43-3.57,10.99-8.13,16.53-13.92,14.41-15.04,23.43-33.03,26.81-53.48,0-.05,3.91-24.28,3.91-24.28.82-4.58,1.23-9.33,1.23-14.13,0-18.02-5.05-34.52-15.03-49.06Z"/>
      <path class="cls-3" d="M1284.2,135.89c-12.92-15.47-30.96-23.98-50.8-23.98h-134.83c-12.1,0-23.9,3.27-34.73,9.12-7.1-5.84-16.06-9.12-25.41-9.12h-156.85c-18.71,0-36.66,7.99-51.24,21.38-13-13.83-30.34-21.4-49.29-21.4h-170.6c-10.97,0-21.05,4.46-28.34,11.78-10.93-7.65-23.82-11.74-37.58-11.74h-152.4c-1.91-17.94-8.36-34.19-18.95-46.88-13.47-16.14-32.29-25.03-52.97-25.03H118.53c-19.34,0-35.91,13.83-39.36,32.86l-38.52,212.31c-2.12,11.67,1.05,23.67,8.65,32.78,7.6,9.1,18.85,14.36,30.71,14.36h26.17c-2.8,4.33-4.8,9.25-5.77,14.59l-25.46,140.4c-2.12,11.67,1.05,23.67,8.65,32.77,7.6,9.1,18.85,14.36,30.7,14.36h68.86c5.46,0,10.69-1.1,15.48-3.11,4.84,2.03,10.09,3.11,15.46,3.11h63.11c5.46,0,10.69-1.1,15.48-3.11,4.84,2.03,10.09,3.11,15.46,3.11h68.86c9,0,17.41-3,24.16-8.13,9.37,5.32,19.96,8.15,31.16,8.15h176.51c4.84,0,9.51-.87,13.84-2.47,4.35,1.59,8.99,2.45,13.73,2.45h68.86c16.05,0,30.19-9.53,36.51-23.65,1.48,3.31,3.43,6.44,5.8,9.29,7.6,9.1,18.85,14.36,30.7,14.36h68.86c11.16,0,21.4-4.62,28.73-12.18,11.21,7.93,24.47,12.18,38.62,12.18h29.05c9.85,0,18.97-3.59,26.02-9.63,9.96,6.29,21.46,9.65,33.68,9.65h176.51c19.34,0,35.9-13.83,39.36-32.86l16.05-88.43c5.2-28.69-.93-56.05-16.81-75.07-1.72-2.06-3.53-3.98-5.43-5.79h32.54c19.34,0,35.9-13.83,39.36-32.86l5.25-28.92c.53-2.94.73-5.91.61-8.85,1.14-2.69,2-5.54,2.54-8.52l7.51-41.41c.07-.35.14-.71.21-1.06,5.18-28.59-.93-55.87-16.77-74.84Z"/>
      <path class="cls-5" d="M1284.2,135.89c-12.92-15.47-30.96-23.98-50.8-23.98h-134.83c-12.1,0-23.9,3.27-34.73,9.12-7.1-5.84-16.06-9.12-25.41-9.12h-156.85c-18.71,0-36.66,7.99-51.24,21.38-13-13.83-30.34-21.4-49.29-21.4h-170.6c-10.97,0-21.05,4.46-28.34,11.78-10.93-7.65-23.82-11.74-37.58-11.74h-152.4c-1.91-17.94-8.36-34.19-18.95-46.88-13.47-16.14-32.29-25.03-52.97-25.03H118.53c-19.34,0-35.91,13.83-39.36,32.86l-38.52,212.31c-2.12,11.67,1.05,23.67,8.65,32.78,7.6,9.1,18.85,14.36,30.71,14.36h26.17c-2.8,4.33-4.8,9.25-5.77,14.59l-25.46,140.4c-2.12,11.67,1.05,23.67,8.65,32.77,7.6,9.1,18.85,14.36,30.7,14.36h262.72c9,0,17.41-3,24.16-8.13,9.37,5.32,19.96,8.15,31.16,8.15h176.51c4.84,0,9.51-.87,13.84-2.47,4.35,1.59,8.99,2.45,13.73,2.45h68.86c16.05,0,30.19-9.53,36.51-23.65,1.48,3.31,3.43,6.44,5.8,9.29,7.6,9.1,18.85,14.36,30.7,14.36h68.86c11.16,0,21.4-4.62,28.73-12.18,11.21,7.93,24.47,12.18,38.62,12.18h29.05c9.85,0,18.97-3.59,26.02-9.63,9.96,6.29,21.46,9.65,33.68,9.65h176.51c19.34,0,35.9-13.83,39.36-32.86l16.05-88.43c5.2-28.69-.93-56.05-16.81-75.07-1.72-2.06-3.53-3.98-5.43-5.79h32.54c19.34,0,35.9-13.83,39.36-32.86l5.25-28.92c.53-2.94.73-5.91.61-8.85,1.14-2.69,2-5.54,2.54-8.52l7.51-41.41c.07-.35.14-.71.21-1.06,5.18-28.59-.93-55.87-16.77-74.84Z"/>
      <g>
        <path d="M290.7,301.33c22.98,0,46.27-25.61,52.01-57.21l-.02-.02,17.75-97.88c3.87-21.31-1.25-39.88-12.03-49.73-.72-.8-5.97-6.04-6.75-6.75-5.52-6.14-12.86-9.73-21.46-9.73H118.53l-38.52,212.31,9,9h201.69ZM191.14,117.93h92.2c.3,0,.59.04.88.06.68,2.74.79,5.94.17,9.36l-21.34,117.66v-.02c-1.84,10.16-9.34,18.42-16.73,18.42h-81.56l26.39-145.48Z"/>
        <path d="M1259.6,167.53c-.71-.8-5.97-6.05-6.75-6.75-4.99-5.6-11.65-8.88-19.46-8.88h-134.83c-20.76,0-41.79,23.15-46.97,51.69l-6.72,37.05c-3.51,19.34,1.17,36.2,11.01,45.06.71.8,5.97,6.05,6.75,6.75,4.99,5.6,11.65,8.88,19.46,8.88h172.42l5.25-28.92-9-9h-128.54c-.15,0-.29-.02-.44-.03-.54-2.47-.59-5.31-.04-8.32h141.16l7.7-42.47h.02c3.51-19.34-1.17-36.2-11.01-45.06ZM1193.11,201.61l-2.81,15.56h-61.67l1.19-6.56c2.08-11.48,10.54-20.78,18.88-20.78h42.07c.65,0,1.27.08,1.88.18,1.02,3.31,1.25,7.3.47,11.6Z"/>
        <path d="M389.86,370.23c-.72-.8-5.97-6.04-6.75-6.75-5.32-5.95-12.42-9.42-20.73-9.42h-222.6l-25.46,140.4,9,9h68.86l20.23-111.49h20.31l-18.6,102.49,9,9h63.11l20.23-111.49h19.1c.38,2.14.38,4.53-.08,7.08l-17.31,95.41,9,9h68.86l15.47-85.27c3.73-20.56-1.21-38.48-11.64-47.96Z"/>
        <path d="M969.04,354.06h-68.86l-15.55,85.71h.02c-3.7,20.41,1.21,38.19,11.56,47.59.72.8,5.97,6.04,6.75,6.75,5.28,5.91,12.32,9.35,20.57,9.35h29.05l25.46-140.4-9-9Z"/>
        <path d="M622.85,369.75c-.71-.8-5.97-6.05-6.75-6.75-5.02-5.63-11.72-8.93-19.57-8.93v-.02h-172.91l-5.25,28.92,9,9h129.16c.17,0,.32.03.49.03.55,2.5.61,5.37.05,8.42h-107.67c-18.89,0-38.03,21.06-42.73,47.02-3.21,17.69,1.11,33.1,10.16,41.12.71.8,5.96,6.05,6.75,6.75,4.55,5.14,10.63,8.15,17.77,8.15h176.51l16.05-88.42c3.52-19.45-1.18-36.39-11.06-45.3ZM484.52,456.46c1.81-9.99,9.19-18.11,16.46-18.11h49.21l-4.94,27.21h-59.84c-.26,0-.5-.03-.75-.05-.64-2.67-.74-5.75-.14-9.05Z"/>
        <path d="M860.01,370.21c-.72-.8-5.97-6.04-6.75-6.75-5.32-5.95-12.42-9.42-20.73-9.42l-.03.02h-170.6l-25.46,140.4,9,9h68.86l20.23-111.49h54.14c1.38,0,2.69.21,3.91.6,1.83,4.46,2.38,10.14,1.25,16.33l-15.52,85.56,9,9h68.86l15.47-85.27c3.73-20.57-1.22-38.5-11.64-47.98Z"/>
        <path d="M1193.78,369.75c-.71-.8-5.97-6.05-6.75-6.75-5.02-5.63-11.72-8.93-19.57-8.93v-.02h-172.91l-5.25,28.92,9,9h129.16c.17,0,.32.03.49.03.55,2.5.61,5.37.05,8.42h-107.67c-18.89,0-38.03,21.06-42.73,47.02-3.21,17.69,1.11,33.1,10.16,41.12.71.8,5.96,6.05,6.75,6.75,4.55,5.14,10.63,8.15,17.77,8.15h176.51l16.05-88.42c3.52-19.45-1.18-36.39-11.06-45.3ZM1055.47,456.46c1.81-9.99,9.19-18.11,16.46-18.11h49.21l-4.94,27.21h-59.84c-.26,0-.5-.03-.75-.05-.64-2.67-.74-5.75-.14-9.05Z"/>
        <path d="M972.68,316.72c-1.27-1.96-3.18-3.16-5.51-3.16h-50.4c-5.1,0-10.25,5.69-11.53,12.69-.97,5.34.6,9.91,3.66,11.78.61.94,5.87,6.21,6.75,6.75,2.49,2.09,3.17,3.16,5.51,3.16h50.4c5.1,0,10.25-5.69,11.53-12.69.97-5.34-.83-8.49-3.66-11.78-.61-.94-5.87-6.21-6.75-6.75Z"/>
        <path d="M375.37,189.84h129.16c.17,0,.32.03.49.03.55,2.5.61,5.37.05,8.42h-107.67c-18.89,0-38.03,21.06-42.73,47.02-3.21,17.69,1.11,33.1,10.16,41.12.71.8,5.96,6.05,6.75,6.75,4.55,5.14,10.63,8.15,17.77,8.15v-.02h176.51l16.05-88.43c3.52-19.45-1.18-36.39-11.06-45.3-.71-.8-5.97-6.05-6.75-6.75-5.02-5.63-11.72-8.93-19.57-8.93h-172.91l-5.25,28.92,9,9ZM432.53,254.3c1.81-9.99,9.19-18.11,16.46-18.11h49.21l-4.94,27.21h-59.84c-.26,0-.5-.03-.75-.05-.64-2.67-.74-5.75-.14-9.05Z"/>
        <path d="M593.98,301.28h68.86l20.23-111.49h54.14c1.38,0,2.69.21,3.91.6,1.83,4.46,2.38,10.14,1.25,16.33l-.03.02-15.52,85.56,9,9h68.86l15.47-85.27c3.73-20.57-1.22-38.5-11.64-47.98-.72-.8-5.97-6.04-6.75-6.75-5.32-5.95-12.42-9.42-20.73-9.42h-170.6l-25.46,140.4,9,9Z"/>
        <path d="M840.01,286.16c.71.8,5.97,6.05,6.75,6.75,4.7,5.3,10.98,8.4,18.35,8.4h156.85l5.25-28.92-.02.02-8.98-9.02-.02.02h-105.25c-1.23,0-2.39-.17-3.49-.49-1.66-4.24-2.15-9.58-1.09-15.39l5.95-32.83c2.49-13.74,12.61-24.88,22.62-24.88h105.25l5.25-28.92-9-9h-156.85c-19.53,0-39.31,21.77-44.17,48.59l-7.83,43.22c-3.31,18.25,1.13,34.14,10.44,42.44Z"/>
        <polygon points="202.17 195.17 208.42 196.61 203.25 205.6 212.25 214.6 214.72 212.98 213.99 224.31 222.99 233.31 231.02 206.44 240.53 214.6 237.34 199.5 257.68 195.17 248.68 186.17 242.42 184.73 247.59 175.73 238.59 166.73 236.1 168.35 236.84 157.01 227.84 148.01 219.82 174.9 210.31 166.73 213.51 181.84 193.17 186.17 202.17 195.17"/>
      </g>
      <g>
        <path class="cls-2" d="M399.13,118.92h152.4c13.76,0,26.65,4.09,37.58,11.74,7.3-7.33,17.37-11.78,28.34-11.78h170.6c18.95,0,36.29,7.57,49.29,21.4,14.58-13.39,32.53-21.38,51.24-21.38h156.85c9.35,0,18.31,3.28,25.41,9.12,10.84-5.85,22.63-9.12,34.73-9.12h134.83c16.03,0,30.88,5.56,42.81,15.85-12.84-14.74-30.46-22.85-49.81-22.85h-134.83c-12.1,0-23.9,3.27-34.73,9.12-7.1-5.84-16.06-9.12-25.41-9.12h-156.85c-18.71,0-36.66,7.99-51.24,21.38-13-13.83-30.34-21.4-49.29-21.4h-170.6c-10.97,0-21.05,4.46-28.34,11.78-10.93-7.65-23.82-11.74-37.58-11.74h-152.4l7,7Z"/>
        <path class="cls-2" d="M47.65,292.19l38.52-212.31c3.45-19.03,20.02-32.86,39.36-32.86h201.67c16.77,0,32.3,5.84,44.76,16.64-13.38-15.25-31.68-23.64-51.76-23.64H118.53c-19.34,0-35.91,13.83-39.36,32.86l-38.52,212.31c-2.12,11.67,1.05,23.67,8.65,32.78,1.85,2.22,3.93,4.21,6.17,5.95-6.99-8.97-9.86-20.5-7.83-31.73Z"/>
        <path class="cls-2" d="M748.81,517.81l-7-7c1.39,3.46,6,11.24,12,15.26-2.01-2.57-3.69-5.34-5-8.26Z"/>
        <path class="cls-2" d="M81.95,494.32l25.46-140.4c.97-5.34,2.97-10.26,5.77-14.59l-7-7s-4.43,6.09-5.77,14.59l-25.46,140.4c-2.12,11.67,1.05,23.67,8.65,32.77,1.85,2.22,3.93,4.21,6.17,5.95-6.99-8.97-9.86-20.5-7.83-31.73Z"/>
      </g>
      <g>
        <path class="cls-2" d="M290.7,301.33c22.98,0,46.27-25.61,52.01-57.21l-.02-.02,17.75-97.88c3.87-21.31-1.25-39.88-12.03-49.73-.72-.8-5.97-6.04-6.75-6.75-5.52-6.14-12.86-9.73-21.46-9.73H118.53l-38.52,212.31,9,9h201.69ZM191.14,117.93h92.2c.3,0,.59.04.88.06.68,2.74.79,5.94.17,9.36l-21.34,117.66v-.02c-1.84,10.16-9.34,18.42-16.73,18.42h-81.56l26.39-145.48Z"/>
        <path class="cls-2" d="M1259.6,167.53c-.71-.8-5.97-6.05-6.75-6.75-4.99-5.6-11.65-8.88-19.46-8.88h-134.83c-20.76,0-41.79,23.15-46.97,51.69l-6.72,37.05c-3.51,19.34,1.17,36.2,11.01,45.06.71.8,5.97,6.05,6.75,6.75,4.99,5.6,11.65,8.88,19.46,8.88h172.42l5.25-28.92-9-9h-128.54c-.15,0-.29-.02-.44-.03-.54-2.47-.59-5.31-.04-8.32h141.16l7.7-42.47h.02c3.51-19.34-1.17-36.2-11.01-45.06ZM1193.11,201.61l-2.81,15.56h-61.67l1.19-6.56c2.08-11.48,10.54-20.78,18.88-20.78h42.07c.65,0,1.27.08,1.88.18,1.02,3.31,1.25,7.3.47,11.6Z"/>
        <path class="cls-2" d="M389.86,370.23c-.72-.8-5.97-6.04-6.75-6.75-5.32-5.95-12.42-9.42-20.73-9.42h-222.6l-25.46,140.4,9,9h68.86l20.23-111.49h20.31l-18.6,102.49,9,9h63.11l20.23-111.49h19.1c.38,2.14.38,4.53-.08,7.08l-17.31,95.41,9,9h68.86l15.47-85.27c3.73-20.56-1.21-38.48-11.64-47.96Z"/>
        <path class="cls-2" d="M969.04,354.06h-68.86l-15.55,85.71h.02c-3.7,20.41,1.21,38.19,11.56,47.59.72.8,5.97,6.04,6.75,6.75,5.28,5.91,12.32,9.35,20.57,9.35h29.05l25.46-140.4-9-9Z"/>
        <path class="cls-2" d="M622.85,369.75c-.71-.8-5.97-6.05-6.75-6.75-5.02-5.63-11.72-8.93-19.57-8.93v-.02h-172.91l-5.25,28.92,9,9h129.16c.17,0,.32.03.49.03.55,2.5.61,5.37.05,8.42h-107.67c-18.89,0-38.03,21.06-42.73,47.02-3.21,17.69,1.11,33.1,10.16,41.12.71.8,5.96,6.05,6.75,6.75,4.55,5.14,10.63,8.15,17.77,8.15h176.51l16.05-88.42c3.52-19.45-1.18-36.39-11.06-45.3ZM484.52,456.46c1.81-9.99,9.19-18.11,16.46-18.11h49.21l-4.94,27.21h-59.84c-.26,0-.5-.03-.75-.05-.64-2.67-.74-5.75-.14-9.05Z"/>
        <path class="cls-2" d="M860.01,370.21c-.72-.8-5.97-6.04-6.75-6.75-5.32-5.95-12.42-9.42-20.73-9.42l-.03.02h-170.6l-25.46,140.4,9,9h68.86l20.23-111.49h54.14c1.38,0,2.69.21,3.91.6,1.83,4.46,2.38,10.14,1.25,16.33l-15.52,85.56,9,9h68.86l15.47-85.27c3.73-20.57-1.22-38.5-11.64-47.98Z"/>
        <path class="cls-2" d="M1193.78,369.75c-.71-.8-5.97-6.05-6.75-6.75-5.02-5.63-11.72-8.93-19.57-8.93v-.02h-172.91l-5.25,28.92,9,9h129.16c.17,0,.32.03.49.03.55,2.5.61,5.37.05,8.42h-107.67c-18.89,0-38.03,21.06-42.73,47.02-3.21,17.69,1.11,33.1,10.16,41.12.71.8,5.96,6.05,6.75,6.75,4.55,5.14,10.63,8.15,17.77,8.15h176.51l16.05-88.42c3.52-19.45-1.18-36.39-11.06-45.3ZM1055.47,456.46c1.81-9.99,9.19-18.11,16.46-18.11h49.21l-4.94,27.21h-59.84c-.26,0-.5-.03-.75-.05-.64-2.67-.74-5.75-.14-9.05Z"/>
        <path class="cls-2" d="M972.68,316.72c-1.27-1.96-3.18-3.16-5.51-3.16h-50.4c-5.1,0-10.25,5.69-11.53,12.69-.97,5.34.6,9.91,3.66,11.78.61.94,5.87,6.21,6.75,6.75,2.49,2.09,3.17,3.16,5.51,3.16h50.4c5.1,0,10.25-5.69,11.53-12.69.97-5.34-.83-8.49-3.66-11.78-.61-.94-5.87-6.21-6.75-6.75Z"/>
        <path class="cls-2" d="M375.37,189.84h129.16c.17,0,.32.03.49.03.55,2.5.61,5.37.05,8.42h-107.67c-18.89,0-38.03,21.06-42.73,47.02-3.21,17.69,1.11,33.1,10.16,41.12.71.8,5.96,6.05,6.75,6.75,4.55,5.14,10.63,8.15,17.77,8.15v-.02h176.51l16.05-88.43c3.52-19.45-1.18-36.39-11.06-45.3-.71-.8-5.97-6.05-6.75-6.75-5.02-5.63-11.72-8.93-19.57-8.93h-172.91l-5.25,28.92,9,9ZM432.53,254.3c1.81-9.99,9.19-18.11,16.46-18.11h49.21l-4.94,27.21h-59.84c-.26,0-.5-.03-.75-.05-.64-2.67-.74-5.75-.14-9.05Z"/>
        <path class="cls-2" d="M593.98,301.28h68.86l20.23-111.49h54.14c1.38,0,2.69.21,3.91.6,1.83,4.46,2.38,10.14,1.25,16.33l-.03.02-15.52,85.56,9,9h68.86l15.47-85.27c3.73-20.57-1.22-38.5-11.64-47.98-.72-.8-5.97-6.04-6.75-6.75-5.32-5.95-12.42-9.42-20.73-9.42h-170.6l-25.46,140.4,9,9Z"/>
        <path class="cls-2" d="M840.01,286.16c.71.8,5.97,6.05,6.75,6.75,4.7,5.3,10.98,8.4,18.35,8.4h156.85l5.25-28.92-.02.02-8.98-9.02-.02.02h-105.25c-1.23,0-2.39-.17-3.49-.49-1.66-4.24-2.15-9.58-1.09-15.39l5.95-32.83c2.49-13.74,12.61-24.88,22.62-24.88h105.25l5.25-28.92-9-9h-156.85c-19.53,0-39.31,21.77-44.17,48.59l-7.83,43.22c-3.31,18.25,1.13,34.14,10.44,42.44Z"/>
        <polygon class="cls-2" points="202.17 195.17 208.42 196.61 203.25 205.6 212.25 214.6 214.72 212.98 213.99 224.31 222.99 233.31 231.02 206.44 240.53 214.6 237.34 199.5 257.68 195.17 248.68 186.17 242.42 184.73 247.59 175.73 238.59 166.73 236.1 168.35 236.84 157.01 227.84 148.01 219.82 174.9 210.31 166.73 213.51 181.84 193.17 186.17 202.17 195.17"/>
      </g>
      <g>
        <path class="cls-1" d="M333.71,235.12l-.02-.02,17.75-97.88c5.73-31.59-8.26-57.21-31.24-57.21H118.53l-38.52,212.31h201.69c22.98,0,46.27-25.61,52.01-57.21ZM246.32,263.41h-92.2l28.02-154.48h92.2c7.39,0,11.91,8.24,10.05,18.42l-21.34,117.66v-.02c-1.84,10.16-9.34,18.42-16.73,18.42Z"/>
        <path class="cls-1" d="M380.35,292.35v-.02h176.51l16.05-88.43c5.2-28.71-7.5-51.98-28.38-51.98h-172.91l-5.25,28.92h129.16c7.01,0,11.29,7.82,9.54,17.46h-107.67c-18.89,0-38.03,21.06-42.73,47.02-4.72,25.97,6.78,47.03,25.68,47.03ZM423.53,245.3c1.81-9.99,9.19-18.11,16.46-18.11h59.84l-6.57,36.21h-59.84c-7.27,0-11.7-8.11-9.89-18.11Z"/>
        <path class="cls-1" d="M674.08,180.8h54.14c10.42,0,16.76,11.6,14.16,25.93l-.03.02-15.52,85.56h68.86l15.47-85.27c5.52-30.46-7.96-55.16-30.12-55.16h-170.6l-25.46,140.4h68.86l20.23-111.49Z"/>
        <path class="cls-1" d="M856.11,292.31h156.85l5.25-28.92-.02.02h-105.25c-9.99,0-16.08-11.14-13.58-24.88l5.95-32.83c2.49-13.74,12.61-24.88,22.62-24.88h105.25l5.25-28.92h-156.85c-19.53,0-39.31,21.77-44.17,48.59l-7.83,43.22c-4.87,26.85,7.01,48.59,26.54,48.59Z"/>
        <path class="cls-1" d="M1233.39,151.9h-134.83c-20.76,0-41.79,23.15-46.97,51.69l-6.72,37.05c-5.17,28.54,7.45,51.69,28.22,51.69h172.42l5.25-28.92h-128.54c-6.97,0-11.21-7.78-9.48-17.35h141.16l7.7-42.47h.02c5.17-28.54-7.45-51.69-28.22-51.69ZM1193.11,201.61l-2.81,15.56h-72.3l2.81-15.56c2.08-11.48,10.54-20.78,18.88-20.78h42.07c8.35,0,13.43,9.3,11.35,20.78Z"/>
        <path class="cls-1" d="M362.38,354.06h-222.6l-25.46,140.4h68.86l20.23-111.49h30.94l-20.23,111.49h63.11l20.23-111.49h19.24c6.46,0,10.39,7.19,8.78,16.08l-17.31,95.41h68.86l15.47-85.27c5.52-30.44-7.96-55.14-30.12-55.14Z"/>
        <path class="cls-1" d="M884.64,439.76h.02c-5.48,30.21,7.89,54.7,29.88,54.7h29.05l25.46-140.4h-68.86l-15.55,85.71Z"/>
        <path class="cls-1" d="M967.17,313.55h-50.4c-5.1,0-10.25,5.69-11.53,12.69-1.28,7,1.83,12.69,6.92,12.69h50.4c5.1,0,10.25-5.69,11.53-12.69,1.28-7-1.83-12.69-6.92-12.69Z"/>
        <path class="cls-1" d="M596.53,354.08v-.02h-172.91l-5.25,28.92h129.16c7.01,0,11.29,7.82,9.54,17.46h-107.67c-18.89,0-38.03,21.06-42.73,47.02-4.72,25.97,6.78,47.02,25.68,47.02h176.51l16.05-88.42c5.2-28.71-7.5-51.98-28.38-51.98ZM545.25,465.56h-59.84c-7.27,0-11.7-8.11-9.89-18.11,1.81-9.99,9.19-18.11,16.46-18.11h59.84l-6.57,36.21Z"/>
        <path class="cls-1" d="M832.53,354.03l-.03.02h-170.6l-25.46,140.4h68.86l20.23-111.49h54.14c10.42,0,16.76,11.6,14.16,25.93l-15.52,85.56h68.86l15.47-85.27c5.52-30.46-7.96-55.16-30.12-55.16Z"/>
        <path class="cls-1" d="M1167.46,354.08v-.02h-172.91l-5.25,28.92h129.16c7.01,0,11.29,7.82,9.54,17.46h-107.67c-18.89,0-38.03,21.06-42.73,47.02-4.72,25.97,6.78,47.02,25.68,47.02h176.51l16.05-88.42c5.2-28.71-7.5-51.98-28.38-51.98ZM1116.2,465.56h-59.84c-7.27,0-11.7-8.11-9.89-18.11,1.81-9.99,9.19-18.11,16.46-18.11h59.84l-6.57,36.21Z"/>
        <polygon class="cls-1" points="238.59 166.73 226.1 174.9 227.84 148.01 219.82 174.9 210.31 166.73 213.51 181.84 193.17 186.17 211.94 190.5 203.25 205.6 215.73 197.44 213.99 224.31 222.02 197.44 231.53 205.6 228.34 190.5 248.68 186.17 229.9 181.84 238.59 166.73"/>
      </g>
      <path class="cls-4" d="M421.1,753.35c2.19-13.35,7.38-24.34,15.57-32.98,8.19-8.64,16.88-12.96,26.09-12.96h82.84c4.82,0,9.24-2.23,13.27-6.69,4.02-4.46,6.61-10.06,7.79-16.8l2.41-13.97c.29-1.98.44-3.97.44-5.95,0-11.3-4.53-16.95-13.6-16.95h-116.83l4.82-28.27h168.15c7.46,0,13.85,3.89,19.19,11.66,5.33,7.78,8,16.58,8,26.42,0,2.56-.22,5.02-.66,7.38l-3.95,24.5c-2.05,12.4-7.46,23.17-16.23,32.33-8.77,9.15-17.54,13.72-26.31,13.72h-82.84c-4.82,0-9.25,2.26-13.27,6.77-4.02,4.52-6.54,10.01-7.57,16.49l-7.02,41.52h133.94l-4.82,27.68-202.14-.29,12.72-73.61Z"/>
      <path class="cls-4" d="M648.6,753.35c2.19-13.35,7.38-24.34,15.57-32.98,8.19-8.64,16.88-12.96,26.09-12.96h82.84c4.82,0,9.24-2.23,13.27-6.69,4.02-4.46,6.61-10.06,7.79-16.8l2.41-13.97c.29-1.98.44-3.97.44-5.95,0-11.3-4.53-16.95-13.6-16.95h-116.83l4.82-28.27h168.15c7.46,0,13.85,3.89,19.19,11.66,5.33,7.78,8,16.58,8,26.42,0,2.56-.22,5.02-.66,7.38l-3.95,24.5c-2.05,12.4-7.46,23.17-16.23,32.33-8.77,9.15-17.54,13.72-26.31,13.72h-82.84c-4.82,0-9.25,2.26-13.27,6.77-4.02,4.52-6.54,10.01-7.57,16.49l-7.02,41.52h133.94l-4.82,27.68-202.14-.29,12.72-73.61Z"/>
    </g>
  </g>
</svg>