<?xml version="1.0" encoding="UTF-8"?>
<svg id="Layer_2" data-name="Layer 2" xmlns="http://www.w3.org/2000/svg" xmlns:xlink="http://www.w3.org/1999/xlink" viewBox="0 0 1863.3 1094.43">
  <defs>
    <style>
      .cls-1 {
        fill: url(#linear-gradient-2);
      }

      .cls-2 {
        fill: url(#linear-gradient);
      }

      .cls-3 {
        fill: #fff;
      }
    </style>
    <linearGradient id="linear-gradient" x1="5594.64" y1="2865.18" x2="7442.33" y2="3214.03" gradientTransform="translate(-5591.6 -2701.24)" gradientUnits="userSpaceOnUse">
      <stop offset="0" stop-color="#fba800"/>
      <stop offset=".06" stop-color="#fba904"/>
      <stop offset=".12" stop-color="#fbad10"/>
      <stop offset=".18" stop-color="#fbb424"/>
      <stop offset=".24" stop-color="#fcbe41"/>
      <stop offset=".31" stop-color="#fccb66"/>
      <stop offset=".37" stop-color="#fdda94"/>
      <stop offset=".43" stop-color="#feecc8"/>
      <stop offset=".49" stop-color="#fff"/>
      <stop offset=".54" stop-color="#feeecf"/>
      <stop offset=".61" stop-color="#fddc99"/>
      <stop offset=".68" stop-color="#fccc6a"/>
      <stop offset=".74" stop-color="#fcbf43"/>
      <stop offset=".81" stop-color="#fbb526"/>
      <stop offset=".88" stop-color="#fbad11"/>
      <stop offset=".94" stop-color="#fba904"/>
      <stop offset="1" stop-color="#fba800"/>
    </linearGradient>
    <linearGradient id="linear-gradient-2" x1="7134.21" y1="2181.48" x2="7913.1" y2="2312.18" gradientTransform="translate(-6928.7 -1359.36)" gradientUnits="userSpaceOnUse">
      <stop offset="0" stop-color="#fba800"/>
      <stop offset=".07" stop-color="#fba903"/>
      <stop offset=".15" stop-color="#fbad0f"/>
      <stop offset=".22" stop-color="#fbb322"/>
      <stop offset=".29" stop-color="#fbbd3d"/>
      <stop offset=".36" stop-color="#fcc960"/>
      <stop offset=".42" stop-color="#fdd78b"/>
      <stop offset=".49" stop-color="#fde9be"/>
      <stop offset=".56" stop-color="#fefcf8"/>
      <stop offset=".57" stop-color="#fff"/>
      <stop offset=".77" stop-color="#fba800"/>
      <stop offset="1" stop-color="#9b6300"/>
    </linearGradient>
  </defs>
  <g id="Layer_1-2" data-name="Layer 1">
    <g>
      <g>
        <path d="M1836.88,535.19l-6.78-3.34,30.58-85.65c4.92-13.78,2.83-29.09-5.6-41.06-8.43-11.96-22.15-19.08-36.78-19.08h-60.73c-4.41,0-8.71.64-12.79,1.85-11.91-5.77-25.71-8.69-41.25-8.69-41.03,0-84.77,19.62-120.02,53.81-.78.75-1.54,1.52-2.31,2.28-2.16-4.87-4.5-9.3-6.88-13.28-9.37-15.61-21.93-28.37-35.6-38.28.56-1.36,1.1-2.72,1.59-4.11,8.15-22.96,5.46-46.55-7.39-64.75-12.37-17.52-32.44-27.56-55.08-27.56-11.07,0-22.06,2.4-32.37,6.71,11.99-14.73,19.68-32.14,22.46-51.23,2.5-17.14.57-33.71-5.45-48.52.7.03,1.41.06,2.11.06h274.31c19.17,0,36.23-12.13,42.51-30.24l.64-1.85c4.76-13.72,2.61-28.89-5.78-40.74,9.11-5.29,16.3-13.74,19.92-24.17l.64-1.85c4.77-13.76,2.59-28.97-5.85-40.84-8.44-11.86-22.1-18.91-36.67-18.91h-494.93c-10.3,0-20.05,3.52-27.85,9.67-10.24-6.42-22.8-9.68-37.52-9.68h-485.77c-19.17,0-36.23,12.14-42.51,30.25l-.64,1.85c-3.39,9.76-3.27,20.26.1,29.77l-4.94,13.59c-7.21,5.28-12.85,12.7-15.92,21.55l-.3.86c-1.09,2.92-1.86,5.91-2.32,8.92h-1.32c-4.51,0-8.91.67-13.08,1.94-12-5.78-25.93-8.69-41.63-8.69-30.21,0-61.93,10.39-90.71,29.2,1.09-50.48-18.51-98.38-53.82-128.88-16.62-14.3-33.35-23.52-52.66-29.03-17.42-4.97-36.88-7.09-65.08-7.09h-157c-19.06,0-36.06,12.01-42.42,29.99l-3.94,11.13c-4.88,13.77-2.76,29.06,5.67,40.99,5.38,7.62,12.92,13.26,21.46,16.35l-86.74,235.21h-11.53c-19.06,0-36.06,12.01-42.42,29.99l-3.94,11.13c-4.88,13.77-2.76,29.06,5.67,40.99,8.43,11.93,22.14,19.03,36.75,19.03h159.56c39.57,0,70.17-3.72,97.59-11.95l-1.18,2.99c-5.45,13.85-3.69,29.5,4.69,41.8,3.51,5.16,8,9.45,13.13,12.69l-51.03,139.94c-5.03,13.8-3.01,29.18,5.41,41.22,8.42,12.03,22.18,19.2,36.87,19.2h62.69c13.83,0,26.58-6.33,34.97-16.68,8.51,10.5,21.34,16.68,34.97,16.68h62.69c18.9,0,35.78-11.81,42.27-29.56l4.51-12.34c3.41,8.03,7.72,14.36,11.9,19.19,10.27,11.9,29.37,26.06,62.16,26.39.39.01.77.02,1.16.02,25.74,0,48.39-7.97,69.24-24.37,4.32-3.4,8.62-7.2,12.96-11.48,1.52,2.06,3.11,4.06,4.78,5.99,18.45,21.28,45.01,33,74.78,33,24.41,0,44.58-6.65,61.7-16.89,13.71,10.8,31.66,16.89,51.73,16.89,21.4,0,41.8-6.27,60.82-18.61,8.21,7.49,18.98,11.78,30.32,11.78h61.48c18.97,0,35.9-11.89,42.33-29.73l3.74-10.38c2.91,6.4,6.66,12.3,11.22,17.56,14.66,16.92,36.64,26.24,61.88,26.24.4,0,.81,0,1.21-.02,31.52-.36,56.82-14.55,77.94-34.67,2.52,3.48,5.23,6.85,8.15,10.07,8.28,11.02,21.78,20.71,40.29,28.92,14.48,6.42,37.22,14.07,63.35,14.07,0,0,0,0,0,0,40.91,0,79.46-16.68,104.6-30.67,22.19-12.35,41.81-27.24,58.56-44.29,4.22,9.87,9.77,18.86,16.61,26.74,18.45,21.28,45.01,33,74.78,33,24.41,0,44.58-6.65,61.7-16.89,13.7,10.8,31.66,16.89,51.73,16.89.4,0,.8,0,1.21-.02,25.21-.28,49.03-9.25,70.81-26.68,18.73-14.98,35.38-35.65,50.9-63.19,6.07-10.77,7.44-23.57,3.79-35.38-3.65-11.81-12.01-21.6-23.1-27.07Z"/>
        <path d="M696.93,865.96c-91.84,126.18-268.82,228.47-395.3,228.47s-154.57-102.29-62.73-228.47c91.84-126.18,270.82-231.47,397.3-231.47s152.57,105.29,60.73,231.47Z"/>
        <polygon points="543.01 625.59 527.87 664.44 569.29 666.15 577.57 619.03 543.01 625.59"/>
        <polygon points="696.68 642.53 696.59 660.02 738.09 660.02 732.86 634.48 696.68 642.53"/>
      </g>
      <g>
        <g>
          <path class="cls-3" d="M1341.7,618.57c1.5-4.29,4.91-15.39,10.62-30.23,16.35-42.51,41.35-114.6,51.93-142.8.74-1.98-3.06-6.7-7.65-3.8-4.58,2.9-8.82,6.6-10.53,6.6-2.41,0-4.15-1.02-4.82-3.3-.74-2.54,1.47-5.94,3.96-8.67,4.58-5.03,16.08-16.32,36.65-27.36.58-.31.25-1.22-.41-1.05-59.45,15.02-117.14,63.2-138.52,121.74-22.67,62.07,3.05,113.75,57.95,125.02.78.16,1.43-.61,1.16-1.36-2.21-5.85-8.05-12.71-.34-34.8h0Z"/>
          <path class="cls-3" d="M1471.76,403.37c-2.37-.25,1.23,2.42,3.03,5.14,3.51,5.28,4.85,15.39.93,27.62-4.75,14.87-51.66,140.03-57.65,154.69-2.24,5.49-.89,9.42,2.24,10.26,3.91,1.04,13.9-.78,35.03-18.69,7.28-6.17,12.73-5.84,7.82,3.01-5.32,9.56-20.32,30.09-46.75,52.02-8.7,7.22-21.68,13.63-30.67,17.52-.76.33-.39,1.49.42,1.31,61.72-13.58,126.53-55.77,152.4-126.54,23.23-63.56-10.28-120.22-66.79-126.34Z"/>
          <path class="cls-3" d="M1434.85,364.6c6.34-17.81,25.58-32.25,42.99-32.25s26.39,14.43,20.06,32.25c-6.34,17.81-25.58,32.25-42.99,32.25s-26.39-14.43-20.06-32.25Z"/>
          <path class="cls-3" d="M686.22,149.39l.64-1.85c7.89,0,11.38-8.97,14.68-18.13l13.95-38.4-3.09-8.38h-4.78l.64-1.85h25.14l20.16,51.06h.2l12.79-36.16c.75-2.05,1.4-4.97,1.51-6.34.35-4.09-2.06-6.72-6.84-6.72h-.49l.64-1.85h21.05l-.64,1.85c-7.01,0-9.54,4.48-11.93,10.81l-20.5,55.94h-10.43l-22.1-55.74-12.19,33.62c-2.05,5.75-3.11,10.33-3.32,12.77-.45,5.36,2.97,7.5,7.84,7.5l-.64,1.85h-22.32,0Z"/>
          <path class="cls-3" d="M821.92,79.41c17.73,0,28.59,12.38,27.17,29.14-1.88,22.22-20.81,42.2-45.75,42.2-16.37,0-29.51-10.63-27.95-29.14,1.69-19.98,18.18-42.2,46.53-42.2h0ZM802.27,148.31c5.66,0,10.58-2.92,16.19-15.2,6.69-14.72,12.41-30.41,13.29-40.93.58-6.92-4.3-10.33-8.78-10.33-6.34,0-11.03,3.71-14.36,9.64-6.32,11.4-14.99,35.67-15.86,45.9-.58,6.92,2.89,10.92,9.5,10.92h0Z"/>
          <path class="cls-3" d="M843.21,149.39l.64-1.85c7.89,0,11.38-8.97,14.68-18.13l13.95-38.4-3.09-8.38h-4.78l.64-1.85h25.14l20.16,51.06h.2l12.79-36.16c.75-2.05,1.4-4.97,1.51-6.34.35-4.09-2.06-6.72-6.84-6.72h-.49l.64-1.85h21.05l-.64,1.85c-7.01,0-9.54,4.48-11.93,10.81l-20.5,55.94h-10.43l-22.1-55.74-12.19,33.62c-2.05,5.75-3.11,10.33-3.32,12.77-.45,5.36,2.97,7.5,7.84,7.5l-.64,1.85h-22.32,0Z"/>
          <path class="cls-3" d="M932.14,125.41h2.14c-.38.97-.46,2.05-.56,3.12-.93,11.11,6.13,19.78,17.43,19.78,7.01,0,16.53-4.19,17.25-12.77,1.41-16.76-30.06-11.01-28.1-34.3,1.24-14.72,15.28-21.83,28.64-21.83,10.52,0,13.75,3.41,19.2,3.41,2.14,0,4.67-1.07,5.97-3.71h2.14l-8.33,22.41h-1.85c.98-11.69-2.72-19.69-15.2-19.69-6.24,0-13.49,4-14.08,10.92-1.24,14.61,29.03,9.35,27.09,32.45-1.46,17.35-18.62,25.53-33.63,25.53-8.87,0-16.84-4.87-20.44-4.87-1.75,0-3.2.88-3.92,2.63h-2.14l8.38-23.1h-.02Z"/>
          <path class="cls-3" d="M1008.79,80.78h59.74l-7.64,21.24h-2.14c.3-1.26.53-2.83.65-4.29.68-8.09-2.23-15.1-11.49-15.1l-23.31,64.9h6.14l-.74,1.85h-32.25l.74-1.85h6.24l23.11-64.9c-11.01,0-20.31,9.75-24.62,19.2h-2.24l7.82-21.05h0Z"/>
          <path class="cls-3" d="M1108.89,79.41c17.73,0,28.59,12.38,27.17,29.14-1.88,22.22-20.81,42.2-45.75,42.2-16.37,0-29.51-10.63-27.95-29.14,1.69-19.98,18.18-42.2,46.53-42.2h0ZM1089.24,148.31c5.66,0,10.58-2.92,16.19-15.2,6.69-14.72,12.41-30.41,13.29-40.93.58-6.92-4.3-10.33-8.78-10.33-6.34,0-11.03,3.71-14.36,9.64-6.32,11.4-14.99,35.67-15.86,45.9-.58,6.92,2.89,10.92,9.5,10.92h0Z"/>
          <path class="cls-3" d="M1162.11,82.63h-6.34l.64-1.85h37.62c14.81,0,19.61,5.46,18.72,15.98-.86,10.14-9.71,21.53-28.8,21.53h-14.61l-10.46,29.24h6.43l-.64,1.85h-32.55l.64-1.85h5.94l23.4-64.9ZM1169.99,116.45h5.26c6.43,0,8.91-1.66,11.59-5.66,2.45-3.6,6.64-14.03,7.21-20.86.52-6.14-3.38-7.31-7.77-7.31h-4.09l-12.21,33.82h0Z"/>
          <path class="cls-3" d="M1234.19,147.53c6.71-1.07,10.57-7.5,14.78-19.3l16.41-45.6h-6.92l.93-1.85h25.53l-2.86,45.51h.2l29.37-45.51h26.21l-.93,1.85h-6.14l-23.4,64.9h7.01l-.93,1.85h-31.57l.93-1.85h5.26l23.93-63.06h-.2l-41.92,64.9h-7.11l3.63-62.76h-.2l-15.83,44.43c-2.03,5.55-2.54,8.09-2.67,9.64-.42,5.07,2.93,6.83,7.22,6.83l-.93,1.85h-20.66l.84-1.85h0Z"/>
          <path class="cls-3" d="M1351.91,82.63h-6.34l.64-1.85h56.03l-6.25,22.12h-1.85c1.35-15.98-3.75-20.27-16.23-20.27h-5.95l-10.83,30.21h6.24c6.72,0,12.3-1.46,17.15-10.43h2.14l-9.13,25.04h-2.24c.41-1.46.63-2.83.74-4.09.39-4.58-1.71-8.67-8.52-8.67h-7.01l-11.83,32.84h6.83c12.09,0,24.71-5.26,32.55-19.59h2.14l-8.63,21.44h-59.64l.64-1.85h5.94l23.4-64.9h.02Z"/>
          <path class="cls-3" d="M1477.1,80.78l-9.35,25.44h-2.14c.34-1.75.58-3.41.73-5.17.84-9.94-3.45-19.2-15.25-19.2-5.66,0-10.19,3.02-13.44,9.06-8.07,14.81-15.14,36.25-16,46.48-.58,6.92,2.89,10.92,9.5,10.92,7.31,0,11.09-6.72,13.26-12.77l3.97-11.21h-4.97l.65-1.95h28.94l-.64,1.85h-4.29l-5.93,16.07c-7.55,6.34-18.42,10.43-30.11,10.43-16.76,0-29.92-10.33-28.34-29.14,1.69-19.98,19.54-42.2,45.85-42.2,11.3,0,15.11,4.58,19.1,4.58,3.12,0,4.77-1.07,6.32-3.21h2.14v.02Z"/>
          <path class="cls-3" d="M1508.83,129.8h-20.66l-2.89,4.19c-3,4.38-3.64,6.14-3.77,7.8-.4,4.68,4.29,5.75,7.5,5.75l-.64,1.85h-23.78l.64-1.85c8.29,0,12.41-6.14,19.53-16.66l34.43-50.09h7.8l1.49,66.75h5.66l-.64,1.85h-30.9l.64-1.85h5.75l-.16-17.73h0ZM1489.49,127.95h19.39l-.21-27.58h-.2l-18.99,27.58Z"/>
          <path class="cls-3" d="M1537.34,147.53c6.71-1.07,10.57-7.5,14.78-19.3l16.41-45.6h-6.92l.93-1.85h25.53l-2.86,45.51h.2l29.37-45.51h26.21l-.93,1.85h-6.14l-23.4,64.9h7.01l-.93,1.85h-31.57l.93-1.85h5.26l23.93-63.06h-.2l-41.92,64.9h-7.11l3.63-62.76h-.2l-15.83,44.43c-2.03,5.55-2.54,8.09-2.67,9.64-.42,5.07,2.93,6.83,7.22,6.83l-.93,1.85h-20.66l.84-1.85h0Z"/>
          <path class="cls-3" d="M1656.14,82.63h-6.34l.64-1.85h32.94l-.64,1.85h-6.52l-23.31,64.9h6.43l-.64,1.85h-32.55l.64-1.85h5.95l23.4-64.9h0Z"/>
          <path class="cls-3" d="M1670.84,147.53c5.99-.49,15.58-10.23,18.97-13.44l15.56-14.61-11.22-36.84h-5.55l.64-1.85h32.36l-.64,1.85h-5.94l6.56,21.64,9.76-9.46c2.98-3.02,4.25-5.36,4.38-6.92.35-4.09-3.06-5.26-6.18-5.26l.64-1.85h24.16l-.64,1.85c-5.95,0-9.32,2.92-16.41,9.65l-15.04,14.23,12.23,41.03h5.07l-.64,1.85h-31.87l.64-1.85h5.94l-7.56-25.92-12.19,11.69c-5.19,4.87-5.58,6.14-5.76,8.18-.32,3.8,3.09,6.04,7,6.04l-.64,1.85h-24.27l.64-1.85h0Z"/>
          <path class="cls-3" d="M902.55,642.53c-15.93,0-27.59-6.68-31.96-18.31-2.48-6.31-3.36-11.98-2.02-29.02l.25-3.09-1.92,2.43c-27.3,34.54-49.11,47.99-77.77,47.99-16.76,0-30.87-6.04-40.79-17.48-13.06-15.06-18.09-38.51-14.16-66.05,4.75-33.33,22.96-67.47,49.95-93.65,26.93-26.13,59.26-41.12,88.69-41.12,24.21,0,36.37,10.3,41.99,35.53l.71,3.2,11.34-31.89h60.73l-62.23,174.25-.59,2.2c-.9,3.32-1.67,6.18-1.92,7.98-.29,2.03.08,3.69,1.05,4.8.6.7,1.76,1.53,3.85,1.53,11.27,0,27.12-16.75,48.47-51.21l10.06,4.96c-25.04,44.43-53.2,66.97-83.71,66.97ZM876.07,436c-18.89,0-32.52,18.05-58.33,77.29-19.47,45.26-31.16,78.96-33.8,97.46-.9,6.28-.04,10.98,2.56,13.97,2.26,2.6,5.83,3.92,10.62,3.92,19.7,0,45.92-18.32,65.24-45.59,18.56-26.11,36.86-67.13,41.65-93.39,3.03-16.74-.54-33.67-9.31-44.17-5.19-6.21-11.62-9.49-18.62-9.49Z"/>
          <path class="cls-3" d="M1174.35,639.38c-12.17,0-21.81-3.71-27.88-10.71-6.62-7.65-9.04-19.21-6.99-33.41,1.16-8.04,4.19-19.67,8.29-31.89l38.07-106.13c.27-.88.53-1.67.76-2.41.7-2.18,1.2-3.75,1.32-4.6.31-2.15-.17-4.03-1.39-5.43-1.4-1.62-3.66-2.48-6.5-2.48-10.16,0-30.69,13.05-46.73,29.72-21.58,22.5-37.04,49.01-50.14,85.99l-28.01,77.67h-61.48l69.18-193.38h-37l4.35-11.25h40.09c17.65,0,39.52-2.01,60.25-5.52l-19.82,55.23,1.64.89c29.8-39.54,60.48-57.95,96.55-57.95,14.38,0,25.31,3.86,31.64,11.15,4.77,5.52,6.65,12.92,5.42,21.4-.61,4.26-1.92,10.79-4.64,17.66l-43.54,121.94c-1.1,3.2-3.72,11.02-4.29,14.9-.41,2.88,0,5.07,1.27,6.52,1.09,1.26,2.76,1.9,4.95,1.9,9.28,0,22.93-14.25,45.64-47.62.33-.33.72-.91,1.32-1.8.7-1.03,1.61-2.39,2.82-3.92l9.21,4.93c-31.43,48.72-55.93,68.6-84.4,68.6h0Z"/>
          <path class="cls-3" d="M1733.27,642.53c-15.93,0-27.59-6.68-31.96-18.31-2.48-6.31-3.36-11.98-2.02-29.02l.25-3.09-1.92,2.43c-27.3,34.54-49.11,47.99-77.77,47.99-16.76,0-30.87-6.04-40.79-17.48-13.06-15.06-18.09-38.51-14.16-66.05,4.75-33.33,22.96-67.47,49.95-93.65,26.93-26.13,59.26-41.12,88.69-41.12,24.21,0,36.37,10.3,41.99,35.53l.71,3.2,11.34-31.89h60.73l-62.23,174.25-.59,2.18c-.9,3.32-1.67,6.18-1.92,7.99-.29,2.03.08,3.69,1.05,4.8.6.7,1.76,1.53,3.85,1.53,11.27,0,27.12-16.75,48.47-51.21l10.06,4.96c-25.04,44.43-53.2,66.97-83.71,66.97h0ZM1706.8,436c-18.89,0-32.52,18.05-58.33,77.29-19.48,45.26-31.16,78.96-33.8,97.46-.9,6.28-.04,10.98,2.55,13.97,2.26,2.6,5.83,3.92,10.62,3.92,19.7,0,45.92-18.32,65.24-45.59,18.56-26.11,36.86-67.13,41.65-93.39,3.03-16.74-.54-33.67-9.32-44.17-5.19-6.21-11.62-9.49-18.62-9.49Z"/>
          <path class="cls-3" d="M627.34,639.38c-13.22,0-23.06-3.63-29.25-10.8-6.66-7.71-8.91-19.28-6.69-34.38,1.41-9.6,4.97-22.62,9.29-33.96l37.03-101.43c.36-1.21.68-2.26.97-3.21.66-2.16,1.14-3.71,1.31-4.86.27-1.84-.18-3.51-1.31-4.82-1.43-1.66-3.84-2.57-6.78-2.57-13.68,0-32.92,12.95-52.8,35.53-23.31,26.94-32.57,43.88-49.6,90.69l-24.15,66.12h-62.69l64.55-176.83c.82-1.7,1.06-3.33,1.45-6.02.52-3.54.08-6.07-1.37-7.75-1.32-1.53-3.38-2.26-6.34-2.26-11.05,0-34.1,14.98-51.38,33.4-21.44,21.93-36.22,48.1-52.7,93.34l-24.15,66.12h-62.69l70.51-193.38h-37.7l4.42-11.25h40.87c17.74,0,39.49-1.96,61.42-5.53l-18.58,51.56,1.58.95c32.79-36.21,64.09-53.82,95.69-53.82,14.68,0,25.96,4.06,32.59,11.76,5.52,6.39,7.63,15.22,6.12,25.53-.51,3.49-1.92,9.67-3.9,15.6l1.59.93c34.64-38.22,62.05-53.82,94.61-53.82,15.32,0,26.86,3.99,33.38,11.54,5.18,5.99,7.07,13.94,5.65,23.65-.64,4.34-1.96,10.83-4.64,17.11l-44.22,120.91c-2.76,7.83-3.88,11.6-4.29,14.38-.4,2.72,0,4.77,1.15,6.12,1.03,1.19,2.61,1.79,4.7,1.79,11.06,0,23.82-12.96,52.35-53.27l9.28,5.84c-33.47,50.14-55.06,67.09-85.29,67.09h0Z"/>
          <path class="cls-3" d="M45,389.81l3.94-11.13h42.9L210.78,56.13h-48.28l3.94-11.13h157c45.25,0,65.9,5.89,88.39,25.24,29.09,25.13,43.15,67.83,36.7,111.43-8.39,56.72-39.08,114.66-80.07,151.21-47.55,42.57-88.9,56.93-163.89,56.93H45ZM164.92,378.68h50.15c31.05,0,53.91-2.94,71.88-17.56,15.77-12.83,27.61-33.59,43.67-76.6,25.79-68.51,45.81-135.5,51.02-170.67,2.89-19.54.29-33.61-7.96-43.03-8.66-9.88-23.62-14.69-45.74-14.69h-44.1l-118.94,322.55h.02Z"/>
          <path class="cls-3" d="M615.81,396.57c-16.14,0-27.95-6.6-32.38-18.09-2.51-6.23-3.39-11.84-2.04-28.67l.25-3.04-1.91,2.37c-27.65,34.14-49.73,47.44-78.75,47.44-17.25,0-31.7-6.16-41.77-17.8-12.87-14.89-17.8-37.88-13.88-64.75,4.81-32.94,23.24-66.69,50.56-92.57,27.27-25.83,60-40.64,89.8-40.64,24.52,0,36.85,10.17,42.53,35.11l.71,3.11,11.47-31.47h61.5l-62.99,172.23-.59,2.16c-.91,3.28-1.69,6.12-1.95,7.9-.29,1.98.07,3.61,1.03,4.72.61.71,1.78,1.55,3.91,1.55,11.4,0,27.45-16.57,49.06-50.64l10.19,4.91c-25.35,43.92-53.86,66.18-84.75,66.18h0ZM589.02,192.42c-19.12,0-32.91,17.85-59.04,76.4-19.71,44.74-31.56,78.06-34.22,96.35-.9,6.15-.06,10.77,2.5,13.73,2.28,2.64,5.92,3.97,10.82,3.97,19.94,0,46.48-18.11,66.03-45.07,18.8-25.81,37.33-66.36,42.17-92.32,3.03-16.32-.47-32.91-9.13-43.32-5.3-6.37-11.92-9.74-19.14-9.74h0Z"/>
          <path class="cls-3" d="M887.63,396.27c-12.26,0-21.95-3.71-28.01-10.72-6.53-7.55-8.91-18.92-6.86-32.88,1.16-7.95,4.19-19.44,8.3-31.52l38.08-104.91c.27-.87.54-1.67.77-2.4.7-2.15,1.2-3.7,1.32-4.53.31-2.11-.16-3.96-1.36-5.35-1.4-1.62-3.66-2.48-6.52-2.48-10.16,0-30.7,12.91-46.74,29.38-21.59,22.23-37.06,48.45-50.16,85.01l-28.02,76.77h-61.5l69.21-191.16h-37.01l4.34-11.1h40.11c17.66,0,39.53-1.98,60.26-5.46l-19.82,54.58,1.63.9c29.81-39.09,60.5-57.29,96.58-57.29,14.47,0,25.46,3.86,31.75,11.15,4.7,5.43,6.53,12.7,5.32,21.02-.61,4.21-1.92,10.66-4.64,17.44l-43.55,120.55c-1.1,3.16-3.72,10.89-4.29,14.73-.41,2.83,0,5,1.25,6.44,1.09,1.27,2.77,1.91,4.97,1.91,9.28,0,22.93-14.08,45.65-47.07.33-.32.72-.9,1.32-1.78.7-1.02,1.61-2.37,2.82-3.87l9.21,4.86c-31.43,48.14-55.94,67.8-84.42,67.8v-.03Z"/>
          <path class="cls-3" d="M1074.4,396.57c-29.23,0-53.22-8.92-67.56-25.11-12.26-13.84-17.06-32.26-13.93-53.3,5.77-38.57,34.66-82.36,71.86-108.98,27.48-19.45,55.15-28.91,84.56-28.91,24,0,42.65,6.13,52.51,17.26,6.56,7.41,9.07,16.61,7.46,27.37-2.63,17.57-17.06,29.84-35.07,29.84-7.98,0-14.83-2.78-19.3-7.82-4.54-5.13-6.39-12.3-5.21-20.2.75-5.02,1.66-7.94,6.6-18.98.19-.45.36-.87.53-1.25.65-1.52,1.21-2.84,1.4-4.19.31-2.1-.26-4.06-1.68-5.66-2.43-2.74-7.09-4.25-13.13-4.25-21.21,0-35.76,16.19-55.61,61.87-18.38,42.2-31.54,80.1-34.36,98.93-1.57,10.49-.18,18.04,4.26,23.05,4.93,5.56,13.47,8.16,26.88,8.16,31.05,0,55.69-14.63,87.72-52.13l8.77,6.19c-31.9,41.23-62.88,58.08-106.72,58.08h0Z"/>
          <path class="cls-3" d="M1289.67,396.57c-31.23,0-56.41-9.24-70.91-26.01-11.48-13.28-16.01-30.86-13.09-50.83,4.93-33.73,25.42-68.72,56.2-95.99,30.82-27.29,67.59-42.95,100.88-42.95,22.29,0,40.43,6.77,51.05,19.07,8.35,9.66,11.67,22.27,9.6,36.47-4.34,29.71-27.99,50.27-68.41,59.47-16.35,3.74-33.21,5.19-72.17,6.21l-.62.02-.24.58c-9.27,23.14-16.11,44.91-17.86,56.83-.99,6.79.33,12.35,3.94,16.52,4.85,5.61,13.52,8.45,25.79,8.45,33.98,0,63.94-16.06,100.04-53.67l7.53,6.58c-36.64,42.06-69.07,59.23-111.73,59.23h0ZM1357.41,192.94c-19.39,0-36.33,15.1-48.97,43.67-5.47,11.99-6.25,13.93-20.84,51.99l-.51,1.33,3.18-.12c26.29-.98,27.86-1.05,38.77-4.13,24.75-6.24,43.2-31.02,48.11-64.67,1.5-10.29.27-17.56-3.77-22.23-3.37-3.89-8.74-5.86-15.97-5.86v.03Z"/>
        </g>
        <g>
          <path class="cls-2" d="M1341.7,618.57c1.5-4.29,4.91-15.39,10.62-30.23,16.35-42.51,41.35-114.6,51.93-142.8.74-1.98-3.06-6.7-7.65-3.8-4.58,2.9-8.82,6.6-10.53,6.6-2.41,0-4.15-1.02-4.82-3.3-.74-2.54,1.47-5.94,3.96-8.67,4.58-5.03,16.08-16.32,36.65-27.36.58-.31.25-1.22-.41-1.05-59.45,15.02-117.14,63.2-138.52,121.74-22.67,62.07,3.05,113.75,57.95,125.02.78.16,1.43-.61,1.16-1.36-2.21-5.85-8.05-12.71-.34-34.8h0Z"/>
          <path class="cls-2" d="M1471.76,403.37c-2.37-.25,1.23,2.42,3.03,5.14,3.51,5.28,4.85,15.39.93,27.62-4.75,14.87-51.66,140.03-57.65,154.69-2.24,5.49-.89,9.42,2.24,10.26,3.91,1.04,13.9-.78,35.03-18.69,7.28-6.17,12.73-5.84,7.82,3.01-5.32,9.56-20.32,30.09-46.75,52.02-8.7,7.22-21.68,13.63-30.67,17.52-.76.33-.39,1.49.42,1.31,61.72-13.58,126.53-55.77,152.4-126.54,23.23-63.56-10.28-120.22-66.79-126.34Z"/>
          <path class="cls-2" d="M1434.85,364.6c6.34-17.81,25.58-32.25,42.99-32.25s26.39,14.43,20.06,32.25c-6.34,17.81-25.58,32.25-42.99,32.25s-26.39-14.43-20.06-32.25Z"/>
          <path class="cls-2" d="M686.22,149.39l.64-1.85c7.89,0,11.38-8.97,14.68-18.13l13.95-38.4-3.09-8.38h-4.78l.64-1.85h25.14l20.16,51.06h.2l12.79-36.16c.75-2.05,1.4-4.97,1.51-6.34.35-4.09-2.06-6.72-6.84-6.72h-.49l.64-1.85h21.05l-.64,1.85c-7.01,0-9.54,4.48-11.93,10.81l-20.5,55.94h-10.43l-22.1-55.74-12.19,33.62c-2.05,5.75-3.11,10.33-3.32,12.77-.45,5.36,2.97,7.5,7.84,7.5l-.64,1.85h-22.32,0Z"/>
          <path class="cls-2" d="M821.92,79.41c17.73,0,28.59,12.38,27.17,29.14-1.88,22.22-20.81,42.2-45.75,42.2-16.37,0-29.51-10.63-27.95-29.14,1.69-19.98,18.18-42.2,46.53-42.2h0ZM802.27,148.31c5.66,0,10.58-2.92,16.19-15.2,6.69-14.72,12.41-30.41,13.29-40.93.58-6.92-4.3-10.33-8.78-10.33-6.34,0-11.03,3.71-14.36,9.64-6.32,11.4-14.99,35.67-15.86,45.9-.58,6.92,2.89,10.92,9.5,10.92h0Z"/>
          <path class="cls-2" d="M843.21,149.39l.64-1.85c7.89,0,11.38-8.97,14.68-18.13l13.95-38.4-3.09-8.38h-4.78l.64-1.85h25.14l20.16,51.06h.2l12.79-36.16c.75-2.05,1.4-4.97,1.51-6.34.35-4.09-2.06-6.72-6.84-6.72h-.49l.64-1.85h21.05l-.64,1.85c-7.01,0-9.54,4.48-11.93,10.81l-20.5,55.94h-10.43l-22.1-55.74-12.19,33.62c-2.05,5.75-3.11,10.33-3.32,12.77-.45,5.36,2.97,7.5,7.84,7.5l-.64,1.85h-22.32,0Z"/>
          <path class="cls-2" d="M932.14,125.41h2.14c-.38.97-.46,2.05-.56,3.12-.93,11.11,6.13,19.78,17.43,19.78,7.01,0,16.53-4.19,17.25-12.77,1.41-16.76-30.06-11.01-28.1-34.3,1.24-14.72,15.28-21.83,28.64-21.83,10.52,0,13.75,3.41,19.2,3.41,2.14,0,4.67-1.07,5.97-3.71h2.14l-8.33,22.41h-1.85c.98-11.69-2.72-19.69-15.2-19.69-6.24,0-13.49,4-14.08,10.92-1.24,14.61,29.03,9.35,27.09,32.45-1.46,17.35-18.62,25.53-33.63,25.53-8.87,0-16.84-4.87-20.44-4.87-1.75,0-3.2.88-3.92,2.63h-2.14l8.38-23.1h-.02Z"/>
          <path class="cls-2" d="M1008.79,80.78h59.74l-7.64,21.24h-2.14c.3-1.26.53-2.83.65-4.29.68-8.09-2.23-15.1-11.49-15.1l-23.31,64.9h6.14l-.74,1.85h-32.25l.74-1.85h6.24l23.11-64.9c-11.01,0-20.31,9.75-24.62,19.2h-2.24l7.82-21.05h0Z"/>
          <path class="cls-2" d="M1108.89,79.41c17.73,0,28.59,12.38,27.17,29.14-1.88,22.22-20.81,42.2-45.75,42.2-16.37,0-29.51-10.63-27.95-29.14,1.69-19.98,18.18-42.2,46.53-42.2h0ZM1089.24,148.31c5.66,0,10.58-2.92,16.19-15.2,6.69-14.72,12.41-30.41,13.29-40.93.58-6.92-4.3-10.33-8.78-10.33-6.34,0-11.03,3.71-14.36,9.64-6.32,11.4-14.99,35.67-15.86,45.9-.58,6.92,2.89,10.92,9.5,10.92h0Z"/>
          <path class="cls-2" d="M1162.11,82.63h-6.34l.64-1.85h37.62c14.81,0,19.61,5.46,18.72,15.98-.86,10.14-9.71,21.53-28.8,21.53h-14.61l-10.46,29.24h6.43l-.64,1.85h-32.55l.64-1.85h5.94l23.4-64.9ZM1169.99,116.45h5.26c6.43,0,8.91-1.66,11.59-5.66,2.45-3.6,6.64-14.03,7.21-20.86.52-6.14-3.38-7.31-7.77-7.31h-4.09l-12.21,33.82h0Z"/>
          <path class="cls-2" d="M1234.19,147.53c6.71-1.07,10.57-7.5,14.78-19.3l16.41-45.6h-6.92l.93-1.85h25.53l-2.86,45.51h.2l29.37-45.51h26.21l-.93,1.85h-6.14l-23.4,64.9h7.01l-.93,1.85h-31.57l.93-1.85h5.26l23.93-63.06h-.2l-41.92,64.9h-7.11l3.63-62.76h-.2l-15.83,44.43c-2.03,5.55-2.54,8.09-2.67,9.64-.42,5.07,2.93,6.83,7.22,6.83l-.93,1.85h-20.66l.84-1.85h0Z"/>
          <path class="cls-2" d="M1351.91,82.63h-6.34l.64-1.85h56.03l-6.25,22.12h-1.85c1.35-15.98-3.75-20.27-16.23-20.27h-5.95l-10.83,30.21h6.24c6.72,0,12.3-1.46,17.15-10.43h2.14l-9.13,25.04h-2.24c.41-1.46.63-2.83.74-4.09.39-4.58-1.71-8.67-8.52-8.67h-7.01l-11.83,32.84h6.83c12.09,0,24.71-5.26,32.55-19.59h2.14l-8.63,21.44h-59.64l.64-1.85h5.94l23.4-64.9h.02Z"/>
          <path class="cls-2" d="M1477.1,80.78l-9.35,25.44h-2.14c.34-1.75.58-3.41.73-5.17.84-9.94-3.45-19.2-15.25-19.2-5.66,0-10.19,3.02-13.44,9.06-8.07,14.81-15.14,36.25-16,46.48-.58,6.92,2.89,10.92,9.5,10.92,7.31,0,11.09-6.72,13.26-12.77l3.97-11.21h-4.97l.65-1.95h28.94l-.64,1.85h-4.29l-5.93,16.07c-7.55,6.34-18.42,10.43-30.11,10.43-16.76,0-29.92-10.33-28.34-29.14,1.69-19.98,19.54-42.2,45.85-42.2,11.3,0,15.11,4.58,19.1,4.58,3.12,0,4.77-1.07,6.32-3.21h2.14v.02Z"/>
          <path class="cls-2" d="M1508.83,129.8h-20.66l-2.89,4.19c-3,4.38-3.64,6.14-3.77,7.8-.4,4.68,4.29,5.75,7.5,5.75l-.64,1.85h-23.78l.64-1.85c8.29,0,12.41-6.14,19.53-16.66l34.43-50.09h7.8l1.49,66.75h5.66l-.64,1.85h-30.9l.64-1.85h5.75l-.16-17.73h0ZM1489.49,127.95h19.39l-.21-27.58h-.2l-18.99,27.58Z"/>
          <path class="cls-2" d="M1537.34,147.53c6.71-1.07,10.57-7.5,14.78-19.3l16.41-45.6h-6.92l.93-1.85h25.53l-2.86,45.51h.2l29.37-45.51h26.21l-.93,1.85h-6.14l-23.4,64.9h7.01l-.93,1.85h-31.57l.93-1.85h5.26l23.93-63.06h-.2l-41.92,64.9h-7.11l3.63-62.76h-.2l-15.83,44.43c-2.03,5.55-2.54,8.09-2.67,9.64-.42,5.07,2.93,6.83,7.22,6.83l-.93,1.85h-20.66l.84-1.85h0Z"/>
          <path class="cls-2" d="M1656.14,82.63h-6.34l.64-1.85h32.94l-.64,1.85h-6.52l-23.31,64.9h6.43l-.64,1.85h-32.55l.64-1.85h5.95l23.4-64.9h0Z"/>
          <path class="cls-2" d="M1670.84,147.53c5.99-.49,15.58-10.23,18.97-13.44l15.56-14.61-11.22-36.84h-5.55l.64-1.85h32.36l-.64,1.85h-5.94l6.56,21.64,9.76-9.46c2.98-3.02,4.25-5.36,4.38-6.92.35-4.09-3.06-5.26-6.18-5.26l.64-1.85h24.16l-.64,1.85c-5.95,0-9.32,2.92-16.41,9.65l-15.04,14.23,12.23,41.03h5.07l-.64,1.85h-31.87l.64-1.85h5.94l-7.56-25.92-12.19,11.69c-5.19,4.87-5.58,6.14-5.76,8.18-.32,3.8,3.09,6.04,7,6.04l-.64,1.85h-24.27l.64-1.85h0Z"/>
          <path class="cls-2" d="M902.55,642.53c-15.93,0-27.59-6.68-31.96-18.31-2.48-6.31-3.36-11.98-2.02-29.02l.25-3.09-1.92,2.43c-27.3,34.54-49.11,47.99-77.77,47.99-16.76,0-30.87-6.04-40.79-17.48-13.06-15.06-18.09-38.51-14.16-66.05,4.75-33.33,22.96-67.47,49.95-93.65,26.93-26.13,59.26-41.12,88.69-41.12,24.21,0,36.37,10.3,41.99,35.53l.71,3.2,11.34-31.89h60.73l-62.23,174.25-.59,2.2c-.9,3.32-1.67,6.18-1.92,7.98-.29,2.03.08,3.69,1.05,4.8.6.7,1.76,1.53,3.85,1.53,11.27,0,27.12-16.75,48.47-51.21l10.06,4.96c-25.04,44.43-53.2,66.97-83.71,66.97ZM876.07,436c-18.89,0-32.52,18.05-58.33,77.29-19.47,45.26-31.16,78.96-33.8,97.46-.9,6.28-.04,10.98,2.56,13.97,2.26,2.6,5.83,3.92,10.62,3.92,19.7,0,45.92-18.32,65.24-45.59,18.56-26.11,36.86-67.13,41.65-93.39,3.03-16.74-.54-33.67-9.31-44.17-5.19-6.21-11.62-9.49-18.62-9.49Z"/>
          <path class="cls-2" d="M1174.35,639.38c-12.17,0-21.81-3.71-27.88-10.71-6.62-7.65-9.04-19.21-6.99-33.41,1.16-8.04,4.19-19.67,8.29-31.89l38.07-106.13c.27-.88.53-1.67.76-2.41.7-2.18,1.2-3.75,1.32-4.6.31-2.15-.17-4.03-1.39-5.43-1.4-1.62-3.66-2.48-6.5-2.48-10.16,0-30.69,13.05-46.73,29.72-21.58,22.5-37.04,49.01-50.14,85.99l-28.01,77.67h-61.48l69.18-193.38h-37l4.35-11.25h40.09c17.65,0,39.52-2.01,60.25-5.52l-19.82,55.23,1.64.89c29.8-39.54,60.48-57.95,96.55-57.95,14.38,0,25.31,3.86,31.64,11.15,4.77,5.52,6.65,12.92,5.42,21.4-.61,4.26-1.92,10.79-4.64,17.66l-43.54,121.94c-1.1,3.2-3.72,11.02-4.29,14.9-.41,2.88,0,5.07,1.27,6.52,1.09,1.26,2.76,1.9,4.95,1.9,9.28,0,22.93-14.25,45.64-47.62.33-.33.72-.91,1.32-1.8.7-1.03,1.61-2.39,2.82-3.92l9.21,4.93c-31.43,48.72-55.93,68.6-84.4,68.6h0Z"/>
          <path class="cls-2" d="M1733.27,642.53c-15.93,0-27.59-6.68-31.96-18.31-2.48-6.31-3.36-11.98-2.02-29.02l.25-3.09-1.92,2.43c-27.3,34.54-49.11,47.99-77.77,47.99-16.76,0-30.87-6.04-40.79-17.48-13.06-15.06-18.09-38.51-14.16-66.05,4.75-33.33,22.96-67.47,49.95-93.65,26.93-26.13,59.26-41.12,88.69-41.12,24.21,0,36.37,10.3,41.99,35.53l.71,3.2,11.34-31.89h60.73l-62.23,174.25-.59,2.18c-.9,3.32-1.67,6.18-1.92,7.99-.29,2.03.08,3.69,1.05,4.8.6.7,1.76,1.53,3.85,1.53,11.27,0,27.12-16.75,48.47-51.21l10.06,4.96c-25.04,44.43-53.2,66.97-83.71,66.97h0ZM1706.8,436c-18.89,0-32.52,18.05-58.33,77.29-19.48,45.26-31.16,78.96-33.8,97.46-.9,6.28-.04,10.98,2.55,13.97,2.26,2.6,5.83,3.92,10.62,3.92,19.7,0,45.92-18.32,65.24-45.59,18.56-26.11,36.86-67.13,41.65-93.39,3.03-16.74-.54-33.67-9.32-44.17-5.19-6.21-11.62-9.49-18.62-9.49Z"/>
          <path class="cls-2" d="M627.34,639.38c-13.22,0-23.06-3.63-29.25-10.8-6.66-7.71-8.91-19.28-6.69-34.38,1.41-9.6,4.97-22.62,9.29-33.96l37.03-101.43c.36-1.21.68-2.26.97-3.21.66-2.16,1.14-3.71,1.31-4.86.27-1.84-.18-3.51-1.31-4.82-1.43-1.66-3.84-2.57-6.78-2.57-13.68,0-32.92,12.95-52.8,35.53-23.31,26.94-32.57,43.88-49.6,90.69l-24.15,66.12h-62.69l64.55-176.83c.82-1.7,1.06-3.33,1.45-6.02.52-3.54.08-6.07-1.37-7.75-1.32-1.53-3.38-2.26-6.34-2.26-11.05,0-34.1,14.98-51.38,33.4-21.44,21.93-36.22,48.1-52.7,93.34l-24.15,66.12h-62.69l70.51-193.38h-37.7l4.42-11.25h40.87c17.74,0,39.49-1.96,61.42-5.53l-18.58,51.56,1.58.95c32.79-36.21,64.09-53.82,95.69-53.82,14.68,0,25.96,4.06,32.59,11.76,5.52,6.39,7.63,15.22,6.12,25.53-.51,3.49-1.92,9.67-3.9,15.6l1.59.93c34.64-38.22,62.05-53.82,94.61-53.82,15.32,0,26.86,3.99,33.38,11.54,5.18,5.99,7.07,13.94,5.65,23.65-.64,4.34-1.96,10.83-4.64,17.11l-44.22,120.91c-2.76,7.83-3.88,11.6-4.29,14.38-.4,2.72,0,4.77,1.15,6.12,1.03,1.19,2.61,1.79,4.7,1.79,11.06,0,23.82-12.96,52.35-53.27l9.28,5.84c-33.47,50.14-55.06,67.09-85.29,67.09h0Z"/>
          <path class="cls-2" d="M45,389.81l3.94-11.13h42.9L210.78,56.13h-48.28l3.94-11.13h157c45.25,0,65.9,5.89,88.39,25.24,29.09,25.13,43.15,67.83,36.7,111.43-8.39,56.72-39.08,114.66-80.07,151.21-47.55,42.57-88.9,56.93-163.89,56.93H45ZM164.92,378.68h50.15c31.05,0,53.91-2.94,71.88-17.56,15.77-12.83,27.61-33.59,43.67-76.6,25.79-68.51,45.81-135.5,51.02-170.67,2.89-19.54.29-33.61-7.96-43.03-8.66-9.88-23.62-14.69-45.74-14.69h-44.1l-118.94,322.55h.02Z"/>
          <path class="cls-2" d="M615.81,396.57c-16.14,0-27.95-6.6-32.38-18.09-2.51-6.23-3.39-11.84-2.04-28.67l.25-3.04-1.91,2.37c-27.65,34.14-49.73,47.44-78.75,47.44-17.25,0-31.7-6.16-41.77-17.8-12.87-14.89-17.8-37.88-13.88-64.75,4.81-32.94,23.24-66.69,50.56-92.57,27.27-25.83,60-40.64,89.8-40.64,24.52,0,36.85,10.17,42.53,35.11l.71,3.11,11.47-31.47h61.5l-62.99,172.23-.59,2.16c-.91,3.28-1.69,6.12-1.95,7.9-.29,1.98.07,3.61,1.03,4.72.61.71,1.78,1.55,3.91,1.55,11.4,0,27.45-16.57,49.06-50.64l10.19,4.91c-25.35,43.92-53.86,66.18-84.75,66.18h0ZM589.02,192.42c-19.12,0-32.91,17.85-59.04,76.4-19.71,44.74-31.56,78.06-34.22,96.35-.9,6.15-.06,10.77,2.5,13.73,2.28,2.64,5.92,3.97,10.82,3.97,19.94,0,46.48-18.11,66.03-45.07,18.8-25.81,37.33-66.36,42.17-92.32,3.03-16.32-.47-32.91-9.13-43.32-5.3-6.37-11.92-9.74-19.14-9.74h0Z"/>
          <path class="cls-2" d="M887.63,396.27c-12.26,0-21.95-3.71-28.01-10.72-6.53-7.55-8.91-18.92-6.86-32.88,1.16-7.95,4.19-19.44,8.3-31.52l38.08-104.91c.27-.87.54-1.67.77-2.4.7-2.15,1.2-3.7,1.32-4.53.31-2.11-.16-3.96-1.36-5.35-1.4-1.62-3.66-2.48-6.52-2.48-10.16,0-30.7,12.91-46.74,29.38-21.59,22.23-37.06,48.45-50.16,85.01l-28.02,76.77h-61.5l69.21-191.16h-37.01l4.34-11.1h40.11c17.66,0,39.53-1.98,60.26-5.46l-19.82,54.58,1.63.9c29.81-39.09,60.5-57.29,96.58-57.29,14.47,0,25.46,3.86,31.75,11.15,4.7,5.43,6.53,12.7,5.32,21.02-.61,4.21-1.92,10.66-4.64,17.44l-43.55,120.55c-1.1,3.16-3.72,10.89-4.29,14.73-.41,2.83,0,5,1.25,6.44,1.09,1.27,2.77,1.91,4.97,1.91,9.28,0,22.93-14.08,45.65-47.07.33-.32.72-.9,1.32-1.78.7-1.02,1.61-2.37,2.82-3.87l9.21,4.86c-31.43,48.14-55.94,67.8-84.42,67.8v-.03Z"/>
          <path class="cls-2" d="M1074.4,396.57c-29.23,0-53.22-8.92-67.56-25.11-12.26-13.84-17.06-32.26-13.93-53.3,5.77-38.57,34.66-82.36,71.86-108.98,27.48-19.45,55.15-28.91,84.56-28.91,24,0,42.65,6.13,52.51,17.26,6.56,7.41,9.07,16.61,7.46,27.37-2.63,17.57-17.06,29.84-35.07,29.84-7.98,0-14.83-2.78-19.3-7.82-4.54-5.13-6.39-12.3-5.21-20.2.75-5.02,1.66-7.94,6.6-18.98.19-.45.36-.87.53-1.25.65-1.52,1.21-2.84,1.4-4.19.31-2.1-.26-4.06-1.68-5.66-2.43-2.74-7.09-4.25-13.13-4.25-21.21,0-35.76,16.19-55.61,61.87-18.38,42.2-31.54,80.1-34.36,98.93-1.57,10.49-.18,18.04,4.26,23.05,4.93,5.56,13.47,8.16,26.88,8.16,31.05,0,55.69-14.63,87.72-52.13l8.77,6.19c-31.9,41.23-62.88,58.08-106.72,58.08h0Z"/>
          <path class="cls-2" d="M1289.67,396.57c-31.23,0-56.41-9.24-70.91-26.01-11.48-13.28-16.01-30.86-13.09-50.83,4.93-33.73,25.42-68.72,56.2-95.99,30.82-27.29,67.59-42.95,100.88-42.95,22.29,0,40.43,6.77,51.05,19.07,8.35,9.66,11.67,22.27,9.6,36.47-4.34,29.71-27.99,50.27-68.41,59.47-16.35,3.74-33.21,5.19-72.17,6.21l-.62.02-.24.58c-9.27,23.14-16.11,44.91-17.86,56.83-.99,6.79.33,12.35,3.94,16.52,4.85,5.61,13.52,8.45,25.79,8.45,33.98,0,63.94-16.06,100.04-53.67l7.53,6.58c-36.64,42.06-69.07,59.23-111.73,59.23h0ZM1357.41,192.94c-19.39,0-36.33,15.1-48.97,43.67-5.47,11.99-6.25,13.93-20.84,51.99l-.51,1.33,3.18-.12c26.29-.98,27.86-1.05,38.77-4.13,24.75-6.24,43.2-31.02,48.11-64.67,1.5-10.29.27-17.56-3.77-22.23-3.37-3.89-8.74-5.86-15.97-5.86v.03Z"/>
        </g>
      </g>
      <g>
        <path class="cls-3" d="M417.94,795.17c39.33-60.34,118.79-104.39,177.7-104.39s72.38,50.28,35.71,104.39c-61,90.03-145.28,167.12-305.47,228.9l-16.1,6.23c-13.9,5.27-29.02,6.23-29.06-2.87.35-8.14,12.85-18.2,24.55-22.51l17.46-6.7c14.74-5.75,42.11-18.68,65.66-32.08,35.33-20.11,64.87-46.93,71.68-56.99,7.14-10.54,1.4-11.97-19.27-11.97-61.49,0-59.93-45.01-22.87-102ZM480.98,795.17c-20.44,30.17-37.29,68-4.74,68,35.14,0,72.85-37.35,93.62-68,22.71-33.52,32.9-69.92-.17-69.92s-67.62,38.79-88.71,69.92Z"/>
        <path class="cls-1" d="M417.94,795.17c39.33-60.34,118.79-104.39,177.7-104.39s72.38,50.28,35.71,104.39c-61,90.03-145.28,167.12-305.47,228.9l-16.1,6.23c-13.9,5.27-29.02,6.23-29.06-2.87.35-8.14,12.85-18.2,24.55-22.51l17.46-6.7c14.74-5.75,42.11-18.68,65.66-32.08,35.33-20.11,64.87-46.93,71.68-56.99,7.14-10.54,1.4-11.97-19.27-11.97-61.49,0-59.93-45.01-22.87-102ZM480.98,795.17c-20.44,30.17-37.29,68-4.74,68,35.14,0,72.85-37.35,93.62-68,22.71-33.52,32.9-69.92-.17-69.92s-67.62,38.79-88.71,69.92Z"/>
      </g>
    </g>
  </g>
</svg>