<?xml version="1.0" encoding="UTF-8"?>
<svg id="Layer_2" data-name="Layer 2" xmlns="http://www.w3.org/2000/svg" xmlns:xlink="http://www.w3.org/1999/xlink" viewBox="0 0 2419.13 832.84">
  <defs>
    <style>
      .cls-1 {
        fill: url(#linear-gradient-8);
      }

      .cls-2 {
        fill: url(#linear-gradient-7);
      }

      .cls-3 {
        fill: url(#linear-gradient-5);
      }

      .cls-4 {
        fill: url(#linear-gradient-6);
      }

      .cls-5 {
        fill: url(#linear-gradient-9);
      }

      .cls-6 {
        fill: url(#linear-gradient-4);
      }

      .cls-7 {
        fill: url(#linear-gradient-3);
      }

      .cls-8 {
        fill: url(#linear-gradient-2);
      }

      .cls-9 {
        fill: url(#linear-gradient);
      }

      .cls-10 {
        fill: url(#linear-gradient-10);
      }

      .cls-11 {
        fill: url(#linear-gradient-11);
      }

      .cls-12 {
        fill: url(#linear-gradient-12);
      }

      .cls-13 {
        fill: url(#linear-gradient-13);
      }

      .cls-14 {
        fill: url(#linear-gradient-19);
      }

      .cls-15 {
        fill: url(#linear-gradient-14);
      }

      .cls-16 {
        fill: url(#linear-gradient-21);
      }

      .cls-17 {
        fill: url(#linear-gradient-20);
      }

      .cls-18 {
        fill: url(#linear-gradient-22);
      }

      .cls-19 {
        fill: url(#linear-gradient-23);
      }

      .cls-20 {
        fill: url(#linear-gradient-28);
      }

      .cls-21 {
        fill: url(#linear-gradient-25);
      }

      .cls-22 {
        fill: url(#linear-gradient-32);
      }

      .cls-23 {
        fill: url(#linear-gradient-31);
      }

      .cls-24 {
        fill: url(#linear-gradient-30);
      }

      .cls-25 {
        fill: url(#linear-gradient-15);
      }

      .cls-26 {
        fill: url(#linear-gradient-16);
      }

      .cls-27 {
        fill: url(#linear-gradient-17);
      }

      .cls-28 {
        fill: url(#linear-gradient-18);
      }

      .cls-29 {
        fill: url(#linear-gradient-27);
      }

      .cls-30 {
        fill: url(#linear-gradient-24);
      }

      .cls-31 {
        fill: url(#linear-gradient-26);
      }

      .cls-32 {
        fill: url(#linear-gradient-29);
      }
    </style>
    <linearGradient id="linear-gradient" x1="201.78" y1="239.65" x2="2165" y2="239.65" gradientUnits="userSpaceOnUse">
      <stop offset="0" stop-color="#eb6d66"/>
      <stop offset=".28" stop-color="#f8fab6"/>
      <stop offset=".5" stop-color="#66ffbd"/>
      <stop offset=".71" stop-color="#00f8e8"/>
      <stop offset=".96" stop-color="#8989e4"/>
    </linearGradient>
    <linearGradient id="linear-gradient-2" y1="238.42" x2="2165" y2="238.42" xlink:href="#linear-gradient"/>
    <linearGradient id="linear-gradient-3" y1="106.25" y2="106.25" xlink:href="#linear-gradient"/>
    <linearGradient id="linear-gradient-4" x1="608.67" y1="120.13" x2="651.64" y2="120.13" xlink:href="#linear-gradient"/>
    <linearGradient id="linear-gradient-5" y1="83.25" y2="83.25" xlink:href="#linear-gradient"/>
    <linearGradient id="linear-gradient-6" y1="83.25" x2="2165" y2="83.25" xlink:href="#linear-gradient"/>
    <linearGradient id="linear-gradient-7" y1="83.25" x2="2165" y2="83.25" xlink:href="#linear-gradient"/>
    <linearGradient id="linear-gradient-8" x1="779.93" y1="120.13" x2="819" y2="120.13" xlink:href="#linear-gradient"/>
    <linearGradient id="linear-gradient-9" y1="83.11" x2="2165" y2="83.11" xlink:href="#linear-gradient"/>
    <linearGradient id="linear-gradient-10" y1="83.23" y2="83.23" xlink:href="#linear-gradient"/>
    <linearGradient id="linear-gradient-11" y1="83.25" y2="83.25" xlink:href="#linear-gradient"/>
    <linearGradient id="linear-gradient-12" y1="83.24" x2="2165" y2="83.24" xlink:href="#linear-gradient"/>
    <linearGradient id="linear-gradient-13" y1="83.24" x2="2165" y2="83.24" xlink:href="#linear-gradient"/>
    <linearGradient id="linear-gradient-14" y1="83.24" x2="2165" y2="83.24" xlink:href="#linear-gradient"/>
    <linearGradient id="linear-gradient-15" y1="83.23" x2="2165" y2="83.23" xlink:href="#linear-gradient"/>
    <linearGradient id="linear-gradient-16" y1="83.24" x2="2165" y2="83.24" xlink:href="#linear-gradient"/>
    <linearGradient id="linear-gradient-17" y1="83.24" x2="2165" y2="83.24" xlink:href="#linear-gradient"/>
    <linearGradient id="linear-gradient-18" y1="83.24" x2="2165" y2="83.24" xlink:href="#linear-gradient"/>
    <linearGradient id="linear-gradient-19" y1="83.25" x2="2165" y2="83.25" xlink:href="#linear-gradient"/>
    <linearGradient id="linear-gradient-20" y1="241.28" y2="241.28" xlink:href="#linear-gradient"/>
    <linearGradient id="linear-gradient-21" y1="239.82" x2="2165" y2="239.82" xlink:href="#linear-gradient"/>
    <linearGradient id="linear-gradient-22" y1="241.28" x2="2165" y2="241.28" xlink:href="#linear-gradient"/>
    <linearGradient id="linear-gradient-23" y1="240.04" x2="2165" y2="240.04" xlink:href="#linear-gradient"/>
    <linearGradient id="linear-gradient-24" y1="182.93" x2="2165" y2="182.93" xlink:href="#linear-gradient"/>
    <linearGradient id="linear-gradient-25" y1="239.97" x2="2165" y2="239.97" xlink:href="#linear-gradient"/>
    <linearGradient id="linear-gradient-26" y1="240.8" x2="2165" y2="240.8" xlink:href="#linear-gradient"/>
    <linearGradient id="linear-gradient-27" y1="239.76" x2="2165" y2="239.76" xlink:href="#linear-gradient"/>
    <linearGradient id="linear-gradient-28" x1="841.8" y1="326.29" x2="900.39" y2="326.29" xlink:href="#linear-gradient"/>
    <linearGradient id="linear-gradient-29" y1="239.96" x2="2165" y2="239.96" xlink:href="#linear-gradient"/>
    <linearGradient id="linear-gradient-30" y1="626.24" x2="2165" y2="626.24" xlink:href="#linear-gradient"/>
    <linearGradient id="linear-gradient-31" y1="627.11" x2="2165" y2="627.11" xlink:href="#linear-gradient"/>
    <linearGradient id="linear-gradient-32" y1="625.37" x2="2165" y2="625.37" xlink:href="#linear-gradient"/>
  </defs>
  <g id="Layer_1-2" data-name="Layer 1">
    <g>
      <g>
        <path d="M2394.66,235.54l21.83-60.95c4.94-13.78,2.86-29.11-5.57-41.08-8.43-11.97-22.15-19.09-36.8-19.09h-48.73c-3.21,0-6.36.34-9.41.99-10.03-4.3-21.38-6.46-33.96-6.46-32.68,0-67.23,14.33-95.98,39.58-.89-1.61-1.81-3.2-2.79-4.77-5.78-9.3-12.83-17.54-20.87-24.57,6.61-20.47,3.84-41.43-7.73-57.84-11.61-16.46-30.38-25.9-51.49-25.9-33.02,0-65.35,23.41-76.89,55.7-1.54,4.34-2.66,8.7-3.36,13.05-22.72,8.67-44.43,21.68-63.7,38.32-1.81,1.57-3.59,3.16-5.34,4.77-2.45-5.13-5.59-9.96-9.41-14.36-9.68-11.12-27.83-24.39-59.34-24.39-14.47,0-28.22,2.31-41.33,6.98-8.73-4.77-18.95-6.59-29.08-4.88-2.4.41-4.82.78-7.24,1.13-1-7.01-3.66-13.79-7.88-19.72-.73-1.02-1.49-2.01-2.29-2.96,10.75-5.05,19.34-14.27,23.4-25.99l.69-1.99c4.77-13.76,2.6-28.97-5.85-40.84-8.44-11.87-22.1-18.91-36.67-18.91h-533.78c-10.53,0-20.49,3.67-28.38,10.08-10.55-6.69-23.55-10.08-38.88-10.08h-523.91c-19.15,0-36.2,12.12-42.5,30.21l-.69,1.99c-3.54,10.16-3.28,21.12.49,30.94l-6.09,16.71c-7.62,5.31-13.6,12.96-16.8,22.16l-.36,1.02c-1.37,3.68-2.27,7.59-2.64,11.65-4.22-1.29-8.66-1.98-13.19-1.98h-49.35c-3.31,0-6.55.36-9.69,1.05-10.09-4.29-21.54-6.45-34.21-6.45-21.35,0-43.5,5.98-64.35,16.99-2.93-37.22-19.19-71.63-45.88-94.62C338.41,5.08,309.01,0,268.45,0h-125.99c-19.05,0-36.04,12-42.41,29.95l-3.16,8.91c-4.89,13.78-2.78,29.07,5.65,41.01,3.59,5.09,8.14,9.3,13.31,12.45l-64.6,174.64h-3.09c-19.05,0-36.04,12-42.41,29.95l-3.16,8.91c-4.89,13.78-2.78,29.07,5.65,41.01,8.43,11.94,22.14,19.04,36.76,19.04h128.05c67.62,0,110.5-13.95,154.45-50.89,3.83,9.84,9.15,18.77,15.89,26.55h0c16.64,19.19,40.62,29.76,67.52,29.76,17.95,0,34.24-3.94,49.59-12.01,11.86,7.72,26.49,12.01,42.57,12.01s31.83-3.99,46.53-11.85c7.62,5.58,16.89,8.72,26.58,8.72h49.35c16.01,0,30.58-8.48,38.6-21.87.19.23.39.45.58.68,13.01,14.99,32.15,23.49,54.1,24.06.79.04,1.58.06,2.38.06,27.86,0,49.96-11.79,68.25-28.63,19.82,18.41,47.93,28.56,80.29,28.83.44.01.89.02,1.33.02,0,0,0,0,.01,0h0c34.19,0,62.58-9.4,88.17-29.74,20.39,19.24,50.02,29.73,84.57,29.73,30.18,0,56.56-7.83,81.52-24.65.48.78.98,1.55,1.51,2.31,8.42,12.04,22.19,19.22,36.88,19.22h50.3c10.44,0,20.27-3.61,28.07-9.83,7.87,6.28,17.74,9.82,28.06,9.82h50.3c16.37,0,31.22-8.85,39.12-22.76.43.53.86,1.04,1.29,1.54,9.32,10.76,26.43,23.54,55.33,24.15.72.03,1.45.05,2.17.05,26.89,0,47.83-10.12,65.09-24.79,16.4,17.61,39.26,27.28,64.71,27.28,17.7,0,33.76-3.9,48.89-11.9,11.34,7.39,25.22,11.6,40.46,11.89.55.02,1.11.03,1.67.03,16.62,0,33-4.47,48.17-13.05,7.3,4.87,15.96,7.58,24.97,7.58h49.34c16.03,0,30.61-8.5,38.62-21.9.23.27.45.53.68.8,13.26,15.25,32.83,23.76,55.22,24.04.37,0,.75.01,1.12.01,24.94,0,45.26-9.51,62.36-23.67,15.73,17.94,37.36,30.17,62.68,35.11,12.3,2.4,22.92,3.18,31.56,3.18,11.13,0,18.98-1.31,22.93-2.17.02,0,.03,0,.04-.01.01,0,.03,0,.04,0,32.7-7.17,63.77-21.64,89.85-41.84,4.22-3.27,8.28-6.68,12.19-10.22,2.69,4.49,5.73,8.73,9.15,12.66,16.51,19,40.2,29.47,66.69,29.47,17.7,0,33.76-3.9,48.89-11.9,11.48,7.47,25.54,11.7,41,11.89.38,0,.75.01,1.13.01,22.31,0,44.2-8.05,63.29-23.28,15.94-12.72,30.03-30.11,43.06-53.16,6.09-10.78,7.47-23.59,3.82-35.42-3.46-11.21-11.15-20.59-21.4-26.2ZM764.75,80.46c.49.43.98.89,1.45,1.4,1.13,1.23,2.03,2.54,2.75,3.87-.26.25-.51.5-.76.76-.82-.63-1.64-1.36-2.43-2.23-.82-.89-1.51-1.82-2.11-2.76.37-.34.74-.69,1.09-1.04ZM1076.58,84.46l.39-1.07c.92,1.22,1.64,2.5,2.2,3.75-.07.08-.15.15-.22.23-.89-.58-1.79-1.27-2.68-2.11.1-.27.22-.53.31-.8Z"/>
        <path d="M1979.15,454.32c-4.58-23.57-26.84-39.36-50.55-35.96-6.58.68-31.08.71-37.93.05-14.45-2.19-29.1,2.78-39.24,13.37l-265.47,277.18c-2.71-5.01-5.43-9.99-8.12-14.91-4.51-8.25-9.17-16.78-13.65-25.27-.09-.17-.18-.34-.28-.52-.14-.25-.27-.5-.41-.75,20.48-7.63,38.29-18,53.28-31.07,17.97-15.67,31.25-34.74,39.45-56.65,11.74-31.37,5.59-71.44-15.67-102.09-14.36-20.71-48.71-55.45-117.4-55.45h-173.21c-7.1,0-13.92,1.67-20.01,4.7-6.12-3.03-12.94-4.7-19.99-4.7,0,0-381.71-.53-397.6-.84-11.83-.23-23.5,3.68-32.6,11.25-18.9,15.73-33.94,28.51-48.78,41.43-.21.18-.42.36-.62.55-13.22,11.95-25.35,22.56-36.59,32.29-1.25-2.68-2.54-5.43-3.87-8.27-16.53-36.13-21.46-47.06-22.68-49.86-7.51-17.2-24.9-27.94-43.64-26.93-42.83,2.29-53.95,2.54-56.74,2.54-3.05,0-15.51-.5-31.29-1.13-7.32-.29-15.79-.63-25.42-1-1.33-.05-2.64-.03-3.95.04-.77-.04-1.55-.07-2.33-.07h-252.19c-18.77,0-35.57,11.65-42.15,29.23l-119,317.98c-5.17,13.82-3.24,29.29,5.17,41.42,8.41,12.12,22.22,19.36,36.98,19.36h252.19c4.51,0,8.9-.68,13.07-1.94,6.27,2.52,13.15,3.65,20.21,3.11,5.03-.39,9.67-.78,13.82-1.17h16.3c4.68,0,11.1,0,13.09.19,4.55.47,9.74.94,15.45,1.4,13.16,1.06,26.11-3.72,35.43-13.06,17.54-17.57,34.74-33.53,52.52-48.75l34.82-29.7c1.52,3.3,2.99,6.51,4.41,9.66l1.18,2.6c8.5,18.82,16.53,36.59,23.06,52.2,7.25,17.33,24.51,28.31,43.29,27.59,9.12-.36,17.19-.69,24.22-.97,15.4-.62,28.7-1.16,31.8-1.16,4.53,0,19.46.63,38.37,1.44l16.35.69c15.5.65,30.25-6.73,39.01-19.53,3.5-5.11,5.85-10.79,7.02-16.68,1.26,6.36,3.89,12.46,7.84,17.85,8.93,12.19,23.38,19.08,38.47,18.36,25.71-1.24,78.36-1.24,104.32,0,.73.04,1.45.05,2.17.05,18.74,0,35.62-11.66,42.19-29.37l92.93-250.94c17.81.01,38.34.03,53.98.05l-82.15,219.49c-5.17,13.82-3.24,29.29,5.17,41.42,8.41,12.12,22.22,19.36,36.98,19.36h103.65c18.83,0,35.67-11.72,42.2-29.38l17.29-46.71,20.54,48.61c7.04,16.66,23.37,27.48,41.45,27.48h119.95c3.29,0,6.53-.36,9.68-1.05,14.97-.03,43.46.24,48.98.5,15.74,1.16,30.95-6.02,40.07-18.95,9.42-13.36,28.03-35.05,43.26-52.52,9.31-10.39,16.76-18.74,22.46-25.15h95.15c1.62,13.94,3.34,32.12,5.03,55.81,1.69,23.66,21.4,41.8,44.85,41.8.8,0,1.61-.02,2.43-.06,32.88-1.75,81.27-1.58,109.06-.41,13.76.59,27.03-5.17,36.01-15.61,8.98-10.44,12.69-24.42,10.06-37.94l-63.09-324.49ZM571.26,668.28c4.45-4.61,7.95-10.22,10.14-16.55l12.34-35.75c4.75-13.75,2.55-28.95-5.89-40.8-8.44-11.85-23.6-24.42-23.6-24.42,51.05-.11,24.03.2,24.89.21h.21c3.85,0,7.62-.5,11.24-1.43l40.79,78.06c-17.13,14.09-34.89,28.53-53.36,43.39-18.47,14.87-25.07,5.91-16.76-2.7ZM930.18,771.77c-.84,2.26-1.48,4.56-1.94,6.88-.62-3.15-1.59-6.25-2.9-9.26-11.7-26.8-20.61-46.48-27.23-60.16-6.66-13.77-18.11-36.25-32.39-64.21-5.29-10.35-9.58-18.83-12.97-25.56,5.48-4.27,10.91-8.41,16.39-12.52.32-.24.63-.48.94-.72,3.41-2.7,6.6-5.23,9.56-7.58,6.31-5.01,11.76-9.33,15.77-12.41.6-.46,1.2-.94,1.78-1.44l1.38-1.18c5.42-4.62,12.17-10.37,21.16-17.2.11-.08.22-.17.33-.25l20.58-15.92c4.18,1.26,8.56,1.96,13.03,1.91,0,0,27.47-.03,57.85-.06l-81.34,219.67ZM1633.08,831.78c.2.02.4.04.6.05-.24-.02-.44-.04-.6-.05Z"/>
      </g>
      <g>
        <path class="cls-9" d="M2035.72,167.97c-3.68,2.33-7.07,5.28-8.45,5.28-1.92,0-3.32-.82-3.86-2.64-.59-2.03,1.17-4.75,3.17-6.94,3.68-4.02,12.92-13.06,29.41-21.89.47-.25.19-.98-.32-.84-47.71,12.01-94,50.56-111.16,97.4-18.18,49.65,2.45,91,46.51,100.02.63.13,1.16-.49.94-1.09-1.78-4.67-6.47-10.17-.28-27.84h-.01c1.2-3.42,3.95-12.3,8.53-24.17,13.12-34.01,33.18-91.69,41.67-114.25.6-1.58-2.47-5.36-6.13-3.04Z"/>
        <path class="cls-8" d="M2096.04,137.26c-1.89-.2.98,1.94,2.42,4.11,2.82,4.22,3.9,12.31.76,22.1-3.82,11.89-41.46,112.03-46.27,123.75-1.81,4.39-.7,7.53,1.81,8.21,3.13.83,11.15-.62,28.1-14.95,5.84-4.93,10.21-4.67,6.27,2.41-4.27,7.64-16.31,24.07-37.51,41.61-6.99,5.78-17.39,10.91-24.61,14.02-.62.26-.31,1.19.34,1.05,49.53-10.86,101.55-44.62,122.3-101.24,18.64-50.85-8.25-96.18-53.6-101.07Z"/>
        <path class="cls-7" d="M2084.77,132.05c13.97,0,29.41-11.55,34.5-25.8,5.08-14.26-2.13-25.8-16.1-25.8s-29.41,11.55-34.5,25.8c-5.08,14.26,2.13,25.8,16.1,25.8Z"/>
        <polygon class="cls-6" points="630.16 120.13 630.16 120.12 630.16 120.12 630.16 120.13"/>
        <path class="cls-3" d="M654.91,118.13c-5.25,0-8.95-2.3-8.46-8.07.22-2.61,1.38-7.54,3.58-13.72l13.15-36.15,23.83,59.93h11.24l22.1-60.14c2.57-6.81,5.3-11.63,12.86-11.63l.69-1.99h-22.71l-.69,1.99h.53c5.15,0,7.76,2.83,7.38,7.23-.12,1.47-.81,4.61-1.62,6.81l-13.8,38.88h-.21l-21.74-54.91h-27.12l-.69,1.99h5.16l3.33,9.01-15.05,41.29c-3.56,9.85-7.32,19.49-15.84,19.49l-.69,1.97h24.05l.69-1.99Z"/>
        <path class="cls-4" d="M756.46,121.61c26.91,0,47.32-21.48,49.35-45.38,1.53-18.02-10.18-31.33-29.31-31.33h0c-30.58,0-48.36,23.9-50.18,45.38-1.68,19.91,12.49,31.33,30.15,31.33ZM745.04,107.24c.94-11,10.3-37.09,17.11-49.35,3.59-6.39,8.65-10.37,15.49-10.37,4.83,0,10.1,3.67,9.47,11.11-.96,11.31-7.12,28.18-14.34,44-6.05,13.2-11.36,16.34-17.46,16.34h-.02c-7.14,0-10.88-4.3-10.25-11.74Z"/>
        <path class="cls-2" d="M799.47,120.12h24.06l.69-1.99c-5.25,0-8.95-2.3-8.46-8.07.23-2.61,1.38-7.54,3.58-13.72l13.15-36.15,23.83,59.93h11.24l22.1-60.14c2.57-6.81,5.3-11.63,12.86-11.63l.69-1.99h-22.71l-.69,1.99h.53c5.16,0,7.76,2.83,7.38,7.23-.12,1.47-.81,4.61-1.62,6.81l-13.8,38.88h-.21l-21.74-54.91h-27.12l-.69,1.99h5.16l3.33,9.01-15.05,41.29c-3.56,9.85-7.32,19.49-15.83,19.49l-.69,1.97Z"/>
        <polygon class="cls-1" points="799.47 120.13 799.47 120.12 799.47 120.12 799.47 120.13"/>
        <path class="cls-5" d="M934.5,105.26c-.78,9.22-11.05,13.72-18.61,13.72-12.19,0-19.81-9.33-18.8-21.27.1-1.16.2-2.31.6-3.35h-2.31v.02h.03l-9.04,24.83h2.31c.78-1.88,2.34-2.83,4.23-2.83,3.88,0,12.48,5.24,22.04,5.24,16.19,0,34.69-8.8,36.27-27.45,2.09-24.84-30.55-19.18-29.22-34.9.63-7.44,8.45-11.74,15.18-11.74,13.46,0,17.45,8.6,16.39,21.17h1.99l8.98-24.1h-2.31c-1.4,2.83-4.12,3.98-6.43,3.98-5.89,0-9.36-3.67-20.71-3.67-14.41,0-29.56,7.65-30.9,23.47-2.12,25.04,31.83,18.85,30.3,36.88Z"/>
        <path class="cls-10" d="M1001.73,118.12h-6.62l25.14-69.78c9.99,0,13.12,7.55,12.4,16.24-.13,1.58-.38,3.26-.7,4.61h2.31l8.23-22.84h-64.43v-.02l-8.43,22.64h2.42c4.65-10.16,14.67-20.64,26.55-20.64l-24.93,69.78h-6.73l-.81,1.99h34.79l.8-1.99Z"/>
        <path class="cls-11" d="M1065.97,121.61c26.91,0,47.32-21.48,49.35-45.38,1.53-18.02-10.18-31.33-29.31-31.33h0c-30.58,0-48.36,23.9-50.18,45.38-1.68,19.91,12.49,31.33,30.15,31.33ZM1054.56,107.24c.94-11,10.3-37.09,17.11-49.35,3.59-6.39,8.65-10.37,15.49-10.37,4.83,0,10.1,3.67,9.47,11.11-.96,11.31-7.12,28.18-14.34,44-6.05,13.2-11.36,16.34-17.46,16.34h-.01c-7.14,0-10.88-4.3-10.25-11.74Z"/>
        <path class="cls-12" d="M1111.77,118.13l-.69,1.99h35.1l.69-1.99h-6.93l11.27-31.44h15.76c20.59,0,30.14-12.26,31.07-23.15.96-11.31-4.21-17.18-20.19-17.18h-40.57l-.69,1.99h6.83l-25.23,69.78h-6.4ZM1151.9,84.71l13.17-36.36h4.41c4.73,0,8.93,1.25,8.38,7.86-.62,7.35-5.14,18.55-7.78,22.43-2.89,4.3-5.57,6.09-12.5,6.09h-5.68,0s0,0,0,0Z"/>
        <path class="cls-13" d="M1240.3,118.12c-4.63,0-8.25-1.88-7.79-7.34.14-1.67.69-4.4,2.87-10.37l17.08-47.78h.21l-3.91,67.48h7.67l45.21-69.78h.21l-25.81,67.8h-5.68l-1.01,1.99h34.05l1.01-1.99h-7.56l25.23-69.78h6.62l1.01-1.99h-28.27l-31.68,48.93h-.21l3.08-48.93h-27.54l-1.01,1.99h7.46l-17.7,49.03c-4.55,12.69-8.71,19.6-15.95,20.75h0s-.9,1.98-.9,1.98h22.28l1.01-1.99Z"/>
        <path class="cls-15" d="M1319.62,118.12h-6.4l-.69,1.99h64.32l9.3-23.05h-2.31c-8.45,15.41-22.07,21.07-35.1,21.07h-7.36l12.76-35.31h7.56c7.35,0,9.6,4.4,9.19,9.33-.11,1.36-.35,2.83-.79,4.4h2.42l9.84-26.93h-2.31c-5.23,9.64-11.25,11.21-18.5,11.21h-6.73l11.68-32.48h6.42c13.45,0,18.95,4.61,17.5,21.8h1.99l6.74-23.78h-60.43l-.69,1.99h6.81l-25.23,69.78Z"/>
        <path class="cls-25" d="M1431.3,121.58c12.61,0,24.33-4.4,32.47-11.21l6.4-17.29h4.63l.69-1.99h-31.22l-.7,2.1h5.36l-4.28,12.05c-2.34,6.5-6.42,13.72-14.3,13.72-7.14,0-10.88-4.3-10.25-11.74.92-11,8.55-34.05,17.26-49.98,3.49-6.5,8.38-9.74,14.49-9.74,12.72,0,17.35,9.96,16.44,20.64-.15,1.88-.41,3.67-.78,5.55h2.31l10.08-27.35h0s0-.02,0-.02h-2.31c-1.66,2.3-3.45,3.46-6.81,3.46-4.3,0-8.41-4.93-20.6-4.93-28.38,0-47.63,23.9-49.45,45.38-1.71,20.22,12.49,31.33,30.56,31.33Z"/>
        <path class="cls-26" d="M1467.11,118.13l-.69,1.99h25.65l.69-1.99c-3.47,0-8.53-1.16-8.1-6.18.14-1.78.83-3.67,4.06-8.38l3.11-4.5h22.28l.18,19.06h-6.2l-.69,1.99h33.32l.69-1.99h-6.09l-1.61-71.77h-8.39l-37.14,53.86c-7.68,11.31-12.12,17.91-21.06,17.91ZM1513.73,67.43h.22l.22,29.65h-20.91l20.47-29.65Z"/>
        <path class="cls-27" d="M1567.24,118.12c-4.62,0-8.25-1.88-7.78-7.34.13-1.67.69-4.4,2.86-10.37l17.08-47.78h.21l-3.9,67.48h7.66l45.22-69.78h.21l-25.8,67.8h-5.68l-1.01,1.99h34.06l1-1.99h-7.56l25.23-69.78h6.63l1-1.99h-28.27l-31.67,48.93h-.21l3.07-48.93h-27.53l-1.01,1.99h7.47l-17.7,49.03c-4.55,12.69-8.7,19.6-15.95,20.75h0s-.9,1.98-.9,1.98h22.28l1-1.99Z"/>
        <polygon class="cls-28" points="1647.77 118.13 1641.35 118.13 1640.66 120.12 1675.76 120.12 1676.44 118.13 1669.52 118.13 1694.66 48.35 1701.69 48.35 1702.39 46.36 1666.86 46.36 1666.16 48.35 1673.01 48.35 1647.77 118.13"/>
        <path class="cls-14" d="M1726.08,87.96l-16.77,15.71c-3.65,3.46-14,13.93-20.46,14.46h-.03s-.69,2-.69,2h26.18l.69-1.99c-4.21,0-7.9-2.41-7.54-6.5.19-2.2.62-3.56,6.21-8.8l13.15-12.57,8.16,27.87h-6.4l-.7,1.99h34.37l.69-1.99h-5.46l-13.19-44.12,16.22-15.3c7.65-7.23,11.29-10.37,17.7-10.37l.69-1.99h-26.06l-.69,1.99c3.36,0,7.04,1.26,6.66,5.66-.13,1.67-1.51,4.2-4.73,7.44l-10.51,10.17-7.07-23.27h6.4l.69-1.99h-34.9l-.69,1.99h5.99l12.11,39.61Z"/>
        <path class="cls-17" d="M1515.49,314.61c7.95,9.15,19.28,13.99,32.73,13.99,23,0,40.51-10.76,62.42-38.39l1.54-1.94-.21,2.48c-1.07,13.63-.37,18.16,1.63,23.21,3.51,9.3,12.86,14.65,25.64,14.65h0c24.48.01,47.08-18.02,67.17-53.56l-8.07-3.97c-17.13,27.57-29.85,40.97-38.89,40.97-1.67,0-2.6-.67-3.08-1.22-.79-.89-1.09-2.22-.85-3.84.21-1.45.82-3.73,1.56-6.39l.47-1.76,49.93-139.41h-48.73l-9.1,25.51-.57-2.56c-4.51-20.18-14.27-28.42-33.7-28.42-23.61,0-49.56,11.99-71.17,32.89-21.66,20.95-36.27,48.26-40.09,74.92-3.15,22.03.89,40.79,11.37,52.84ZM1544.06,303.18c2.11-14.8,11.49-41.76,27.12-77.97,20.72-47.4,31.64-61.84,46.82-61.84,5.61,0,10.77,2.62,14.94,7.59,7.04,8.4,9.91,21.95,7.47,35.34-3.85,21.01-18.54,53.83-33.43,74.72-15.5,21.83-36.54,36.48-52.35,36.48-3.85,0-6.71-1.06-8.53-3.14-2.07-2.39-2.76-6.15-2.04-11.18Z"/>
        <path class="cls-16" d="M1773.88,159.44h-32.19l-3.48,9h29.69l-55.52,154.71h49.34l22.48-62.14c10.51-29.59,22.91-50.8,40.23-68.8,12.87-13.34,29.34-23.78,37.5-23.78,2.27,0,4.08.68,5.21,1.98.98,1.13,1.36,2.63,1.12,4.34-.1.68-.5,1.94-1.06,3.68-.19.59-.4,1.23-.62,1.93l-30.56,84.91c-3.29,9.78-5.71,19.07-6.65,25.51-1.64,11.37.29,20.62,5.61,26.73,4.87,5.6,12.61,8.57,22.38,8.57h0c22.84,0,42.5-15.9,67.73-54.88l-7.4-3.95c-.97,1.22-1.7,2.31-2.26,3.14-.5.71-.81,1.18-1.07,1.44-18.23,26.7-29.18,38.1-36.62,38.1-1.76,0-3.1-.51-3.98-1.52-1.01-1.16-1.35-2.92-1.03-5.22.45-3.1,2.55-9.36,3.45-11.91l34.93-97.56c2.19-5.5,3.24-10.72,3.73-14.13.98-6.79-.51-12.71-4.34-17.12-5.08-5.84-13.85-8.92-25.39-8.92-28.96,0-53.57,14.74-77.49,46.37l-1.32-.71,15.91-44.18c-16.64,2.81-34.18,4.42-48.34,4.42Z"/>
        <path class="cls-18" d="M2326.1,312.03c-1.67,0-2.61-.67-3.08-1.22-.79-.89-1.09-2.22-.85-3.84.21-1.45.82-3.74,1.54-6.39l.48-1.74,49.93-139.41h-48.73l-9.1,25.51-.57-2.56c-4.51-20.18-14.27-28.42-33.7-28.42-23.61,0-49.56,11.99-71.18,32.89-21.65,20.95-36.27,48.26-40.08,74.92-3.16,22.03.9,40.79,11.37,52.84,7.95,9.15,19.27,13.99,32.73,13.99,23,0,40.51-10.76,62.4-38.39l1.54-1.94-.19,2.48c-1.07,13.63-.37,18.16,1.61,23.21,3.51,9.3,12.87,14.65,25.65,14.65h0c24.48,0,47.08-18.02,67.17-53.57l-8.07-3.97c-17.13,27.57-29.85,40.97-38.89,40.97ZM2307.07,206.31c-3.85,21.01-18.54,53.83-33.43,74.72-15.5,21.83-36.54,36.48-52.35,36.48-3.85,0-6.71-1.06-8.53-3.14-2.07-2.39-2.77-6.15-2.04-11.18,2.11-14.8,11.49-41.75,27.12-77.97,20.72-47.4,31.64-61.84,46.8-61.84,5.62,0,10.79,2.62,14.96,7.59,7.04,8.4,9.91,21.95,7.47,35.34Z"/>
        <path class="cls-19" d="M1427.5,179.07c-.24.76-.5,1.6-.78,2.57l-29.72,81.14c-3.46,9.07-6.31,19.49-7.45,27.17-1.78,12.07.03,21.33,5.37,27.5,4.97,5.73,12.87,8.64,23.47,8.64v.03h.01c24.26,0,41.58-13.57,68.44-53.68l-7.44-4.67c-22.9,32.25-33.15,42.62-42.02,42.62-1.69,0-2.95-.48-3.78-1.43-.93-1.07-1.24-2.72-.92-4.89.32-2.22,1.22-5.24,3.44-11.5l35.48-96.73c2.15-5.03,3.21-10.23,3.73-13.69,1.14-7.76-.38-14.13-4.53-18.91-5.23-6.05-14.49-9.24-26.79-9.24-26.14,0-48.13,12.47-75.93,43.05l-1.28-.75c1.59-4.75,2.72-9.69,3.13-12.48,1.21-8.25-.48-15.31-4.91-20.42-5.32-6.16-14.38-9.41-26.15-9.41-25.35,0-50.47,14.08-76.79,43.05l-1.27-.76,14.92-41.25c-17.6,2.86-35.06,4.43-49.29,4.43h-32.8l-3.55,9h30.25l-56.59,154.71h50.3l19.39-52.9c13.23-36.19,25.09-57.13,42.3-74.68,13.87-14.74,32.37-26.73,41.23-26.73,2.37,0,4.03.59,5.09,1.81,1.16,1.34,1.51,3.36,1.1,6.2-.32,2.15-.51,3.45-1.17,4.81l-51.81,141.48h50.3l19.39-52.9c13.67-37.45,21.1-51,39.81-72.55,15.95-18.06,31.39-28.42,42.37-28.42,2.36,0,4.29.73,5.44,2.06.91,1.05,1.27,2.39,1.05,3.86-.14.92-.53,2.17-1.05,3.89Z"/>
        <path class="cls-30" d="M368.83,154.34c5.17-34.89-6.12-69.05-29.46-89.15-18.05-15.48-34.62-20.19-70.93-20.19h-125.99l-3.16,8.91h38.74l-95.45,258.05h-34.42l-3.16,8.91h128.05c60.18,0,93.37-11.49,131.52-45.54,32.9-29.25,57.52-75.6,64.26-120.98ZM239.16,297.91c-14.43,11.7-32.77,14.05-57.69,14.05h-40.24s-.01,0-.01,0L236.66,53.91h35.4c17.75,0,29.76,3.84,36.7,11.75,6.62,7.53,8.71,18.79,6.39,34.42-4.18,28.14-20.25,81.73-40.94,136.55-12.89,34.41-22.39,51.02-35.05,61.28Z"/>
        <path class="cls-21" d="M377.4,312.04c8.08,9.32,19.67,14.24,33.52,14.24,23.29,0,41.01-10.65,63.2-37.96l1.54-1.89-.2,2.43c-1.09,13.46-.38,17.95,1.63,22.94,3.55,9.19,13.03,14.47,25.98,14.47h0c24.79,0,47.67-17.81,68.01-52.94l-8.18-3.93c-17.34,27.27-30.23,40.52-39.38,40.52-1.71,0-2.65-.68-3.14-1.24-.77-.89-1.06-2.2-.83-3.78.21-1.43.84-3.69,1.56-6.32l.47-1.72,50.55-137.79h-49.35l-9.21,25.18-.56-2.49c-4.56-19.95-14.45-28.09-34.13-28.09-23.92,0-50.19,11.85-72.07,32.52-21.93,20.7-36.72,47.7-40.58,74.05-3.15,21.5.81,39.9,11.14,51.81ZM406.73,301.14c2.14-14.63,11.64-41.29,27.46-77.08,20.96-46.84,32.03-61.12,47.38-61.12v-.02c5.79,0,11.11,2.69,15.36,7.8,6.95,8.33,9.75,21.61,7.32,34.66-3.89,20.76-18.75,53.2-33.84,73.86-15.69,21.56-36.99,36.05-52.99,36.05-3.94,0-6.85-1.07-8.69-3.17-2.05-2.37-2.72-6.07-2-10.98Z"/>
        <path class="cls-31" d="M625.55,323.14l22.49-61.42c10.51-29.25,22.92-50.23,40.25-68.01,12.87-13.18,29.34-23.51,37.5-23.51,2.3,0,4.11.68,5.24,1.98.96,1.11,1.34,2.59,1.09,4.28-.1.68-.5,1.91-1.06,3.63-.19.59-.4,1.23-.62,1.92l-30.56,83.93c-3.3,9.66-5.73,18.86-6.66,25.22-1.64,11.16.26,20.27,5.51,26.31,4.87,5.61,12.64,8.58,22.48,8.58h0v.03c22.86,0,42.52-15.73,67.75-54.24l-7.39-3.89c-.97,1.21-1.71,2.28-2.27,3.1-.49.71-.8,1.17-1.06,1.43-18.24,26.4-29.19,37.67-36.64,37.67-1.76,0-3.11-.51-3.99-1.53-1.01-1.16-1.34-2.89-1.01-5.15.45-3.07,2.55-9.25,3.44-11.78l34.95-96.44c2.18-5.42,3.24-10.59,3.72-13.95.98-6.66-.5-12.47-4.27-16.81-5.06-5.84-13.87-8.92-25.48-8.92-28.96,0-53.58,14.56-77.51,45.83l-1.31-.72,15.9-43.67c-16.63,2.78-34.18,4.37-48.35,4.37h-32.19l-3.48,8.88h29.7l-55.54,152.93h49.35Z"/>
        <path class="cls-29" d="M937.26,174.22c-.13.32-.27.65-.42,1.01-3.97,8.84-4.7,11.17-5.3,15.19-.95,6.31.53,12.05,4.18,16.15,3.59,4.02,9.08,6.25,15.49,6.25,14.46,0,26.04-9.81,28.15-23.87,1.29-8.61-.71-15.97-5.98-21.89-7.92-8.91-22.88-13.81-42.14-13.81-23.61,0-45.8,7.56-67.86,23.12-29.85,21.29-53.04,56.33-57.67,87.19-2.52,16.83,1.34,31.57,11.18,42.64,11.51,12.95,30.76,20.09,54.22,20.09h.02c35.17.01,60.04-13.47,85.63-46.45l-7.04-4.96c-25.71,30-45.48,41.7-70.4,41.7-10.75,0-17.61-2.08-21.57-6.53-3.56-4.01-4.68-10.05-3.42-18.44,2.26-15.07,12.82-45.38,27.57-79.15,15.93-36.55,27.6-49.5,44.62-49.5,4.85,0,8.59,1.2,10.54,3.4,1.14,1.28,1.6,2.84,1.35,4.52-.16,1.07-.61,2.13-1.13,3.35Z"/>
        <polygon class="cls-20" points="871.1 326.29 871.1 326.29 871.1 326.29 871.1 326.29"/>
        <path class="cls-32" d="M1037.66,251.11l.19-.46h.5c31.27-.83,44.8-2,57.92-4.99,32.44-7.37,51.43-23.81,54.9-47.58,1.67-11.36-.99-21.45-7.7-29.18-8.53-9.84-23.08-15.26-40.97-15.26-26.72,0-56.22,12.52-80.96,34.36-24.71,21.81-41.14,49.8-45.1,76.79-2.35,15.98,1.29,30.03,10.5,40.67,11.64,13.42,31.84,20.81,56.9,20.81h.01c34.24,0,60.26-13.73,89.67-47.38l-6.04-5.27c-28.98,30.09-53.02,42.93-80.29,42.93-9.84,0-16.81-2.27-20.7-6.76-2.9-3.33-3.96-7.78-3.16-13.21,1.4-9.54,6.89-26.96,14.33-45.47ZM1042.18,239.89c11.7-30.44,12.34-31.99,16.72-41.59,10.15-22.85,23.74-34.94,39.3-34.94v-.02c5.8,0,10.12,1.58,12.82,4.69,3.24,3.74,4.23,9.56,3.03,17.79-3.94,26.92-18.75,46.74-38.61,51.74-8.75,2.46-10.02,2.51-31.11,3.3l-2.55.1.41-1.07Z"/>
        <path class="cls-24" d="M345.71,747.8l42.55-111.02h69.51c19.07,0,81.09.27,81.09.27l12.34-35.75s-53.51,0-81.19,0h-69.51l35.7-95.39c47.53-.43,153.14.05,153.14.05l14.49-38.71h-252.19l-119,317.98h252.19l13.66-36.51s-91.72-1.36-152.78-.92Z"/>
        <path class="cls-23" d="M1309.94,467.25h-341.38c-.02.1-.05.23-.09.4-9.31.59-18.54.91-27.68.91-11.07,0-22.03-.43-32.25-1.3-15.11,12.58-31.08,26.03-48.01,40.78-16.32,14.75-30.82,27.33-42.88,37.74-12.06,10.41-25.59,21.69-40.09,34.27-5.19-12.58-14.89-33.4-28.51-62.47-13.5-29.5-21.19-46.42-23.08-50.75-32.46,1.74-52.38,2.6-59.14,2.6-5.54,0-24.98-.87-58.46-2.17l89.77,171.79c-58.87,49.02-120.19,98.04-183.48,147.5,5.65-.44,10.69-.87,15.12-1.3h18.45c7.38,0,13.53,0,17.72.43,4.19.43,8.99.87,14.41,1.3,17.76-17.79,35.9-34.71,55.15-51.19l79.32-67.67c10.7,21.69,20.91,42.95,30.12,63.34,9.21,20.39,17.66,39.04,24.74,55.96,32.96-1.3,52.26-2.17,57.8-2.17,6.77,0,25.6.87,56.61,2.17-11.37-26.03-20.2-45.55-26.5-58.56s-17.12-34.27-31.96-63.34c-14.84-29.06-22.78-45.12-23.91-47.72l-6.51-9.98c5.49-4.34,11.83-9.54,18.9-15.18,7.07-5.64,16.46-13.01,28.05-21.69,10.97-8.68,19.63-15.62,25.85-20.39,5.6-4.77,13.65-11.71,24.5-19.96l74.02-57.29c-4.09,11.27-12.92,33.87-12.92,33.87,0,0,86.89-.09,122.57-.09l-103.81,280.33c26.94-1.3,81.46-1.3,108.65,0l103.81-280.33c26.45,0,110.17.09,110.17.09,0,0,9.03-29.07,14.94-39.91Z"/>
        <path class="cls-22" d="M1883.92,462.91l-309.42,323.06-13.64-27.64c-10.79-22.12-23.87-44.68-36.47-68.54-12.76-23.42-18.97-34.92-27.53-53.14,90.29-9.33,111.53-57.45,117.22-72.63,11.36-30.37-7.41-96.77-90.92-96.77h-173.21l-119.82,320.15h103.65l55.4-149.66h.31c11.24,22.56,19.51,39.91,24.35,51.62l41.43,98.04h119.95l-.45-.91c8.61-.36,57.81.06,62.4.48,9.18-13.01,24.77-31.67,46.33-56.4,22.17-24.73,33.97-38.17,36.01-40.34h153.78c4.38,19.52,8.2,52.06,11.45,97.61,32.63-1.74,82.46-1.74,113.34-.43l-63.09-324.49c-8.48,1.3-43.54,1.3-51.05,0ZM1396.81,617.35l46.96-119.7c31.37,0,87.74-.6,70.99,56.5-14.74,50.22-50.23,67.98-117.95,63.21ZM1748.21,661.16l102.71-108.45,18.46,108.45h-121.18Z"/>
      </g>
    </g>
  </g>
</svg>