<?xml version="1.0" encoding="UTF-8"?>
<svg id="Layer_2" data-name="Layer 2" xmlns="http://www.w3.org/2000/svg" xmlns:xlink="http://www.w3.org/1999/xlink" viewBox="0 0 2193.26 801.74">
  <defs>
    <style>
      .cls-1 {
        fill: #f84444;
      }

      .cls-2 {
        fill: url(#linear-gradient-2);
      }

      .cls-3 {
        fill: url(#linear-gradient);
      }

      .cls-4 {
        fill: #fff;
      }

      .cls-5 {
        fill: none;
      }

      .cls-5, .cls-6 {
        stroke: #000;
        stroke-miterlimit: 10;
        stroke-width: 15px;
      }
    </style>
    <linearGradient id="linear-gradient" x1="7.36" y1="365.29" x2="2165.71" y2="365.29" gradientUnits="userSpaceOnUse">
      <stop offset="0" stop-color="#fba800"/>
      <stop offset=".06" stop-color="#fba904"/>
      <stop offset=".12" stop-color="#fbad10"/>
      <stop offset=".18" stop-color="#fbb424"/>
      <stop offset=".24" stop-color="#fcbe41"/>
      <stop offset=".31" stop-color="#fccb66"/>
      <stop offset=".37" stop-color="#fdda94"/>
      <stop offset=".43" stop-color="#feecc8"/>
      <stop offset=".49" stop-color="#fff"/>
      <stop offset=".54" stop-color="#feeecf"/>
      <stop offset=".61" stop-color="#fddc99"/>
      <stop offset=".68" stop-color="#fccc6a"/>
      <stop offset=".74" stop-color="#fcbf43"/>
      <stop offset=".81" stop-color="#fbb526"/>
      <stop offset=".88" stop-color="#fbad11"/>
      <stop offset=".94" stop-color="#fba904"/>
      <stop offset="1" stop-color="#fba800"/>
    </linearGradient>
    <linearGradient id="linear-gradient-2" x1="38.86" y1="168.27" x2="2170.14" y2="508.96" gradientUnits="userSpaceOnUse">
      <stop offset="0" stop-color="#a9732a"/>
      <stop offset=".25" stop-color="#edca50"/>
      <stop offset=".29" stop-color="#edcb54"/>
      <stop offset=".32" stop-color="#eece60"/>
      <stop offset=".36" stop-color="#f0d574"/>
      <stop offset=".4" stop-color="#f3dd91"/>
      <stop offset=".43" stop-color="#f7e9b6"/>
      <stop offset=".47" stop-color="#fcf6e3"/>
      <stop offset=".49" stop-color="#fff"/>
      <stop offset=".51" stop-color="#fcf8e8"/>
      <stop offset=".55" stop-color="#f7eaba"/>
      <stop offset=".59" stop-color="#f3de93"/>
      <stop offset=".63" stop-color="#f0d576"/>
      <stop offset=".67" stop-color="#eecf61"/>
      <stop offset=".71" stop-color="#edcb54"/>
      <stop offset=".75" stop-color="#edca50"/>
      <stop offset="1" stop-color="#a9732a"/>
    </linearGradient>
  </defs>
  <g id="Layer_1-2" data-name="Layer 1">
    <g>
      <path class="cls-6" d="M2171.68,409.89c-11.06-18.57-19.11-38.82-34.01-54.91-49.1-54.66-164.39-55.35-222.85-8.95-6.2-14.03-17.73-26.74-34.25-26.23-15.83,2.59-128.75-6.97-139.29,7.39-6.76-14.56-165.51-4.69-179.35-7.39-19.19-.46-31.51,15.72-35.14,33.08-7.03-14.97-17.8-30.68-36.35-29.97-7.92.63-53.53-1.61-60.24,1.75-45.26-20.13-97.69,3.33-133.91,40.59-4.45-7.75-8.35-15.87-13.53-23.18,6.15-22.83-6.3-41.01-16.84-59.45-8.93-19.17-22.38-37.36-45.27-39.67,3.46-16.43,1.39-33.65-5.8-47.6,2.3.5,4.66.77,7.07.77h223.77c29.42.19,43.55-35.34,26.27-57.62,17.99-7.95,25.68-33.17,14.61-49.74-7-12.5-13.65-25.21-21.01-37.51-6.29-8.83-16.46-14.08-27.3-14.08h-403.74c-8.46,0-16.43,3.19-22.49,8.69-1.08-18.13-412.91-4.92-427.11-8.7-23.53-.67-40.52,25.96-31.71,47.25l-4.77,13.14c-8.6,5.74-14.14,16.32-14.93,26.72-4.94-.13-10.3.13-14.87,1.83-29.65-14.19-65.62-6.44-95.48,9.69-4.33-17.99-13.52-33.29-22.39-49.06-15.41-32.8-41.91-63.95-77.57-73.09-30.42-10.56-152.25-3.88-187.28-5.67-18.41-.42-30.87,14.65-34.79,31.41-7.92,22.29,11.83,40.82,20.31,59.86l-66.72,180.93c-24.44-2.07-39.17,7.39-45.44,31.41-7.94,22.99,12.69,42.17,21.46,61.81,5.46,11.45,17.44,18.93,30.12,18.86,38.89-1.24,154.43,3.44,190.03-4.42,2.62,4.69,5.23,9.37,7.81,14.06l-40.1,109.97c-6.84,16.72,4.47,31.74,12.26,45.74,8.22,16.19,18.04,36.08,39.22,35.24,0,0,61.14,0,61.14,0,11.78,0,22.52-6.17,28.53-15.93,6.06,9.87,16.94,15.96,28.53,15.93,0,0,51.14,0,51.14,0,22.81.3,31.88-19.42,37.41-38.28,19.92,53.32,93.18,52.75,129.57,10.27,22.57,37.87,81.57,42.42,115.09,19.07,24.76,21.33,65.07,17.66,91.95-1.55,12.6,16.91,56.75,8.72,74.49,10.5,22.13.25,31.65-18.35,36.87-36.99,21.59,53.75,91.3,48.71,125.38,9.94,54.47,78.19,169.85,41.71,224.14-18.03,20.1,50.58,81.51,64.61,124.83,36.13,51,38.68,113.12-4.79,139.41-57.17,4.52-8.02,5.54-17.54,2.82-26.34-5.48-13.29-13.73-25.27-20.34-38.02.64-1.97,21.01-58.53,21.53-60.45,6.49,12.91,14.6,27.3,30.34,29.42l32.35,101.54c-29.37,27.14-70.92,69.64-102.35,95.9-20.29,16.18-28.58,17.8-29.25,17.9-13.34,1.12-24.73,10.08-28.97,22.78-9.23,21.42-3.57,32.13,7.73,50.68,9.08,16.86,18.29,39.33,41.03,38.48,0,0,118.77,0,118.77,0,13.4,0,25.39-7.97,30.68-20.07,5.59,11.91,17.52,20.22,30.85,20.07,96.9.13,302.28-.1,400.83,0,13.39,0,25.5-7.98,30.79-20.29l47.05-109.67c8.95-19.04-5.93-36.26-14.27-52.44,42.99-39.46,63.26-113.6,33.52-166.33ZM1894.15,488.75c8.61,17,19.15,34.63,37.56,42.06-39.79,30.59-85.3,57.5-116.21,96.96l-32.06-102.71c18.79-17.42,73.09-71.77,90.13-84.33,2.04,18.3,12.21,32.52,20.59,48.03Z"/>
      <g>
        <g>
          <path class="cls-4" d="M2137.67,354.98c-25.26-27.09-66.46-42.63-113.04-42.63-32.84,0-66.25,7.94-91.66,21.79-7.08,3.86-13.58,8.19-19.5,12.93-.9-4.75-2.82-9.32-5.72-13.35-6.3-8.74-16.41-13.92-27.18-13.92h-118.3c-7.83,0-15.17,2.72-20.99,7.39-5.88-4.73-13.27-7.39-20.99-7.39h-158.37c-14.42,0-27.22,9.23-31.78,22.9l-3.02,9.06c-3.41,10.22-1.69,21.45,4.6,30.18,6.3,8.74,16.41,13.91,27.18,13.91h2.7l43.65,137-59.97,57.09s-.08.08-.12.11c-1.49,1.43-3.21,3.11-5.14,5-9.11,8.89-22.87,22.32-37.12,33.69-20.29,16.18-28.58,17.8-29.25,17.91-13.34,1.12-24.73,10.08-28.97,22.78l-3.02,9.06c-3.41,10.22-1.69,21.45,4.6,30.18,6.3,8.74,16.41,13.91,27.18,13.91h118.78c13.46,0,25.52-8.04,30.77-20.24.95,2.21,2.15,4.34,3.59,6.33,6.3,8.74,16.41,13.91,27.18,13.91h155.98c1.75,0,3.48-.14,5.17-.4,1.68.26,3.38.4,5.1.4h234.58c13.4,0,25.5-7.98,30.79-20.29l47.05-109.67c3.98-9.27,3.57-19.83-1.11-28.76-4.35-8.3-11.95-14.36-20.93-16.79,14.53-12.1,25.98-25.57,34.84-40.94,11.57-20.07,18.36-43.27,20.16-68.96,2.24-31.93-7.34-60.37-27.72-82.23ZM1891.71,480.5c11.92,12.78,28.33,19.82,46.22,19.82,13.68,0,26.11-3,36.77-8.49-19.97,22.93-47.3,42.58-73.74,61.58-33.72,24.24-68.27,49.09-91.63,82.68l-45.89-147.04,57.68-55.3c33.92-32.57,41.83-37.89,56.44-37.89.32,0,.64-.03.96-.04-2.98,8.66-4.85,17.8-5.52,27.34-1.55,22.01,5.28,42.91,18.72,57.34Z"/>
          <g>
            <path class="cls-4" d="M1504.19,444.22l-8.1-3.99,25.91-72.56c3.66-10.26,2.11-21.66-4.17-30.56-6.28-8.9-16.49-14.2-27.38-14.2h-49.54c-3.71,0-7.32.61-10.71,1.75-9.53-4.87-20.71-7.33-33.38-7.33-32.64,0-67.51,15.67-95.67,42.99-1.99,1.93-3.93,3.91-5.82,5.93-2.44-6.76-5.56-13.26-9.36-19.38-7.14-11.48-16.41-21.19-27.21-28.74.69-1.56,1.33-3.14,1.9-4.74,6.29-17.73,4.24-35.92-5.63-49.89-9.48-13.43-24.9-21.13-42.31-21.13-13.45,0-27.34,4.68-39.36,13.21-.31-.29-.62-.59-.95-.87l-.28-.24c.44-.36.87-.73,1.29-1.1,15.43-13.42,25.13-31.04,28.04-50.97,2.25-15.42-.1-30.24-6.61-43.04,2.3.5,4.66.77,7.07.77h223.77c14.27,0,26.97-9.03,31.65-22.51l.52-1.51c3.56-10.24,1.94-21.57-4.35-30.41-.71-1-1.47-1.95-2.28-2.86,8.35-3.67,15.04-10.69,18.17-19.69l.52-1.51c3.55-10.24,1.93-21.57-4.35-30.4-6.28-8.83-16.46-14.08-27.3-14.08h-403.74c-8.46,0-16.43,3.19-22.49,8.69-8.18-5.77-18.5-8.69-30.83-8.69h-396.27c-14.27,0-26.97,9.04-31.65,22.52l-.52,1.51c-2.65,7.63-2.42,15.86.47,23.22l-4.77,13.14c-5.74,3.96-10.23,9.69-12.63,16.6l-.25.73c-1.15,3.06-1.82,6.23-2.05,9.4h-3.94c-3.79,0-7.48.64-10.93,1.83-9.61-4.88-20.89-7.34-33.7-7.34-25.87,0-53.16,9.6-77.47,26.86,2.74-42.53-12.97-83.43-42.52-108.95-13.19-11.35-26.45-18.67-41.74-23.03-13.9-3.97-29.52-5.66-52.21-5.66h-135.07c-14.19,0-26.85,8.94-31.58,22.32l-3.21,9.08c-3.63,10.25-2.05,21.63,4.22,30.51,5.21,7.36,13.11,12.25,21.85,13.71l-72.48,196.57h-10.64c-14.19,0-26.84,8.94-31.58,22.32l-3.21,9.08c-3.63,10.25-2.05,21.63,4.22,30.51,6.28,8.88,16.48,14.16,27.36,14.16h133.16c29.9,0,53.42-2.63,74.39-8.39-5.01,8.04-6.51,18.04-3.61,27.51,2.67,8.72,8.67,15.73,16.34,19.81l-42.54,116.68c-3.75,10.27-2.24,21.73,4.03,30.68,6.27,8.96,16.51,14.29,27.45,14.29h61.14c11.78,0,22.52-6.17,28.53-15.93.34.55.7,1.1,1.07,1.64,6.27,8.96,16.52,14.3,27.45,14.3h51.14c14.07,0,26.64-8.79,31.47-22l6.8-18.61c2.71,10.36,7.48,17.94,12.03,23.21,7.95,9.21,22.76,20.16,48.32,20.41.3,0,.6.01.9.01,27.62,0,48.4-11.29,67.46-31.03,1.81,2.72,3.79,5.32,5.92,7.78,14.43,16.64,35.24,25.81,58.58,25.81,20.12,0,36.64-5.76,50.59-14.52,10.82,9.26,25.46,14.52,41.94,14.52,17.62,0,34.41-5.4,50.01-16.08,6.28,6.64,15.06,10.5,24.34,10.5h50.15c14.12,0,26.72-8.85,31.51-22.13l5.97-16.56c2.82,9.39,7.35,16.41,11.68,21.41,11.34,13.09,28.41,20.3,48.06,20.3.32,0,.63,0,.94-.01,26.04-.3,46.81-12.74,64.08-30.03,14.24,21.42,36.6,36.15,63.74,41.8,11.97,2.69,23.09,3.25,30.34,3.25,4.68,0,9.29-.23,13.31-.66,2.13-.23,5.73-.62,9.85-1.91,30.64-7.09,59.71-20.83,84.19-39.84,8.49-6.6,16.33-13.8,23.5-21.51,3.48,9.62,8.46,18.27,14.87,25.67,14.43,16.64,35.24,25.81,58.58,25.81,20.12,0,36.64-5.76,50.59-14.52,10.82,9.26,25.46,14.52,41.94,14.52.31,0,.63,0,.94-.01,19.84-.22,38.61-7.3,55.81-21.06,14.74-11.8,28.45-28.83,40.73-50.62,4.52-8.02,5.54-17.54,2.82-26.34-2.72-8.79-8.94-16.08-17.19-20.15Z"/>
            <path class="cls-1" d="M1504.19,444.22l-8.1-3.99,25.91-72.56c3.66-10.26,2.11-21.66-4.17-30.56-6.28-8.9-16.49-14.2-27.38-14.2h-49.54c-3.71,0-7.32.61-10.71,1.75-9.53-4.87-20.71-7.33-33.38-7.33-32.64,0-67.51,15.67-95.67,42.99-1.99,1.93-3.93,3.91-5.82,5.93-2.44-6.76-5.56-13.26-9.36-19.38-7.14-11.48-16.41-21.19-27.21-28.74.69-1.56,1.33-3.14,1.9-4.74,6.29-17.73,4.24-35.92-5.63-49.89-9.48-13.43-24.9-21.13-42.31-21.13-13.45,0-27.34,4.68-39.36,13.21-.31-.29-.62-.59-.95-.87l-.28-.24c.44-.36.87-.73,1.29-1.1,15.43-13.42,25.13-31.04,28.04-50.97,2.25-15.42-.1-30.24-6.61-43.04,2.3.5,4.66.77,7.07.77h223.77c14.27,0,26.97-9.03,31.65-22.51l.52-1.51c3.56-10.24,1.94-21.57-4.35-30.41-.71-1-1.47-1.95-2.28-2.86,8.35-3.67,15.04-10.69,18.17-19.69l.52-1.51c3.55-10.24,1.93-21.57-4.35-30.4-6.28-8.83-16.46-14.08-27.3-14.08h-403.74c-8.46,0-16.43,3.19-22.49,8.69-8.18-5.77-18.5-8.69-30.83-8.69h-396.27c-14.27,0-26.97,9.04-31.65,22.52l-.52,1.51c-2.65,7.63-2.42,15.86.47,23.22l-4.77,13.14c-5.74,3.96-10.23,9.69-12.63,16.6l-.25.73c-1.15,3.06-1.82,6.23-2.05,9.4h-3.94c-3.79,0-7.48.64-10.93,1.83-9.61-4.88-20.89-7.34-33.7-7.34-25.87,0-53.16,9.6-77.47,26.86,2.74-42.53-12.97-83.43-42.52-108.95-13.19-11.35-26.45-18.67-41.74-23.03-13.9-3.97-29.52-5.66-52.21-5.66h-135.07c-14.19,0-26.85,8.94-31.58,22.32l-3.21,9.08c-3.63,10.25-2.05,21.63,4.22,30.51,5.21,7.36,13.11,12.25,21.85,13.71l-72.48,196.57h-10.64c-14.19,0-26.84,8.94-31.58,22.32l-3.21,9.08c-3.63,10.25-2.05,21.63,4.22,30.51,6.28,8.88,16.48,14.16,27.36,14.16h133.16c29.9,0,53.42-2.63,74.39-8.39-5.01,8.04-6.51,18.04-3.61,27.51,2.67,8.72,8.67,15.73,16.34,19.81l-42.54,116.68c-3.75,10.27-2.24,21.73,4.03,30.68,6.27,8.96,16.51,14.29,27.45,14.29h61.14c11.78,0,22.52-6.17,28.53-15.93.34.55.7,1.1,1.07,1.64,6.27,8.96,16.52,14.3,27.45,14.3h51.14c14.07,0,26.64-8.79,31.47-22l6.8-18.61c2.71,10.36,7.48,17.94,12.03,23.21,7.95,9.21,22.76,20.16,48.32,20.41.3,0,.6.01.9.01,27.62,0,48.4-11.29,67.46-31.03,1.81,2.72,3.79,5.32,5.92,7.78,14.43,16.64,35.24,25.81,58.58,25.81,20.12,0,36.64-5.76,50.59-14.52,10.82,9.26,25.46,14.52,41.94,14.52,17.62,0,34.41-5.4,50.01-16.08,6.28,6.64,15.06,10.5,24.34,10.5h50.15c14.12,0,26.72-8.85,31.51-22.13l5.97-16.56c2.82,9.39,7.35,16.41,11.68,21.41,11.34,13.09,28.41,20.3,48.06,20.3.32,0,.63,0,.94-.01,26.04-.3,46.81-12.74,64.08-30.03,14.24,21.42,36.6,36.15,63.74,41.8,11.97,2.69,23.09,3.25,30.34,3.25,4.68,0,9.29-.23,13.31-.66,2.13-.23,5.73-.62,9.85-1.91,30.64-7.09,59.71-20.83,84.19-39.84,8.49-6.6,16.33-13.8,23.5-21.51,3.48,9.62,8.46,18.27,14.87,25.67,14.43,16.64,35.24,25.81,58.58,25.81,20.12,0,36.64-5.76,50.59-14.52,10.82,9.26,25.46,14.52,41.94,14.52.31,0,.63,0,.94-.01,19.84-.22,38.61-7.3,55.81-21.06,14.74-11.8,28.45-28.83,40.73-50.62,4.52-8.02,5.54-17.54,2.82-26.34-2.72-8.79-8.94-16.08-17.19-20.15Z"/>
          </g>
        </g>
        <g>
          <path class="cls-3" d="M2137.67,354.98c-25.26-27.09-66.46-42.63-113.04-42.63-32.84,0-66.25,7.94-91.66,21.79-7.08,3.86-13.58,8.19-19.5,12.93-.9-4.75-2.82-9.32-5.72-13.35-6.3-8.74-16.41-13.92-27.18-13.92h-118.3c-7.83,0-15.17,2.72-20.99,7.39-5.88-4.73-13.27-7.39-20.99-7.39h-158.37c-14.42,0-27.22,9.23-31.78,22.9l-3.02,9.06c-3.41,10.22-1.69,21.45,4.6,30.18,6.3,8.74,16.41,13.91,27.18,13.91h2.7l43.65,137-59.97,57.09s-.08.08-.12.11c-1.49,1.43-3.21,3.11-5.14,5-9.11,8.89-22.87,22.32-37.12,33.69-20.29,16.18-28.58,17.8-29.25,17.91-13.34,1.12-24.73,10.08-28.97,22.78l-3.02,9.06c-3.41,10.22-1.69,21.45,4.6,30.18,6.3,8.74,16.41,13.91,27.18,13.91h118.78c13.46,0,25.52-8.04,30.77-20.24.95,2.21,2.15,4.34,3.59,6.33,6.3,8.74,16.41,13.91,27.18,13.91h155.98c1.75,0,3.48-.14,5.17-.4,1.68.26,3.38.4,5.1.4h234.58c13.4,0,25.5-7.98,30.79-20.29l47.05-109.67c3.98-9.27,3.57-19.83-1.11-28.76-4.35-8.3-11.95-14.36-20.93-16.79,14.53-12.1,25.98-25.57,34.84-40.94,11.57-20.07,18.36-43.27,20.16-68.96,2.24-31.93-7.34-60.37-27.72-82.23ZM1891.71,480.5c11.92,12.78,28.33,19.82,46.22,19.82,13.68,0,26.11-3,36.77-8.49-19.97,22.93-47.3,42.58-73.74,61.58-33.72,24.24-68.27,49.09-91.63,82.68l-45.89-147.04,57.68-55.3c33.92-32.57,41.83-37.89,56.44-37.89.32,0,.64-.03.96-.04-2.98,8.66-4.85,17.8-5.52,27.34-1.55,22.01,5.28,42.91,18.72,57.34Z"/>
          <g>
            <path class="cls-3" d="M1504.19,444.22l-8.1-3.99,25.91-72.56c3.66-10.26,2.11-21.66-4.17-30.56-6.28-8.9-16.49-14.2-27.38-14.2h-49.54c-3.71,0-7.32.61-10.71,1.75-9.53-4.87-20.71-7.33-33.38-7.33-32.64,0-67.51,15.67-95.67,42.99-1.99,1.93-3.93,3.91-5.82,5.93-2.44-6.76-5.56-13.26-9.36-19.38-7.14-11.48-16.41-21.19-27.21-28.74.69-1.56,1.33-3.14,1.9-4.74,6.29-17.73,4.24-35.92-5.63-49.89-9.48-13.43-24.9-21.13-42.31-21.13-13.45,0-27.34,4.68-39.36,13.21-.31-.29-.62-.59-.95-.87l-.28-.24c.44-.36.87-.73,1.29-1.1,15.43-13.42,25.13-31.04,28.04-50.97,2.25-15.42-.1-30.24-6.61-43.04,2.3.5,4.66.77,7.07.77h223.77c14.27,0,26.97-9.03,31.65-22.51l.52-1.51c3.56-10.24,1.94-21.57-4.35-30.41-.71-1-1.47-1.95-2.28-2.86,8.35-3.67,15.04-10.69,18.17-19.69l.52-1.51c3.55-10.24,1.93-21.57-4.35-30.4-6.28-8.83-16.46-14.08-27.3-14.08h-403.74c-8.46,0-16.43,3.19-22.49,8.69-8.18-5.77-18.5-8.69-30.83-8.69h-396.27c-14.27,0-26.97,9.04-31.65,22.52l-.52,1.51c-2.65,7.63-2.42,15.86.47,23.22l-4.77,13.14c-5.74,3.96-10.23,9.69-12.63,16.6l-.25.73c-1.15,3.06-1.82,6.23-2.05,9.4h-3.94c-3.79,0-7.48.64-10.93,1.83-9.61-4.88-20.89-7.34-33.7-7.34-25.87,0-53.16,9.6-77.47,26.86,2.74-42.53-12.97-83.43-42.52-108.95-13.19-11.35-26.45-18.67-41.74-23.03-13.9-3.97-29.52-5.66-52.21-5.66h-135.07c-14.19,0-26.85,8.94-31.58,22.32l-3.21,9.08c-3.63,10.25-2.05,21.63,4.22,30.51,5.21,7.36,13.11,12.25,21.85,13.71l-72.48,196.57h-10.64c-14.19,0-26.84,8.94-31.58,22.32l-3.21,9.08c-3.63,10.25-2.05,21.63,4.22,30.51,6.28,8.88,16.48,14.16,27.36,14.16h133.16c29.9,0,53.42-2.63,74.39-8.39-5.01,8.04-6.51,18.04-3.61,27.51,2.67,8.72,8.67,15.73,16.34,19.81l-42.54,116.68c-3.75,10.27-2.24,21.73,4.03,30.68,6.27,8.96,16.51,14.29,27.45,14.29h61.14c11.78,0,22.52-6.17,28.53-15.93.34.55.7,1.1,1.07,1.64,6.27,8.96,16.52,14.3,27.45,14.3h51.14c14.07,0,26.64-8.79,31.47-22l6.8-18.61c2.71,10.36,7.48,17.94,12.03,23.21,7.95,9.21,22.76,20.16,48.32,20.41.3,0,.6.01.9.01,27.62,0,48.4-11.29,67.46-31.03,1.81,2.72,3.79,5.32,5.92,7.78,14.43,16.64,35.24,25.81,58.58,25.81,20.12,0,36.64-5.76,50.59-14.52,10.82,9.26,25.46,14.52,41.94,14.52,17.62,0,34.41-5.4,50.01-16.08,6.28,6.64,15.06,10.5,24.34,10.5h50.15c14.12,0,26.72-8.85,31.51-22.13l5.97-16.56c2.82,9.39,7.35,16.41,11.68,21.41,11.34,13.09,28.41,20.3,48.06,20.3.32,0,.63,0,.94-.01,26.04-.3,46.81-12.74,64.08-30.03,14.24,21.42,36.6,36.15,63.74,41.8,11.97,2.69,23.09,3.25,30.34,3.25,4.68,0,9.29-.23,13.31-.66,2.13-.23,5.73-.62,9.85-1.91,30.64-7.09,59.71-20.83,84.19-39.84,8.49-6.6,16.33-13.8,23.5-21.51,3.48,9.62,8.46,18.27,14.87,25.67,14.43,16.64,35.24,25.81,58.58,25.81,20.12,0,36.64-5.76,50.59-14.52,10.82,9.26,25.46,14.52,41.94,14.52.31,0,.63,0,.94-.01,19.84-.22,38.61-7.3,55.81-21.06,14.74-11.8,28.45-28.83,40.73-50.62,4.52-8.02,5.54-17.54,2.82-26.34-2.72-8.79-8.94-16.08-17.19-20.15Z"/>
            <path class="cls-3" d="M1504.19,444.22l-8.1-3.99,25.91-72.56c3.66-10.26,2.11-21.66-4.17-30.56-6.28-8.9-16.49-14.2-27.38-14.2h-49.54c-3.71,0-7.32.61-10.71,1.75-9.53-4.87-20.71-7.33-33.38-7.33-32.64,0-67.51,15.67-95.67,42.99-1.99,1.93-3.93,3.91-5.82,5.93-2.44-6.76-5.56-13.26-9.36-19.38-7.14-11.48-16.41-21.19-27.21-28.74.69-1.56,1.33-3.14,1.9-4.74,6.29-17.73,4.24-35.92-5.63-49.89-9.48-13.43-24.9-21.13-42.31-21.13-13.45,0-27.34,4.68-39.36,13.21-.31-.29-.62-.59-.95-.87l-.28-.24c.44-.36.87-.73,1.29-1.1,15.43-13.42,25.13-31.04,28.04-50.97,2.25-15.42-.1-30.24-6.61-43.04,2.3.5,4.66.77,7.07.77h223.77c14.27,0,26.97-9.03,31.65-22.51l.52-1.51c3.56-10.24,1.94-21.57-4.35-30.41-.71-1-1.47-1.95-2.28-2.86,8.35-3.67,15.04-10.69,18.17-19.69l.52-1.51c3.55-10.24,1.93-21.57-4.35-30.4-6.28-8.83-16.46-14.08-27.3-14.08h-403.74c-8.46,0-16.43,3.19-22.49,8.69-8.18-5.77-18.5-8.69-30.83-8.69h-396.27c-14.27,0-26.97,9.04-31.65,22.52l-.52,1.51c-2.65,7.63-2.42,15.86.47,23.22l-4.77,13.14c-5.74,3.96-10.23,9.69-12.63,16.6l-.25.73c-1.15,3.06-1.82,6.23-2.05,9.4h-3.94c-3.79,0-7.48.64-10.93,1.83-9.61-4.88-20.89-7.34-33.7-7.34-25.87,0-53.16,9.6-77.47,26.86,2.74-42.53-12.97-83.43-42.52-108.95-13.19-11.35-26.45-18.67-41.74-23.03-13.9-3.97-29.52-5.66-52.21-5.66h-135.07c-14.19,0-26.85,8.94-31.58,22.32l-3.21,9.08c-3.63,10.25-2.05,21.63,4.22,30.51,5.21,7.36,13.11,12.25,21.85,13.71l-72.48,196.57h-10.64c-14.19,0-26.84,8.94-31.58,22.32l-3.21,9.08c-3.63,10.25-2.05,21.63,4.22,30.51,6.28,8.88,16.48,14.16,27.36,14.16h133.16c29.9,0,53.42-2.63,74.39-8.39-5.01,8.04-6.51,18.04-3.61,27.51,2.67,8.72,8.67,15.73,16.34,19.81l-42.54,116.68c-3.75,10.27-2.24,21.73,4.03,30.68,6.27,8.96,16.51,14.29,27.45,14.29h61.14c11.78,0,22.52-6.17,28.53-15.93.34.55.7,1.1,1.07,1.64,6.27,8.96,16.52,14.3,27.45,14.3h51.14c14.07,0,26.64-8.79,31.47-22l6.8-18.61c2.71,10.36,7.48,17.94,12.03,23.21,7.95,9.21,22.76,20.16,48.32,20.41.3,0,.6.01.9.01,27.62,0,48.4-11.29,67.46-31.03,1.81,2.72,3.79,5.32,5.92,7.78,14.43,16.64,35.24,25.81,58.58,25.81,20.12,0,36.64-5.76,50.59-14.52,10.82,9.26,25.46,14.52,41.94,14.52,17.62,0,34.41-5.4,50.01-16.08,6.28,6.64,15.06,10.5,24.34,10.5h50.15c14.12,0,26.72-8.85,31.51-22.13l5.97-16.56c2.82,9.39,7.35,16.41,11.68,21.41,11.34,13.09,28.41,20.3,48.06,20.3.32,0,.63,0,.94-.01,26.04-.3,46.81-12.74,64.08-30.03,14.24,21.42,36.6,36.15,63.74,41.8,11.97,2.69,23.09,3.25,30.34,3.25,4.68,0,9.29-.23,13.31-.66,2.13-.23,5.73-.62,9.85-1.91,30.64-7.09,59.71-20.83,84.19-39.84,8.49-6.6,16.33-13.8,23.5-21.51,3.48,9.62,8.46,18.27,14.87,25.67,14.43,16.64,35.24,25.81,58.58,25.81,20.12,0,36.64-5.76,50.59-14.52,10.82,9.26,25.46,14.52,41.94,14.52.31,0,.63,0,.94-.01,19.84-.22,38.61-7.3,55.81-21.06,14.74-11.8,28.45-28.83,40.73-50.62,4.52-8.02,5.54-17.54,2.82-26.34-2.72-8.79-8.94-16.08-17.19-20.15Z"/>
            <path class="cls-3" d="M1504.19,444.22l-8.1-3.99,25.91-72.56c3.66-10.26,2.11-21.66-4.17-30.56-6.28-8.9-16.49-14.2-27.38-14.2h-49.54c-3.71,0-7.32.61-10.71,1.75-9.53-4.87-20.71-7.33-33.38-7.33-32.64,0-67.51,15.67-95.67,42.99-1.99,1.93-3.93,3.91-5.82,5.93-2.44-6.76-5.56-13.26-9.36-19.38-7.14-11.48-16.41-21.19-27.21-28.74.69-1.56,1.33-3.14,1.9-4.74,6.29-17.73,4.24-35.92-5.63-49.89-9.48-13.43-24.9-21.13-42.31-21.13-13.45,0-27.34,4.68-39.36,13.21-.31-.29-.62-.59-.95-.87l-.28-.24c.44-.36.87-.73,1.29-1.1,15.43-13.42,25.13-31.04,28.04-50.97,2.25-15.42-.1-30.24-6.61-43.04,2.3.5,4.66.77,7.07.77h223.77c14.27,0,26.97-9.03,31.65-22.51l.52-1.51c3.56-10.24,1.94-21.57-4.35-30.41-.71-1-1.47-1.95-2.28-2.86,8.35-3.67,15.04-10.69,18.17-19.69l.52-1.51c3.55-10.24,1.93-21.57-4.35-30.4-6.28-8.83-16.46-14.08-27.3-14.08h-403.74c-8.46,0-16.43,3.19-22.49,8.69-8.18-5.77-18.5-8.69-30.83-8.69h-396.27c-14.27,0-26.97,9.04-31.65,22.52l-.52,1.51c-2.65,7.63-2.42,15.86.47,23.22l-4.77,13.14c-5.74,3.96-10.23,9.69-12.63,16.6l-.25.73c-1.15,3.06-1.82,6.23-2.05,9.4h-3.94c-3.79,0-7.48.64-10.93,1.83-9.61-4.88-20.89-7.34-33.7-7.34-25.87,0-53.16,9.6-77.47,26.86,2.74-42.53-12.97-83.43-42.52-108.95-13.19-11.35-26.45-18.67-41.74-23.03-13.9-3.97-29.52-5.66-52.21-5.66h-135.07c-14.19,0-26.85,8.94-31.58,22.32l-3.21,9.08c-3.63,10.25-2.05,21.63,4.22,30.51,5.21,7.36,13.11,12.25,21.85,13.71l-72.48,196.57h-10.64c-14.19,0-26.84,8.94-31.58,22.32l-3.21,9.08c-3.63,10.25-2.05,21.63,4.22,30.51,6.28,8.88,16.48,14.16,27.36,14.16h133.16c29.9,0,53.42-2.63,74.39-8.39-5.01,8.04-6.51,18.04-3.61,27.51,2.67,8.72,8.67,15.73,16.34,19.81l-42.54,116.68c-3.75,10.27-2.24,21.73,4.03,30.68,6.27,8.96,16.51,14.29,27.45,14.29h61.14c11.78,0,22.52-6.17,28.53-15.93.34.55.7,1.1,1.07,1.64,6.27,8.96,16.52,14.3,27.45,14.3h51.14c14.07,0,26.64-8.79,31.47-22l6.8-18.61c2.71,10.36,7.48,17.94,12.03,23.21,7.95,9.21,22.76,20.16,48.32,20.41.3,0,.6.01.9.01,27.62,0,48.4-11.29,67.46-31.03,1.81,2.72,3.79,5.32,5.92,7.78,14.43,16.64,35.24,25.81,58.58,25.81,20.12,0,36.64-5.76,50.59-14.52,10.82,9.26,25.46,14.52,41.94,14.52,17.62,0,34.41-5.4,50.01-16.08,6.28,6.64,15.06,10.5,24.34,10.5h50.15c14.12,0,26.72-8.85,31.51-22.13l5.97-16.56c2.82,9.39,7.35,16.41,11.68,21.41,11.34,13.09,28.41,20.3,48.06,20.3.32,0,.63,0,.94-.01,26.04-.3,46.81-12.74,64.08-30.03,14.24,21.42,36.6,36.15,63.74,41.8,11.97,2.69,23.09,3.25,30.34,3.25,4.68,0,9.29-.23,13.31-.66,2.13-.23,5.73-.62,9.85-1.91,30.64-7.09,59.71-20.83,84.19-39.84,8.49-6.6,16.33-13.8,23.5-21.51,3.48,9.62,8.46,18.27,14.87,25.67,14.43,16.64,35.24,25.81,58.58,25.81,20.12,0,36.64-5.76,50.59-14.52,10.82,9.26,25.46,14.52,41.94,14.52.31,0,.63,0,.94-.01,19.84-.22,38.61-7.3,55.81-21.06,14.74-11.8,28.45-28.83,40.73-50.62,4.52-8.02,5.54-17.54,2.82-26.34-2.72-8.79-8.94-16.08-17.19-20.15Z"/>
          </g>
        </g>
        <g>
          <path class="cls-5" d="M2137.67,354.98c-25.26-27.09-66.46-42.63-113.04-42.63-32.84,0-66.25,7.94-91.66,21.79-7.08,3.86-13.58,8.19-19.5,12.93-.9-4.75-2.82-9.32-5.72-13.35-6.3-8.74-16.41-13.92-27.18-13.92h-118.3c-7.83,0-15.17,2.72-20.99,7.39-5.88-4.73-13.27-7.39-20.99-7.39h-158.37c-14.42,0-27.22,9.23-31.78,22.9l-3.02,9.06c-3.41,10.22-1.69,21.45,4.6,30.18,6.3,8.74,16.41,13.91,27.18,13.91h2.7l43.65,137-59.97,57.09s-.08.08-.12.11c-1.49,1.43-3.21,3.11-5.14,5-9.11,8.89-22.87,22.32-37.12,33.69-20.29,16.18-28.58,17.8-29.25,17.91-13.34,1.12-24.73,10.08-28.97,22.78l-3.02,9.06c-3.41,10.22-1.69,21.45,4.6,30.18,6.3,8.74,16.41,13.91,27.18,13.91h118.78c13.46,0,25.52-8.04,30.77-20.24.95,2.21,2.15,4.34,3.59,6.33,6.3,8.74,16.41,13.91,27.18,13.91h155.98c1.75,0,3.48-.14,5.17-.4,1.68.26,3.38.4,5.1.4h234.58c13.4,0,25.5-7.98,30.79-20.29l47.05-109.67c3.98-9.27,3.57-19.83-1.11-28.76-4.35-8.3-11.95-14.36-20.93-16.79,14.53-12.1,25.98-25.57,34.84-40.94,11.57-20.07,18.36-43.27,20.16-68.96,2.24-31.93-7.34-60.37-27.72-82.23ZM1891.71,480.5c11.92,12.78,28.33,19.82,46.22,19.82,13.68,0,26.11-3,36.77-8.49-19.97,22.93-47.3,42.58-73.74,61.58-33.72,24.24-68.27,49.09-91.63,82.68l-45.89-147.04,57.68-55.3c33.92-32.57,41.83-37.89,56.44-37.89.32,0,.64-.03.96-.04-2.98,8.66-4.85,17.8-5.52,27.34-1.55,22.01,5.28,42.91,18.72,57.34Z"/>
          <g>
            <path class="cls-5" d="M1504.19,444.22l-8.1-3.99,25.91-72.56c3.66-10.26,2.11-21.66-4.17-30.56-6.28-8.9-16.49-14.2-27.38-14.2h-49.54c-3.71,0-7.32.61-10.71,1.75-9.53-4.87-20.71-7.33-33.38-7.33-32.64,0-67.51,15.67-95.67,42.99-1.99,1.93-3.93,3.91-5.82,5.93-2.44-6.76-5.56-13.26-9.36-19.38-7.14-11.48-16.41-21.19-27.21-28.74.69-1.56,1.33-3.14,1.9-4.74,6.29-17.73,4.24-35.92-5.63-49.89-9.48-13.43-24.9-21.13-42.31-21.13-13.45,0-27.34,4.68-39.36,13.21-.31-.29-.62-.59-.95-.87l-.28-.24c.44-.36.87-.73,1.29-1.1,15.43-13.42,25.13-31.04,28.04-50.97,2.25-15.42-.1-30.24-6.61-43.04,2.3.5,4.66.77,7.07.77h223.77c14.27,0,26.97-9.03,31.65-22.51l.52-1.51c3.56-10.24,1.94-21.57-4.35-30.41-.71-1-1.47-1.95-2.28-2.86,8.35-3.67,15.04-10.69,18.17-19.69l.52-1.51c3.55-10.24,1.93-21.57-4.35-30.4-6.28-8.83-16.46-14.08-27.3-14.08h-403.74c-8.46,0-16.43,3.19-22.49,8.69-8.18-5.77-18.5-8.69-30.83-8.69h-396.27c-14.27,0-26.97,9.04-31.65,22.52l-.52,1.51c-2.65,7.63-2.42,15.86.47,23.22l-4.77,13.14c-5.74,3.96-10.23,9.69-12.63,16.6l-.25.73c-1.15,3.06-1.82,6.23-2.05,9.4h-3.94c-3.79,0-7.48.64-10.93,1.83-9.61-4.88-20.89-7.34-33.7-7.34-25.87,0-53.16,9.6-77.47,26.86,2.74-42.53-12.97-83.43-42.52-108.95-13.19-11.35-26.45-18.67-41.74-23.03-13.9-3.97-29.52-5.66-52.21-5.66h-135.07c-14.19,0-26.85,8.94-31.58,22.32l-3.21,9.08c-3.63,10.25-2.05,21.63,4.22,30.51,5.21,7.36,13.11,12.25,21.85,13.71l-72.48,196.57h-10.64c-14.19,0-26.84,8.94-31.58,22.32l-3.21,9.08c-3.63,10.25-2.05,21.63,4.22,30.51,6.28,8.88,16.48,14.16,27.36,14.16h133.16c29.9,0,53.42-2.63,74.39-8.39-5.01,8.04-6.51,18.04-3.61,27.51,2.67,8.72,8.67,15.73,16.34,19.81l-42.54,116.68c-3.75,10.27-2.24,21.73,4.03,30.68,6.27,8.96,16.51,14.29,27.45,14.29h61.14c11.78,0,22.52-6.17,28.53-15.93.34.55.7,1.1,1.07,1.64,6.27,8.96,16.52,14.3,27.45,14.3h51.14c14.07,0,26.64-8.79,31.47-22l6.8-18.61c2.71,10.36,7.48,17.94,12.03,23.21,7.95,9.21,22.76,20.16,48.32,20.41.3,0,.6.01.9.01,27.62,0,48.4-11.29,67.46-31.03,1.81,2.72,3.79,5.32,5.92,7.78,14.43,16.64,35.24,25.81,58.58,25.81,20.12,0,36.64-5.76,50.59-14.52,10.82,9.26,25.46,14.52,41.94,14.52,17.62,0,34.41-5.4,50.01-16.08,6.28,6.64,15.06,10.5,24.34,10.5h50.15c14.12,0,26.72-8.85,31.51-22.13l5.97-16.56c2.82,9.39,7.35,16.41,11.68,21.41,11.34,13.09,28.41,20.3,48.06,20.3.32,0,.63,0,.94-.01,26.04-.3,46.81-12.74,64.08-30.03,14.24,21.42,36.6,36.15,63.74,41.8,11.97,2.69,23.09,3.25,30.34,3.25,4.68,0,9.29-.23,13.31-.66,2.13-.23,5.73-.62,9.85-1.91,30.64-7.09,59.71-20.83,84.19-39.84,8.49-6.6,16.33-13.8,23.5-21.51,3.48,9.62,8.46,18.27,14.87,25.67,14.43,16.64,35.24,25.81,58.58,25.81,20.12,0,36.64-5.76,50.59-14.52,10.82,9.26,25.46,14.52,41.94,14.52.31,0,.63,0,.94-.01,19.84-.22,38.61-7.3,55.81-21.06,14.74-11.8,28.45-28.83,40.73-50.62,4.52-8.02,5.54-17.54,2.82-26.34-2.72-8.79-8.94-16.08-17.19-20.15Z"/>
            <path class="cls-5" d="M1504.19,444.22l-8.1-3.99,25.91-72.56c3.66-10.26,2.11-21.66-4.17-30.56-6.28-8.9-16.49-14.2-27.38-14.2h-49.54c-3.71,0-7.32.61-10.71,1.75-9.53-4.87-20.71-7.33-33.38-7.33-32.64,0-67.51,15.67-95.67,42.99-1.99,1.93-3.93,3.91-5.82,5.93-2.44-6.76-5.56-13.26-9.36-19.38-7.14-11.48-16.41-21.19-27.21-28.74.69-1.56,1.33-3.14,1.9-4.74,6.29-17.73,4.24-35.92-5.63-49.89-9.48-13.43-24.9-21.13-42.31-21.13-13.45,0-27.34,4.68-39.36,13.21-.31-.29-.62-.59-.95-.87l-.28-.24c.44-.36.87-.73,1.29-1.1,15.43-13.42,25.13-31.04,28.04-50.97,2.25-15.42-.1-30.24-6.61-43.04,2.3.5,4.66.77,7.07.77h223.77c14.27,0,26.97-9.03,31.65-22.51l.52-1.51c3.56-10.24,1.94-21.57-4.35-30.41-.71-1-1.47-1.95-2.28-2.86,8.35-3.67,15.04-10.69,18.17-19.69l.52-1.51c3.55-10.24,1.93-21.57-4.35-30.4-6.28-8.83-16.46-14.08-27.3-14.08h-403.74c-8.46,0-16.43,3.19-22.49,8.69-8.18-5.77-18.5-8.69-30.83-8.69h-396.27c-14.27,0-26.97,9.04-31.65,22.52l-.52,1.51c-2.65,7.63-2.42,15.86.47,23.22l-4.77,13.14c-5.74,3.96-10.23,9.69-12.63,16.6l-.25.73c-1.15,3.06-1.82,6.23-2.05,9.4h-3.94c-3.79,0-7.48.64-10.93,1.83-9.61-4.88-20.89-7.34-33.7-7.34-25.87,0-53.16,9.6-77.47,26.86,2.74-42.53-12.97-83.43-42.52-108.95-13.19-11.35-26.45-18.67-41.74-23.03-13.9-3.97-29.52-5.66-52.21-5.66h-135.07c-14.19,0-26.85,8.94-31.58,22.32l-3.21,9.08c-3.63,10.25-2.05,21.63,4.22,30.51,5.21,7.36,13.11,12.25,21.85,13.71l-72.48,196.57h-10.64c-14.19,0-26.84,8.94-31.58,22.32l-3.21,9.08c-3.63,10.25-2.05,21.63,4.22,30.51,6.28,8.88,16.48,14.16,27.36,14.16h133.16c29.9,0,53.42-2.63,74.39-8.39-5.01,8.04-6.51,18.04-3.61,27.51,2.67,8.72,8.67,15.73,16.34,19.81l-42.54,116.68c-3.75,10.27-2.24,21.73,4.03,30.68,6.27,8.96,16.51,14.29,27.45,14.29h61.14c11.78,0,22.52-6.17,28.53-15.93.34.55.7,1.1,1.07,1.64,6.27,8.96,16.52,14.3,27.45,14.3h51.14c14.07,0,26.64-8.79,31.47-22l6.8-18.61c2.71,10.36,7.48,17.94,12.03,23.21,7.95,9.21,22.76,20.16,48.32,20.41.3,0,.6.01.9.01,27.62,0,48.4-11.29,67.46-31.03,1.81,2.72,3.79,5.32,5.92,7.78,14.43,16.64,35.24,25.81,58.58,25.81,20.12,0,36.64-5.76,50.59-14.52,10.82,9.26,25.46,14.52,41.94,14.52,17.62,0,34.41-5.4,50.01-16.08,6.28,6.64,15.06,10.5,24.34,10.5h50.15c14.12,0,26.72-8.85,31.51-22.13l5.97-16.56c2.82,9.39,7.35,16.41,11.68,21.41,11.34,13.09,28.41,20.3,48.06,20.3.32,0,.63,0,.94-.01,26.04-.3,46.81-12.74,64.08-30.03,14.24,21.42,36.6,36.15,63.74,41.8,11.97,2.69,23.09,3.25,30.34,3.25,4.68,0,9.29-.23,13.31-.66,2.13-.23,5.73-.62,9.85-1.91,30.64-7.09,59.71-20.83,84.19-39.84,8.49-6.6,16.33-13.8,23.5-21.51,3.48,9.62,8.46,18.27,14.87,25.67,14.43,16.64,35.24,25.81,58.58,25.81,20.12,0,36.64-5.76,50.59-14.52,10.82,9.26,25.46,14.52,41.94,14.52.31,0,.63,0,.94-.01,19.84-.22,38.61-7.3,55.81-21.06,14.74-11.8,28.45-28.83,40.73-50.62,4.52-8.02,5.54-17.54,2.82-26.34-2.72-8.79-8.94-16.08-17.19-20.15Z"/>
            <path class="cls-5" d="M1504.19,444.22l-8.1-3.99,25.91-72.56c3.66-10.26,2.11-21.66-4.17-30.56-6.28-8.9-16.49-14.2-27.38-14.2h-49.54c-3.71,0-7.32.61-10.71,1.75-9.53-4.87-20.71-7.33-33.38-7.33-32.64,0-67.51,15.67-95.67,42.99-1.99,1.93-3.93,3.91-5.82,5.93-2.44-6.76-5.56-13.26-9.36-19.38-7.14-11.48-16.41-21.19-27.21-28.74.69-1.56,1.33-3.14,1.9-4.74,6.29-17.73,4.24-35.92-5.63-49.89-9.48-13.43-24.9-21.13-42.31-21.13-13.45,0-27.34,4.68-39.36,13.21-.31-.29-.62-.59-.95-.87l-.28-.24c.44-.36.87-.73,1.29-1.1,15.43-13.42,25.13-31.04,28.04-50.97,2.25-15.42-.1-30.24-6.61-43.04,2.3.5,4.66.77,7.07.77h223.77c14.27,0,26.97-9.03,31.65-22.51l.52-1.51c3.56-10.24,1.94-21.57-4.35-30.41-.71-1-1.47-1.95-2.28-2.86,8.35-3.67,15.04-10.69,18.17-19.69l.52-1.51c3.55-10.24,1.93-21.57-4.35-30.4-6.28-8.83-16.46-14.08-27.3-14.08h-403.74c-8.46,0-16.43,3.19-22.49,8.69-8.18-5.77-18.5-8.69-30.83-8.69h-396.27c-14.27,0-26.97,9.04-31.65,22.52l-.52,1.51c-2.65,7.63-2.42,15.86.47,23.22l-4.77,13.14c-5.74,3.96-10.23,9.69-12.63,16.6l-.25.73c-1.15,3.06-1.82,6.23-2.05,9.4h-3.94c-3.79,0-7.48.64-10.93,1.83-9.61-4.88-20.89-7.34-33.7-7.34-25.87,0-53.16,9.6-77.47,26.86,2.74-42.53-12.97-83.43-42.52-108.95-13.19-11.35-26.45-18.67-41.74-23.03-13.9-3.97-29.52-5.66-52.21-5.66h-135.07c-14.19,0-26.85,8.94-31.58,22.32l-3.21,9.08c-3.63,10.25-2.05,21.63,4.22,30.51,5.21,7.36,13.11,12.25,21.85,13.71l-72.48,196.57h-10.64c-14.19,0-26.84,8.94-31.58,22.32l-3.21,9.08c-3.63,10.25-2.05,21.63,4.22,30.51,6.28,8.88,16.48,14.16,27.36,14.16h133.16c29.9,0,53.42-2.63,74.39-8.39-5.01,8.04-6.51,18.04-3.61,27.51,2.67,8.72,8.67,15.73,16.34,19.81l-42.54,116.68c-3.75,10.27-2.24,21.73,4.03,30.68,6.27,8.96,16.51,14.29,27.45,14.29h61.14c11.78,0,22.52-6.17,28.53-15.93.34.55.7,1.1,1.07,1.64,6.27,8.96,16.52,14.3,27.45,14.3h51.14c14.07,0,26.64-8.79,31.47-22l6.8-18.61c2.71,10.36,7.48,17.94,12.03,23.21,7.95,9.21,22.76,20.16,48.32,20.41.3,0,.6.01.9.01,27.62,0,48.4-11.29,67.46-31.03,1.81,2.72,3.79,5.32,5.92,7.78,14.43,16.64,35.24,25.81,58.58,25.81,20.12,0,36.64-5.76,50.59-14.52,10.82,9.26,25.46,14.52,41.94,14.52,17.62,0,34.41-5.4,50.01-16.08,6.28,6.64,15.06,10.5,24.34,10.5h50.15c14.12,0,26.72-8.85,31.51-22.13l5.97-16.56c2.82,9.39,7.35,16.41,11.68,21.41,11.34,13.09,28.41,20.3,48.06,20.3.32,0,.63,0,.94-.01,26.04-.3,46.81-12.74,64.08-30.03,14.24,21.42,36.6,36.15,63.74,41.8,11.97,2.69,23.09,3.25,30.34,3.25,4.68,0,9.29-.23,13.31-.66,2.13-.23,5.73-.62,9.85-1.91,30.64-7.09,59.71-20.83,84.19-39.84,8.49-6.6,16.33-13.8,23.5-21.51,3.48,9.62,8.46,18.27,14.87,25.67,14.43,16.64,35.24,25.81,58.58,25.81,20.12,0,36.64-5.76,50.59-14.52,10.82,9.26,25.46,14.52,41.94,14.52.31,0,.63,0,.94-.01,19.84-.22,38.61-7.3,55.81-21.06,14.74-11.8,28.45-28.83,40.73-50.62,4.52-8.02,5.54-17.54,2.82-26.34-2.72-8.79-8.94-16.08-17.19-20.15Z"/>
          </g>
        </g>
        <g>
          <path class="cls-2" d="M2137.67,354.98c-25.26-27.09-66.46-42.63-113.04-42.63-32.84,0-66.25,7.94-91.66,21.79-7.08,3.86-13.58,8.19-19.5,12.93-.9-4.75-2.82-9.32-5.72-13.35-6.3-8.74-16.41-13.92-27.18-13.92h-118.3c-7.83,0-15.17,2.72-20.99,7.39-5.88-4.73-13.27-7.39-20.99-7.39h-158.37c-14.42,0-27.22,9.23-31.78,22.9l-3.02,9.06c-3.41,10.22-1.69,21.45,4.6,30.18,6.3,8.74,16.41,13.91,27.18,13.91h2.7l43.65,137-59.97,57.09s-.08.08-.12.11c-1.49,1.43-3.21,3.11-5.14,5-9.11,8.89-22.87,22.32-37.12,33.69-20.29,16.18-28.58,17.8-29.25,17.91-13.34,1.12-24.73,10.08-28.97,22.78l-3.02,9.06c-3.41,10.22-1.69,21.45,4.6,30.18,6.3,8.74,16.41,13.91,27.18,13.91h118.78c13.46,0,25.52-8.04,30.77-20.24.95,2.21,2.15,4.34,3.59,6.33,6.3,8.74,16.41,13.91,27.18,13.91h155.98c1.75,0,3.48-.14,5.17-.4,1.68.26,3.38.4,5.1.4h234.58c13.4,0,25.5-7.98,30.79-20.29l47.05-109.67c3.98-9.27,3.57-19.83-1.11-28.76-4.35-8.3-11.95-14.36-20.93-16.79,14.53-12.1,25.98-25.57,34.84-40.94,11.57-20.07,18.36-43.27,20.16-68.96,2.24-31.93-7.34-60.37-27.72-82.23ZM1891.71,480.5c11.92,12.78,28.33,19.82,46.22,19.82,13.68,0,26.11-3,36.77-8.49-19.97,22.93-47.3,42.58-73.74,61.58-33.72,24.24-68.27,49.09-91.63,82.68l-45.89-147.04,57.68-55.3c33.92-32.57,41.83-37.89,56.44-37.89.32,0,.64-.03.96-.04-2.98,8.66-4.85,17.8-5.52,27.34-1.55,22.01,5.28,42.91,18.72,57.34Z"/>
          <g>
            <path class="cls-2" d="M1504.19,444.22l-8.1-3.99,25.91-72.56c3.66-10.26,2.11-21.66-4.17-30.56-6.28-8.9-16.49-14.2-27.38-14.2h-49.54c-3.71,0-7.32.61-10.71,1.75-9.53-4.87-20.71-7.33-33.38-7.33-32.64,0-67.51,15.67-95.67,42.99-1.99,1.93-3.93,3.91-5.82,5.93-2.44-6.76-5.56-13.26-9.36-19.38-7.14-11.48-16.41-21.19-27.21-28.74.69-1.56,1.33-3.14,1.9-4.74,6.29-17.73,4.24-35.92-5.63-49.89-9.48-13.43-24.9-21.13-42.31-21.13-13.45,0-27.34,4.68-39.36,13.21-.31-.29-.62-.59-.95-.87l-.28-.24c.44-.36.87-.73,1.29-1.1,15.43-13.42,25.13-31.04,28.04-50.97,2.25-15.42-.1-30.24-6.61-43.04,2.3.5,4.66.77,7.07.77h223.77c14.27,0,26.97-9.03,31.65-22.51l.52-1.51c3.56-10.24,1.94-21.57-4.35-30.41-.71-1-1.47-1.95-2.28-2.86,8.35-3.67,15.04-10.69,18.17-19.69l.52-1.51c3.55-10.24,1.93-21.57-4.35-30.4-6.28-8.83-16.46-14.08-27.3-14.08h-403.74c-8.46,0-16.43,3.19-22.49,8.69-8.18-5.77-18.5-8.69-30.83-8.69h-396.27c-14.27,0-26.97,9.04-31.65,22.52l-.52,1.51c-2.65,7.63-2.42,15.86.47,23.22l-4.77,13.14c-5.74,3.96-10.23,9.69-12.63,16.6l-.25.73c-1.15,3.06-1.82,6.23-2.05,9.4h-3.94c-3.79,0-7.48.64-10.93,1.83-9.61-4.88-20.89-7.34-33.7-7.34-25.87,0-53.16,9.6-77.47,26.86,2.74-42.53-12.97-83.43-42.52-108.95-13.19-11.35-26.45-18.67-41.74-23.03-13.9-3.97-29.52-5.66-52.21-5.66h-135.07c-14.19,0-26.85,8.94-31.58,22.32l-3.21,9.08c-3.63,10.25-2.05,21.63,4.22,30.51,5.21,7.36,13.11,12.25,21.85,13.71l-72.48,196.57h-10.64c-14.19,0-26.84,8.94-31.58,22.32l-3.21,9.08c-3.63,10.25-2.05,21.63,4.22,30.51,6.28,8.88,16.48,14.16,27.36,14.16h133.16c29.9,0,53.42-2.63,74.39-8.39-5.01,8.04-6.51,18.04-3.61,27.51,2.67,8.72,8.67,15.73,16.34,19.81l-42.54,116.68c-3.75,10.27-2.24,21.73,4.03,30.68,6.27,8.96,16.51,14.29,27.45,14.29h61.14c11.78,0,22.52-6.17,28.53-15.93.34.55.7,1.1,1.07,1.64,6.27,8.96,16.52,14.3,27.45,14.3h51.14c14.07,0,26.64-8.79,31.47-22l6.8-18.61c2.71,10.36,7.48,17.94,12.03,23.21,7.95,9.21,22.76,20.16,48.32,20.41.3,0,.6.01.9.01,27.62,0,48.4-11.29,67.46-31.03,1.81,2.72,3.79,5.32,5.92,7.78,14.43,16.64,35.24,25.81,58.58,25.81,20.12,0,36.64-5.76,50.59-14.52,10.82,9.26,25.46,14.52,41.94,14.52,17.62,0,34.41-5.4,50.01-16.08,6.28,6.64,15.06,10.5,24.34,10.5h50.15c14.12,0,26.72-8.85,31.51-22.13l5.97-16.56c2.82,9.39,7.35,16.41,11.68,21.41,11.34,13.09,28.41,20.3,48.06,20.3.32,0,.63,0,.94-.01,26.04-.3,46.81-12.74,64.08-30.03,14.24,21.42,36.6,36.15,63.74,41.8,11.97,2.69,23.09,3.25,30.34,3.25,4.68,0,9.29-.23,13.31-.66,2.13-.23,5.73-.62,9.85-1.91,30.64-7.09,59.71-20.83,84.19-39.84,8.49-6.6,16.33-13.8,23.5-21.51,3.48,9.62,8.46,18.27,14.87,25.67,14.43,16.64,35.24,25.81,58.58,25.81,20.12,0,36.64-5.76,50.59-14.52,10.82,9.26,25.46,14.52,41.94,14.52.31,0,.63,0,.94-.01,19.84-.22,38.61-7.3,55.81-21.06,14.74-11.8,28.45-28.83,40.73-50.62,4.52-8.02,5.54-17.54,2.82-26.34-2.72-8.79-8.94-16.08-17.19-20.15Z"/>
            <path class="cls-2" d="M1504.19,444.22l-8.1-3.99,25.91-72.56c3.66-10.26,2.11-21.66-4.17-30.56-6.28-8.9-16.49-14.2-27.38-14.2h-49.54c-3.71,0-7.32.61-10.71,1.75-9.53-4.87-20.71-7.33-33.38-7.33-32.64,0-67.51,15.67-95.67,42.99-1.99,1.93-3.93,3.91-5.82,5.93-2.44-6.76-5.56-13.26-9.36-19.38-7.14-11.48-16.41-21.19-27.21-28.74.69-1.56,1.33-3.14,1.9-4.74,6.29-17.73,4.24-35.92-5.63-49.89-9.48-13.43-24.9-21.13-42.31-21.13-13.45,0-27.34,4.68-39.36,13.21-.31-.29-.62-.59-.95-.87l-.28-.24c.44-.36.87-.73,1.29-1.1,15.43-13.42,25.13-31.04,28.04-50.97,2.25-15.42-.1-30.24-6.61-43.04,2.3.5,4.66.77,7.07.77h223.77c14.27,0,26.97-9.03,31.65-22.51l.52-1.51c3.56-10.24,1.94-21.57-4.35-30.41-.71-1-1.47-1.95-2.28-2.86,8.35-3.67,15.04-10.69,18.17-19.69l.52-1.51c3.55-10.24,1.93-21.57-4.35-30.4-6.28-8.83-16.46-14.08-27.3-14.08h-403.74c-8.46,0-16.43,3.19-22.49,8.69-8.18-5.77-18.5-8.69-30.83-8.69h-396.27c-14.27,0-26.97,9.04-31.65,22.52l-.52,1.51c-2.65,7.63-2.42,15.86.47,23.22l-4.77,13.14c-5.74,3.96-10.23,9.69-12.63,16.6l-.25.73c-1.15,3.06-1.82,6.23-2.05,9.4h-3.94c-3.79,0-7.48.64-10.93,1.83-9.61-4.88-20.89-7.34-33.7-7.34-25.87,0-53.16,9.6-77.47,26.86,2.74-42.53-12.97-83.43-42.52-108.95-13.19-11.35-26.45-18.67-41.74-23.03-13.9-3.97-29.52-5.66-52.21-5.66h-135.07c-14.19,0-26.85,8.94-31.58,22.32l-3.21,9.08c-3.63,10.25-2.05,21.63,4.22,30.51,5.21,7.36,13.11,12.25,21.85,13.71l-72.48,196.57h-10.64c-14.19,0-26.84,8.94-31.58,22.32l-3.21,9.08c-3.63,10.25-2.05,21.63,4.22,30.51,6.28,8.88,16.48,14.16,27.36,14.16h133.16c29.9,0,53.42-2.63,74.39-8.39-5.01,8.04-6.51,18.04-3.61,27.51,2.67,8.72,8.67,15.73,16.34,19.81l-42.54,116.68c-3.75,10.27-2.24,21.73,4.03,30.68,6.27,8.96,16.51,14.29,27.45,14.29h61.14c11.78,0,22.52-6.17,28.53-15.93.34.55.7,1.1,1.07,1.64,6.27,8.96,16.52,14.3,27.45,14.3h51.14c14.07,0,26.64-8.79,31.47-22l6.8-18.61c2.71,10.36,7.48,17.94,12.03,23.21,7.95,9.21,22.76,20.16,48.32,20.41.3,0,.6.01.9.01,27.62,0,48.4-11.29,67.46-31.03,1.81,2.72,3.79,5.32,5.92,7.78,14.43,16.64,35.24,25.81,58.58,25.81,20.12,0,36.64-5.76,50.59-14.52,10.82,9.26,25.46,14.52,41.94,14.52,17.62,0,34.41-5.4,50.01-16.08,6.28,6.64,15.06,10.5,24.34,10.5h50.15c14.12,0,26.72-8.85,31.51-22.13l5.97-16.56c2.82,9.39,7.35,16.41,11.68,21.41,11.34,13.09,28.41,20.3,48.06,20.3.32,0,.63,0,.94-.01,26.04-.3,46.81-12.74,64.08-30.03,14.24,21.42,36.6,36.15,63.74,41.8,11.97,2.69,23.09,3.25,30.34,3.25,4.68,0,9.29-.23,13.31-.66,2.13-.23,5.73-.62,9.85-1.91,30.64-7.09,59.71-20.83,84.19-39.84,8.49-6.6,16.33-13.8,23.5-21.51,3.48,9.62,8.46,18.27,14.87,25.67,14.43,16.64,35.24,25.81,58.58,25.81,20.12,0,36.64-5.76,50.59-14.52,10.82,9.26,25.46,14.52,41.94,14.52.31,0,.63,0,.94-.01,19.84-.22,38.61-7.3,55.81-21.06,14.74-11.8,28.45-28.83,40.73-50.62,4.52-8.02,5.54-17.54,2.82-26.34-2.72-8.79-8.94-16.08-17.19-20.15Z"/>
            <path class="cls-2" d="M1504.19,444.22l-8.1-3.99,25.91-72.56c3.66-10.26,2.11-21.66-4.17-30.56-6.28-8.9-16.49-14.2-27.38-14.2h-49.54c-3.71,0-7.32.61-10.71,1.75-9.53-4.87-20.71-7.33-33.38-7.33-32.64,0-67.51,15.67-95.67,42.99-1.99,1.93-3.93,3.91-5.82,5.93-2.44-6.76-5.56-13.26-9.36-19.38-7.14-11.48-16.41-21.19-27.21-28.74.69-1.56,1.33-3.14,1.9-4.74,6.29-17.73,4.24-35.92-5.63-49.89-9.48-13.43-24.9-21.13-42.31-21.13-13.45,0-27.34,4.68-39.36,13.21-.31-.29-.62-.59-.95-.87l-.28-.24c.44-.36.87-.73,1.29-1.1,15.43-13.42,25.13-31.04,28.04-50.97,2.25-15.42-.1-30.24-6.61-43.04,2.3.5,4.66.77,7.07.77h223.77c14.27,0,26.97-9.03,31.65-22.51l.52-1.51c3.56-10.24,1.94-21.57-4.35-30.41-.71-1-1.47-1.95-2.28-2.86,8.35-3.67,15.04-10.69,18.17-19.69l.52-1.51c3.55-10.24,1.93-21.57-4.35-30.4-6.28-8.83-16.46-14.08-27.3-14.08h-403.74c-8.46,0-16.43,3.19-22.49,8.69-8.18-5.77-18.5-8.69-30.83-8.69h-396.27c-14.27,0-26.97,9.04-31.65,22.52l-.52,1.51c-2.65,7.63-2.42,15.86.47,23.22l-4.77,13.14c-5.74,3.96-10.23,9.69-12.63,16.6l-.25.73c-1.15,3.06-1.82,6.23-2.05,9.4h-3.94c-3.79,0-7.48.64-10.93,1.83-9.61-4.88-20.89-7.34-33.7-7.34-25.87,0-53.16,9.6-77.47,26.86,2.74-42.53-12.97-83.43-42.52-108.95-13.19-11.35-26.45-18.67-41.74-23.03-13.9-3.97-29.52-5.66-52.21-5.66h-135.07c-14.19,0-26.85,8.94-31.58,22.32l-3.21,9.08c-3.63,10.25-2.05,21.63,4.22,30.51,5.21,7.36,13.11,12.25,21.85,13.71l-72.48,196.57h-10.64c-14.19,0-26.84,8.94-31.58,22.32l-3.21,9.08c-3.63,10.25-2.05,21.63,4.22,30.51,6.28,8.88,16.48,14.16,27.36,14.16h133.16c29.9,0,53.42-2.63,74.39-8.39-5.01,8.04-6.51,18.04-3.61,27.51,2.67,8.72,8.67,15.73,16.34,19.81l-42.54,116.68c-3.75,10.27-2.24,21.73,4.03,30.68,6.27,8.96,16.51,14.29,27.45,14.29h61.14c11.78,0,22.52-6.17,28.53-15.93.34.55.7,1.1,1.07,1.64,6.27,8.96,16.52,14.3,27.45,14.3h51.14c14.07,0,26.64-8.79,31.47-22l6.8-18.61c2.71,10.36,7.48,17.94,12.03,23.21,7.95,9.21,22.76,20.16,48.32,20.41.3,0,.6.01.9.01,27.62,0,48.4-11.29,67.46-31.03,1.81,2.72,3.79,5.32,5.92,7.78,14.43,16.64,35.24,25.81,58.58,25.81,20.12,0,36.64-5.76,50.59-14.52,10.82,9.26,25.46,14.52,41.94,14.52,17.62,0,34.41-5.4,50.01-16.08,6.28,6.64,15.06,10.5,24.34,10.5h50.15c14.12,0,26.72-8.85,31.51-22.13l5.97-16.56c2.82,9.39,7.35,16.41,11.68,21.41,11.34,13.09,28.41,20.3,48.06,20.3.32,0,.63,0,.94-.01,26.04-.3,46.81-12.74,64.08-30.03,14.24,21.42,36.6,36.15,63.74,41.8,11.97,2.69,23.09,3.25,30.34,3.25,4.68,0,9.29-.23,13.31-.66,2.13-.23,5.73-.62,9.85-1.91,30.64-7.09,59.71-20.83,84.19-39.84,8.49-6.6,16.33-13.8,23.5-21.51,3.48,9.62,8.46,18.27,14.87,25.67,14.43,16.64,35.24,25.81,58.58,25.81,20.12,0,36.64-5.76,50.59-14.52,10.82,9.26,25.46,14.52,41.94,14.52.31,0,.63,0,.94-.01,19.84-.22,38.61-7.3,55.81-21.06,14.74-11.8,28.45-28.83,40.73-50.62,4.52-8.02,5.54-17.54,2.82-26.34-2.72-8.79-8.94-16.08-17.19-20.15Z"/>
          </g>
        </g>
      </g>
      <g>
        <g>
          <path d="M1465.52,667.77c29.27-2.38,75.55-50.09,91.92-65.83l75.15-71.55-57.44-180.31h-27.19l3.02-9.06h158.37l-3.02,9.06h-29.1l33.58,105.89,47.14-46.27c14.4-14.79,20.45-26.23,20.98-33.87,1.41-20.03-15.36-25.76-30.63-25.76l3.02-9.06h118.3l-3.02,9.06c-29.1,0-45.37,14.31-79.64,47.22l-72.63,69.64,62.68,200.82h24.8l-3.02,9.06h-155.98l3.02-9.06h29.1l-38.78-126.88-58.88,57.24c-25.05,23.85-26.92,30.05-27.62,40.07-1.31,18.6,15.57,29.57,34.65,29.57l-3.02,9.06h-118.78l3.02-9.06Z"/>
          <path d="M2048.41,676.83h-234.58c33.6-107.21,211.61-127.86,221.88-273.92,2.32-32.95-13.41-54.1-47.34-54.1-27.54,0-57.52,13.77-70.6,38.85l.84,1.97c4.81-5.41,14.39-8.85,21.77-8.85,20.66,0,34.97,13.28,33.52,33.93-1.87,26.56-19.03,39.83-42.14,39.83-21.64,0-33.04-19.67-31.52-41.31,4.15-59.01,70.03-79.67,118.22-79.67,55.08,0,111.74,26.56,107.35,89.01-8.99,127.86-159.1,122.45-241.3,179.5l-.07.98c37.58-2.95,88.73-2.95,163.97-2.95,17.7,0,22.79-2.46,28.02-13.77l9.36-21.15,9.7,1.97-47.05,109.67Z"/>
        </g>
        <g>
          <g>
            <path class="cls-4" d="M1090.71,497.08c1.22-3.5,4.01-12.55,8.66-24.66,13.34-34.68,33.73-93.49,42.36-116.49.61-1.62-2.5-5.47-6.24-3.1-3.74,2.37-7.2,5.38-8.59,5.38-1.97,0-3.38-.83-3.93-2.69-.6-2.07,1.2-4.85,3.23-7.08,3.74-4.1,13.12-13.31,29.9-22.32.48-.25.2-.99-.33-.85-48.5,12.25-95.55,51.55-113,99.31-18.49,50.63,2.49,92.79,47.28,101.98.64.13,1.17-.5.95-1.11-1.8-4.77-6.57-10.37-.28-28.39h0Z"/>
            <path class="cls-4" d="M1196.81,321.53c-1.93-.21,1,1.98,2.47,4.19,2.86,4.31,3.95,12.55.76,22.53-3.88,12.13-42.14,114.23-47.03,126.19-1.83,4.48-.72,7.68,1.83,8.37,3.19.85,11.34-.64,28.57-15.24,5.94-5.03,10.38-4.76,6.38,2.45-4.34,7.8-16.57,24.54-38.14,42.43-7.1,5.89-17.68,11.12-25.02,14.29-.62.27-.32,1.22.35,1.07,50.35-11.08,103.21-45.49,124.32-103.22,18.95-51.85-8.38-98.07-54.48-103.06Z"/>
            <path class="cls-4" d="M1166.7,289.91c5.17-14.53,20.87-26.31,35.07-26.31s21.53,11.78,16.37,26.31c-5.17,14.53-20.87,26.31-35.07,26.31s-21.53-11.78-16.37-26.31Z"/>
            <path class="cls-4" d="M556,114.34l.52-1.51c6.44,0,9.28-7.31,11.98-14.79l11.38-31.33-2.52-6.84h-3.9l.52-1.51h20.51l16.44,41.65h.16l10.44-29.5c.62-1.67,1.14-4.05,1.23-5.17.28-3.34-1.68-5.48-5.58-5.48h-.4l.52-1.51h17.17l-.52,1.51c-5.72,0-7.78,3.65-9.73,8.82l-16.72,45.63h-8.51l-18.03-45.47-9.94,27.43c-1.67,4.69-2.54,8.43-2.71,10.41-.37,4.38,2.42,6.12,6.4,6.12l-.52,1.51h-18.2,0Z"/>
            <path class="cls-4" d="M666.69,57.26c14.47,0,23.32,10.1,22.17,23.77-1.53,18.13-16.97,34.43-37.32,34.43-13.35,0-24.07-8.67-22.8-23.77,1.38-16.3,14.83-34.43,37.96-34.43h0ZM650.67,113.47c4.61,0,8.63-2.38,13.21-12.4,5.46-12.01,10.12-24.8,10.84-33.39.48-5.65-3.51-8.43-7.16-8.43-5.17,0-9,3.02-11.71,7.87-5.15,9.3-12.23,29.1-12.94,37.44-.48,5.65,2.35,8.91,7.75,8.91h0Z"/>
            <path class="cls-4" d="M684.06,114.34l.52-1.51c6.44,0,9.28-7.31,11.98-14.79l11.38-31.33-2.52-6.84h-3.9l.52-1.51h20.51l16.44,41.65h.16l10.44-29.5c.62-1.67,1.14-4.05,1.23-5.17.28-3.34-1.68-5.48-5.58-5.48h-.4l.52-1.51h17.17l-.52,1.51c-5.72,0-7.78,3.65-9.73,8.82l-16.72,45.63h-8.51l-18.03-45.47-9.94,27.43c-1.67,4.69-2.54,8.43-2.71,10.41-.37,4.38,2.42,6.12,6.4,6.12l-.52,1.51h-18.2,0Z"/>
            <path class="cls-4" d="M756.61,94.78h1.75c-.31.79-.38,1.67-.45,2.55-.76,9.06,5,16.14,14.22,16.14,5.72,0,13.48-3.41,14.07-10.41,1.15-13.67-24.52-8.98-22.92-27.98,1.02-12.01,12.47-17.8,23.37-17.8,8.58,0,11.21,2.78,15.67,2.78,1.75,0,3.81-.88,4.87-3.02h1.75l-6.79,18.28h-1.51c.8-9.54-2.22-16.06-12.4-16.06-5.09,0-11.01,3.26-11.48,8.91-1.01,11.92,23.68,7.63,22.1,26.47-1.19,14.15-15.19,20.83-27.43,20.83-7.24,0-13.74-3.98-16.67-3.98-1.43,0-2.61.72-3.2,2.15h-1.75l6.84-18.84h-.02Z"/>
            <path class="cls-4" d="M819.14,58.37h48.73l-6.23,17.33h-1.75c.25-1.03.43-2.31.53-3.5.55-6.6-1.82-12.32-9.38-12.32l-19.01,52.95h5.01l-.61,1.51h-26.31l.61-1.51h5.09l18.85-52.95c-8.98,0-16.57,7.95-20.08,15.66h-1.83l6.38-17.17h0Z"/>
            <path class="cls-4" d="M900.79,57.26c14.47,0,23.32,10.1,22.17,23.77-1.53,18.13-16.97,34.43-37.32,34.43-13.35,0-24.07-8.67-22.8-23.77,1.38-16.3,14.83-34.43,37.96-34.43h0ZM884.77,113.47c4.61,0,8.63-2.38,13.21-12.4,5.46-12.01,10.12-24.8,10.84-33.39.48-5.65-3.51-8.43-7.16-8.43-5.17,0-9,3.02-11.71,7.87-5.15,9.3-12.23,29.1-12.94,37.44-.48,5.65,2.35,8.91,7.75,8.91h0Z"/>
            <path class="cls-4" d="M944.21,59.88h-5.17l.52-1.51h30.69c12.08,0,16,4.45,15.27,13.04-.7,8.27-7.92,17.57-23.5,17.57h-11.92l-8.53,23.85h5.25l-.52,1.51h-26.55l.52-1.51h4.85l19.09-52.95ZM950.63,87.47h4.29c5.25,0,7.27-1.35,9.45-4.61,2-2.94,5.41-11.44,5.88-17.01.42-5.01-2.75-5.96-6.34-5.96h-3.34l-9.96,27.59h0Z"/>
            <path class="cls-4" d="M1003.01,112.83c5.48-.88,8.62-6.12,12.06-15.74l13.39-37.2h-5.65l.76-1.51h20.83l-2.33,37.12h.16l23.96-37.12h21.38l-.76,1.51h-5.01l-19.09,52.95h5.72l-.76,1.51h-25.76l.76-1.51h4.29l19.52-51.44h-.16l-34.19,52.95h-5.8l2.96-51.2h-.16l-12.91,36.25c-1.65,4.53-2.07,6.6-2.18,7.87-.35,4.14,2.39,5.57,5.89,5.57l-.76,1.51h-16.85l.68-1.51h0Z"/>
            <path class="cls-4" d="M1099.04,59.88h-5.17l.52-1.51h45.71l-5.1,18.04h-1.51c1.1-13.04-3.06-16.54-13.24-16.54h-4.85l-8.84,24.64h5.09c5.48,0,10.04-1.19,13.99-8.51h1.75l-7.45,20.43h-1.83c.34-1.19.52-2.31.6-3.34.32-3.74-1.39-7.08-6.95-7.08h-5.72l-9.65,26.79h5.57c9.86,0,20.16-4.29,26.55-15.98h1.75l-7.04,17.49h-48.65l.52-1.51h4.85l19.09-52.95h.02Z"/>
            <path class="cls-4" d="M1201.16,58.37l-7.63,20.75h-1.75c.28-1.43.48-2.78.59-4.21.68-8.11-2.81-15.66-12.44-15.66-4.61,0-8.31,2.46-10.96,7.39-6.58,12.08-12.35,29.57-13.05,37.92-.48,5.64,2.35,8.91,7.75,8.91,5.96,0,9.04-5.48,10.81-10.41l3.24-9.14h-4.05l.53-1.59h23.61l-.52,1.51h-3.5l-4.84,13.11c-6.16,5.17-15.03,8.51-24.57,8.51-13.67,0-24.41-8.43-23.12-23.77,1.38-16.3,15.94-34.43,37.4-34.43,9.22,0,12.33,3.74,15.58,3.74,2.55,0,3.89-.88,5.15-2.62h1.75v.02Z"/>
            <path class="cls-4" d="M1227.04,98.36h-16.85l-2.35,3.41c-2.45,3.58-2.97,5.01-3.08,6.36-.32,3.81,3.5,4.69,6.12,4.69l-.52,1.51h-19.4l.52-1.51c6.76,0,10.12-5.01,15.93-13.59l28.09-40.86h6.36l1.22,54.45h4.61l-.52,1.51h-25.2l.52-1.51h4.69l-.13-14.47h0ZM1211.27,96.85h15.82l-.17-22.5h-.16l-15.49,22.5Z"/>
            <path class="cls-4" d="M1250.3,112.83c5.48-.88,8.62-6.12,12.06-15.74l13.39-37.2h-5.65l.76-1.51h20.83l-2.33,37.12h.16l23.96-37.12h21.38l-.76,1.51h-5.01l-19.09,52.95h5.72l-.76,1.51h-25.76l.76-1.51h4.29l19.52-51.44h-.16l-34.19,52.95h-5.8l2.96-51.2h-.16l-12.91,36.25c-1.65,4.53-2.07,6.6-2.18,7.87-.35,4.14,2.39,5.57,5.89,5.57l-.76,1.51h-16.85l.68-1.51h0Z"/>
            <path class="cls-4" d="M1347.22,59.88h-5.17l.52-1.51h26.87l-.52,1.51h-5.32l-19.01,52.95h5.25l-.52,1.51h-26.55l.52-1.51h4.85l19.09-52.95h0Z"/>
            <path class="cls-4" d="M1359.21,112.83c4.88-.4,12.71-8.34,15.47-10.97l12.69-11.92-9.15-30.05h-4.53l.52-1.51h26.4l-.52,1.51h-4.85l5.35,17.65,7.96-7.71c2.43-2.46,3.47-4.38,3.58-5.65.28-3.34-2.5-4.29-5.05-4.29l.52-1.51h19.71l-.52,1.51c-4.85,0-7.6,2.38-13.38,7.87l-12.27,11.61,9.98,33.47h4.14l-.52,1.51h-26l.52-1.51h4.85l-6.17-21.14-9.94,9.54c-4.23,3.98-4.55,5.01-4.7,6.68-.26,3.1,2.52,4.93,5.71,4.93l-.52,1.51h-19.8l.52-1.51h0Z"/>
            <path class="cls-4" d="M732.47,516.62c-13,0-22.5-5.45-26.07-14.94-2.02-5.15-2.74-9.78-1.65-23.67l.2-2.52-1.57,1.98c-22.27,28.17-40.06,39.15-63.44,39.15-13.67,0-25.18-4.93-33.27-14.26-10.65-12.28-14.76-31.42-11.55-53.88,3.88-27.19,18.73-55.04,40.75-76.4,21.97-21.31,48.34-33.54,72.35-33.54,19.75,0,29.67,8.4,34.26,28.98l.58,2.61,9.25-26.01h49.54l-50.76,142.15-.48,1.79c-.73,2.71-1.36,5.04-1.57,6.51-.24,1.65.06,3.01.85,3.91.49.57,1.44,1.25,3.14,1.25,9.19,0,22.13-13.67,39.54-41.78l8.21,4.05c-20.43,36.25-43.4,54.63-68.29,54.63ZM710.87,348.15c-15.41,0-26.53,14.73-47.58,63.05-15.88,36.92-25.42,64.41-27.57,79.5-.73,5.12-.03,8.96,2.08,11.4,1.85,2.12,4.75,3.2,8.66,3.2,16.07,0,37.46-14.94,53.22-37.19,15.14-21.3,30.07-54.76,33.98-76.18,2.47-13.66-.44-27.46-7.6-36.03-4.23-5.07-9.48-7.74-15.19-7.74Z"/>
            <path class="cls-4" d="M954.19,514.06c-9.93,0-17.79-3.02-22.74-8.74-5.4-6.24-7.38-15.67-5.7-27.26.95-6.56,3.41-16.04,6.76-26.01l31.06-86.58c.22-.72.43-1.36.62-1.97.57-1.78.98-3.06,1.08-3.75.25-1.75-.14-3.28-1.13-4.43-1.15-1.32-2.98-2.02-5.3-2.02-8.29,0-25.03,10.64-38.12,24.24-17.6,18.35-30.22,39.98-40.9,70.15l-22.85,63.36h-50.15l56.44-157.75h-30.18l3.55-9.18h32.7c14.4,0,32.24-1.64,49.15-4.51l-16.17,45.05,1.34.72c24.31-32.26,49.34-47.28,78.76-47.28,11.73,0,20.65,3.15,25.81,9.1,3.89,4.5,5.42,10.54,4.42,17.46-.5,3.48-1.57,8.8-3.78,14.41l-35.52,99.48c-.9,2.61-3.04,8.99-3.5,12.15-.34,2.35,0,4.14,1.04,5.32.89,1.03,2.25,1.55,4.04,1.55,7.57,0,18.7-11.62,37.23-38.85.27-.27.58-.74,1.08-1.47.57-.84,1.32-1.95,2.3-3.2l7.51,4.02c-25.64,39.74-45.62,55.96-68.85,55.96h0Z"/>
            <path class="cls-4" d="M1410.14,516.62c-13,0-22.5-5.45-26.07-14.94-2.02-5.15-2.74-9.78-1.65-23.67l.2-2.52-1.57,1.98c-22.27,28.17-40.06,39.15-63.44,39.15-13.67,0-25.18-4.93-33.27-14.26-10.65-12.28-14.76-31.42-11.55-53.88,3.88-27.19,18.73-55.04,40.75-76.4,21.97-21.31,48.34-33.54,72.35-33.54,19.75,0,29.67,8.4,34.26,28.98l.58,2.61,9.25-26.01h49.54l-50.76,142.15-.48,1.78c-.73,2.71-1.36,5.05-1.57,6.51-.24,1.65.06,3.01.85,3.91.49.57,1.44,1.25,3.14,1.25,9.19,0,22.13-13.67,39.54-41.78l8.21,4.05c-20.43,36.25-43.4,54.63-68.29,54.63h0ZM1388.54,348.15c-15.41,0-26.53,14.73-47.58,63.05-15.89,36.92-25.42,64.41-27.57,79.5-.73,5.12-.03,8.96,2.08,11.4,1.85,2.12,4.75,3.2,8.66,3.2,16.07,0,37.46-14.94,53.22-37.19,15.14-21.3,30.07-54.76,33.98-76.18,2.47-13.66-.44-27.46-7.6-36.03-4.23-5.07-9.48-7.74-15.19-7.74Z"/>
            <path class="cls-4" d="M507.97,514.06c-10.78,0-18.81-2.96-23.86-8.81-5.43-6.29-7.27-15.73-5.46-28.04,1.15-7.83,4.05-18.45,7.58-27.7l30.21-82.74c.29-.98.55-1.85.79-2.61.54-1.76.93-3.03,1.07-3.97.22-1.5-.15-2.86-1.07-3.93-1.17-1.35-3.13-2.1-5.53-2.1-11.16,0-26.86,10.57-43.07,28.98-19.01,21.97-26.57,35.79-40.46,73.98l-19.7,53.94h-51.14l52.66-144.25c.67-1.38.86-2.71,1.18-4.91.42-2.89.06-4.95-1.12-6.32-1.08-1.25-2.76-1.85-5.17-1.85-9.01,0-27.82,12.22-41.92,27.25-17.49,17.89-29.55,39.24-42.99,76.14l-19.7,53.94h-51.14l57.52-157.75h-30.76l3.61-9.18h33.34c14.47,0,32.22-1.6,50.11-4.51l-15.16,42.06,1.29.78c26.75-29.54,52.28-43.9,78.06-43.9,11.98,0,21.17,3.31,26.59,9.59,4.5,5.21,6.22,12.41,4.99,20.83-.42,2.85-1.57,7.89-3.18,12.73l1.3.76c28.26-31.18,50.61-43.9,77.18-43.9,12.5,0,21.91,3.25,27.23,9.41,4.22,4.88,5.77,11.38,4.61,19.29-.52,3.54-1.6,8.84-3.78,13.96l-36.07,98.63c-2.25,6.39-3.17,9.46-3.5,11.73-.32,2.22,0,3.89.94,4.99.84.97,2.13,1.46,3.84,1.46,9.02,0,19.44-10.58,42.71-43.45l7.57,4.76c-27.3,40.9-44.92,54.73-69.57,54.73h0Z"/>
            <path class="cls-4" d="M32.92,310.47l3.21-9.08h34.99L168.15,38.27h-39.39l3.21-9.08h128.07c36.91,0,53.76,4.81,72.1,20.59,23.73,20.5,35.2,55.33,29.94,90.9-6.85,46.27-31.88,93.53-65.32,123.35-38.79,34.73-72.52,46.44-133.69,46.44H32.92ZM130.74,301.39h40.91c25.33,0,43.98-2.4,58.64-14.33,12.87-10.47,22.52-27.4,35.63-62.49,21.04-55.89,37.37-110.54,41.62-139.22,2.36-15.94.24-27.42-6.49-35.1-7.06-8.06-19.27-11.98-37.31-11.98h-35.98l-97.02,263.12h.02Z"/>
            <path class="cls-4" d="M498.56,315.98c-13.17,0-22.8-5.38-26.41-14.76-2.05-5.08-2.77-9.66-1.66-23.39l.2-2.48-1.56,1.93c-22.56,27.85-40.57,38.7-64.24,38.7-14.07,0-25.86-5.02-34.07-14.52-10.5-12.14-14.52-30.9-11.32-52.82,3.92-26.87,18.96-54.4,41.25-75.51,22.24-21.07,48.95-33.16,73.26-33.16,20,0,30.06,8.3,34.69,28.64l.58,2.54,9.36-25.67h50.17l-51.38,140.5-.48,1.76c-.74,2.68-1.38,4.99-1.59,6.45-.24,1.62.05,2.95.84,3.85.5.58,1.45,1.26,3.19,1.26,9.3,0,22.4-13.51,40.02-41.31l8.31,4.01c-20.68,35.83-43.94,53.98-69.14,53.98h0ZM476.7,149.44c-15.6,0-26.85,14.56-48.16,62.32-16.08,36.49-25.74,63.67-27.92,78.6-.73,5.01-.05,8.78,2.04,11.2,1.86,2.15,4.83,3.24,8.83,3.24,16.27,0,37.92-14.77,53.87-36.76,15.34-21.06,30.45-54.14,34.4-75.31,2.47-13.31-.38-26.85-7.44-35.34-4.32-5.2-9.72-7.94-15.61-7.94h0Z"/>
            <path class="cls-4" d="M720.3,315.74c-10,0-17.9-3.02-22.85-8.74-5.33-6.16-7.27-15.44-5.6-26.82.95-6.48,3.41-15.86,6.77-25.71l31.06-85.58c.22-.71.44-1.36.63-1.96.57-1.75.98-3.01,1.08-3.7.25-1.72-.13-3.23-1.11-4.36-1.15-1.32-2.98-2.02-5.32-2.02-8.29,0-25.04,10.53-38.12,23.97-17.61,18.14-30.23,39.52-40.92,69.35l-22.86,62.63h-50.17l56.46-155.94h-30.19l3.54-9.05h32.72c14.41,0,32.25-1.62,49.15-4.45l-16.17,44.52,1.33.73c24.32-31.89,49.35-46.73,78.79-46.73,11.81,0,20.77,3.15,25.9,9.1,3.83,4.43,5.33,10.36,4.34,17.14-.5,3.44-1.57,8.7-3.78,14.23l-35.53,98.34c-.9,2.58-3.04,8.88-3.5,12.01-.34,2.31,0,4.08,1.02,5.25.89,1.04,2.26,1.56,4.05,1.56,7.57,0,18.7-11.48,37.24-38.4.27-.26.58-.73,1.08-1.45.57-.83,1.32-1.93,2.3-3.16l7.51,3.97c-25.64,39.27-45.63,55.31-68.87,55.31v-.02Z"/>
            <path class="cls-4" d="M872.66,315.98c-23.84,0-43.42-7.28-55.11-20.48-10-11.29-13.92-26.32-11.36-43.48,4.71-31.46,28.27-67.19,58.62-88.9,22.42-15.87,44.99-23.58,68.98-23.58,19.58,0,34.79,5,42.84,14.08,5.35,6.05,7.4,13.55,6.08,22.33-2.15,14.34-13.91,24.34-28.61,24.34-6.51,0-12.1-2.27-15.74-6.38-3.71-4.18-5.21-10.04-4.25-16.47.62-4.09,1.35-6.48,5.38-15.48.15-.37.29-.71.43-1.02.53-1.24.98-2.32,1.15-3.41.25-1.72-.22-3.31-1.37-4.61-1.98-2.24-5.78-3.47-10.71-3.47-17.3,0-29.17,13.21-45.36,50.47-14.99,34.43-25.73,65.34-28.03,80.7-1.28,8.56-.15,14.71,3.48,18.8,4.02,4.54,10.99,6.65,21.93,6.65,25.33,0,45.43-11.94,71.56-42.52l7.15,5.05c-26.02,33.63-51.29,47.38-87.06,47.38h0Z"/>
            <path class="cls-4" d="M1048.26,315.98c-25.47,0-46.02-7.54-57.84-21.22-9.37-10.84-13.06-25.17-10.68-41.46,4.02-27.52,20.74-56.06,45.85-78.3,25.14-22.27,55.14-35.03,82.29-35.03,18.18,0,32.98,5.52,41.65,15.56,6.81,7.88,9.52,18.17,7.83,29.75-3.54,24.23-22.83,41.01-55.81,48.52-13.34,3.05-27.09,4.24-58.88,5.07l-.51.02-.19.47c-7.56,18.87-13.14,36.63-14.57,46.36-.81,5.54.27,10.08,3.21,13.47,3.95,4.58,11.03,6.89,21.04,6.89,27.72,0,52.16-13.1,81.61-43.78l6.15,5.37c-29.89,34.31-56.34,48.32-91.15,48.32h0ZM1103.52,149.87c-15.82,0-29.63,12.32-39.95,35.63-4.46,9.78-5.1,11.37-17,42.41l-.42,1.08,2.59-.1c21.44-.8,22.73-.85,31.63-3.37,20.19-5.09,35.24-25.3,39.25-52.75,1.22-8.39.22-14.32-3.08-18.14-2.75-3.18-7.13-4.78-13.03-4.78v.02Z"/>
          </g>
          <g>
            <path d="M1090.71,497.08c1.22-3.5,4.01-12.55,8.66-24.66,13.34-34.68,33.73-93.49,42.36-116.49.61-1.62-2.5-5.47-6.24-3.1-3.74,2.37-7.2,5.38-8.59,5.38-1.97,0-3.38-.83-3.93-2.69-.6-2.07,1.2-4.85,3.23-7.08,3.74-4.1,13.12-13.31,29.9-22.32.48-.25.2-.99-.33-.85-48.5,12.25-95.55,51.55-113,99.31-18.49,50.63,2.49,92.79,47.28,101.98.64.13,1.17-.5.95-1.11-1.8-4.77-6.57-10.37-.28-28.39h0Z"/>
            <path d="M1196.81,321.53c-1.93-.21,1,1.98,2.47,4.19,2.86,4.31,3.95,12.55.76,22.53-3.88,12.13-42.14,114.23-47.03,126.19-1.83,4.48-.72,7.68,1.83,8.37,3.19.85,11.34-.64,28.57-15.24,5.94-5.03,10.38-4.76,6.38,2.45-4.34,7.8-16.57,24.54-38.14,42.43-7.1,5.89-17.68,11.12-25.02,14.29-.62.27-.32,1.22.35,1.07,50.35-11.08,103.21-45.49,124.32-103.22,18.95-51.85-8.38-98.07-54.48-103.06Z"/>
            <path d="M1166.7,289.91c5.17-14.53,20.87-26.31,35.07-26.31s21.53,11.78,16.37,26.31c-5.17,14.53-20.87,26.31-35.07,26.31s-21.53-11.78-16.37-26.31Z"/>
            <path d="M556,114.34l.52-1.51c6.44,0,9.28-7.31,11.98-14.79l11.38-31.33-2.52-6.84h-3.9l.52-1.51h20.51l16.44,41.65h.16l10.44-29.5c.62-1.67,1.14-4.05,1.23-5.17.28-3.34-1.68-5.48-5.58-5.48h-.4l.52-1.51h17.17l-.52,1.51c-5.72,0-7.78,3.65-9.73,8.82l-16.72,45.63h-8.51l-18.03-45.47-9.94,27.43c-1.67,4.69-2.54,8.43-2.71,10.41-.37,4.38,2.42,6.12,6.4,6.12l-.52,1.51h-18.2,0Z"/>
            <path d="M666.69,57.26c14.47,0,23.32,10.1,22.17,23.77-1.53,18.13-16.97,34.43-37.32,34.43-13.35,0-24.07-8.67-22.8-23.77,1.38-16.3,14.83-34.43,37.96-34.43h0ZM650.67,113.47c4.61,0,8.63-2.38,13.21-12.4,5.46-12.01,10.12-24.8,10.84-33.39.48-5.65-3.51-8.43-7.16-8.43-5.17,0-9,3.02-11.71,7.87-5.15,9.3-12.23,29.1-12.94,37.44-.48,5.65,2.35,8.91,7.75,8.91h0Z"/>
            <path d="M684.06,114.34l.52-1.51c6.44,0,9.28-7.31,11.98-14.79l11.38-31.33-2.52-6.84h-3.9l.52-1.51h20.51l16.44,41.65h.16l10.44-29.5c.62-1.67,1.14-4.05,1.23-5.17.28-3.34-1.68-5.48-5.58-5.48h-.4l.52-1.51h17.17l-.52,1.51c-5.72,0-7.78,3.65-9.73,8.82l-16.72,45.63h-8.51l-18.03-45.47-9.94,27.43c-1.67,4.69-2.54,8.43-2.71,10.41-.37,4.38,2.42,6.12,6.4,6.12l-.52,1.51h-18.2,0Z"/>
            <path d="M756.61,94.78h1.75c-.31.79-.38,1.67-.45,2.55-.76,9.06,5,16.14,14.22,16.14,5.72,0,13.48-3.41,14.07-10.41,1.15-13.67-24.52-8.98-22.92-27.98,1.02-12.01,12.47-17.8,23.37-17.8,8.58,0,11.21,2.78,15.67,2.78,1.75,0,3.81-.88,4.87-3.02h1.75l-6.79,18.28h-1.51c.8-9.54-2.22-16.06-12.4-16.06-5.09,0-11.01,3.26-11.48,8.91-1.01,11.92,23.68,7.63,22.1,26.47-1.19,14.15-15.19,20.83-27.43,20.83-7.24,0-13.74-3.98-16.67-3.98-1.43,0-2.61.72-3.2,2.15h-1.75l6.84-18.84h-.02Z"/>
            <path d="M819.14,58.37h48.73l-6.23,17.33h-1.75c.25-1.03.43-2.31.53-3.5.55-6.6-1.82-12.32-9.38-12.32l-19.01,52.95h5.01l-.61,1.51h-26.31l.61-1.51h5.09l18.85-52.95c-8.98,0-16.57,7.95-20.08,15.66h-1.83l6.38-17.17h0Z"/>
            <path d="M900.79,57.26c14.47,0,23.32,10.1,22.17,23.77-1.53,18.13-16.97,34.43-37.32,34.43-13.35,0-24.07-8.67-22.8-23.77,1.38-16.3,14.83-34.43,37.96-34.43h0ZM884.77,113.47c4.61,0,8.63-2.38,13.21-12.4,5.46-12.01,10.12-24.8,10.84-33.39.48-5.65-3.51-8.43-7.16-8.43-5.17,0-9,3.02-11.71,7.87-5.15,9.3-12.23,29.1-12.94,37.44-.48,5.65,2.35,8.91,7.75,8.91h0Z"/>
            <path d="M944.21,59.88h-5.17l.52-1.51h30.69c12.08,0,16,4.45,15.27,13.04-.7,8.27-7.92,17.57-23.5,17.57h-11.92l-8.53,23.85h5.25l-.52,1.51h-26.55l.52-1.51h4.85l19.09-52.95ZM950.63,87.47h4.29c5.25,0,7.27-1.35,9.45-4.61,2-2.94,5.41-11.44,5.88-17.01.42-5.01-2.75-5.96-6.34-5.96h-3.34l-9.96,27.59h0Z"/>
            <path d="M1003.01,112.83c5.48-.88,8.62-6.12,12.06-15.74l13.39-37.2h-5.65l.76-1.51h20.83l-2.33,37.12h.16l23.96-37.12h21.38l-.76,1.51h-5.01l-19.09,52.95h5.72l-.76,1.51h-25.76l.76-1.51h4.29l19.52-51.44h-.16l-34.19,52.95h-5.8l2.96-51.2h-.16l-12.91,36.25c-1.65,4.53-2.07,6.6-2.18,7.87-.35,4.14,2.39,5.57,5.89,5.57l-.76,1.51h-16.85l.68-1.51h0Z"/>
            <path d="M1099.04,59.88h-5.17l.52-1.51h45.71l-5.1,18.04h-1.51c1.1-13.04-3.06-16.54-13.24-16.54h-4.85l-8.84,24.64h5.09c5.48,0,10.04-1.19,13.99-8.51h1.75l-7.45,20.43h-1.83c.34-1.19.52-2.31.6-3.34.32-3.74-1.39-7.08-6.95-7.08h-5.72l-9.65,26.79h5.57c9.86,0,20.16-4.29,26.55-15.98h1.75l-7.04,17.49h-48.65l.52-1.51h4.85l19.09-52.95h.02Z"/>
            <path d="M1201.16,58.37l-7.63,20.75h-1.75c.28-1.43.48-2.78.59-4.21.68-8.11-2.81-15.66-12.44-15.66-4.61,0-8.31,2.46-10.96,7.39-6.58,12.08-12.35,29.57-13.05,37.92-.48,5.64,2.35,8.91,7.75,8.91,5.96,0,9.04-5.48,10.81-10.41l3.24-9.14h-4.05l.53-1.59h23.61l-.52,1.51h-3.5l-4.84,13.11c-6.16,5.17-15.03,8.51-24.57,8.51-13.67,0-24.41-8.43-23.12-23.77,1.38-16.3,15.94-34.43,37.4-34.43,9.22,0,12.33,3.74,15.58,3.74,2.55,0,3.89-.88,5.15-2.62h1.75v.02Z"/>
            <path d="M1227.04,98.36h-16.85l-2.35,3.41c-2.45,3.58-2.97,5.01-3.08,6.36-.32,3.81,3.5,4.69,6.12,4.69l-.52,1.51h-19.4l.52-1.51c6.76,0,10.12-5.01,15.93-13.59l28.09-40.86h6.36l1.22,54.45h4.61l-.52,1.51h-25.2l.52-1.51h4.69l-.13-14.47h0ZM1211.27,96.85h15.82l-.17-22.5h-.16l-15.49,22.5Z"/>
            <path d="M1250.3,112.83c5.48-.88,8.62-6.12,12.06-15.74l13.39-37.2h-5.65l.76-1.51h20.83l-2.33,37.12h.16l23.96-37.12h21.38l-.76,1.51h-5.01l-19.09,52.95h5.72l-.76,1.51h-25.76l.76-1.51h4.29l19.52-51.44h-.16l-34.19,52.95h-5.8l2.96-51.2h-.16l-12.91,36.25c-1.65,4.53-2.07,6.6-2.18,7.87-.35,4.14,2.39,5.57,5.89,5.57l-.76,1.51h-16.85l.68-1.51h0Z"/>
            <path d="M1347.22,59.88h-5.17l.52-1.51h26.87l-.52,1.51h-5.32l-19.01,52.95h5.25l-.52,1.51h-26.55l.52-1.51h4.85l19.09-52.95h0Z"/>
            <path d="M1359.21,112.83c4.88-.4,12.71-8.34,15.47-10.97l12.69-11.92-9.15-30.05h-4.53l.52-1.51h26.4l-.52,1.51h-4.85l5.35,17.65,7.96-7.71c2.43-2.46,3.47-4.38,3.58-5.65.28-3.34-2.5-4.29-5.05-4.29l.52-1.51h19.71l-.52,1.51c-4.85,0-7.6,2.38-13.38,7.87l-12.27,11.61,9.98,33.47h4.14l-.52,1.51h-26l.52-1.51h4.85l-6.17-21.14-9.94,9.54c-4.23,3.98-4.55,5.01-4.7,6.68-.26,3.1,2.52,4.93,5.71,4.93l-.52,1.51h-19.8l.52-1.51h0Z"/>
            <path d="M732.47,516.62c-13,0-22.5-5.45-26.07-14.94-2.02-5.15-2.74-9.78-1.65-23.67l.2-2.52-1.57,1.98c-22.27,28.17-40.06,39.15-63.44,39.15-13.67,0-25.18-4.93-33.27-14.26-10.65-12.28-14.76-31.42-11.55-53.88,3.88-27.19,18.73-55.04,40.75-76.4,21.97-21.31,48.34-33.54,72.35-33.54,19.75,0,29.67,8.4,34.26,28.98l.58,2.61,9.25-26.01h49.54l-50.76,142.15-.48,1.79c-.73,2.71-1.36,5.04-1.57,6.51-.24,1.65.06,3.01.85,3.91.49.57,1.44,1.25,3.14,1.25,9.19,0,22.13-13.67,39.54-41.78l8.21,4.05c-20.43,36.25-43.4,54.63-68.29,54.63ZM710.87,348.15c-15.41,0-26.53,14.73-47.58,63.05-15.88,36.92-25.42,64.41-27.57,79.5-.73,5.12-.03,8.96,2.08,11.4,1.85,2.12,4.75,3.2,8.66,3.2,16.07,0,37.46-14.94,53.22-37.19,15.14-21.3,30.07-54.76,33.98-76.18,2.47-13.66-.44-27.46-7.6-36.03-4.23-5.07-9.48-7.74-15.19-7.74Z"/>
            <path d="M954.19,514.06c-9.93,0-17.79-3.02-22.74-8.74-5.4-6.24-7.38-15.67-5.7-27.26.95-6.56,3.41-16.04,6.76-26.01l31.06-86.58c.22-.72.43-1.36.62-1.97.57-1.78.98-3.06,1.08-3.75.25-1.75-.14-3.28-1.13-4.43-1.15-1.32-2.98-2.02-5.3-2.02-8.29,0-25.03,10.64-38.12,24.24-17.6,18.35-30.22,39.98-40.9,70.15l-22.85,63.36h-50.15l56.44-157.75h-30.18l3.55-9.18h32.7c14.4,0,32.24-1.64,49.15-4.51l-16.17,45.05,1.34.72c24.31-32.26,49.34-47.28,78.76-47.28,11.73,0,20.65,3.15,25.81,9.1,3.89,4.5,5.42,10.54,4.42,17.46-.5,3.48-1.57,8.8-3.78,14.41l-35.52,99.48c-.9,2.61-3.04,8.99-3.5,12.15-.34,2.35,0,4.14,1.04,5.32.89,1.03,2.25,1.55,4.04,1.55,7.57,0,18.7-11.62,37.23-38.85.27-.27.58-.74,1.08-1.47.57-.84,1.32-1.95,2.3-3.2l7.51,4.02c-25.64,39.74-45.62,55.96-68.85,55.96h0Z"/>
            <path d="M1410.14,516.62c-13,0-22.5-5.45-26.07-14.94-2.02-5.15-2.74-9.78-1.65-23.67l.2-2.52-1.57,1.98c-22.27,28.17-40.06,39.15-63.44,39.15-13.67,0-25.18-4.93-33.27-14.26-10.65-12.28-14.76-31.42-11.55-53.88,3.88-27.19,18.73-55.04,40.75-76.4,21.97-21.31,48.34-33.54,72.35-33.54,19.75,0,29.67,8.4,34.26,28.98l.58,2.61,9.25-26.01h49.54l-50.76,142.15-.48,1.78c-.73,2.71-1.36,5.05-1.57,6.51-.24,1.65.06,3.01.85,3.91.49.57,1.44,1.25,3.14,1.25,9.19,0,22.13-13.67,39.54-41.78l8.21,4.05c-20.43,36.25-43.4,54.63-68.29,54.63h0ZM1388.54,348.15c-15.41,0-26.53,14.73-47.58,63.05-15.89,36.92-25.42,64.41-27.57,79.5-.73,5.12-.03,8.96,2.08,11.4,1.85,2.12,4.75,3.2,8.66,3.2,16.07,0,37.46-14.94,53.22-37.19,15.14-21.3,30.07-54.76,33.98-76.18,2.47-13.66-.44-27.46-7.6-36.03-4.23-5.07-9.48-7.74-15.19-7.74Z"/>
            <path d="M507.97,514.06c-10.78,0-18.81-2.96-23.86-8.81-5.43-6.29-7.27-15.73-5.46-28.04,1.15-7.83,4.05-18.45,7.58-27.7l30.21-82.74c.29-.98.55-1.85.79-2.61.54-1.76.93-3.03,1.07-3.97.22-1.5-.15-2.86-1.07-3.93-1.17-1.35-3.13-2.1-5.53-2.1-11.16,0-26.86,10.57-43.07,28.98-19.01,21.97-26.57,35.79-40.46,73.98l-19.7,53.94h-51.14l52.66-144.25c.67-1.38.86-2.71,1.18-4.91.42-2.89.06-4.95-1.12-6.32-1.08-1.25-2.76-1.85-5.17-1.85-9.01,0-27.82,12.22-41.92,27.25-17.49,17.89-29.55,39.24-42.99,76.14l-19.7,53.94h-51.14l57.52-157.75h-30.76l3.61-9.18h33.34c14.47,0,32.22-1.6,50.11-4.51l-15.16,42.06,1.29.78c26.75-29.54,52.28-43.9,78.06-43.9,11.98,0,21.17,3.31,26.59,9.59,4.5,5.21,6.22,12.41,4.99,20.83-.42,2.85-1.57,7.89-3.18,12.73l1.3.76c28.26-31.18,50.61-43.9,77.18-43.9,12.5,0,21.91,3.25,27.23,9.41,4.22,4.88,5.77,11.38,4.61,19.29-.52,3.54-1.6,8.84-3.78,13.96l-36.07,98.63c-2.25,6.39-3.17,9.46-3.5,11.73-.32,2.22,0,3.89.94,4.99.84.97,2.13,1.46,3.84,1.46,9.02,0,19.44-10.58,42.71-43.45l7.57,4.76c-27.3,40.9-44.92,54.73-69.57,54.73h0Z"/>
            <path d="M32.92,310.47l3.21-9.08h34.99L168.15,38.27h-39.39l3.21-9.08h128.07c36.91,0,53.76,4.81,72.1,20.59,23.73,20.5,35.2,55.33,29.94,90.9-6.85,46.27-31.88,93.53-65.32,123.35-38.79,34.73-72.52,46.44-133.69,46.44H32.92ZM130.74,301.39h40.91c25.33,0,43.98-2.4,58.64-14.33,12.87-10.47,22.52-27.4,35.63-62.49,21.04-55.89,37.37-110.54,41.62-139.22,2.36-15.94.24-27.42-6.49-35.1-7.06-8.06-19.27-11.98-37.31-11.98h-35.98l-97.02,263.12h.02Z"/>
            <path d="M498.56,315.98c-13.17,0-22.8-5.38-26.41-14.76-2.05-5.08-2.77-9.66-1.66-23.39l.2-2.48-1.56,1.93c-22.56,27.85-40.57,38.7-64.24,38.7-14.07,0-25.86-5.02-34.07-14.52-10.5-12.14-14.52-30.9-11.32-52.82,3.92-26.87,18.96-54.4,41.25-75.51,22.24-21.07,48.95-33.16,73.26-33.16,20,0,30.06,8.3,34.69,28.64l.58,2.54,9.36-25.67h50.17l-51.38,140.5-.48,1.76c-.74,2.68-1.38,4.99-1.59,6.45-.24,1.62.05,2.95.84,3.85.5.58,1.45,1.26,3.19,1.26,9.3,0,22.4-13.51,40.02-41.31l8.31,4.01c-20.68,35.83-43.94,53.98-69.14,53.98h0ZM476.7,149.44c-15.6,0-26.85,14.56-48.16,62.32-16.08,36.49-25.74,63.67-27.92,78.6-.73,5.01-.05,8.78,2.04,11.2,1.86,2.15,4.83,3.24,8.83,3.24,16.27,0,37.92-14.77,53.87-36.76,15.34-21.06,30.45-54.14,34.4-75.31,2.47-13.31-.38-26.85-7.44-35.34-4.32-5.2-9.72-7.94-15.61-7.94h0Z"/>
            <path d="M720.3,315.74c-10,0-17.9-3.02-22.85-8.74-5.33-6.16-7.27-15.44-5.6-26.82.95-6.48,3.41-15.86,6.77-25.71l31.06-85.58c.22-.71.44-1.36.63-1.96.57-1.75.98-3.01,1.08-3.7.25-1.72-.13-3.23-1.11-4.36-1.15-1.32-2.98-2.02-5.32-2.02-8.29,0-25.04,10.53-38.12,23.97-17.61,18.14-30.23,39.52-40.92,69.35l-22.86,62.63h-50.17l56.46-155.94h-30.19l3.54-9.05h32.72c14.41,0,32.25-1.62,49.15-4.45l-16.17,44.52,1.33.73c24.32-31.89,49.35-46.73,78.79-46.73,11.81,0,20.77,3.15,25.9,9.1,3.83,4.43,5.33,10.36,4.34,17.14-.5,3.44-1.57,8.7-3.78,14.23l-35.53,98.34c-.9,2.58-3.04,8.88-3.5,12.01-.34,2.31,0,4.08,1.02,5.25.89,1.04,2.26,1.56,4.05,1.56,7.57,0,18.7-11.48,37.24-38.4.27-.26.58-.73,1.08-1.45.57-.83,1.32-1.93,2.3-3.16l7.51,3.97c-25.64,39.27-45.63,55.31-68.87,55.31v-.02Z"/>
            <path d="M872.66,315.98c-23.84,0-43.42-7.28-55.11-20.48-10-11.29-13.92-26.32-11.36-43.48,4.71-31.46,28.27-67.19,58.62-88.9,22.42-15.87,44.99-23.58,68.98-23.58,19.58,0,34.79,5,42.84,14.08,5.35,6.05,7.4,13.55,6.08,22.33-2.15,14.34-13.91,24.34-28.61,24.34-6.51,0-12.1-2.27-15.74-6.38-3.71-4.18-5.21-10.04-4.25-16.47.62-4.09,1.35-6.48,5.38-15.48.15-.37.29-.71.43-1.02.53-1.24.98-2.32,1.15-3.41.25-1.72-.22-3.31-1.37-4.61-1.98-2.24-5.78-3.47-10.71-3.47-17.3,0-29.17,13.21-45.36,50.47-14.99,34.43-25.73,65.34-28.03,80.7-1.28,8.56-.15,14.71,3.48,18.8,4.02,4.54,10.99,6.65,21.93,6.65,25.33,0,45.43-11.94,71.56-42.52l7.15,5.05c-26.02,33.63-51.29,47.38-87.06,47.38h0Z"/>
            <path d="M1048.26,315.98c-25.47,0-46.02-7.54-57.84-21.22-9.37-10.84-13.06-25.17-10.68-41.46,4.02-27.52,20.74-56.06,45.85-78.3,25.14-22.27,55.14-35.03,82.29-35.03,18.18,0,32.98,5.52,41.65,15.56,6.81,7.88,9.52,18.17,7.83,29.75-3.54,24.23-22.83,41.01-55.81,48.52-13.34,3.05-27.09,4.24-58.88,5.07l-.51.02-.19.47c-7.56,18.87-13.14,36.63-14.57,46.36-.81,5.54.27,10.08,3.21,13.47,3.95,4.58,11.03,6.89,21.04,6.89,27.72,0,52.16-13.1,81.61-43.78l6.15,5.37c-29.89,34.31-56.34,48.32-91.15,48.32h0ZM1103.52,149.87c-15.82,0-29.63,12.32-39.95,35.63-4.46,9.78-5.1,11.37-17,42.41l-.42,1.08,2.59-.1c21.44-.8,22.73-.85,31.63-3.37,20.19-5.09,35.24-25.3,39.25-52.75,1.22-8.39.22-14.32-3.08-18.14-2.75-3.18-7.13-4.78-13.03-4.78v.02Z"/>
          </g>
        </g>
      </g>
    </g>
  </g>
</svg>