<?xml version="1.0" encoding="UTF-8"?>
<svg id="Layer_2" data-name="Layer 2" xmlns="http://www.w3.org/2000/svg" viewBox="0 0 2192.69 751.58">
  <defs>
    <style>
      .cls-1 {
        fill: #0078e6;
      }

      .cls-2 {
        fill: #afccf3;
      }

      .cls-3 {
        fill: #fff;
      }

      .cls-4 {
        fill: #2b2883;
      }
    </style>
  </defs>
  <g id="Layer_1-2" data-name="Layer 1">
    <g>
      <path class="cls-1" d="M1948.31,751.58c-38.05,0-69.92-7.02-94.99-20.89-9.33,10.54-22.92,16.96-37.45,16.96h-155.98c-11.24,0-22.06-3.82-30.75-10.59-8.64,6.75-19.42,10.59-30.78,10.59h-118.78c-16.03,0-31.19-7.76-40.56-20.77-9.37-13-11.94-29.85-6.87-45.05l3.02-9.06c6.14-18.41,22.31-31.53,41.48-33.83,1.85-.73,8.85-3.94,22.42-14.79,13.49-10.8,26.77-23.76,35.56-32.33,1.97-1.93,3.73-3.64,5.24-5.1l52.67-50.14-37.15-116.62c-7.96-1.58-15.43-5.07-21.73-10.14l-11.06,30.97c9.81,6.34,17.21,16.02,20.68,27.26,4.04,13.07,2.5,27.4-4.21,39.31-13.32,23.64-28.39,42.28-44.79,55.4-20.12,16.09-42.27,24.39-65.84,24.67-.4,0-.81.01-1.22.01-15.93,0-30.61-3.95-43.02-11.5-15.33,7.63-31.94,11.5-49.51,11.5-28.2,0-53.43-11.19-71.05-31.5-2.51-2.89-4.84-5.95-6.99-9.16-2.88,2.49-5.81,4.9-8.79,7.22-27.01,20.98-59.19,36.01-93.05,43.46l-.55.12c-7.64,1.59-15.8,2.39-24.25,2.39-10.44,0-21.57-1.23-33.07-3.64-24.66-5.08-46.4-17.01-62.64-34.16-19.14,14.97-39.49,22.41-61.8,22.68-.4.01-.81.02-1.22.02-22.85,0-43.07-8.02-57.48-22.69-9.3,12.15-23.93,19.68-39.74,19.68h-50.15c-9.11,0-17.87-2.43-25.52-6.98-15.42,8.34-31.8,12.56-48.83,12.56-15.93,0-30.61-3.95-43.02-11.5-15.34,7.63-31.94,11.5-49.51,11.5-25.65,0-48.84-9.26-66.09-26.22-19.86,16.08-41.12,23.66-65.88,23.66-.41,0-.81,0-1.22-.02-29.24-.33-47.43-12.33-58.02-23.4-9.28,12.57-24.17,20.4-40.28,20.4h-51.14c-10.31,0-20.25-3.2-28.52-8.95-8.27,5.74-18.21,8.95-28.53,8.95h-51.14c-16.3,0-31.62-7.97-40.97-21.33-9.35-13.36-11.59-30.48-6.01-45.8l38.39-105.28c-2.21-2.21-4.21-4.62-5.97-7.19-5.39-7.91-8.31-17.05-8.65-26.33-18.47,3.62-38.99,5.35-62.84,5.35H49.99c-16.21,0-31.47-7.9-40.83-21.14s-11.71-30.26-6.31-45.54l3.21-9.08c7.05-19.93,26-33.32,47.14-33.32h.14l63.56-172.35c-4.59-3.26-8.63-7.28-11.89-11.9-9.36-13.24-11.71-30.26-6.31-45.54l3.21-9.08C108.97,13.39,127.91,0,149.05,0h128.07c24.31,0,41.28,1.88,56.74,6.3,17.66,5.04,32.91,13.43,47.97,26.39,26.27,22.69,43.13,56.29,47.47,93.07,20.25-9.74,41.54-14.96,61.76-14.96,12.88,0,24.69,2.15,35.19,6.4.04,0,.08-.02.12-.02,2.88-8.25,7.77-15.48,14.29-21.16l1.27-3.51c-2.25-9.29-1.81-19.11,1.35-28.2l.52-1.51c6.98-20.1,25.96-33.61,47.24-33.61h396.27c11.1,0,21.12,1.96,29.93,5.83,7.17-3.8,15.2-5.83,23.4-5.83h403.74c16.15,0,31.38,7.86,40.74,21.03,9.36,13.16,11.79,30.13,6.49,45.38l-.52,1.51c-2.52,7.27-6.62,13.74-11.94,19.04,4.02,10.79,4.26,22.8.4,33.9l-.52,1.51c-6.98,20.1-25.96,33.6-47.23,33.6h-208.07c1.49,9.13,1.56,18.62.17,28.15-1.06,7.29-2.9,14.35-5.47,21.1.13,0,.27,0,.41,0,22.84,0,43.17,10.24,55.79,28.11,11.78,16.68,15.19,37.68,9.7,58.47,8.47,7.43,15.77,16.04,21.78,25.71.14.22.28.45.41.67,29.17-24.29,63.66-38,96.44-38,12.79,0,24.51,2.16,34.95,6.42,3-.56,6.06-.84,9.13-.84h49.54c12.82,0,25.03,4.94,34.21,13.54,9.28-10.37,22.7-16.65,37.27-16.65h158.37c7.23,0,14.41,1.61,20.96,4.62,6.54-3.04,13.66-4.62,21.02-4.62h118.3c16.03,0,31.19,7.76,40.57,20.77,1.17,1.62,2.23,3.31,3.19,5.05,3.6-2.84,7.39-5.53,11.36-8.07,25.49-16.29,56.69-25.26,87.85-25.26,1.43,0,2.87.02,4.3.06,15.4.05,38.92,1.75,63.9,9.51,26.53,8.24,48.18,21.21,64.34,38.54,22.11,23.71,32.53,54.17,30.15,88.07-2.99,42.5-22.45,78.05-55.22,101.48,7.09,17.53,10.05,37.26,8.61,57.86-1.86,26.49-9.87,50.69-23.81,71.91-12.48,19.01-29.4,35.12-50.29,47.89-33.68,20.59-77.48,31.93-123.34,31.93ZM1814.88,587.41c3.71-5.33,7.99-10.28,12.78-14.76,17.14-16.02,39.35-24.84,62.54-24.84,11.21,0,21.92,1.96,31.76,5.72-1.36-1.6-2.63-3.3-3.8-5.09-9.27-14.18-10.74-31.92-3.93-47.43l4.1-9.34c.47-1.06.97-2.11,1.51-3.13-3.8-2.81-7.33-5.96-10.57-9.44-14.2-15.23-21.88-35.71-22.02-58.32-1.19.09-2.38.13-3.58.13-7.69,0-12.02,1.61-45.01,33.29l-50.31,48.24,26.53,84.99Z"/>
      <g>
        <path class="cls-3" d="M1482.6,688.58c29.27-2.38,75.55-50.09,91.92-65.83l75.15-71.55-57.44-180.31h-27.19l3.02-9.06h158.37l-3.02,9.06h-29.1l33.58,105.89,47.14-46.27c14.4-14.79,20.45-26.23,20.98-33.87,1.41-20.03-15.36-25.76-30.63-25.76l3.02-9.06h118.3l-3.02,9.06c-29.1,0-45.37,14.31-79.64,47.22l-72.63,69.64,62.68,200.82h24.8l-3.02,9.06h-155.98l3.02-9.06h29.1l-38.78-126.88-58.88,57.24c-25.05,23.85-26.92,30.05-27.62,40.07-1.31,18.6,15.57,29.57,34.65,29.57l-3.02,9.06h-118.78l3.02-9.06Z"/>
        <path class="cls-3" d="M1964.12,511.75h13.28c36.88,0,54.3-9.84,64.88-34.42,15.17-33.93,18.14-48.19,19.39-65.9,2.01-28.52-16.03-44.75-47.51-44.75-13.28,0-30.38,5.41-40.84,14.26l.95.49c19.67,0,38.72,8.85,36.82,35.9-1.66,23.61-18.37,37.38-40,37.38-23.11,0-35.29-15.74-33.7-38.36,2.95-34.92,48.72-63.44,95.83-61.96,48.2,0,113.66,20.16,109.27,82.62-3.91,55.57-46.52,81.14-96.93,84.59l.42.98c34.23,9.84,52.49,36.88,49.89,73.77-5.26,74.75-79.69,105.24-147.56,105.24s-102.88-26.56-100.33-62.95c1.69-24.1,21.07-40.82,42.21-40.82,23.61,0,36.13,17.7,34.61,39.34-1.49,21.15-21.6,34.42-41.27,34.42-2.46,0-5.38-.49-7.8-.98l-1.05.98c12.52,10.82,29.25,17.7,46.95,17.7,34.42,0,53.62-14.26,73.28-62.95,19.09-47.7,20.27-57.54,21.28-71.8,2.35-33.44-24.7-33.44-45.35-33.44h-10.82l4.1-9.34Z"/>
      </g>
      <g>
        <g>
          <path class="cls-3" d="M1107.79,517.89c1.22-3.5,4.01-12.55,8.66-24.66,13.34-34.68,33.73-93.49,42.36-116.49.61-1.62-2.5-5.47-6.24-3.1-3.74,2.37-7.2,5.38-8.59,5.38-1.97,0-3.38-.83-3.93-2.69-.6-2.07,1.2-4.85,3.23-7.08,3.74-4.1,13.12-13.31,29.9-22.32.48-.25.2-.99-.33-.85-48.5,12.25-95.55,51.55-113,99.31-18.49,50.63,2.49,92.79,47.28,101.98.64.13,1.17-.5.95-1.11-1.8-4.77-6.57-10.37-.28-28.39h0Z"/>
          <path class="cls-3" d="M1213.88,342.35c-1.93-.21,1,1.98,2.47,4.19,2.86,4.31,3.95,12.55.76,22.53-3.88,12.13-42.14,114.23-47.03,126.19-1.83,4.48-.72,7.68,1.83,8.37,3.19.85,11.34-.64,28.57-15.24,5.94-5.03,10.38-4.76,6.38,2.45-4.34,7.8-16.57,24.54-38.14,42.43-7.1,5.89-17.68,11.12-25.02,14.29-.62.27-.32,1.22.35,1.07,50.35-11.08,103.21-45.49,124.32-103.22,18.95-51.85-8.38-98.07-54.48-103.06Z"/>
          <path class="cls-3" d="M1183.77,310.72c5.17-14.53,20.87-26.31,35.07-26.31s21.53,11.78,16.37,26.31c-5.17,14.53-20.87,26.31-35.07,26.31s-21.53-11.78-16.37-26.31Z"/>
          <path class="cls-3" d="M573.07,135.16l.52-1.51c6.44,0,9.28-7.31,11.98-14.79l11.38-31.33-2.52-6.84h-3.9l.52-1.51h20.51l16.44,41.65h.16l10.44-29.5c.62-1.67,1.14-4.05,1.23-5.17.28-3.34-1.68-5.48-5.58-5.48h-.4l.52-1.51h17.17l-.52,1.51c-5.72,0-7.78,3.65-9.73,8.82l-16.72,45.63h-8.51l-18.03-45.47-9.94,27.43c-1.67,4.69-2.54,8.43-2.71,10.41-.37,4.38,2.42,6.12,6.4,6.12l-.52,1.51h-18.2,0Z"/>
          <path class="cls-3" d="M683.77,78.07c14.47,0,23.32,10.1,22.17,23.77-1.53,18.13-16.97,34.43-37.32,34.43-13.35,0-24.07-8.67-22.8-23.77,1.38-16.3,14.83-34.43,37.96-34.43h0ZM667.74,134.28c4.61,0,8.63-2.38,13.21-12.4,5.46-12.01,10.12-24.8,10.84-33.39.48-5.65-3.51-8.43-7.16-8.43-5.17,0-9,3.02-11.71,7.87-5.15,9.3-12.23,29.1-12.94,37.44-.48,5.65,2.35,8.91,7.75,8.91h0Z"/>
          <path class="cls-3" d="M701.14,135.16l.52-1.51c6.44,0,9.28-7.31,11.98-14.79l11.38-31.33-2.52-6.84h-3.9l.52-1.51h20.51l16.44,41.65h.16l10.44-29.5c.62-1.67,1.14-4.05,1.23-5.17.28-3.34-1.68-5.48-5.58-5.48h-.4l.52-1.51h17.17l-.52,1.51c-5.72,0-7.78,3.65-9.73,8.82l-16.72,45.63h-8.51l-18.03-45.47-9.94,27.43c-1.67,4.69-2.54,8.43-2.71,10.41-.37,4.38,2.42,6.12,6.4,6.12l-.52,1.51h-18.2,0Z"/>
          <path class="cls-3" d="M773.69,115.6h1.75c-.31.79-.38,1.67-.45,2.55-.76,9.06,5,16.14,14.22,16.14,5.72,0,13.48-3.41,14.07-10.41,1.15-13.67-24.52-8.98-22.92-27.98,1.02-12.01,12.47-17.8,23.37-17.8,8.58,0,11.21,2.78,15.67,2.78,1.75,0,3.81-.88,4.87-3.02h1.75l-6.79,18.28h-1.51c.8-9.54-2.22-16.06-12.4-16.06-5.09,0-11.01,3.26-11.48,8.91-1.01,11.92,23.68,7.63,22.1,26.47-1.19,14.15-15.19,20.83-27.43,20.83-7.24,0-13.74-3.98-16.67-3.98-1.43,0-2.61.72-3.2,2.15h-1.75l6.84-18.84h-.02Z"/>
          <path class="cls-3" d="M836.21,79.19h48.73l-6.23,17.33h-1.75c.25-1.03.43-2.31.53-3.5.55-6.6-1.82-12.32-9.38-12.32l-19.01,52.95h5.01l-.61,1.51h-26.31l.61-1.51h5.09l18.85-52.95c-8.98,0-16.57,7.95-20.08,15.66h-1.83l6.38-17.17h0Z"/>
          <path class="cls-3" d="M917.87,78.07c14.47,0,23.32,10.1,22.17,23.77-1.53,18.13-16.97,34.43-37.32,34.43-13.35,0-24.07-8.67-22.8-23.77,1.38-16.3,14.83-34.43,37.96-34.43h0ZM901.84,134.28c4.61,0,8.63-2.38,13.21-12.4,5.46-12.01,10.12-24.8,10.84-33.39.48-5.65-3.51-8.43-7.16-8.43-5.17,0-9,3.02-11.71,7.87-5.15,9.3-12.23,29.1-12.94,37.44-.48,5.65,2.35,8.91,7.75,8.91h0Z"/>
          <path class="cls-3" d="M961.29,80.7h-5.17l.52-1.51h30.69c12.08,0,16,4.45,15.27,13.04-.7,8.27-7.92,17.57-23.5,17.57h-11.92l-8.53,23.85h5.25l-.52,1.51h-26.55l.52-1.51h4.85l19.09-52.95ZM967.71,108.28h4.29c5.25,0,7.27-1.35,9.45-4.61,2-2.94,5.41-11.44,5.88-17.01.42-5.01-2.75-5.96-6.34-5.96h-3.34l-9.96,27.59h0Z"/>
          <path class="cls-3" d="M1020.09,133.64c5.48-.88,8.62-6.12,12.06-15.74l13.39-37.2h-5.65l.76-1.51h20.83l-2.33,37.12h.16l23.96-37.12h21.38l-.76,1.51h-5.01l-19.09,52.95h5.72l-.76,1.51h-25.76l.76-1.51h4.29l19.52-51.44h-.16l-34.19,52.95h-5.8l2.96-51.2h-.16l-12.91,36.25c-1.65,4.53-2.07,6.6-2.18,7.87-.35,4.14,2.39,5.57,5.89,5.57l-.76,1.51h-16.85l.68-1.51h0Z"/>
          <path class="cls-3" d="M1116.12,80.7h-5.17l.52-1.51h45.71l-5.1,18.04h-1.51c1.1-13.04-3.06-16.54-13.24-16.54h-4.85l-8.84,24.64h5.09c5.48,0,10.04-1.19,13.99-8.51h1.75l-7.45,20.43h-1.83c.34-1.19.52-2.31.6-3.34.32-3.74-1.39-7.08-6.95-7.08h-5.72l-9.65,26.79h5.57c9.86,0,20.16-4.29,26.55-15.98h1.75l-7.04,17.49h-48.65l.52-1.51h4.85l19.09-52.95h.02Z"/>
          <path class="cls-3" d="M1218.24,79.19l-7.63,20.75h-1.75c.28-1.43.48-2.78.59-4.21.68-8.11-2.81-15.66-12.44-15.66-4.61,0-8.31,2.46-10.96,7.39-6.58,12.08-12.35,29.57-13.05,37.92-.48,5.64,2.35,8.91,7.75,8.91,5.96,0,9.04-5.48,10.81-10.41l3.24-9.14h-4.05l.53-1.59h23.61l-.52,1.51h-3.5l-4.84,13.11c-6.16,5.17-15.03,8.51-24.57,8.51-13.67,0-24.41-8.43-23.12-23.77,1.38-16.3,15.94-34.43,37.4-34.43,9.22,0,12.33,3.74,15.58,3.74,2.55,0,3.89-.88,5.15-2.62h1.75v.02Z"/>
          <path class="cls-3" d="M1244.12,119.17h-16.85l-2.35,3.41c-2.45,3.58-2.97,5.01-3.08,6.36-.32,3.81,3.5,4.69,6.12,4.69l-.52,1.51h-19.4l.52-1.51c6.76,0,10.12-5.01,15.93-13.59l28.09-40.86h6.36l1.22,54.45h4.61l-.52,1.51h-25.2l.52-1.51h4.69l-.13-14.47h0ZM1228.35,117.67h15.82l-.17-22.5h-.16l-15.49,22.5Z"/>
          <path class="cls-3" d="M1267.38,133.64c5.48-.88,8.62-6.12,12.06-15.74l13.39-37.2h-5.65l.76-1.51h20.83l-2.33,37.12h.16l23.96-37.12h21.38l-.76,1.51h-5.01l-19.09,52.95h5.72l-.76,1.51h-25.76l.76-1.51h4.29l19.52-51.44h-.16l-34.19,52.95h-5.8l2.96-51.2h-.16l-12.91,36.25c-1.65,4.53-2.07,6.6-2.18,7.87-.35,4.14,2.39,5.57,5.89,5.57l-.76,1.51h-16.85l.68-1.51h0Z"/>
          <path class="cls-3" d="M1364.29,80.7h-5.17l.52-1.51h26.87l-.52,1.51h-5.32l-19.01,52.95h5.25l-.52,1.51h-26.55l.52-1.51h4.85l19.09-52.95h0Z"/>
          <path class="cls-3" d="M1376.28,133.64c4.88-.4,12.71-8.34,15.47-10.97l12.69-11.92-9.15-30.05h-4.53l.52-1.51h26.4l-.52,1.51h-4.85l5.35,17.65,7.96-7.71c2.43-2.46,3.47-4.38,3.58-5.65.28-3.34-2.5-4.29-5.05-4.29l.52-1.51h19.71l-.52,1.51c-4.85,0-7.6,2.38-13.38,7.87l-12.27,11.61,9.98,33.47h4.14l-.52,1.51h-26l.52-1.51h4.85l-6.17-21.14-9.94,9.54c-4.23,3.98-4.55,5.01-4.7,6.68-.26,3.1,2.52,4.93,5.71,4.93l-.52,1.51h-19.8l.52-1.51h0Z"/>
          <path class="cls-3" d="M749.54,537.44c-13,0-22.5-5.45-26.07-14.94-2.02-5.15-2.74-9.78-1.65-23.67l.2-2.52-1.57,1.98c-22.27,28.17-40.06,39.15-63.44,39.15-13.67,0-25.18-4.93-33.27-14.26-10.65-12.28-14.76-31.42-11.55-53.88,3.88-27.19,18.73-55.04,40.75-76.4,21.97-21.31,48.34-33.54,72.35-33.54,19.75,0,29.67,8.4,34.26,28.98l.58,2.61,9.25-26.01h49.54l-50.76,142.15-.48,1.79c-.73,2.71-1.36,5.04-1.57,6.51-.24,1.65.06,3.01.85,3.91.49.57,1.44,1.25,3.14,1.25,9.19,0,22.13-13.67,39.54-41.78l8.21,4.05c-20.43,36.25-43.4,54.63-68.29,54.63ZM727.94,368.96c-15.41,0-26.53,14.73-47.58,63.05-15.88,36.92-25.42,64.41-27.57,79.5-.73,5.12-.03,8.96,2.08,11.4,1.85,2.12,4.75,3.2,8.66,3.2,16.07,0,37.46-14.94,53.22-37.19,15.14-21.3,30.07-54.76,33.98-76.18,2.47-13.66-.44-27.46-7.6-36.03-4.23-5.07-9.48-7.74-15.19-7.74Z"/>
          <path class="cls-3" d="M971.27,534.87c-9.93,0-17.79-3.02-22.74-8.74-5.4-6.24-7.38-15.67-5.7-27.26.95-6.56,3.41-16.04,6.76-26.01l31.06-86.58c.22-.72.43-1.36.62-1.97.57-1.78.98-3.06,1.08-3.75.25-1.75-.14-3.28-1.13-4.43-1.15-1.32-2.98-2.02-5.3-2.02-8.29,0-25.03,10.64-38.12,24.24-17.6,18.35-30.22,39.98-40.9,70.15l-22.85,63.36h-50.15l56.44-157.75h-30.18l3.55-9.18h32.7c14.4,0,32.24-1.64,49.15-4.51l-16.17,45.05,1.34.72c24.31-32.26,49.34-47.28,78.76-47.28,11.73,0,20.65,3.15,25.81,9.1,3.89,4.5,5.42,10.54,4.42,17.46-.5,3.48-1.57,8.8-3.78,14.41l-35.52,99.48c-.9,2.61-3.04,8.99-3.5,12.15-.34,2.35,0,4.14,1.04,5.32.89,1.03,2.25,1.55,4.04,1.55,7.57,0,18.7-11.62,37.23-38.85.27-.27.58-.74,1.08-1.47.57-.84,1.32-1.95,2.3-3.2l7.51,4.02c-25.64,39.74-45.62,55.96-68.85,55.96h0Z"/>
          <path class="cls-3" d="M1427.21,537.44c-13,0-22.5-5.45-26.07-14.94-2.02-5.15-2.74-9.78-1.65-23.67l.2-2.52-1.57,1.98c-22.27,28.17-40.06,39.15-63.44,39.15-13.67,0-25.18-4.93-33.27-14.26-10.65-12.28-14.76-31.42-11.55-53.88,3.88-27.19,18.73-55.04,40.75-76.4,21.97-21.31,48.34-33.54,72.35-33.54,19.75,0,29.67,8.4,34.26,28.98l.58,2.61,9.25-26.01h49.54l-50.76,142.15-.48,1.78c-.73,2.71-1.36,5.05-1.57,6.51-.24,1.65.06,3.01.85,3.91.49.57,1.44,1.25,3.14,1.25,9.19,0,22.13-13.67,39.54-41.78l8.21,4.05c-20.43,36.25-43.4,54.63-68.29,54.63h0ZM1405.62,368.96c-15.41,0-26.53,14.73-47.58,63.05-15.89,36.92-25.42,64.41-27.57,79.5-.73,5.12-.03,8.96,2.08,11.4,1.85,2.12,4.75,3.2,8.66,3.2,16.07,0,37.46-14.94,53.22-37.19,15.14-21.3,30.07-54.76,33.98-76.18,2.47-13.66-.44-27.46-7.6-36.03-4.23-5.07-9.48-7.74-15.19-7.74Z"/>
          <path class="cls-3" d="M525.04,534.87c-10.78,0-18.81-2.96-23.86-8.81-5.43-6.29-7.27-15.73-5.46-28.04,1.15-7.83,4.05-18.45,7.58-27.7l30.21-82.74c.29-.98.55-1.85.79-2.61.54-1.76.93-3.03,1.07-3.97.22-1.5-.15-2.86-1.07-3.93-1.17-1.35-3.13-2.1-5.53-2.1-11.16,0-26.86,10.57-43.07,28.98-19.01,21.97-26.57,35.79-40.46,73.98l-19.7,53.94h-51.14l52.66-144.25c.67-1.38.86-2.71,1.18-4.91.42-2.89.06-4.95-1.12-6.32-1.08-1.25-2.76-1.85-5.17-1.85-9.01,0-27.82,12.22-41.92,27.25-17.49,17.89-29.55,39.24-42.99,76.14l-19.7,53.94h-51.14l57.52-157.75h-30.76l3.61-9.18h33.34c14.47,0,32.22-1.6,50.11-4.51l-15.16,42.06,1.29.78c26.75-29.54,52.28-43.9,78.06-43.9,11.98,0,21.17,3.31,26.59,9.59,4.5,5.21,6.22,12.41,4.99,20.83-.42,2.85-1.57,7.89-3.18,12.73l1.3.76c28.26-31.18,50.61-43.9,77.18-43.9,12.5,0,21.91,3.25,27.23,9.41,4.22,4.88,5.77,11.38,4.61,19.29-.52,3.54-1.6,8.84-3.78,13.96l-36.07,98.63c-2.25,6.39-3.17,9.46-3.5,11.73-.32,2.22,0,3.89.94,4.99.84.97,2.13,1.46,3.84,1.46,9.02,0,19.44-10.58,42.71-43.45l7.57,4.76c-27.3,40.9-44.92,54.73-69.57,54.73h0Z"/>
          <path class="cls-3" d="M49.99,331.28l3.21-9.08h34.99L185.23,59.08h-39.39l3.21-9.08h128.07c36.91,0,53.76,4.81,72.1,20.59,23.73,20.5,35.2,55.33,29.94,90.9-6.85,46.27-31.88,93.53-65.32,123.35-38.79,34.73-72.52,46.44-133.69,46.44H49.99ZM147.82,322.2h40.91c25.33,0,43.98-2.4,58.64-14.33,12.87-10.47,22.52-27.4,35.63-62.49,21.04-55.89,37.37-110.54,41.62-139.22,2.36-15.94.24-27.42-6.49-35.1-7.06-8.06-19.27-11.98-37.31-11.98h-35.98l-97.02,263.12h.02Z"/>
          <path class="cls-3" d="M515.64,336.79c-13.17,0-22.8-5.38-26.41-14.76-2.05-5.08-2.77-9.66-1.66-23.39l.2-2.48-1.56,1.93c-22.56,27.85-40.57,38.7-64.24,38.7-14.07,0-25.86-5.02-34.07-14.52-10.5-12.14-14.52-30.9-11.32-52.82,3.92-26.87,18.96-54.4,41.25-75.51,22.24-21.07,48.95-33.16,73.26-33.16,20,0,30.06,8.3,34.69,28.64l.58,2.54,9.36-25.67h50.17l-51.38,140.5-.48,1.76c-.74,2.68-1.38,4.99-1.59,6.45-.24,1.62.05,2.95.84,3.85.5.58,1.45,1.26,3.19,1.26,9.3,0,22.4-13.51,40.02-41.31l8.31,4.01c-20.68,35.83-43.94,53.98-69.14,53.98h0ZM493.78,170.26c-15.6,0-26.85,14.56-48.16,62.32-16.08,36.49-25.74,63.67-27.92,78.6-.73,5.01-.05,8.78,2.04,11.2,1.86,2.15,4.83,3.24,8.83,3.24,16.27,0,37.92-14.77,53.87-36.76,15.34-21.06,30.45-54.14,34.4-75.31,2.47-13.31-.38-26.85-7.44-35.34-4.32-5.2-9.72-7.94-15.61-7.94h0Z"/>
          <path class="cls-3" d="M737.37,336.55c-10,0-17.9-3.02-22.85-8.74-5.33-6.16-7.27-15.44-5.6-26.82.95-6.48,3.41-15.86,6.77-25.71l31.06-85.58c.22-.71.44-1.36.63-1.96.57-1.75.98-3.01,1.08-3.7.25-1.72-.13-3.23-1.11-4.36-1.15-1.32-2.98-2.02-5.32-2.02-8.29,0-25.04,10.53-38.12,23.97-17.61,18.14-30.23,39.52-40.92,69.35l-22.86,62.63h-50.17l56.46-155.94h-30.19l3.54-9.05h32.72c14.41,0,32.25-1.62,49.15-4.45l-16.17,44.52,1.33.73c24.32-31.89,49.35-46.73,78.79-46.73,11.81,0,20.77,3.15,25.9,9.1,3.83,4.43,5.33,10.36,4.34,17.14-.5,3.44-1.57,8.7-3.78,14.23l-35.53,98.34c-.9,2.58-3.04,8.88-3.5,12.01-.34,2.31,0,4.08,1.02,5.25.89,1.04,2.26,1.56,4.05,1.56,7.57,0,18.7-11.48,37.24-38.4.27-.26.58-.73,1.08-1.45.57-.83,1.32-1.93,2.3-3.16l7.51,3.97c-25.64,39.27-45.63,55.31-68.87,55.31v-.02Z"/>
          <path class="cls-3" d="M889.74,336.79c-23.84,0-43.42-7.28-55.11-20.48-10-11.29-13.92-26.32-11.36-43.48,4.71-31.46,28.27-67.19,58.62-88.9,22.42-15.87,44.99-23.58,68.98-23.58,19.58,0,34.79,5,42.84,14.08,5.35,6.05,7.4,13.55,6.08,22.33-2.15,14.34-13.91,24.34-28.61,24.34-6.51,0-12.1-2.27-15.74-6.38-3.71-4.18-5.21-10.04-4.25-16.47.62-4.09,1.35-6.48,5.38-15.48.15-.37.29-.71.43-1.02.53-1.24.98-2.32,1.15-3.41.25-1.72-.22-3.31-1.37-4.61-1.98-2.24-5.78-3.47-10.71-3.47-17.3,0-29.17,13.21-45.36,50.47-14.99,34.43-25.73,65.34-28.03,80.7-1.28,8.56-.15,14.71,3.48,18.8,4.02,4.54,10.99,6.65,21.93,6.65,25.33,0,45.43-11.94,71.56-42.52l7.15,5.05c-26.02,33.63-51.29,47.38-87.06,47.38h0Z"/>
          <path class="cls-3" d="M1065.34,336.79c-25.47,0-46.02-7.54-57.84-21.22-9.37-10.84-13.06-25.17-10.68-41.46,4.02-27.52,20.74-56.06,45.85-78.3,25.14-22.27,55.14-35.03,82.29-35.03,18.18,0,32.98,5.52,41.65,15.56,6.81,7.88,9.52,18.17,7.83,29.75-3.54,24.23-22.83,41.01-55.81,48.52-13.34,3.05-27.09,4.24-58.88,5.07l-.51.02-.19.47c-7.56,18.87-13.14,36.63-14.57,46.36-.81,5.54.27,10.08,3.21,13.47,3.95,4.58,11.03,6.89,21.04,6.89,27.72,0,52.16-13.1,81.61-43.78l6.15,5.37c-29.89,34.31-56.34,48.32-91.15,48.32h0ZM1120.6,170.68c-15.82,0-29.63,12.32-39.95,35.63-4.46,9.78-5.1,11.37-17,42.41l-.42,1.08,2.59-.1c21.44-.8,22.73-.85,31.63-3.37,20.19-5.09,35.24-25.3,39.25-52.75,1.22-8.39.22-14.32-3.08-18.14-2.75-3.18-7.13-4.78-13.03-4.78v.02Z"/>
        </g>
        <g>
          <path class="cls-3" d="M1107.79,517.89c1.22-3.5,4.01-12.55,8.66-24.66,13.34-34.68,33.73-93.49,42.36-116.49.61-1.62-2.5-5.47-6.24-3.1-3.74,2.37-7.2,5.38-8.59,5.38-1.97,0-3.38-.83-3.93-2.69-.6-2.07,1.2-4.85,3.23-7.08,3.74-4.1,13.12-13.31,29.9-22.32.48-.25.2-.99-.33-.85-48.5,12.25-95.55,51.55-113,99.31-18.49,50.63,2.49,92.79,47.28,101.98.64.13,1.17-.5.95-1.11-1.8-4.77-6.57-10.37-.28-28.39h0Z"/>
          <path class="cls-3" d="M1213.88,342.35c-1.93-.21,1,1.98,2.47,4.19,2.86,4.31,3.95,12.55.76,22.53-3.88,12.13-42.14,114.23-47.03,126.19-1.83,4.48-.72,7.68,1.83,8.37,3.19.85,11.34-.64,28.57-15.24,5.94-5.03,10.38-4.76,6.38,2.45-4.34,7.8-16.57,24.54-38.14,42.43-7.1,5.89-17.68,11.12-25.02,14.29-.62.27-.32,1.22.35,1.07,50.35-11.08,103.21-45.49,124.32-103.22,18.95-51.85-8.38-98.07-54.48-103.06Z"/>
          <path class="cls-3" d="M1183.77,310.72c5.17-14.53,20.87-26.31,35.07-26.31s21.53,11.78,16.37,26.31c-5.17,14.53-20.87,26.31-35.07,26.31s-21.53-11.78-16.37-26.31Z"/>
          <path class="cls-3" d="M573.07,135.16l.52-1.51c6.44,0,9.28-7.31,11.98-14.79l11.38-31.33-2.52-6.84h-3.9l.52-1.51h20.51l16.44,41.65h.16l10.44-29.5c.62-1.67,1.14-4.05,1.23-5.17.28-3.34-1.68-5.48-5.58-5.48h-.4l.52-1.51h17.17l-.52,1.51c-5.72,0-7.78,3.65-9.73,8.82l-16.72,45.63h-8.51l-18.03-45.47-9.94,27.43c-1.67,4.69-2.54,8.43-2.71,10.41-.37,4.38,2.42,6.12,6.4,6.12l-.52,1.51h-18.2,0Z"/>
          <path class="cls-3" d="M683.77,78.07c14.47,0,23.32,10.1,22.17,23.77-1.53,18.13-16.97,34.43-37.32,34.43-13.35,0-24.07-8.67-22.8-23.77,1.38-16.3,14.83-34.43,37.96-34.43h0ZM667.74,134.28c4.61,0,8.63-2.38,13.21-12.4,5.46-12.01,10.12-24.8,10.84-33.39.48-5.65-3.51-8.43-7.16-8.43-5.17,0-9,3.02-11.71,7.87-5.15,9.3-12.23,29.1-12.94,37.44-.48,5.65,2.35,8.91,7.75,8.91h0Z"/>
          <path class="cls-3" d="M701.14,135.16l.52-1.51c6.44,0,9.28-7.31,11.98-14.79l11.38-31.33-2.52-6.84h-3.9l.52-1.51h20.51l16.44,41.65h.16l10.44-29.5c.62-1.67,1.14-4.05,1.23-5.17.28-3.34-1.68-5.48-5.58-5.48h-.4l.52-1.51h17.17l-.52,1.51c-5.72,0-7.78,3.65-9.73,8.82l-16.72,45.63h-8.51l-18.03-45.47-9.94,27.43c-1.67,4.69-2.54,8.43-2.71,10.41-.37,4.38,2.42,6.12,6.4,6.12l-.52,1.51h-18.2,0Z"/>
          <path class="cls-3" d="M773.69,115.6h1.75c-.31.79-.38,1.67-.45,2.55-.76,9.06,5,16.14,14.22,16.14,5.72,0,13.48-3.41,14.07-10.41,1.15-13.67-24.52-8.98-22.92-27.98,1.02-12.01,12.47-17.8,23.37-17.8,8.58,0,11.21,2.78,15.67,2.78,1.75,0,3.81-.88,4.87-3.02h1.75l-6.79,18.28h-1.51c.8-9.54-2.22-16.06-12.4-16.06-5.09,0-11.01,3.26-11.48,8.91-1.01,11.92,23.68,7.63,22.1,26.47-1.19,14.15-15.19,20.83-27.43,20.83-7.24,0-13.74-3.98-16.67-3.98-1.43,0-2.61.72-3.2,2.15h-1.75l6.84-18.84h-.02Z"/>
          <path class="cls-3" d="M836.21,79.19h48.73l-6.23,17.33h-1.75c.25-1.03.43-2.31.53-3.5.55-6.6-1.82-12.32-9.38-12.32l-19.01,52.95h5.01l-.61,1.51h-26.31l.61-1.51h5.09l18.85-52.95c-8.98,0-16.57,7.95-20.08,15.66h-1.83l6.38-17.17h0Z"/>
          <path class="cls-3" d="M917.87,78.07c14.47,0,23.32,10.1,22.17,23.77-1.53,18.13-16.97,34.43-37.32,34.43-13.35,0-24.07-8.67-22.8-23.77,1.38-16.3,14.83-34.43,37.96-34.43h0ZM901.84,134.28c4.61,0,8.63-2.38,13.21-12.4,5.46-12.01,10.12-24.8,10.84-33.39.48-5.65-3.51-8.43-7.16-8.43-5.17,0-9,3.02-11.71,7.87-5.15,9.3-12.23,29.1-12.94,37.44-.48,5.65,2.35,8.91,7.75,8.91h0Z"/>
          <path class="cls-3" d="M961.29,80.7h-5.17l.52-1.51h30.69c12.08,0,16,4.45,15.27,13.04-.7,8.27-7.92,17.57-23.5,17.57h-11.92l-8.53,23.85h5.25l-.52,1.51h-26.55l.52-1.51h4.85l19.09-52.95ZM967.71,108.28h4.29c5.25,0,7.27-1.35,9.45-4.61,2-2.94,5.41-11.44,5.88-17.01.42-5.01-2.75-5.96-6.34-5.96h-3.34l-9.96,27.59h0Z"/>
          <path class="cls-3" d="M1020.09,133.64c5.48-.88,8.62-6.12,12.06-15.74l13.39-37.2h-5.65l.76-1.51h20.83l-2.33,37.12h.16l23.96-37.12h21.38l-.76,1.51h-5.01l-19.09,52.95h5.72l-.76,1.51h-25.76l.76-1.51h4.29l19.52-51.44h-.16l-34.19,52.95h-5.8l2.96-51.2h-.16l-12.91,36.25c-1.65,4.53-2.07,6.6-2.18,7.87-.35,4.14,2.39,5.57,5.89,5.57l-.76,1.51h-16.85l.68-1.51h0Z"/>
          <path class="cls-3" d="M1116.12,80.7h-5.17l.52-1.51h45.71l-5.1,18.04h-1.51c1.1-13.04-3.06-16.54-13.24-16.54h-4.85l-8.84,24.64h5.09c5.48,0,10.04-1.19,13.99-8.51h1.75l-7.45,20.43h-1.83c.34-1.19.52-2.31.6-3.34.32-3.74-1.39-7.08-6.95-7.08h-5.72l-9.65,26.79h5.57c9.86,0,20.16-4.29,26.55-15.98h1.75l-7.04,17.49h-48.65l.52-1.51h4.85l19.09-52.95h.02Z"/>
          <path class="cls-3" d="M1218.24,79.19l-7.63,20.75h-1.75c.28-1.43.48-2.78.59-4.21.68-8.11-2.81-15.66-12.44-15.66-4.61,0-8.31,2.46-10.96,7.39-6.58,12.08-12.35,29.57-13.05,37.92-.48,5.64,2.35,8.91,7.75,8.91,5.96,0,9.04-5.48,10.81-10.41l3.24-9.14h-4.05l.53-1.59h23.61l-.52,1.51h-3.5l-4.84,13.11c-6.16,5.17-15.03,8.51-24.57,8.51-13.67,0-24.41-8.43-23.12-23.77,1.38-16.3,15.94-34.43,37.4-34.43,9.22,0,12.33,3.74,15.58,3.74,2.55,0,3.89-.88,5.15-2.62h1.75v.02Z"/>
          <path class="cls-3" d="M1244.12,119.17h-16.85l-2.35,3.41c-2.45,3.58-2.97,5.01-3.08,6.36-.32,3.81,3.5,4.69,6.12,4.69l-.52,1.51h-19.4l.52-1.51c6.76,0,10.12-5.01,15.93-13.59l28.09-40.86h6.36l1.22,54.45h4.61l-.52,1.51h-25.2l.52-1.51h4.69l-.13-14.47h0ZM1228.35,117.67h15.82l-.17-22.5h-.16l-15.49,22.5Z"/>
          <path class="cls-3" d="M1267.38,133.64c5.48-.88,8.62-6.12,12.06-15.74l13.39-37.2h-5.65l.76-1.51h20.83l-2.33,37.12h.16l23.96-37.12h21.38l-.76,1.51h-5.01l-19.09,52.95h5.72l-.76,1.51h-25.76l.76-1.51h4.29l19.52-51.44h-.16l-34.19,52.95h-5.8l2.96-51.2h-.16l-12.91,36.25c-1.65,4.53-2.07,6.6-2.18,7.87-.35,4.14,2.39,5.57,5.89,5.57l-.76,1.51h-16.85l.68-1.51h0Z"/>
          <path class="cls-3" d="M1364.29,80.7h-5.17l.52-1.51h26.87l-.52,1.51h-5.32l-19.01,52.95h5.25l-.52,1.51h-26.55l.52-1.51h4.85l19.09-52.95h0Z"/>
          <path class="cls-3" d="M1376.28,133.64c4.88-.4,12.71-8.34,15.47-10.97l12.69-11.92-9.15-30.05h-4.53l.52-1.51h26.4l-.52,1.51h-4.85l5.35,17.65,7.96-7.71c2.43-2.46,3.47-4.38,3.58-5.65.28-3.34-2.5-4.29-5.05-4.29l.52-1.51h19.71l-.52,1.51c-4.85,0-7.6,2.38-13.38,7.87l-12.27,11.61,9.98,33.47h4.14l-.52,1.51h-26l.52-1.51h4.85l-6.17-21.14-9.94,9.54c-4.23,3.98-4.55,5.01-4.7,6.68-.26,3.1,2.52,4.93,5.71,4.93l-.52,1.51h-19.8l.52-1.51h0Z"/>
          <path class="cls-3" d="M749.54,537.44c-13,0-22.5-5.45-26.07-14.94-2.02-5.15-2.74-9.78-1.65-23.67l.2-2.52-1.57,1.98c-22.27,28.17-40.06,39.15-63.44,39.15-13.67,0-25.18-4.93-33.27-14.26-10.65-12.28-14.76-31.42-11.55-53.88,3.88-27.19,18.73-55.04,40.75-76.4,21.97-21.31,48.34-33.54,72.35-33.54,19.75,0,29.67,8.4,34.26,28.98l.58,2.61,9.25-26.01h49.54l-50.76,142.15-.48,1.79c-.73,2.71-1.36,5.04-1.57,6.51-.24,1.65.06,3.01.85,3.91.49.57,1.44,1.25,3.14,1.25,9.19,0,22.13-13.67,39.54-41.78l8.21,4.05c-20.43,36.25-43.4,54.63-68.29,54.63ZM727.94,368.96c-15.41,0-26.53,14.73-47.58,63.05-15.88,36.92-25.42,64.41-27.57,79.5-.73,5.12-.03,8.96,2.08,11.4,1.85,2.12,4.75,3.2,8.66,3.2,16.07,0,37.46-14.94,53.22-37.19,15.14-21.3,30.07-54.76,33.98-76.18,2.47-13.66-.44-27.46-7.6-36.03-4.23-5.07-9.48-7.74-15.19-7.74Z"/>
          <path class="cls-3" d="M971.27,534.87c-9.93,0-17.79-3.02-22.74-8.74-5.4-6.24-7.38-15.67-5.7-27.26.95-6.56,3.41-16.04,6.76-26.01l31.06-86.58c.22-.72.43-1.36.62-1.97.57-1.78.98-3.06,1.08-3.75.25-1.75-.14-3.28-1.13-4.43-1.15-1.32-2.98-2.02-5.3-2.02-8.29,0-25.03,10.64-38.12,24.24-17.6,18.35-30.22,39.98-40.9,70.15l-22.85,63.36h-50.15l56.44-157.75h-30.18l3.55-9.18h32.7c14.4,0,32.24-1.64,49.15-4.51l-16.17,45.05,1.34.72c24.31-32.26,49.34-47.28,78.76-47.28,11.73,0,20.65,3.15,25.81,9.1,3.89,4.5,5.42,10.54,4.42,17.46-.5,3.48-1.57,8.8-3.78,14.41l-35.52,99.48c-.9,2.61-3.04,8.99-3.5,12.15-.34,2.35,0,4.14,1.04,5.32.89,1.03,2.25,1.55,4.04,1.55,7.57,0,18.7-11.62,37.23-38.85.27-.27.58-.74,1.08-1.47.57-.84,1.32-1.95,2.3-3.2l7.51,4.02c-25.64,39.74-45.62,55.96-68.85,55.96h0Z"/>
          <path class="cls-3" d="M1427.21,537.44c-13,0-22.5-5.45-26.07-14.94-2.02-5.15-2.74-9.78-1.65-23.67l.2-2.52-1.57,1.98c-22.27,28.17-40.06,39.15-63.44,39.15-13.67,0-25.18-4.93-33.27-14.26-10.65-12.28-14.76-31.42-11.55-53.88,3.88-27.19,18.73-55.04,40.75-76.4,21.97-21.31,48.34-33.54,72.35-33.54,19.75,0,29.67,8.4,34.26,28.98l.58,2.61,9.25-26.01h49.54l-50.76,142.15-.48,1.78c-.73,2.71-1.36,5.05-1.57,6.51-.24,1.65.06,3.01.85,3.91.49.57,1.44,1.25,3.14,1.25,9.19,0,22.13-13.67,39.54-41.78l8.21,4.05c-20.43,36.25-43.4,54.63-68.29,54.63h0ZM1405.62,368.96c-15.41,0-26.53,14.73-47.58,63.05-15.89,36.92-25.42,64.41-27.57,79.5-.73,5.12-.03,8.96,2.08,11.4,1.85,2.12,4.75,3.2,8.66,3.2,16.07,0,37.46-14.94,53.22-37.19,15.14-21.3,30.07-54.76,33.98-76.18,2.47-13.66-.44-27.46-7.6-36.03-4.23-5.07-9.48-7.74-15.19-7.74Z"/>
          <path class="cls-3" d="M525.04,534.87c-10.78,0-18.81-2.96-23.86-8.81-5.43-6.29-7.27-15.73-5.46-28.04,1.15-7.83,4.05-18.45,7.58-27.7l30.21-82.74c.29-.98.55-1.85.79-2.61.54-1.76.93-3.03,1.07-3.97.22-1.5-.15-2.86-1.07-3.93-1.17-1.35-3.13-2.1-5.53-2.1-11.16,0-26.86,10.57-43.07,28.98-19.01,21.97-26.57,35.79-40.46,73.98l-19.7,53.94h-51.14l52.66-144.25c.67-1.38.86-2.71,1.18-4.91.42-2.89.06-4.95-1.12-6.32-1.08-1.25-2.76-1.85-5.17-1.85-9.01,0-27.82,12.22-41.92,27.25-17.49,17.89-29.55,39.24-42.99,76.14l-19.7,53.94h-51.14l57.52-157.75h-30.76l3.61-9.18h33.34c14.47,0,32.22-1.6,50.11-4.51l-15.16,42.06,1.29.78c26.75-29.54,52.28-43.9,78.06-43.9,11.98,0,21.17,3.31,26.59,9.59,4.5,5.21,6.22,12.41,4.99,20.83-.42,2.85-1.57,7.89-3.18,12.73l1.3.76c28.26-31.18,50.61-43.9,77.18-43.9,12.5,0,21.91,3.25,27.23,9.41,4.22,4.88,5.77,11.38,4.61,19.29-.52,3.54-1.6,8.84-3.78,13.96l-36.07,98.63c-2.25,6.39-3.17,9.46-3.5,11.73-.32,2.22,0,3.89.94,4.99.84.97,2.13,1.46,3.84,1.46,9.02,0,19.44-10.58,42.71-43.45l7.57,4.76c-27.3,40.9-44.92,54.73-69.57,54.73h0Z"/>
          <path class="cls-3" d="M49.99,331.28l3.21-9.08h34.99L185.23,59.08h-39.39l3.21-9.08h128.07c36.91,0,53.76,4.81,72.1,20.59,23.73,20.5,35.2,55.33,29.94,90.9-6.85,46.27-31.88,93.53-65.32,123.35-38.79,34.73-72.52,46.44-133.69,46.44H49.99ZM147.82,322.2h40.91c25.33,0,43.98-2.4,58.64-14.33,12.87-10.47,22.52-27.4,35.63-62.49,21.04-55.89,37.37-110.54,41.62-139.22,2.36-15.94.24-27.42-6.49-35.1-7.06-8.06-19.27-11.98-37.31-11.98h-35.98l-97.02,263.12h.02Z"/>
          <path class="cls-3" d="M515.64,336.79c-13.17,0-22.8-5.38-26.41-14.76-2.05-5.08-2.77-9.66-1.66-23.39l.2-2.48-1.56,1.93c-22.56,27.85-40.57,38.7-64.24,38.7-14.07,0-25.86-5.02-34.07-14.52-10.5-12.14-14.52-30.9-11.32-52.82,3.92-26.87,18.96-54.4,41.25-75.51,22.24-21.07,48.95-33.16,73.26-33.16,20,0,30.06,8.3,34.69,28.64l.58,2.54,9.36-25.67h50.17l-51.38,140.5-.48,1.76c-.74,2.68-1.38,4.99-1.59,6.45-.24,1.62.05,2.95.84,3.85.5.58,1.45,1.26,3.19,1.26,9.3,0,22.4-13.51,40.02-41.31l8.31,4.01c-20.68,35.83-43.94,53.98-69.14,53.98h0ZM493.78,170.26c-15.6,0-26.85,14.56-48.16,62.32-16.08,36.49-25.74,63.67-27.92,78.6-.73,5.01-.05,8.78,2.04,11.2,1.86,2.15,4.83,3.24,8.83,3.24,16.27,0,37.92-14.77,53.87-36.76,15.34-21.06,30.45-54.14,34.4-75.31,2.47-13.31-.38-26.85-7.44-35.34-4.32-5.2-9.72-7.94-15.61-7.94h0Z"/>
          <path class="cls-3" d="M737.37,336.55c-10,0-17.9-3.02-22.85-8.74-5.33-6.16-7.27-15.44-5.6-26.82.95-6.48,3.41-15.86,6.77-25.71l31.06-85.58c.22-.71.44-1.36.63-1.96.57-1.75.98-3.01,1.08-3.7.25-1.72-.13-3.23-1.11-4.36-1.15-1.32-2.98-2.02-5.32-2.02-8.29,0-25.04,10.53-38.12,23.97-17.61,18.14-30.23,39.52-40.92,69.35l-22.86,62.63h-50.17l56.46-155.94h-30.19l3.54-9.05h32.72c14.41,0,32.25-1.62,49.15-4.45l-16.17,44.52,1.33.73c24.32-31.89,49.35-46.73,78.79-46.73,11.81,0,20.77,3.15,25.9,9.1,3.83,4.43,5.33,10.36,4.34,17.14-.5,3.44-1.57,8.7-3.78,14.23l-35.53,98.34c-.9,2.58-3.04,8.88-3.5,12.01-.34,2.31,0,4.08,1.02,5.25.89,1.04,2.26,1.56,4.05,1.56,7.57,0,18.7-11.48,37.24-38.4.27-.26.58-.73,1.08-1.45.57-.83,1.32-1.93,2.3-3.16l7.51,3.97c-25.64,39.27-45.63,55.31-68.87,55.31v-.02Z"/>
          <path class="cls-3" d="M889.74,336.79c-23.84,0-43.42-7.28-55.11-20.48-10-11.29-13.92-26.32-11.36-43.48,4.71-31.46,28.27-67.19,58.62-88.9,22.42-15.87,44.99-23.58,68.98-23.58,19.58,0,34.79,5,42.84,14.08,5.35,6.05,7.4,13.55,6.08,22.33-2.15,14.34-13.91,24.34-28.61,24.34-6.51,0-12.1-2.27-15.74-6.38-3.71-4.18-5.21-10.04-4.25-16.47.62-4.09,1.35-6.48,5.38-15.48.15-.37.29-.71.43-1.02.53-1.24.98-2.32,1.15-3.41.25-1.72-.22-3.31-1.37-4.61-1.98-2.24-5.78-3.47-10.71-3.47-17.3,0-29.17,13.21-45.36,50.47-14.99,34.43-25.73,65.34-28.03,80.7-1.28,8.56-.15,14.71,3.48,18.8,4.02,4.54,10.99,6.65,21.93,6.65,25.33,0,45.43-11.94,71.56-42.52l7.15,5.05c-26.02,33.63-51.29,47.38-87.06,47.38h0Z"/>
          <path class="cls-3" d="M1065.34,336.79c-25.47,0-46.02-7.54-57.84-21.22-9.37-10.84-13.06-25.17-10.68-41.46,4.02-27.52,20.74-56.06,45.85-78.3,25.14-22.27,55.14-35.03,82.29-35.03,18.18,0,32.98,5.52,41.65,15.56,6.81,7.88,9.52,18.17,7.83,29.75-3.54,24.23-22.83,41.01-55.81,48.52-13.34,3.05-27.09,4.24-58.88,5.07l-.51.02-.19.47c-7.56,18.87-13.14,36.63-14.57,46.36-.81,5.54.27,10.08,3.21,13.47,3.95,4.58,11.03,6.89,21.04,6.89,27.72,0,52.16-13.1,81.61-43.78l6.15,5.37c-29.89,34.31-56.34,48.32-91.15,48.32h0ZM1120.6,170.68c-15.82,0-29.63,12.32-39.95,35.63-4.46,9.78-5.1,11.37-17,42.41l-.42,1.08,2.59-.1c21.44-.8,22.73-.85,31.63-3.37,20.19-5.09,35.24-25.3,39.25-52.75,1.22-8.39.22-14.32-3.08-18.14-2.75-3.18-7.13-4.78-13.03-4.78v.02Z"/>
        </g>
      </g>
      <g>
        <path class="cls-2" d="M1277.26,334.87c-.17.43-.34.85-.52,1.28,2.48,1.78,4.86,3.68,7.17,5.67-2.11-2.43-4.33-4.75-6.65-6.95Z"/>
        <path class="cls-2" d="M1520.98,461.41c1.3.64,2.55,1.37,3.75,2.16-2.44-3.71-5.57-6.95-9.25-9.5l-1.41,3.94,6.9,3.4Z"/>
        <path class="cls-2" d="M1261.42,269.89c-9.83-13.03-25.24-20.48-42.57-20.48-3.22,0-6.43.26-9.61.75-3.74,6.65-8.4,12.82-13.94,18.39,10.34-5.82,21.89-9.15,33.55-9.15,12.24,0,23.53,3.71,32.57,10.48Z"/>
        <path class="cls-2" d="M1545.82,400.14c-3.12-4.74-5.02-10.1-5.59-15.62-.21.73-.44,1.46-.7,2.18l-2.05,5.75c2.37,3.03,5.19,5.62,8.34,7.68Z"/>
        <path class="cls-2" d="M1436.46,331.57c-9.62-4.79-20.83-7.21-33.5-7.21-33.03,0-68.28,15.83-96.72,43.42-.21.21-.42.43-.63.63,2.47,4.38,4.61,8.92,6.42,13.6,1.38-1.43,2.78-2.84,4.21-4.23,28.44-27.59,63.69-43.42,96.72-43.42,12.67,0,23.89,2.42,33.5,7.21,3.36-1.07,6.92-1.64,10.58-1.64h49.54c6.93,0,13.58,2.06,19.22,5.76-.2-.31-.39-.62-.61-.92-6.56-9.3-17.23-14.84-28.61-14.84h-49.54c-3.66,0-7.22.57-10.58,1.64Z"/>
        <path class="cls-2" d="M1640.67,726.89c-.55-.84-1.08-1.68-1.55-2.56-.19.35-.4.68-.6,1.02.7.54,1.42,1.05,2.15,1.53Z"/>
        <path class="cls-2" d="M1912.51,423.4c.43-5.07,1.37-10.09,2.79-15.01-3.78,2.97-8.15,5.16-12.87,6.39-1.28,21.18,5.02,40.35,17.82,54.08,2.12,2.27,4.41,4.36,6.83,6.28-10.81-13.58-15.98-31.57-14.6-51.25.01-.16.02-.33.04-.49Z"/>
        <path class="cls-2" d="M1931.14,377.97c7.58-9.67,17.26-18.41,28.75-25.75,24.35-15.56,54.12-23.65,83.86-22.84,14.5.04,36.44,1.62,59.67,8.83,19.94,6.19,36.73,15.25,50.08,26.96-.74-.85-1.49-1.69-2.26-2.51-14.36-15.4-33.81-26.99-57.82-34.45-23.23-7.21-45.18-8.8-59.67-8.83-29.74-.81-59.51,7.28-83.86,22.84-7.76,4.96-14.67,10.56-20.69,16.65,2.4,6.04,3.09,12.65,1.94,19.1Z"/>
        <path class="cls-2" d="M1535.19,354.77c3.5,4.97,5.58,10.69,6.19,16.57.14-.51.29-1.01.46-1.52l3.02-9.06c4.76-14.29,18.14-23.93,33.2-23.93h158.37c7.66,0,15.01,2.51,20.99,6.99,5.92-4.43,13.23-6.99,20.99-6.99h118.3c6.93,0,13.6,2.06,19.23,5.77-.27-.41-.55-.83-.84-1.23-6.58-9.13-17.14-14.54-28.4-14.54h-118.3c-7.76,0-15.07,2.56-20.99,6.99-5.98-4.48-13.33-6.99-20.99-6.99h-158.37c-15.06,0-28.44,9.64-33.2,23.93l-.82,2.47c.4.5.78,1.01,1.16,1.54Z"/>
        <path class="cls-2" d="M425.27,161.15c23.92-16.31,50.52-25.36,75.8-25.36,12.81,0,24.13,2.42,33.82,7.22,3.43-1.11,7.07-1.71,10.81-1.71h2.59c.04-.35.09-.7.14-1.05.02-.17.04-.35.07-.52.08-.5.18-.99.28-1.48.05-.27.11-.53.17-.8.11-.47.22-.95.35-1.42.08-.28.16-.56.24-.84.14-.46.28-.93.43-1.39.01-.04.02-.08.04-.12l.52-1.5c2.45-7.05,6.99-12.94,12.8-17.07l4.42-12.17c-2.82-7.55-2.98-15.94-.28-23.73l.52-1.51c4.89-14.08,18.16-23.53,33.07-23.53h396.27c12.17,0,22.46,2.79,30.72,8.29,6.21-5.25,14.17-8.29,22.6-8.29h403.74c6.93,0,13.59,2.07,19.22,5.77-.23-.35-.45-.7-.7-1.05-6.57-9.23-17.19-14.71-28.52-14.71h-403.74c-8.43,0-16.39,3.03-22.6,8.28-8.27-5.5-18.55-8.29-30.72-8.29h-396.27c-14.91,0-28.18,9.44-33.07,23.53l-.52,1.51c-2.7,7.79-2.54,16.18.28,23.73l-4.42,12.17c-5.81,4.12-10.35,10.01-12.8,17.07l-.52,1.5s-.02.08-.04.12c-.16.46-.3.92-.43,1.39-.08.28-.17.56-.24.84-.13.47-.24.94-.35,1.42-.06.27-.11.53-.17.8-.1.49-.2.99-.28,1.48-.03.17-.04.35-.07.52-.05.35-.1.7-.14,1.05h-2.59c-3.74,0-7.38.59-10.81,1.71-9.69-4.8-21.01-7.22-33.82-7.22-21.86,0-44.72,6.78-65.98,19.17.35,5.35.42,10.75.18,16.19Z"/>
        <path class="cls-2" d="M1942.07,507.69c2.37-5.39,5.99-9.98,10.44-13.47-4.67-1.94-9.04-4.39-13.07-7.29-3.06,3.04-5.58,6.66-7.38,10.76l-4.1,9.34c-4.75,10.82-3.71,23.31,2.75,33.2,6.46,9.89,17.54,25.62,17.54,25.62,0,0-37.9-3.04-58.05-3.04s-37.94,7.39-52.3,20.8c-10.46,9.77-17.94,22.13-21.86,35.82l7.33,23.5c2.1-19.01,10.72-36.42,24.53-49.32,14.35-13.41,32.93-20.8,52.3-20.8s58.05,3.04,58.05,3.04c0,0-11.07-15.73-17.54-25.62-6.46-9.89-7.5-22.38-2.75-33.2l4.1-9.34Z"/>
        <path class="cls-2" d="M243.32,529.87l42.11-115.47c-3.97-2.3-7.49-5.38-10.32-9.11l-41.78,114.59c-3.91,10.73-2.34,22.7,4.21,32.06,2.58,3.68,5.8,6.77,9.45,9.17-6.08-9.23-7.46-20.81-3.66-31.22Z"/>
        <path class="cls-2" d="M1456.37,696.57l3.02-9.06c4.42-13.25,16.29-22.6,30.19-23.8.84-.16,9.1-2.06,28.84-17.86,14.08-11.26,27.68-24.54,36.67-33.32,1.93-1.89,3.66-3.57,5.15-5,.04-.04.08-.08.12-.12l59.29-56.45-43.03-135.06h-1.61c-1.8,0-3.59-.15-5.34-.43l39.98,125.49-59.29,56.45s-.08.08-.12.12c-1.49,1.43-3.22,3.12-5.15,5-9,8.79-22.6,22.06-36.67,33.32-19.74,15.8-28.01,17.7-28.84,17.86-13.91,1.2-25.78,10.55-30.19,23.8l-3.02,9.06c-3.56,10.67-1.77,22.41,4.81,31.54,2.53,3.51,5.65,6.46,9.17,8.78-5.89-8.94-7.38-20.11-3.98-30.31Z"/>
        <path class="cls-2" d="M606.3,554.89c-1.39-1.68-2.73-3.4-3.98-5.19-.27.28-.55.55-.83.82,1.55,1.52,3.14,2.99,4.81,4.36Z"/>
        <path class="cls-2" d="M273.76,403.36c-6.26-9.5-7.53-21.45-3.36-32.06l2.3-5.86c-4.68,1.5-9.48,2.82-14.41,3.99-1.14,8.47.84,17.17,5.76,24.39,2.62,3.84,5.93,7.07,9.71,9.55Z"/>
        <path class="cls-2" d="M27,329.6l3.21-9.08c4.95-13.98,18.17-23.32,32.99-23.32h10.6l71.78-194.65c-4.16-1.28-8.04-3.34-11.46-6.05l-70.32,190.7h-10.6c-14.83,0-28.05,9.34-32.99,23.32l-3.21,9.08c-3.79,10.71-2.15,22.6,4.41,31.88,2.56,3.62,5.75,6.66,9.36,9.03-6.01-9.13-7.44-20.57-3.77-30.91Z"/>
        <path class="cls-2" d="M126.59,88.28c-5.99-9.12-7.41-20.54-3.75-30.88l3.21-9.08c4.95-13.98,18.17-23.32,32.99-23.32h128.07c22.84,0,38.58,1.71,52.62,5.72,15.5,4.43,28.95,11.84,42.31,23.34.31.27.61.55.92.82-3.4-3.85-7.04-7.47-10.92-10.82-13.36-11.49-26.8-18.91-42.31-23.34-14.05-4.01-29.78-5.72-52.62-5.72h-128.07c-14.83,0-28.05,9.34-32.99,23.32l-3.21,9.08c-3.79,10.71-2.15,22.6,4.41,31.88,2.55,3.61,5.74,6.63,9.33,9Z"/>
      </g>
      <g>
        <path class="cls-4" d="M1467.46,80.68l-.52,1.51c-3.04,8.74-9.3,15.69-17.18,19.71.38.48.75.97,1.1,1.47,6.57,9.23,8.26,21.07,4.54,31.77l-.52,1.51c-4.89,14.08-18.16,23.52-33.06,23.52h-228.08c5.57,12.38,7.46,26.42,5.33,40.99-2.65,18.15-10.84,34.41-23.77,47.41,7.48-4.21,15.6-7.11,23.94-8.39,4.99-8.89,8.32-18.64,9.84-29.02,2.13-14.57.23-28.61-5.33-40.99h228.08c14.91,0,28.18-9.44,33.06-23.52l.52-1.51c3.71-10.7,2.02-22.54-4.54-31.77-.36-.5-.72-.99-1.1-1.47,7.88-4.02,14.15-10.97,17.18-19.71l.52-1.51c3.72-10.7,2.02-22.54-4.54-31.77-2.55-3.59-5.72-6.6-9.3-8.95,5.97,9.07,7.42,20.42,3.84,30.72Z"/>
        <path class="cls-4" d="M2151.24,362.66c-2.43-2.61-5.02-5.1-7.74-7.49,17.64,20.22,25.9,45.82,23.9,74.28-3.03,43.06-24.56,76.96-59.47,97.07,9.9,17.67,14.5,38.89,12.86,62.26-1.68,23.9-8.88,45.68-21.39,64.73-11.25,17.14-26.58,31.72-45.57,43.33-31.35,19.17-72.38,29.73-115.52,29.73s-75.85-9.16-99.7-26.66c-5.1,13.62-18.11,22.72-32.75,22.72h-155.98c-6.92,0-13.58-2.05-19.22-5.76.27.41.53.82.82,1.22,6.58,9.13,17.14,14.54,28.39,14.54h155.98c14.63,0,27.64-9.11,32.75-22.72,23.85,17.49,57.88,26.66,99.7,26.66s84.16-10.56,115.52-29.73c18.99-11.61,34.32-26.19,45.57-43.33,12.51-19.05,19.71-40.83,21.39-64.73,1.64-23.38-2.96-44.59-12.86-62.26,34.91-20.11,56.44-54.02,59.47-97.07,2.08-29.65-6.96-56.2-26.16-76.79Z"/>
        <path class="cls-4" d="M1521.38,351.34c.14-.51.29-1.01.46-1.52l2.2-6.59c-2.35-2.97-5.14-5.5-8.24-7.54,3.13,4.75,5.01,10.12,5.58,15.65Z"/>
        <path class="cls-4" d="M1911.14,357.97c2.46-3.14,5.17-6.17,8.06-9.1-1.05-2.63-2.42-5.15-4.11-7.5-2.53-3.51-5.64-6.46-9.16-8.77,4.94,7.51,6.77,16.6,5.21,25.37Z"/>
        <path class="cls-4" d="M1256.74,316.15c3.7,2.66,7.21,5.58,10.52,8.72.33-.81.64-1.62.94-2.44,6.46-18.2,4.34-36.88-5.82-51.26-3.09-4.37-6.78-8.15-10.96-11.28.32.42.65.84.96,1.28,10.16,14.38,12.27,33.06,5.82,51.26-.45,1.26-.94,2.49-1.46,3.72Z"/>
        <path class="cls-4" d="M1806.04,609.42l-34.77-111.4,57.01-54.66c33.54-32.21,41.31-37.47,55.4-37.47,3,0,5.94-.39,8.75-1.12.02-.3.02-.59.04-.89.01-.16.02-.33.04-.49.43-5.07,1.37-10.09,2.79-15.01-6.03,4.74-13.57,7.51-21.62,7.51-14.09,0-21.85,5.25-55.4,37.47l-57.01,54.66,42.11,134.9c.51-4.61,1.41-9.12,2.67-13.5Z"/>
        <path class="cls-4" d="M1526.64,381.36c-3.62-5.03-5.78-10.84-6.41-16.84-.21.73-.44,1.46-.7,2.18l-25.46,71.3,6.9,3.4c1.58.78,3.08,1.67,4.51,2.66l22-61.61c-.28-.36-.57-.72-.84-1.1Z"/>
        <path class="cls-4" d="M1273.91,331.82c3.45,3.98,6.63,8.24,9.46,12.79,3.44,5.53,6.32,11.35,8.66,17.39,1.17-1.22,2.37-2.41,3.58-3.6-.72-1.28-1.46-2.55-2.24-3.8-5.38-8.65-11.95-16.29-19.46-22.79Z"/>
        <path class="cls-4" d="M1250.67,512.23c-6.77,7.11-14.12,13.78-22.02,19.92-25.26,19.62-55.37,33.68-87.08,40.66-.13.03-.26.06-.39.08-6.66,1.38-13.74,2.08-21.18,2.08-9.43,0-19.45-1.11-29.99-3.32-18.39-3.79-34.63-11.69-47.71-22.98,14.37,16.66,34.29,28.15,57.71,32.98,10.54,2.21,20.56,3.32,29.99,3.32,7.45,0,14.52-.69,21.18-2.08.13-.03.26-.06.39-.08,31.7-6.97,61.81-21.03,87.08-40.66,6.63-5.15,12.84-10.69,18.67-16.53-2.57-4.2-4.8-8.67-6.65-13.39Z"/>
        <path class="cls-4" d="M1026.07,530.66c-17.26,16.88-37.97,28.91-63.86,29.2-.31,0-.63.01-.94.01-15.89,0-30.13-4.64-41.15-13.22.65.84,1.31,1.65,1.96,2.4,11.63,13.42,29.1,20.81,49.19,20.81.31,0,.63,0,.94-.01,25.36-.28,45.74-11.83,62.79-28.16-3.23-3.44-6.21-7.12-8.92-11.04Z"/>
        <path class="cls-4" d="M1621.49,708.1c-.88-1.22-1.67-2.48-2.37-3.77-6.04,11.14-17.77,18.31-30.77,18.31h-118.78c-6.93,0-13.59-2.06-19.22-5.76.27.41.54.82.83,1.22,6.58,9.13,17.14,14.54,28.4,14.54h118.78c12.59,0,23.97-6.74,30.17-17.29-2.65-2.04-5.02-4.47-7.03-7.25Z"/>
        <path class="cls-4" d="M405.27,141.15c3.23-2.2,6.51-4.26,9.82-6.19-2.31-35.39-17.28-68.14-42.12-90.08,22.16,25.07,33.88,59.96,32.3,96.27Z"/>
        <path class="cls-4" d="M1525.99,499.98c4.72-8.38,5.79-18.33,2.95-27.52-2.41-7.8-7.46-14.46-14.21-18.89,1.8,2.73,3.23,5.71,4.21,8.89,2.84,9.19,1.77,19.14-2.95,27.52-12.38,21.96-26.2,39.14-41.1,51.05-17.47,13.98-36.56,21.17-56.74,21.39-.31,0-.62.01-.94.01-16.43,0-31.07-5.12-42.07-14.16-13.96,8.57-30.45,14.16-50.47,14.16s-36.92-6.16-50.74-17.57c.34.41.68.84,1.03,1.24,14.72,16.98,35.93,26.33,59.71,26.33,20.02,0,36.5-5.6,50.47-14.16,11,9.05,25.64,14.16,42.07,14.16.31,0,.63,0,.94-.01,20.19-.22,39.27-7.41,56.74-21.39,14.89-11.92,28.72-29.09,41.1-51.05Z"/>
        <path class="cls-4" d="M901.49,521.21l-4.52,12.52c-5,13.88-18.17,23.13-32.92,23.13h-50.15c-9.27,0-18.07-3.67-24.56-10.06-15.56,10.37-32.26,15.64-49.8,15.64-16.43,0-31.07-5.12-42.07-14.16-13.96,8.57-30.45,14.16-50.47,14.16s-36.9-6.16-50.71-17.55c.34.4.66.82,1,1.22,14.72,16.98,35.93,26.33,59.71,26.33,20.02,0,36.5-5.6,50.47-14.16,11,9.05,25.64,14.16,42.07,14.16,17.53,0,34.24-5.27,49.8-15.64,6.49,6.39,15.29,10.06,24.56,10.06h50.15c14.75,0,27.92-9.25,32.92-23.13l2.75-7.61c-3.01-3.97-5.96-8.89-8.23-14.91Z"/>
        <path class="cls-4" d="M263.76,393.36c.1.15.19.3.29.45.34.5.7.99,1.06,1.46l.32-.89c-.57-.33-1.12-.67-1.67-1.03Z"/>
        <path class="cls-4" d="M453.66,519.5l-5.25,14.37c-5.04,13.81-18.18,22.99-32.88,22.99h-51.14c-11.33,0-21.96-5.49-28.52-14.72-6.46,9.08-17.01,14.72-28.53,14.72h-51.14c-6.93,0-13.59-2.06-19.22-5.77.18.28.35.56.55.83,6.55,9.36,17.25,14.93,28.68,14.93h51.14c11.52,0,22.07-5.64,28.53-14.72,6.56,9.23,17.19,14.72,28.52,14.72h51.14c14.7,0,27.83-9.18,32.88-22.99l3.22-8.82c-2.98-4.13-5.84-9.27-7.97-15.55Z"/>
        <path class="cls-4" d="M250.4,351.3l2.3-5.86c-23.66,7.57-50.18,10.84-82.54,10.84H39.99c-6.93,0-13.59-2.06-19.22-5.76.21.32.42.65.64.97,6.56,9.28,17.22,14.8,28.58,14.8h130.16c25.96,0,48.15-2.11,68.13-6.85.37-2.75,1.07-5.48,2.11-8.13Z"/>
        <path class="cls-4" d="M587.3,536.11c-1.77-2.04-3.43-4.18-4.98-6.41-18.97,19.21-39.76,30.17-67.26,30.17-.31,0-.62,0-.93-.01-19.1-.19-32.33-6.25-41.26-13.19.61.79,1.22,1.55,1.83,2.25,8.15,9.44,23.32,20.67,49.43,20.93.31,0,.62.01.93.01,27.11,0,47.69-10.66,66.44-29.35-1.44-1.42-2.85-2.87-4.19-4.42Z"/>
      </g>
    </g>
  </g>
</svg>