<?xml version="1.0" encoding="UTF-8"?>
<svg id="Layer_2" data-name="Layer 2" xmlns="http://www.w3.org/2000/svg" viewBox="0 0 2194.62 794.58">
  <defs>
    <style>
      .cls-1 {
        fill: #fff;
      }

      .cls-2 {
        fill: none;
        stroke: #e81315;
        stroke-miterlimit: 10;
        stroke-width: 10px;
      }

      .cls-3 {
        fill: #e81315;
      }
    </style>
  </defs>
  <g id="Layer_1-2" data-name="Layer 1">
    <g>
      <rect class="cls-1" x="1550.9" y="523" width="47.63" height="59.85"/>
      <g>
        <path class="cls-3" d="M1925.58,777.58c-25.1,0-48.65-4.33-68.81-12.58-8.72,5.57-18.96,8.64-29.41,8.64h-155.98c-11.09,0-21.8-3.41-30.76-9.52-8.95,6.12-19.65,9.52-30.78,9.52h-118.78c-17.47,0-34-8.46-44.21-22.64s-13.01-32.53-7.49-49.11l3.02-9.06c6.62-19.84,23.97-34.08,44.58-36.79,2.07-.9,8.78-4.27,21.26-14.31,13.17-10.59,26.16-23.27,34.75-31.67,1.97-1.93,3.74-3.65,5.26-5.11l11.88,12.16-11.8-12.24,50.56-48.14-35.51-111.45c-2.59-.64-5.12-1.47-7.57-2.47l-6.33,17.73c9.22,6.86,16.16,16.57,19.59,27.66,4.4,14.24,2.73,29.86-4.59,42.85-13.8,24.49-28.81,43.03-45.9,56.71-20.91,16.73-43.97,25.36-68.55,25.66-.44.01-.87.02-1.31.02-15.81,0-30.54-3.73-43.2-10.88-15.32,7.23-31.87,10.88-49.33,10.88-29.52,0-55.96-11.74-74.45-33.05-1.54-1.77-3.01-3.61-4.43-5.5-1.71,1.42-3.45,2.81-5.2,4.17-27.54,21.39-60.34,36.71-94.85,44.3l-.63.13c-7.92,1.65-16.38,2.48-25.14,2.48-10.76,0-22.2-1.26-34.02-3.74-24.47-5.05-45.68-16.2-62.19-32.56-18.96,13.82-39.51,20.94-61.29,21.19-.41,0-.82.01-1.23.01-22.25,0-42.19-7.26-57.12-20.63-10.13,10.98-24.59,17.62-40.1,17.62h-50.15c-8.98,0-17.74-2.21-25.56-6.37-15.44,7.93-31.81,11.94-48.79,11.94-15.81,0-30.54-3.73-43.2-10.88-15.32,7.23-31.87,10.88-49.33,10.88-25.45,0-48.62-8.73-66.36-24.79-19.75,14.95-41.23,22.23-65.6,22.23-.43,0-.85,0-1.28-.02-27.68-.31-46.02-10.63-57.58-21.24-10.16,11.35-24.87,18.24-40.65,18.24h-51.14c-10.2,0-20.04-2.84-28.53-8.05-8.48,5.21-18.33,8.05-28.53,8.05h-51.14c-17.77,0-34.46-8.69-44.65-23.25-10.19-14.56-12.64-33.22-6.55-49.92l37.43-102.65c-1.62-1.8-3.12-3.72-4.5-5.74-4.87-7.14-7.89-15.21-8.99-23.52-17.43,3.05-36.62,4.5-58.78,4.5H71.49c-17.67,0-34.31-8.61-44.51-23.04-10.2-14.43-12.77-32.99-6.87-49.64l3.22-9.08c7.35-20.76,26.54-35.02,48.35-36.23l61.34-166.35c-3.85-3.12-7.28-6.78-10.19-10.89-10.2-14.43-12.77-32.99-6.87-49.64l3.21-9.08c7.69-21.72,28.33-36.32,51.38-36.32h128.07c24.75,0,42.09,1.94,57.98,6.47,18.31,5.23,34.1,13.9,49.67,27.31,25.89,22.37,42.75,54.15,48.21,89.78,19.13-8.4,38.84-12.77,58.08-12.77,11.78,0,22.75,1.75,32.73,5.2,3.05-6.88,7.48-13.01,13.03-18.08l.44-1.2c-2.09-9.73-1.5-19.95,1.78-29.39l.52-1.51c7.6-21.91,28.29-36.63,51.49-36.63h396.27c10.92,0,20.9,1.8,29.78,5.38,7.33-3.51,15.4-5.38,23.54-5.38h403.74c17.6,0,34.2,8.57,44.41,22.91,10.2,14.34,12.85,32.83,7.08,49.46l-.52,1.51c-2.41,6.94-6.2,13.29-11.07,18.68,3.47,11.06,3.4,23.13-.46,34.26l-.52,1.51c-7.6,21.91-28.29,36.63-51.49,36.63h-202.93c.84,7.97.67,16.14-.52,24.31-.81,5.55-2.03,10.94-3.66,16.16,21.92,1.61,41.23,12.27,53.6,29.8,12.05,17.07,15.9,38.32,11.04,59.52,6.88,6.33,12.99,13.45,18.24,21.27,29.12-22.96,63.02-35.84,95.36-35.84,12.85,0,24.73,2.11,35.4,6.27,2.87-.46,5.77-.69,8.68-.69h49.54c10.07,0,19.92,2.87,28.4,8.04,9.33-7.15,20.86-11.14,33.08-11.14h158.37c7.27,0,14.38,1.43,20.99,4.2,6.61-2.76,13.72-4.2,20.99-4.2h118.3c3.66,0,7.27.36,10.8,1.07,3.9-2.94,8.2-5.36,12.75-7.16,6.41-2.54,13.16-3.83,20.06-3.83,8.84,0,17.64,2.18,25.45,6.31,13.9,7.34,34.14,10.91,61.86,10.91,26.16,0,52.19-4.09,77.35-12.15,5.39-1.73,10.98-2.6,16.63-2.6,15.79,0,30.78,6.83,41.14,18.75,14.31,16.47,17.43,39.81,7.94,59.45-18.62,38.55-45.81,69.66-79.48,91.21,2.44,2.23,4.78,4.56,7.03,6.97,25.79,27.67,37.87,64.39,34.93,106.2-3.65,51.89-29.29,98.1-72.2,130.11-37.62,28.06-86.23,43.52-136.87,43.52Z"/>
        <path class="cls-1" d="M298.62,34c23.08,0,39.03,1.74,53.31,5.82,15.86,4.53,29.61,12.11,43.25,23.85,28.63,24.74,44.7,63.39,44.22,104.25,23.27-14.91,48.81-23.12,73.17-23.12,12.81,0,24.19,2.4,33.98,7.05,3.4-1.01,6.98-1.54,10.66-1.54h.4c.06-.33.14-.67.21-1,.06-.32.13-.63.2-.94.11-.48.23-.97.36-1.45.09-.33.19-.66.28-.99.14-.47.28-.94.44-1.41.02-.05.03-.11.05-.16l.52-1.5c2.53-7.29,7.16-13.42,13.07-17.8l3.85-10.6c-2.72-7.86-2.78-16.5.02-24.55l.52-1.51c5.24-15.09,19.46-25.2,35.43-25.2h396.27c11.95,0,22.18,2.59,30.57,7.72,6.42-4.91,14.37-7.72,22.75-7.72h403.74c12.14,0,23.52,5.88,30.56,15.77,7.04,9.89,8.85,22.57,4.87,34.03l-.52,1.51c-2.92,8.41-8.62,15.27-15.86,19.7,6.58,9.77,8.2,22.08,4.33,33.25l-.52,1.51c-5.24,15.09-19.45,25.21-35.43,25.21h-224.32c4.61,11.92,6.05,25.16,4.05,38.85-2.15,14.72-7.84,28.24-16.67,39.86,7.71-2.88,15.81-4.46,23.97-4.46,18.72,0,35.34,8.32,45.58,22.82,10.63,15.05,12.86,34.57,6.13,53.54-.24.67-.5,1.34-.76,2.01,10.12,7.56,18.85,17,25.7,28.02,2.84,4.57,5.31,9.33,7.42,14.26.53-.52,1.05-1.05,1.59-1.57,28.9-28.04,64.79-44.12,98.46-44.12,12.7,0,23.99,2.4,33.69,7.04,3.32-.96,6.82-1.47,10.4-1.47h49.54c11.64,0,22.57,5.41,29.65,14.57,6.74-10.82,18.68-17.67,31.83-17.67h158.37c7.58,0,14.87,2.29,20.99,6.42,6.06-4.09,13.32-6.42,20.99-6.42h118.3c5.29,0,10.43,1.11,15.13,3.19,3.92-4.58,8.94-8.2,14.68-10.47,4.45-1.76,9.13-2.63,13.8-2.63,6.03,0,12.05,1.46,17.51,4.34,16.41,8.66,39.24,12.87,69.8,12.87,27.93,0,55.7-4.36,82.54-12.96,3.76-1.21,7.62-1.79,11.44-1.79,10.68,0,21.06,4.57,28.31,12.9,9.84,11.32,11.99,27.41,5.46,40.91-21.46,44.43-54.6,77.4-95.59,96.53,9.71,5.62,18.45,12.53,26.01,20.64,22.49,24.13,33.01,56.43,30.41,93.41-3.3,46.88-26.52,88.67-65.41,117.67-34.71,25.89-79.7,40.14-126.7,40.14-27.15,0-51.47-5.34-71.27-15.37-6.91,7.14-16.55,11.43-26.95,11.43h-155.98c-12.06,0-23.38-5.8-30.42-15.58-.12-.16-.23-.32-.34-.48-6.89,9.88-18.29,16.06-30.77,16.06h-118.78c-12.06,0-23.38-5.8-30.42-15.58-7.05-9.78-8.96-22.35-5.15-33.79l3.02-9.06c4.72-14.14,17.36-24.14,32.19-25.48,1.09-.25,9.29-2.56,28.18-17.75,13.8-11.1,27.15-24.13,35.98-32.75,1.94-1.89,3.67-3.58,5.16-5.01.04-.04.09-.09.13-.13l58.15-55.37-42-131.83c-11.29-.07-21.91-5.21-28.95-13.95l-18.68,52.3,4.9,2.42c9.24,4.56,16.2,12.72,19.25,22.56,3.04,9.84,1.9,20.51-3.16,29.49-12.71,22.55-26.36,39.49-41.71,51.78-17.91,14.33-37.49,21.7-58.23,21.93-.34,0-.68.01-1.01.01-16.34,0-31-4.9-42.26-13.61-13.97,8.26-30.41,13.61-50.28,13.61-24.52,0-46.4-9.66-61.6-27.19-5.4-6.23-9.82-13.3-13.25-21.04-6.11,6.17-12.67,11.99-19.65,17.42-25.55,19.85-56.01,34.07-88.07,41.12-.14.03-.28.06-.43.09-6.83,1.42-14.07,2.13-21.69,2.13-9.61,0-19.81-1.13-30.52-3.38-26.61-5.49-48.82-19.39-63.75-39.62-17.23,16.21-37.85,27.61-63.51,27.89-.32,0-.63.01-.95.01-20.82,0-38.97-7.7-51.08-21.68-3.35-3.88-6.18-8.16-8.46-12.79l-2.41,6.68c-5.36,14.87-19.47,24.78-35.28,24.78h-50.15c-9.24,0-18.04-3.41-24.82-9.4-15.5,9.93-32.11,14.97-49.53,14.97-16.34,0-31-4.9-42.26-13.61-13.97,8.26-30.41,13.61-50.28,13.61-24.52,0-46.4-9.66-61.6-27.19-1.18-1.36-2.31-2.77-3.4-4.21-3.34,3.25-6.65,6.16-9.98,8.78-17.16,13.49-35.79,20.05-56.97,20.05-.33,0-.65,0-.98-.01-27.03-.27-42.79-11.97-51.27-21.8-3.13-3.63-6.36-8.27-9.03-14.06l-3,8.22c-5.4,14.79-19.47,24.63-35.22,24.63h-51.14c-11.03,0-21.44-4.85-28.53-13.16-6.99,8.19-17.33,13.16-28.53,13.16h-51.14c-12.24,0-23.71-5.97-30.72-16-7.02-10.03-8.7-22.85-4.51-34.35l41.41-113.56c-4.05-2.66-7.6-6.11-10.4-10.23-6.98-10.25-8.45-23.29-3.91-34.83l.4-1.03c-22.62,6.56-47.92,9.41-78.32,9.41H71.49c-12.18,0-23.59-5.91-30.62-15.86-7.03-9.94-8.79-22.68-4.73-34.16l3.21-9.08c5.3-14.98,19.46-24.99,35.35-24.99h8.85l70.29-190.62c-6.81-2.63-12.81-7.22-17.14-13.35-7.03-9.94-8.79-22.68-4.73-34.16l3.21-9.08c5.3-14.98,19.46-24.99,35.35-24.99h128.07M298.62,0h-128.07c-30.23,0-57.32,19.15-67.4,47.65l-3.21,9.08c-7.73,21.85-4.36,46.2,9.01,65.13,1.35,1.92,2.79,3.76,4.32,5.52l-54.03,146.53c-23.7,5.27-43.6,22.42-51.93,45.94l-3.22,9.08c-7.74,21.85-4.37,46.2,9.01,65.13,13.38,18.93,35.21,30.23,58.39,30.23h130.16c16.85,0,32.12-.81,46.27-2.5,1.8,4.57,4.08,8.99,6.85,13.18l-34.24,93.91c-7.99,21.91-4.77,46.39,8.59,65.49,13.37,19.1,35.27,30.51,58.58,30.51h51.14c9.94,0,19.63-2.06,28.53-5.93,8.89,3.87,18.58,5.93,28.53,5.93h51.14c14.73,0,28.9-4.46,40.98-12.91.15-.1.3-.21.45-.32,2.99,1.94,6.09,3.71,9.32,5.33,14.05,7.02,29.93,10.69,47.19,10.9.53.01,1.05.02,1.58.02,23.35,0,45.08-6.09,64.79-18.13,19.11,13.47,42.22,20.69,67.17,20.69,17.09,0,33.42-3.06,48.77-9.12,13.3,6.01,28.11,9.12,43.76,9.12,16.97,0,33.38-3.43,48.99-10.23,8.04,3.05,16.62,4.65,25.36,4.65h50.15c14.89,0,29.05-4.67,40.77-12.82,16.11,10.32,35.45,15.82,56.45,15.82.52,0,1.05,0,1.57-.02,20.98-.27,40.87-5.92,59.43-16.85,4.12,3.29,8.44,6.35,12.97,9.17,14.23,8.86,30.12,15.15,47.23,18.69h0c12.96,2.73,25.58,4.11,37.52,4.11,9.9,0,19.5-.95,28.55-2.83h0c.29-.06.59-.12.88-.19,33.88-7.45,66.23-21.87,94.12-41.88,21.27,20.94,49.75,32.36,81.14,32.36,17.09,0,33.42-3.06,48.77-9.12,13.3,6.01,28.11,9.12,43.76,9.12.55,0,1.1,0,1.65-.02,26.04-.34,50.48-8.67,72.78-24.77-7.49,7.19-16.55,15.6-25.56,22.85-8.29,6.66-13.43,9.83-15.81,11.15-25.72,4.49-47.14,22.74-55.5,47.81l-3.02,9.06c-7.25,21.75-3.58,45.83,9.82,64.42,13.4,18.6,35.09,29.7,58.01,29.7h118.78c10.8,0,21.3-2.45,30.79-6.97,9.49,4.52,19.98,6.97,30.75,6.97h155.98c10.67,0,21.18-2.44,30.71-6.97,20.37,7.17,43.34,10.9,67.51,10.9,54.28,0,106.49-16.65,147.03-46.89,46.94-35.01,75-85.64,79-142.54,1.6-22.79-.88-44.47-7.38-64.43-5.68-17.45-14.33-33.33-25.76-47.32,28.69-22.25,52.15-51.5,69.01-86.42,12.45-25.78,8.36-56.39-10.42-78-13.59-15.63-33.26-24.6-53.97-24.6-7.41,0-14.75,1.15-21.82,3.41-23.48,7.53-47.76,11.34-72.16,11.34s-42.69-3.01-53.93-8.94c-10.25-5.41-21.79-8.27-33.38-8.27-9.05,0-17.9,1.69-26.32,5.02-3.65,1.44-7.17,3.19-10.52,5.21-2.24-.21-4.5-.32-6.77-.32h-118.3c-7.18,0-14.24,1.07-20.99,3.14-6.75-2.07-13.81-3.14-20.99-3.14h-158.37c-11.85,0-23.58,2.97-34,8.6-8.68-3.61-18.09-5.5-27.48-5.5h-49.54c-2.25,0-4.49.11-6.73.32-11.51-3.91-24.02-5.89-37.36-5.89-31.02,0-63.17,10.47-91.96,29.44-1.1-1.25-2.22-2.48-3.36-3.69,2.9-22.69-2.39-45.02-15.44-63.5-11.6-16.43-28.04-27.99-47.04-33.51,0-.06.02-.12.03-.19.48-3.25.81-6.51,1.01-9.76h185.62c30.43,0,57.57-19.31,67.55-48.06l.52-1.5c4.02-11.59,4.91-23.95,2.84-35.8,3.64-5.27,6.58-11.04,8.7-17.15l.52-1.5c7.57-21.82,4.1-46.08-9.29-64.9-13.39-18.82-35.17-30.05-58.26-30.05h-403.74c-8.19,0-16.33,1.43-24.01,4.18-9.06-2.78-18.86-4.19-29.31-4.19h-396.27c-30.42,0-57.57,19.31-67.55,48.05l-.52,1.5c-3.33,9.59-4.55,19.79-3.65,29.83-1.28,1.49-2.5,3.03-3.65,4.62-7.83-1.6-16.06-2.4-24.61-2.4-15.14,0-30.5,2.39-45.66,7.03-2.01-7.3-4.47-14.43-7.37-21.3-9.64-22.85-24.21-43.11-42.13-58.59l-.03-.02-.03-.02c-17.27-14.86-35.61-24.92-56.09-30.77-17.49-4.99-36.22-7.12-62.64-7.12h0ZM1556.09,574.02c7.28-9,14.17-19.1,20.77-30.39l2.59,8.14-23.37,22.25h0Z"/>
      </g>
      <g>
        <g>
          <g>
            <path class="cls-1" d="M1129.28,539.39c1.22-3.5,4.01-12.55,8.66-24.66,13.34-34.68,33.73-93.49,42.36-116.49.61-1.62-2.5-5.47-6.24-3.1-3.74,2.37-7.2,5.38-8.59,5.38-1.97,0-3.38-.83-3.93-2.69-.6-2.07,1.2-4.85,3.23-7.08,3.74-4.1,13.12-13.31,29.9-22.32.48-.25.2-.99-.33-.85-48.5,12.25-95.55,51.55-113,99.31-18.49,50.63,2.49,92.79,47.28,101.98.64.13,1.17-.5.95-1.11-1.8-4.77-6.57-10.37-.28-28.39h0Z"/>
            <path class="cls-1" d="M1235.38,363.85c-1.93-.21,1,1.98,2.47,4.19,2.86,4.31,3.95,12.55.76,22.53-3.88,12.13-42.14,114.23-47.03,126.19-1.83,4.48-.72,7.68,1.83,8.37,3.19.85,11.34-.64,28.57-15.24,5.94-5.03,10.38-4.76,6.38,2.45-4.34,7.8-16.57,24.54-38.14,42.43-7.1,5.89-17.68,11.12-25.02,14.29-.62.27-.32,1.22.35,1.07,50.35-11.08,103.21-45.49,124.32-103.22,18.95-51.85-8.38-98.07-54.48-103.06Z"/>
            <path class="cls-1" d="M1205.27,332.22c5.17-14.53,20.87-26.31,35.07-26.31s21.53,11.78,16.37,26.31c-5.17,14.53-20.87,26.31-35.07,26.31s-21.53-11.78-16.37-26.31Z"/>
            <path class="cls-1" d="M594.57,156.66l.52-1.51c6.44,0,9.28-7.31,11.98-14.79l11.38-31.33-2.52-6.84h-3.9l.52-1.51h20.51l16.44,41.65h.16l10.44-29.5c.62-1.67,1.14-4.05,1.23-5.17.28-3.34-1.68-5.48-5.58-5.48h-.4l.52-1.51h17.17l-.52,1.51c-5.72,0-7.78,3.65-9.73,8.82l-16.72,45.63h-8.51l-18.03-45.47-9.94,27.43c-1.67,4.69-2.54,8.43-2.71,10.41-.37,4.38,2.42,6.12,6.4,6.12l-.52,1.51h-18.2,0Z"/>
            <path class="cls-1" d="M705.27,99.57c14.47,0,23.32,10.1,22.17,23.77-1.53,18.13-16.97,34.43-37.32,34.43-13.35,0-24.07-8.67-22.8-23.77,1.38-16.3,14.83-34.43,37.96-34.43h0ZM689.24,155.78c4.61,0,8.63-2.38,13.21-12.4,5.46-12.01,10.12-24.8,10.84-33.39.48-5.65-3.51-8.43-7.16-8.43-5.17,0-9,3.02-11.71,7.87-5.15,9.3-12.23,29.1-12.94,37.44-.48,5.65,2.35,8.91,7.75,8.91h0Z"/>
            <path class="cls-1" d="M722.63,156.66l.52-1.51c6.44,0,9.28-7.31,11.98-14.79l11.38-31.33-2.52-6.84h-3.9l.52-1.51h20.51l16.44,41.65h.16l10.44-29.5c.62-1.67,1.14-4.05,1.23-5.17.28-3.34-1.68-5.48-5.58-5.48h-.4l.52-1.51h17.17l-.52,1.51c-5.72,0-7.78,3.65-9.73,8.82l-16.72,45.63h-8.51l-18.03-45.47-9.94,27.43c-1.67,4.69-2.54,8.43-2.71,10.41-.37,4.38,2.42,6.12,6.4,6.12l-.52,1.51h-18.2,0Z"/>
            <path class="cls-1" d="M795.18,137.1h1.75c-.31.79-.38,1.67-.45,2.55-.76,9.06,5,16.14,14.22,16.14,5.72,0,13.48-3.41,14.07-10.41,1.15-13.67-24.52-8.98-22.92-27.98,1.02-12.01,12.47-17.8,23.37-17.8,8.58,0,11.21,2.78,15.67,2.78,1.75,0,3.81-.88,4.87-3.02h1.75l-6.79,18.28h-1.51c.8-9.54-2.22-16.06-12.4-16.06-5.09,0-11.01,3.26-11.48,8.91-1.01,11.92,23.68,7.63,22.1,26.47-1.19,14.15-15.19,20.83-27.43,20.83-7.24,0-13.74-3.98-16.67-3.98-1.43,0-2.61.72-3.2,2.15h-1.75l6.84-18.84h-.02Z"/>
            <path class="cls-1" d="M857.71,100.69h48.73l-6.23,17.33h-1.75c.25-1.03.43-2.31.53-3.5.55-6.6-1.82-12.32-9.38-12.32l-19.01,52.95h5.01l-.61,1.51h-26.31l.61-1.51h5.09l18.85-52.95c-8.98,0-16.57,7.95-20.08,15.66h-1.83l6.38-17.17h0Z"/>
            <path class="cls-1" d="M939.37,99.57c14.47,0,23.32,10.1,22.17,23.77-1.53,18.13-16.97,34.43-37.32,34.43-13.35,0-24.07-8.67-22.8-23.77,1.38-16.3,14.83-34.43,37.96-34.43h0ZM923.34,155.78c4.61,0,8.63-2.38,13.21-12.4,5.46-12.01,10.12-24.8,10.84-33.39.48-5.65-3.51-8.43-7.16-8.43-5.17,0-9,3.02-11.71,7.87-5.15,9.3-12.23,29.1-12.94,37.44-.48,5.65,2.35,8.91,7.75,8.91h0Z"/>
            <path class="cls-1" d="M982.78,102.19h-5.17l.52-1.51h30.69c12.08,0,16,4.45,15.27,13.04-.7,8.27-7.92,17.57-23.5,17.57h-11.92l-8.53,23.85h5.25l-.52,1.51h-26.55l.52-1.51h4.85l19.09-52.95ZM989.21,129.78h4.29c5.25,0,7.27-1.35,9.45-4.61,2-2.94,5.41-11.44,5.88-17.01.42-5.01-2.75-5.96-6.34-5.96h-3.34l-9.96,27.59h0Z"/>
            <path class="cls-1" d="M1041.58,155.14c5.48-.88,8.62-6.12,12.06-15.74l13.39-37.2h-5.65l.76-1.51h20.83l-2.33,37.12h.16l23.96-37.12h21.38l-.76,1.51h-5.01l-19.09,52.95h5.72l-.76,1.51h-25.76l.76-1.51h4.29l19.52-51.44h-.16l-34.19,52.95h-5.8l2.96-51.2h-.16l-12.91,36.25c-1.65,4.53-2.07,6.6-2.18,7.87-.35,4.14,2.39,5.57,5.89,5.57l-.76,1.51h-16.85l.68-1.51h0Z"/>
            <path class="cls-1" d="M1137.61,102.19h-5.17l.52-1.51h45.71l-5.1,18.04h-1.51c1.1-13.04-3.06-16.54-13.24-16.54h-4.85l-8.84,24.64h5.09c5.48,0,10.04-1.19,13.99-8.51h1.75l-7.45,20.43h-1.83c.34-1.19.52-2.31.6-3.34.32-3.74-1.39-7.08-6.95-7.08h-5.72l-9.65,26.79h5.57c9.86,0,20.16-4.29,26.55-15.98h1.75l-7.04,17.49h-48.65l.52-1.51h4.85l19.09-52.95h.02Z"/>
            <path class="cls-1" d="M1239.74,100.69l-7.63,20.75h-1.75c.28-1.43.48-2.78.59-4.21.68-8.11-2.81-15.66-12.44-15.66-4.61,0-8.31,2.46-10.96,7.39-6.58,12.08-12.35,29.57-13.05,37.92-.48,5.64,2.35,8.91,7.75,8.91,5.96,0,9.04-5.48,10.81-10.41l3.24-9.14h-4.05l.53-1.59h23.61l-.52,1.51h-3.5l-4.84,13.11c-6.16,5.17-15.03,8.51-24.57,8.51-13.67,0-24.41-8.43-23.12-23.77,1.38-16.3,15.94-34.43,37.4-34.43,9.22,0,12.33,3.74,15.58,3.74,2.55,0,3.89-.88,5.15-2.62h1.75v.02Z"/>
            <path class="cls-1" d="M1265.62,140.67h-16.85l-2.35,3.41c-2.45,3.58-2.97,5.01-3.08,6.36-.32,3.81,3.5,4.69,6.12,4.69l-.52,1.51h-19.4l.52-1.51c6.76,0,10.12-5.01,15.93-13.59l28.09-40.86h6.36l1.22,54.45h4.61l-.52,1.51h-25.2l.52-1.51h4.69l-.13-14.47h0ZM1249.84,139.17h15.82l-.17-22.5h-.16l-15.49,22.5Z"/>
            <path class="cls-1" d="M1288.87,155.14c5.48-.88,8.62-6.12,12.06-15.74l13.39-37.2h-5.65l.76-1.51h20.83l-2.33,37.12h.16l23.96-37.12h21.38l-.76,1.51h-5.01l-19.09,52.95h5.72l-.76,1.51h-25.76l.76-1.51h4.29l19.52-51.44h-.16l-34.19,52.95h-5.8l2.96-51.2h-.16l-12.91,36.25c-1.65,4.53-2.07,6.6-2.18,7.87-.35,4.14,2.39,5.57,5.89,5.57l-.76,1.51h-16.85l.68-1.51h0Z"/>
            <path class="cls-1" d="M1385.79,102.19h-5.17l.52-1.51h26.87l-.52,1.51h-5.32l-19.01,52.95h5.25l-.52,1.51h-26.55l.52-1.51h4.85l19.09-52.95h0Z"/>
            <path class="cls-1" d="M1397.78,155.14c4.88-.4,12.71-8.34,15.47-10.97l12.69-11.92-9.15-30.05h-4.53l.52-1.51h26.4l-.52,1.51h-4.85l5.35,17.65,7.96-7.71c2.43-2.46,3.47-4.38,3.58-5.65.28-3.34-2.5-4.29-5.05-4.29l.52-1.51h19.71l-.52,1.51c-4.85,0-7.6,2.38-13.38,7.87l-12.27,11.61,9.98,33.47h4.14l-.52,1.51h-26l.52-1.51h4.85l-6.17-21.14-9.94,9.54c-4.23,3.98-4.55,5.01-4.7,6.68-.26,3.1,2.52,4.93,5.71,4.93l-.52,1.51h-19.8l.52-1.51h0Z"/>
            <path class="cls-1" d="M771.04,558.94c-13,0-22.5-5.45-26.07-14.94-2.02-5.15-2.74-9.78-1.65-23.67l.2-2.52-1.57,1.98c-22.27,28.17-40.06,39.15-63.44,39.15-13.67,0-25.18-4.93-33.27-14.26-10.65-12.28-14.76-31.42-11.55-53.88,3.88-27.19,18.73-55.04,40.75-76.4,21.97-21.31,48.34-33.54,72.35-33.54,19.75,0,29.67,8.4,34.26,28.98l.58,2.61,9.25-26.01h49.54l-50.76,142.15-.48,1.79c-.73,2.71-1.36,5.04-1.57,6.51-.24,1.65.06,3.01.85,3.91.49.57,1.44,1.25,3.14,1.25,9.19,0,22.13-13.67,39.54-41.78l8.21,4.05c-20.43,36.25-43.4,54.63-68.29,54.63ZM749.44,390.46c-15.41,0-26.53,14.73-47.58,63.05-15.88,36.92-25.42,64.41-27.57,79.5-.73,5.12-.03,8.96,2.08,11.4,1.85,2.12,4.75,3.2,8.66,3.2,16.07,0,37.46-14.94,53.22-37.19,15.14-21.3,30.07-54.76,33.98-76.18,2.47-13.66-.44-27.46-7.6-36.03-4.23-5.07-9.48-7.74-15.19-7.74Z"/>
            <path class="cls-1" d="M992.77,556.37c-9.93,0-17.79-3.02-22.74-8.74-5.4-6.24-7.38-15.67-5.7-27.26.95-6.56,3.41-16.04,6.76-26.01l31.06-86.58c.22-.72.43-1.36.62-1.97.57-1.78.98-3.06,1.08-3.75.25-1.75-.14-3.28-1.13-4.43-1.15-1.32-2.98-2.02-5.3-2.02-8.29,0-25.03,10.64-38.12,24.24-17.6,18.35-30.22,39.98-40.9,70.15l-22.85,63.36h-50.15l56.44-157.75h-30.18l3.55-9.18h32.7c14.4,0,32.24-1.64,49.15-4.51l-16.17,45.05,1.34.72c24.31-32.26,49.34-47.28,78.76-47.28,11.73,0,20.65,3.15,25.81,9.1,3.89,4.5,5.42,10.54,4.42,17.46-.5,3.48-1.57,8.8-3.78,14.41l-35.52,99.48c-.9,2.61-3.04,8.99-3.5,12.15-.34,2.35,0,4.14,1.04,5.32.89,1.03,2.25,1.55,4.04,1.55,7.57,0,18.7-11.62,37.23-38.85.27-.27.58-.74,1.08-1.47.57-.84,1.32-1.95,2.3-3.2l7.51,4.02c-25.64,39.74-45.62,55.96-68.85,55.96h0Z"/>
            <path class="cls-1" d="M1448.71,558.94c-13,0-22.5-5.45-26.07-14.94-2.02-5.15-2.74-9.78-1.65-23.67l.2-2.52-1.57,1.98c-22.27,28.17-40.06,39.15-63.44,39.15-13.67,0-25.18-4.93-33.27-14.26-10.65-12.28-14.76-31.42-11.55-53.88,3.88-27.19,18.73-55.04,40.75-76.4,21.97-21.31,48.34-33.54,72.35-33.54,19.75,0,29.67,8.4,34.26,28.98l.58,2.61,9.25-26.01h49.54l-50.76,142.15-.48,1.78c-.73,2.71-1.36,5.05-1.57,6.51-.24,1.65.06,3.01.85,3.91.49.57,1.44,1.25,3.14,1.25,9.19,0,22.13-13.67,39.54-41.78l8.21,4.05c-20.43,36.25-43.4,54.63-68.29,54.63h0ZM1427.11,390.46c-15.41,0-26.53,14.73-47.58,63.05-15.89,36.92-25.42,64.41-27.57,79.5-.73,5.12-.03,8.96,2.08,11.4,1.85,2.12,4.75,3.2,8.66,3.2,16.07,0,37.46-14.94,53.22-37.19,15.14-21.3,30.07-54.76,33.98-76.18,2.47-13.66-.44-27.46-7.6-36.03-4.23-5.07-9.48-7.74-15.19-7.74Z"/>
            <path class="cls-1" d="M546.54,556.37c-10.78,0-18.81-2.96-23.86-8.81-5.43-6.29-7.27-15.73-5.46-28.04,1.15-7.83,4.05-18.45,7.58-27.7l30.21-82.74c.29-.98.55-1.85.79-2.61.54-1.76.93-3.03,1.07-3.97.22-1.5-.15-2.86-1.07-3.93-1.17-1.35-3.13-2.1-5.53-2.1-11.16,0-26.86,10.57-43.07,28.98-19.01,21.97-26.57,35.79-40.46,73.98l-19.7,53.94h-51.14l52.66-144.25c.67-1.38.86-2.71,1.18-4.91.42-2.89.06-4.95-1.12-6.32-1.08-1.25-2.76-1.85-5.17-1.85-9.01,0-27.82,12.22-41.92,27.25-17.49,17.89-29.55,39.24-42.99,76.14l-19.7,53.94h-51.14l57.52-157.75h-30.76l3.61-9.18h33.34c14.47,0,32.22-1.6,50.11-4.51l-15.16,42.06,1.29.78c26.75-29.54,52.28-43.9,78.06-43.9,11.98,0,21.17,3.31,26.59,9.59,4.5,5.21,6.22,12.41,4.99,20.83-.42,2.85-1.57,7.89-3.18,12.73l1.3.76c28.26-31.18,50.61-43.9,77.18-43.9,12.5,0,21.91,3.25,27.23,9.41,4.22,4.88,5.77,11.38,4.61,19.29-.52,3.54-1.6,8.84-3.78,13.96l-36.07,98.63c-2.25,6.39-3.17,9.46-3.5,11.73-.32,2.22,0,3.89.94,4.99.84.97,2.13,1.46,3.84,1.46,9.02,0,19.44-10.58,42.71-43.45l7.57,4.76c-27.3,40.9-44.92,54.73-69.57,54.73h0Z"/>
            <path class="cls-1" d="M71.49,352.78l3.21-9.08h34.99L206.72,80.58h-39.39l3.21-9.08h128.07c36.91,0,53.76,4.81,72.1,20.59,23.73,20.5,35.2,55.33,29.94,90.9-6.85,46.27-31.88,93.53-65.32,123.35-38.79,34.73-72.52,46.44-133.69,46.44H71.49ZM169.31,343.7h40.91c25.33,0,43.98-2.4,58.64-14.33,12.87-10.47,22.52-27.4,35.63-62.49,21.04-55.89,37.37-110.54,41.62-139.22,2.36-15.94.24-27.42-6.49-35.1-7.06-8.06-19.27-11.98-37.31-11.98h-35.98l-97.02,263.12h.02Z"/>
            <path class="cls-1" d="M537.13,358.29c-13.17,0-22.8-5.38-26.41-14.76-2.05-5.08-2.77-9.66-1.66-23.39l.2-2.48-1.56,1.93c-22.56,27.85-40.57,38.7-64.24,38.7-14.07,0-25.86-5.02-34.07-14.52-10.5-12.14-14.52-30.9-11.32-52.82,3.92-26.87,18.96-54.4,41.25-75.51,22.24-21.07,48.95-33.16,73.26-33.16,20,0,30.06,8.3,34.69,28.64l.58,2.54,9.36-25.67h50.17l-51.38,140.5-.48,1.76c-.74,2.68-1.38,4.99-1.59,6.45-.24,1.62.05,2.95.84,3.85.5.58,1.45,1.26,3.19,1.26,9.3,0,22.4-13.51,40.02-41.31l8.31,4.01c-20.68,35.83-43.94,53.98-69.14,53.98h0ZM515.27,191.76c-15.6,0-26.85,14.56-48.16,62.32-16.08,36.49-25.74,63.67-27.92,78.6-.73,5.01-.05,8.78,2.04,11.2,1.86,2.15,4.83,3.24,8.83,3.24,16.27,0,37.92-14.77,53.87-36.76,15.34-21.06,30.45-54.14,34.4-75.31,2.47-13.31-.38-26.85-7.44-35.34-4.32-5.2-9.72-7.94-15.61-7.94h0Z"/>
            <path class="cls-1" d="M758.87,358.05c-10,0-17.9-3.02-22.85-8.74-5.33-6.16-7.27-15.44-5.6-26.82.95-6.48,3.41-15.86,6.77-25.71l31.06-85.58c.22-.71.44-1.36.63-1.96.57-1.75.98-3.01,1.08-3.7.25-1.72-.13-3.23-1.11-4.36-1.15-1.32-2.98-2.02-5.32-2.02-8.29,0-25.04,10.53-38.12,23.97-17.61,18.14-30.23,39.52-40.92,69.35l-22.86,62.63h-50.17l56.46-155.94h-30.19l3.54-9.05h32.72c14.41,0,32.25-1.62,49.15-4.45l-16.17,44.52,1.33.73c24.32-31.89,49.35-46.73,78.79-46.73,11.81,0,20.77,3.15,25.9,9.1,3.83,4.43,5.33,10.36,4.34,17.14-.5,3.44-1.57,8.7-3.78,14.23l-35.53,98.34c-.9,2.58-3.04,8.88-3.5,12.01-.34,2.31,0,4.08,1.02,5.25.89,1.04,2.26,1.56,4.05,1.56,7.57,0,18.7-11.48,37.24-38.4.27-.26.58-.73,1.08-1.45.57-.83,1.32-1.93,2.3-3.16l7.51,3.97c-25.64,39.27-45.63,55.31-68.87,55.31v-.02Z"/>
            <path class="cls-1" d="M911.23,358.29c-23.84,0-43.42-7.28-55.11-20.48-10-11.29-13.92-26.32-11.36-43.48,4.71-31.46,28.27-67.19,58.62-88.9,22.42-15.87,44.99-23.58,68.98-23.58,19.58,0,34.79,5,42.84,14.08,5.35,6.05,7.4,13.55,6.08,22.33-2.15,14.34-13.91,24.34-28.61,24.34-6.51,0-12.1-2.27-15.74-6.38-3.71-4.18-5.21-10.04-4.25-16.47.62-4.09,1.35-6.48,5.38-15.48.15-.37.29-.71.43-1.02.53-1.24.98-2.32,1.15-3.41.25-1.72-.22-3.31-1.37-4.61-1.98-2.24-5.78-3.47-10.71-3.47-17.3,0-29.17,13.21-45.36,50.47-14.99,34.43-25.73,65.34-28.03,80.7-1.28,8.56-.15,14.71,3.48,18.8,4.02,4.54,10.99,6.65,21.93,6.65,25.33,0,45.43-11.94,71.56-42.52l7.15,5.05c-26.02,33.63-51.29,47.38-87.06,47.38h0Z"/>
            <path class="cls-1" d="M1086.84,358.29c-25.47,0-46.02-7.54-57.84-21.22-9.37-10.84-13.06-25.17-10.68-41.46,4.02-27.52,20.74-56.06,45.85-78.3,25.14-22.27,55.14-35.03,82.29-35.03,18.18,0,32.98,5.52,41.65,15.56,6.81,7.88,9.52,18.17,7.83,29.75-3.54,24.23-22.83,41.01-55.81,48.52-13.34,3.05-27.09,4.24-58.88,5.07l-.51.02-.19.47c-7.56,18.87-13.14,36.63-14.57,46.36-.81,5.54.27,10.08,3.21,13.47,3.95,4.58,11.03,6.89,21.04,6.89,27.72,0,52.16-13.1,81.61-43.78l6.15,5.37c-29.89,34.31-56.34,48.32-91.15,48.32h0ZM1142.1,192.18c-15.82,0-29.63,12.32-39.95,35.63-4.46,9.78-5.1,11.37-17,42.41l-.42,1.08,2.59-.1c21.44-.8,22.73-.85,31.63-3.37,20.19-5.09,35.24-25.3,39.25-52.75,1.22-8.39.22-14.32-3.08-18.14-2.75-3.18-7.13-4.78-13.03-4.78v.02Z"/>
          </g>
          <g>
            <path class="cls-1" d="M1129.28,539.39c1.22-3.5,4.01-12.55,8.66-24.66,13.34-34.68,33.73-93.49,42.36-116.49.61-1.62-2.5-5.47-6.24-3.1-3.74,2.37-7.2,5.38-8.59,5.38-1.97,0-3.38-.83-3.93-2.69-.6-2.07,1.2-4.85,3.23-7.08,3.74-4.1,13.12-13.31,29.9-22.32.48-.25.2-.99-.33-.85-48.5,12.25-95.55,51.55-113,99.31-18.49,50.63,2.49,92.79,47.28,101.98.64.13,1.17-.5.95-1.11-1.8-4.77-6.57-10.37-.28-28.39h0Z"/>
            <path class="cls-1" d="M1235.38,363.85c-1.93-.21,1,1.98,2.47,4.19,2.86,4.31,3.95,12.55.76,22.53-3.88,12.13-42.14,114.23-47.03,126.19-1.83,4.48-.72,7.68,1.83,8.37,3.19.85,11.34-.64,28.57-15.24,5.94-5.03,10.38-4.76,6.38,2.45-4.34,7.8-16.57,24.54-38.14,42.43-7.1,5.89-17.68,11.12-25.02,14.29-.62.27-.32,1.22.35,1.07,50.35-11.08,103.21-45.49,124.32-103.22,18.95-51.85-8.38-98.07-54.48-103.06Z"/>
            <path class="cls-1" d="M1205.27,332.22c5.17-14.53,20.87-26.31,35.07-26.31s21.53,11.78,16.37,26.31c-5.17,14.53-20.87,26.31-35.07,26.31s-21.53-11.78-16.37-26.31Z"/>
            <path class="cls-1" d="M594.57,156.66l.52-1.51c6.44,0,9.28-7.31,11.98-14.79l11.38-31.33-2.52-6.84h-3.9l.52-1.51h20.51l16.44,41.65h.16l10.44-29.5c.62-1.67,1.14-4.05,1.23-5.17.28-3.34-1.68-5.48-5.58-5.48h-.4l.52-1.51h17.17l-.52,1.51c-5.72,0-7.78,3.65-9.73,8.82l-16.72,45.63h-8.51l-18.03-45.47-9.94,27.43c-1.67,4.69-2.54,8.43-2.71,10.41-.37,4.38,2.42,6.12,6.4,6.12l-.52,1.51h-18.2,0Z"/>
            <path class="cls-1" d="M705.27,99.57c14.47,0,23.32,10.1,22.17,23.77-1.53,18.13-16.97,34.43-37.32,34.43-13.35,0-24.07-8.67-22.8-23.77,1.38-16.3,14.83-34.43,37.96-34.43h0ZM689.24,155.78c4.61,0,8.63-2.38,13.21-12.4,5.46-12.01,10.12-24.8,10.84-33.39.48-5.65-3.51-8.43-7.16-8.43-5.17,0-9,3.02-11.71,7.87-5.15,9.3-12.23,29.1-12.94,37.44-.48,5.65,2.35,8.91,7.75,8.91h0Z"/>
            <path class="cls-1" d="M722.63,156.66l.52-1.51c6.44,0,9.28-7.31,11.98-14.79l11.38-31.33-2.52-6.84h-3.9l.52-1.51h20.51l16.44,41.65h.16l10.44-29.5c.62-1.67,1.14-4.05,1.23-5.17.28-3.34-1.68-5.48-5.58-5.48h-.4l.52-1.51h17.17l-.52,1.51c-5.72,0-7.78,3.65-9.73,8.82l-16.72,45.63h-8.51l-18.03-45.47-9.94,27.43c-1.67,4.69-2.54,8.43-2.71,10.41-.37,4.38,2.42,6.12,6.4,6.12l-.52,1.51h-18.2,0Z"/>
            <path class="cls-1" d="M795.18,137.1h1.75c-.31.79-.38,1.67-.45,2.55-.76,9.06,5,16.14,14.22,16.14,5.72,0,13.48-3.41,14.07-10.41,1.15-13.67-24.52-8.98-22.92-27.98,1.02-12.01,12.47-17.8,23.37-17.8,8.58,0,11.21,2.78,15.67,2.78,1.75,0,3.81-.88,4.87-3.02h1.75l-6.79,18.28h-1.51c.8-9.54-2.22-16.06-12.4-16.06-5.09,0-11.01,3.26-11.48,8.91-1.01,11.92,23.68,7.63,22.1,26.47-1.19,14.15-15.19,20.83-27.43,20.83-7.24,0-13.74-3.98-16.67-3.98-1.43,0-2.61.72-3.2,2.15h-1.75l6.84-18.84h-.02Z"/>
            <path class="cls-1" d="M857.71,100.69h48.73l-6.23,17.33h-1.75c.25-1.03.43-2.31.53-3.5.55-6.6-1.82-12.32-9.38-12.32l-19.01,52.95h5.01l-.61,1.51h-26.31l.61-1.51h5.09l18.85-52.95c-8.98,0-16.57,7.95-20.08,15.66h-1.83l6.38-17.17h0Z"/>
            <path class="cls-1" d="M939.37,99.57c14.47,0,23.32,10.1,22.17,23.77-1.53,18.13-16.97,34.43-37.32,34.43-13.35,0-24.07-8.67-22.8-23.77,1.38-16.3,14.83-34.43,37.96-34.43h0ZM923.34,155.78c4.61,0,8.63-2.38,13.21-12.4,5.46-12.01,10.12-24.8,10.84-33.39.48-5.65-3.51-8.43-7.16-8.43-5.17,0-9,3.02-11.71,7.87-5.15,9.3-12.23,29.1-12.94,37.44-.48,5.65,2.35,8.91,7.75,8.91h0Z"/>
            <path class="cls-1" d="M982.78,102.19h-5.17l.52-1.51h30.69c12.08,0,16,4.45,15.27,13.04-.7,8.27-7.92,17.57-23.5,17.57h-11.92l-8.53,23.85h5.25l-.52,1.51h-26.55l.52-1.51h4.85l19.09-52.95ZM989.21,129.78h4.29c5.25,0,7.27-1.35,9.45-4.61,2-2.94,5.41-11.44,5.88-17.01.42-5.01-2.75-5.96-6.34-5.96h-3.34l-9.96,27.59h0Z"/>
            <path class="cls-1" d="M1041.58,155.14c5.48-.88,8.62-6.12,12.06-15.74l13.39-37.2h-5.65l.76-1.51h20.83l-2.33,37.12h.16l23.96-37.12h21.38l-.76,1.51h-5.01l-19.09,52.95h5.72l-.76,1.51h-25.76l.76-1.51h4.29l19.52-51.44h-.16l-34.19,52.95h-5.8l2.96-51.2h-.16l-12.91,36.25c-1.65,4.53-2.07,6.6-2.18,7.87-.35,4.14,2.39,5.57,5.89,5.57l-.76,1.51h-16.85l.68-1.51h0Z"/>
            <path class="cls-1" d="M1137.61,102.19h-5.17l.52-1.51h45.71l-5.1,18.04h-1.51c1.1-13.04-3.06-16.54-13.24-16.54h-4.85l-8.84,24.64h5.09c5.48,0,10.04-1.19,13.99-8.51h1.75l-7.45,20.43h-1.83c.34-1.19.52-2.31.6-3.34.32-3.74-1.39-7.08-6.95-7.08h-5.72l-9.65,26.79h5.57c9.86,0,20.16-4.29,26.55-15.98h1.75l-7.04,17.49h-48.65l.52-1.51h4.85l19.09-52.95h.02Z"/>
            <path class="cls-1" d="M1239.74,100.69l-7.63,20.75h-1.75c.28-1.43.48-2.78.59-4.21.68-8.11-2.81-15.66-12.44-15.66-4.61,0-8.31,2.46-10.96,7.39-6.58,12.08-12.35,29.57-13.05,37.92-.48,5.64,2.35,8.91,7.75,8.91,5.96,0,9.04-5.48,10.81-10.41l3.24-9.14h-4.05l.53-1.59h23.61l-.52,1.51h-3.5l-4.84,13.11c-6.16,5.17-15.03,8.51-24.57,8.51-13.67,0-24.41-8.43-23.12-23.77,1.38-16.3,15.94-34.43,37.4-34.43,9.22,0,12.33,3.74,15.58,3.74,2.55,0,3.89-.88,5.15-2.62h1.75v.02Z"/>
            <path class="cls-1" d="M1265.62,140.67h-16.85l-2.35,3.41c-2.45,3.58-2.97,5.01-3.08,6.36-.32,3.81,3.5,4.69,6.12,4.69l-.52,1.51h-19.4l.52-1.51c6.76,0,10.12-5.01,15.93-13.59l28.09-40.86h6.36l1.22,54.45h4.61l-.52,1.51h-25.2l.52-1.51h4.69l-.13-14.47h0ZM1249.84,139.17h15.82l-.17-22.5h-.16l-15.49,22.5Z"/>
            <path class="cls-1" d="M1288.87,155.14c5.48-.88,8.62-6.12,12.06-15.74l13.39-37.2h-5.65l.76-1.51h20.83l-2.33,37.12h.16l23.96-37.12h21.38l-.76,1.51h-5.01l-19.09,52.95h5.72l-.76,1.51h-25.76l.76-1.51h4.29l19.52-51.44h-.16l-34.19,52.95h-5.8l2.96-51.2h-.16l-12.91,36.25c-1.65,4.53-2.07,6.6-2.18,7.87-.35,4.14,2.39,5.57,5.89,5.57l-.76,1.51h-16.85l.68-1.51h0Z"/>
            <path class="cls-1" d="M1385.79,102.19h-5.17l.52-1.51h26.87l-.52,1.51h-5.32l-19.01,52.95h5.25l-.52,1.51h-26.55l.52-1.51h4.85l19.09-52.95h0Z"/>
            <path class="cls-1" d="M1397.78,155.14c4.88-.4,12.71-8.34,15.47-10.97l12.69-11.92-9.15-30.05h-4.53l.52-1.51h26.4l-.52,1.51h-4.85l5.35,17.65,7.96-7.71c2.43-2.46,3.47-4.38,3.58-5.65.28-3.34-2.5-4.29-5.05-4.29l.52-1.51h19.71l-.52,1.51c-4.85,0-7.6,2.38-13.38,7.87l-12.27,11.61,9.98,33.47h4.14l-.52,1.51h-26l.52-1.51h4.85l-6.17-21.14-9.94,9.54c-4.23,3.98-4.55,5.01-4.7,6.68-.26,3.1,2.52,4.93,5.71,4.93l-.52,1.51h-19.8l.52-1.51h0Z"/>
            <path class="cls-1" d="M771.04,558.94c-13,0-22.5-5.45-26.07-14.94-2.02-5.15-2.74-9.78-1.65-23.67l.2-2.52-1.57,1.98c-22.27,28.17-40.06,39.15-63.44,39.15-13.67,0-25.18-4.93-33.27-14.26-10.65-12.28-14.76-31.42-11.55-53.88,3.88-27.19,18.73-55.04,40.75-76.4,21.97-21.31,48.34-33.54,72.35-33.54,19.75,0,29.67,8.4,34.26,28.98l.58,2.61,9.25-26.01h49.54l-50.76,142.15-.48,1.79c-.73,2.71-1.36,5.04-1.57,6.51-.24,1.65.06,3.01.85,3.91.49.57,1.44,1.25,3.14,1.25,9.19,0,22.13-13.67,39.54-41.78l8.21,4.05c-20.43,36.25-43.4,54.63-68.29,54.63ZM749.44,390.46c-15.41,0-26.53,14.73-47.58,63.05-15.88,36.92-25.42,64.41-27.57,79.5-.73,5.12-.03,8.96,2.08,11.4,1.85,2.12,4.75,3.2,8.66,3.2,16.07,0,37.46-14.94,53.22-37.19,15.14-21.3,30.07-54.76,33.98-76.18,2.47-13.66-.44-27.46-7.6-36.03-4.23-5.07-9.48-7.74-15.19-7.74Z"/>
            <path class="cls-1" d="M992.77,556.37c-9.93,0-17.79-3.02-22.74-8.74-5.4-6.24-7.38-15.67-5.7-27.26.95-6.56,3.41-16.04,6.76-26.01l31.06-86.58c.22-.72.43-1.36.62-1.97.57-1.78.98-3.06,1.08-3.75.25-1.75-.14-3.28-1.13-4.43-1.15-1.32-2.98-2.02-5.3-2.02-8.29,0-25.03,10.64-38.12,24.24-17.6,18.35-30.22,39.98-40.9,70.15l-22.85,63.36h-50.15l56.44-157.75h-30.18l3.55-9.18h32.7c14.4,0,32.24-1.64,49.15-4.51l-16.17,45.05,1.34.72c24.31-32.26,49.34-47.28,78.76-47.28,11.73,0,20.65,3.15,25.81,9.1,3.89,4.5,5.42,10.54,4.42,17.46-.5,3.48-1.57,8.8-3.78,14.41l-35.52,99.48c-.9,2.61-3.04,8.99-3.5,12.15-.34,2.35,0,4.14,1.04,5.32.89,1.03,2.25,1.55,4.04,1.55,7.57,0,18.7-11.62,37.23-38.85.27-.27.58-.74,1.08-1.47.57-.84,1.32-1.95,2.3-3.2l7.51,4.02c-25.64,39.74-45.62,55.96-68.85,55.96h0Z"/>
            <path class="cls-1" d="M1448.71,558.94c-13,0-22.5-5.45-26.07-14.94-2.02-5.15-2.74-9.78-1.65-23.67l.2-2.52-1.57,1.98c-22.27,28.17-40.06,39.15-63.44,39.15-13.67,0-25.18-4.93-33.27-14.26-10.65-12.28-14.76-31.42-11.55-53.88,3.88-27.19,18.73-55.04,40.75-76.4,21.97-21.31,48.34-33.54,72.35-33.54,19.75,0,29.67,8.4,34.26,28.98l.58,2.61,9.25-26.01h49.54l-50.76,142.15-.48,1.78c-.73,2.71-1.36,5.05-1.57,6.51-.24,1.65.06,3.01.85,3.91.49.57,1.44,1.25,3.14,1.25,9.19,0,22.13-13.67,39.54-41.78l8.21,4.05c-20.43,36.25-43.4,54.63-68.29,54.63h0ZM1427.11,390.46c-15.41,0-26.53,14.73-47.58,63.05-15.89,36.92-25.42,64.41-27.57,79.5-.73,5.12-.03,8.96,2.08,11.4,1.85,2.12,4.75,3.2,8.66,3.2,16.07,0,37.46-14.94,53.22-37.19,15.14-21.3,30.07-54.76,33.98-76.18,2.47-13.66-.44-27.46-7.6-36.03-4.23-5.07-9.48-7.74-15.19-7.74Z"/>
            <path class="cls-1" d="M546.54,556.37c-10.78,0-18.81-2.96-23.86-8.81-5.43-6.29-7.27-15.73-5.46-28.04,1.15-7.83,4.05-18.45,7.58-27.7l30.21-82.74c.29-.98.55-1.85.79-2.61.54-1.76.93-3.03,1.07-3.97.22-1.5-.15-2.86-1.07-3.93-1.17-1.35-3.13-2.1-5.53-2.1-11.16,0-26.86,10.57-43.07,28.98-19.01,21.97-26.57,35.79-40.46,73.98l-19.7,53.94h-51.14l52.66-144.25c.67-1.38.86-2.71,1.18-4.91.42-2.89.06-4.95-1.12-6.32-1.08-1.25-2.76-1.85-5.17-1.85-9.01,0-27.82,12.22-41.92,27.25-17.49,17.89-29.55,39.24-42.99,76.14l-19.7,53.94h-51.14l57.52-157.75h-30.76l3.61-9.18h33.34c14.47,0,32.22-1.6,50.11-4.51l-15.16,42.06,1.29.78c26.75-29.54,52.28-43.9,78.06-43.9,11.98,0,21.17,3.31,26.59,9.59,4.5,5.21,6.22,12.41,4.99,20.83-.42,2.85-1.57,7.89-3.18,12.73l1.3.76c28.26-31.18,50.61-43.9,77.18-43.9,12.5,0,21.91,3.25,27.23,9.41,4.22,4.88,5.77,11.38,4.61,19.29-.52,3.54-1.6,8.84-3.78,13.96l-36.07,98.63c-2.25,6.39-3.17,9.46-3.5,11.73-.32,2.22,0,3.89.94,4.99.84.97,2.13,1.46,3.84,1.46,9.02,0,19.44-10.58,42.71-43.45l7.57,4.76c-27.3,40.9-44.92,54.73-69.57,54.73h0Z"/>
            <path class="cls-1" d="M71.49,352.78l3.21-9.08h34.99L206.72,80.58h-39.39l3.21-9.08h128.07c36.91,0,53.76,4.81,72.1,20.59,23.73,20.5,35.2,55.33,29.94,90.9-6.85,46.27-31.88,93.53-65.32,123.35-38.79,34.73-72.52,46.44-133.69,46.44H71.49ZM169.31,343.7h40.91c25.33,0,43.98-2.4,58.64-14.33,12.87-10.47,22.52-27.4,35.63-62.49,21.04-55.89,37.37-110.54,41.62-139.22,2.36-15.94.24-27.42-6.49-35.1-7.06-8.06-19.27-11.98-37.31-11.98h-35.98l-97.02,263.12h.02Z"/>
            <path class="cls-1" d="M537.13,358.29c-13.17,0-22.8-5.38-26.41-14.76-2.05-5.08-2.77-9.66-1.66-23.39l.2-2.48-1.56,1.93c-22.56,27.85-40.57,38.7-64.24,38.7-14.07,0-25.86-5.02-34.07-14.52-10.5-12.14-14.52-30.9-11.32-52.82,3.92-26.87,18.96-54.4,41.25-75.51,22.24-21.07,48.95-33.16,73.26-33.16,20,0,30.06,8.3,34.69,28.64l.58,2.54,9.36-25.67h50.17l-51.38,140.5-.48,1.76c-.74,2.68-1.38,4.99-1.59,6.45-.24,1.62.05,2.95.84,3.85.5.58,1.45,1.26,3.19,1.26,9.3,0,22.4-13.51,40.02-41.31l8.31,4.01c-20.68,35.83-43.94,53.98-69.14,53.98h0ZM515.27,191.76c-15.6,0-26.85,14.56-48.16,62.32-16.08,36.49-25.74,63.67-27.92,78.6-.73,5.01-.05,8.78,2.04,11.2,1.86,2.15,4.83,3.24,8.83,3.24,16.27,0,37.92-14.77,53.87-36.76,15.34-21.06,30.45-54.14,34.4-75.31,2.47-13.31-.38-26.85-7.44-35.34-4.32-5.2-9.72-7.94-15.61-7.94h0Z"/>
            <path class="cls-1" d="M758.87,358.05c-10,0-17.9-3.02-22.85-8.74-5.33-6.16-7.27-15.44-5.6-26.82.95-6.48,3.41-15.86,6.77-25.71l31.06-85.58c.22-.71.44-1.36.63-1.96.57-1.75.98-3.01,1.08-3.7.25-1.72-.13-3.23-1.11-4.36-1.15-1.32-2.98-2.02-5.32-2.02-8.29,0-25.04,10.53-38.12,23.97-17.61,18.14-30.23,39.52-40.92,69.35l-22.86,62.63h-50.17l56.46-155.94h-30.19l3.54-9.05h32.72c14.41,0,32.25-1.62,49.15-4.45l-16.17,44.52,1.33.73c24.32-31.89,49.35-46.73,78.79-46.73,11.81,0,20.77,3.15,25.9,9.1,3.83,4.43,5.33,10.36,4.34,17.14-.5,3.44-1.57,8.7-3.78,14.23l-35.53,98.34c-.9,2.58-3.04,8.88-3.5,12.01-.34,2.31,0,4.08,1.02,5.25.89,1.04,2.26,1.56,4.05,1.56,7.57,0,18.7-11.48,37.24-38.4.27-.26.58-.73,1.08-1.45.57-.83,1.32-1.93,2.3-3.16l7.51,3.97c-25.64,39.27-45.63,55.31-68.87,55.31v-.02Z"/>
            <path class="cls-1" d="M911.23,358.29c-23.84,0-43.42-7.28-55.11-20.48-10-11.29-13.92-26.32-11.36-43.48,4.71-31.46,28.27-67.19,58.62-88.9,22.42-15.87,44.99-23.58,68.98-23.58,19.58,0,34.79,5,42.84,14.08,5.35,6.05,7.4,13.55,6.08,22.33-2.15,14.34-13.91,24.34-28.61,24.34-6.51,0-12.1-2.27-15.74-6.38-3.71-4.18-5.21-10.04-4.25-16.47.62-4.09,1.35-6.48,5.38-15.48.15-.37.29-.71.43-1.02.53-1.24.98-2.32,1.15-3.41.25-1.72-.22-3.31-1.37-4.61-1.98-2.24-5.78-3.47-10.71-3.47-17.3,0-29.17,13.21-45.36,50.47-14.99,34.43-25.73,65.34-28.03,80.7-1.28,8.56-.15,14.71,3.48,18.8,4.02,4.54,10.99,6.65,21.93,6.65,25.33,0,45.43-11.94,71.56-42.52l7.15,5.05c-26.02,33.63-51.29,47.38-87.06,47.38h0Z"/>
            <path class="cls-1" d="M1086.84,358.29c-25.47,0-46.02-7.54-57.84-21.22-9.37-10.84-13.06-25.17-10.68-41.46,4.02-27.52,20.74-56.06,45.85-78.3,25.14-22.27,55.14-35.03,82.29-35.03,18.18,0,32.98,5.52,41.65,15.56,6.81,7.88,9.52,18.17,7.83,29.75-3.54,24.23-22.83,41.01-55.81,48.52-13.34,3.05-27.09,4.24-58.88,5.07l-.51.02-.19.47c-7.56,18.87-13.14,36.63-14.57,46.36-.81,5.54.27,10.08,3.21,13.47,3.95,4.58,11.03,6.89,21.04,6.89,27.72,0,52.16-13.1,81.61-43.78l6.15,5.37c-29.89,34.31-56.34,48.32-91.15,48.32h0ZM1142.1,192.18c-15.82,0-29.63,12.32-39.95,35.63-4.46,9.78-5.1,11.37-17,42.41l-.42,1.08,2.59-.1c21.44-.8,22.73-.85,31.63-3.37,20.19-5.09,35.24-25.3,39.25-52.75,1.22-8.39.22-14.32-3.08-18.14-2.75-3.18-7.13-4.78-13.03-4.78v.02Z"/>
          </g>
        </g>
        <g>
          <path class="cls-1" d="M1494.09,710.08c29.27-2.38,75.55-50.08,91.92-65.83l75.15-71.55-57.44-180.31h-27.19l3.02-9.06h158.37l-3.02,9.06h-29.1l33.58,105.89,47.14-46.27c14.4-14.79,20.45-26.23,20.98-33.87,1.41-20.03-15.36-25.76-30.63-25.76l3.02-9.06h118.3l-3.02,9.06c-29.1,0-45.37,14.31-79.64,47.22l-72.63,69.64,62.68,200.82h24.8l-3.02,9.06h-155.98l3.02-9.06h29.1l-38.78-126.88-58.88,57.24c-25.05,23.85-26.92,30.05-27.62,40.07-1.31,18.6,15.57,29.57,34.65,29.57l-3.02,9.06h-118.78l3.02-9.06Z"/>
          <path class="cls-1" d="M1941.81,373.42c26.08,13.77,57.31,17.21,87.31,17.21,31.47,0,63.29-4.92,93.99-14.75-29.93,61.96-84.83,94.42-151.22,94.42-25.08,0-37.76-1.48-49.22-6.39l-25.35,73.77c28.75-17.21,62.04-29.02,94.5-29.02,55.08,0,92.46,34.92,88.49,91.47-5.39,76.72-77.49,122.95-154.71,122.95-57.05,0-89.04-27.54-86.49-63.93,1.9-27.05,21.13-41.8,41.79-41.8s36.83,14.75,35.31,36.39c-1.8,25.57-18.08,40.33-39.72,40.33-3.93,0-7.34-.49-10.75-.98,8.9,13.28,22.85,17.7,38.1,17.7,36.88,0,47.47-17.7,61.52-49.67,11.11-25.08,26.8-66.39,28.53-90.98,1.83-26.06-12.38-40.82-39.42-40.82-24.59,0-54.18,15.24-77.56,32.95l64.92-188.85Z"/>
        </g>
      </g>
      <path class="cls-2" d="M2156.87,392.19c6.52-13.5,4.37-29.59-5.46-40.91-9.84-11.32-25.47-15.69-39.75-11.11-26.84,8.6-54.61,12.96-82.54,12.96-30.56,0-53.4-4.21-69.8-12.87-9.69-5.12-21.13-5.74-31.31-1.71-5.74,2.27-10.75,5.89-14.68,10.47-4.7-2.08-9.85-3.19-15.13-3.19h-118.3c-7.67,0-14.93,2.33-20.99,6.42-6.12-4.13-13.41-6.42-20.99-6.42h-158.37c-13.15,0-25.09,6.85-31.83,17.67-7.08-9.16-18.01-14.57-29.65-14.57h-49.54c-3.58,0-7.07.51-10.4,1.47-9.7-4.65-20.99-7.04-33.69-7.04-33.67,0-69.56,16.08-98.46,44.12-.53.52-1.06,1.04-1.59,1.57-2.11-4.92-4.58-9.69-7.42-14.26-6.85-11.02-15.58-20.46-25.7-28.02.26-.67.52-1.33.76-2.01,6.73-18.97,4.5-38.49-6.13-53.54-10.24-14.5-26.85-22.82-45.58-22.82-8.16,0-16.27,1.58-23.97,4.46,8.83-11.62,14.52-25.14,16.67-39.86,2-13.68.55-26.93-4.05-38.85h224.32c15.97,0,30.19-10.12,35.43-25.21l.52-1.51c3.87-11.16,2.25-23.48-4.33-33.25,7.24-4.43,12.95-11.29,15.86-19.7l.52-1.51c3.98-11.46,2.16-24.15-4.87-34.03-7.03-9.89-18.42-15.76-30.56-15.76h-403.74c-8.38,0-16.33,2.81-22.75,7.71-8.39-5.13-18.62-7.72-30.57-7.72h-396.27c-15.97,0-30.19,10.11-35.43,25.2l-.52,1.51c-2.79,8.04-2.73,16.69-.02,24.55l-3.85,10.6c-5.91,4.39-10.54,10.52-13.07,17.8l-.52,1.5c-.02.05-.03.11-.05.16-.16.47-.3.94-.44,1.41-.1.33-.2.66-.28.99-.13.48-.25.96-.36,1.45-.07.31-.13.63-.2.94-.07.33-.15.67-.21,1h-.41c-3.67,0-7.25.54-10.66,1.54-9.78-4.65-21.17-7.05-33.98-7.05-24.35,0-49.9,8.21-73.17,23.12.48-40.86-15.58-79.51-44.22-104.25-13.64-11.74-27.39-19.32-43.25-23.85-14.28-4.08-30.22-5.82-53.31-5.82h-128.07c-15.89,0-30.05,10.01-35.35,24.99l-3.21,9.08c-4.06,11.48-2.3,24.21,4.73,34.16,4.33,6.12,10.32,10.72,17.14,13.35l-70.29,190.62h-8.85c-15.89,0-30.05,10.01-35.35,24.99l-3.21,9.08c-4.06,11.48-2.3,24.21,4.73,34.16,7.03,9.94,18.45,15.86,30.62,15.86h130.16c30.39,0,55.69-2.86,78.32-9.41l-.4,1.03c-4.54,11.54-3.07,24.58,3.91,34.83,2.81,4.12,6.35,7.57,10.4,10.23l-41.41,113.56c-4.19,11.5-2.51,24.32,4.51,34.35s18.49,16,30.72,16h51.14c11.19,0,21.54-4.97,28.53-13.16,7.08,8.3,17.49,13.16,28.52,13.16h51.14c15.75,0,29.82-9.84,35.22-24.63l3-8.22c2.68,5.79,5.9,10.43,9.03,14.06,8.48,9.83,24.24,21.52,51.27,21.8.33,0,.65.01.98.01,21.18,0,39.82-6.56,56.97-20.05,3.33-2.62,6.65-5.54,9.98-8.78,1.09,1.44,2.22,2.84,3.4,4.21,15.21,17.53,37.08,27.19,61.6,27.19,19.86,0,36.3-5.34,50.28-13.61,11.26,8.71,25.91,13.61,42.26,13.61,17.42,0,34.03-5.04,49.53-14.97,6.78,5.99,15.58,9.4,24.82,9.4h50.15c15.81,0,29.91-9.91,35.28-24.78l2.41-6.68c2.28,4.63,5.1,8.91,8.46,12.79,12.12,13.98,30.26,21.68,51.08,21.68.32,0,.64,0,.95-.01,25.65-.28,46.27-11.68,63.51-27.89,14.92,20.23,37.14,34.13,63.75,39.62,10.71,2.25,20.91,3.38,30.52,3.38,7.62,0,14.86-.71,21.69-2.13.14-.03.28-.06.42-.09,32.06-7.05,62.52-21.27,88.07-41.12,6.98-5.42,13.54-11.25,19.65-17.42,3.42,7.74,7.84,14.81,13.25,21.04,15.21,17.53,37.08,27.19,61.6,27.19,19.86,0,36.3-5.34,50.28-13.61,11.26,8.71,25.91,13.61,42.26,13.61.34,0,.68,0,1.01-.01,20.74-.23,40.32-7.61,58.23-21.93,15.36-12.29,29-29.22,41.71-51.78,5.06-8.98,6.2-19.64,3.16-29.49-3.04-9.84-10-18-19.24-22.56l-4.9-2.42,18.68-52.3c7.05,8.73,17.67,13.88,28.95,13.95l42,131.83-58.15,55.37s-.09.09-.13.13c-1.49,1.43-3.22,3.12-5.16,5.01-8.83,8.62-22.18,21.65-35.98,32.75-18.89,15.19-27.09,17.49-28.18,17.75-14.83,1.34-27.47,11.34-32.19,25.48l-3.02,9.06c-3.81,11.44-1.9,24.01,5.15,33.79,7.05,9.78,18.37,15.58,30.42,15.58h118.78c12.48,0,23.88-6.18,30.77-16.06.11.16.23.32.34.48,7.05,9.78,18.37,15.58,30.42,15.58h155.98c10.4,0,20.04-4.29,26.95-11.43,19.8,10.03,44.12,15.37,71.27,15.37,47,0,92-14.26,126.7-40.14,38.88-29,62.11-70.79,65.41-117.67,2.6-36.98-7.91-69.28-30.41-93.41-7.56-8.11-16.3-15.02-26.01-20.64,40.99-19.12,74.13-52.1,95.59-96.53Z"/>
    </g>
  </g>
</svg>