<?xml version="1.0" encoding="UTF-8"?>
<svg id="Layer_2" data-name="Layer 2" xmlns="http://www.w3.org/2000/svg" viewBox="0 0 2171.59 798.46">
  <defs>
    <style>
      .cls-1 {
        fill: none;
        stroke: #19325b;
        stroke-miterlimit: 10;
        stroke-width: 10px;
      }

      .cls-2 {
        fill: #fff;
      }

      .cls-3 {
        fill: #19325b;
      }
    </style>
  </defs>
  <g id="Layer_1-2" data-name="Layer 1">
    <g>
      <g>
        <path class="cls-3" d="M1931.65,780.46c-25.82,0-49.18-4.86-69.65-14.47-9.41,6.81-20.87,10.65-32.63,10.65h-155.98c-11.06,0-21.75-3.33-30.75-9.32-9,5.99-19.68,9.32-30.78,9.32h-118.78c-17.79,0-34.62-8.62-45.03-23.05-10.4-14.43-13.25-33.13-7.62-50.01l3.02-9.06c6.72-20.16,24.33-34.64,45.25-37.45,2.1-.94,8.72-4.31,20.91-14.11,13.15-10.57,26.11-23.23,34.68-31.6,1.98-1.93,3.74-3.65,5.26-5.11l50.19-47.79-35.15-110.33c-2.11-.54-4.17-1.21-6.19-1.99l-5.73,16.06c9.09,6.96,15.94,16.66,19.36,27.72,4.48,14.5,2.78,30.41-4.67,43.64-13.86,24.6-28.96,43.24-46.15,57-21.11,16.88-44.4,25.59-69.24,25.88-.42,0-.83.01-1.25.01-15.8,0-30.53-3.69-43.24-10.76-15.32,7.15-31.85,10.76-49.29,10.76-29.82,0-56.52-11.86-75.2-33.4-1.33-1.53-2.61-3.1-3.84-4.72-1.46,1.19-2.93,2.37-4.42,3.52-27.66,21.48-60.59,36.87-95.25,44.49l-.64.14c-7.98,1.66-16.51,2.5-25.34,2.5-10.82,0-22.32-1.26-34.19-3.76-24.38-5.02-45.55-16.05-62.11-32.24-18.9,13.59-39.37,20.6-61.06,20.88-.45.01-.91.02-1.36.02-22.14,0-42.02-7.12-57.06-20.24-10.28,10.76-24.71,17.23-40.16,17.23h-50.15c-8.97,0-17.72-2.17-25.57-6.24-15.45,7.85-31.81,11.82-48.79,11.82-15.8,0-30.53-3.69-43.24-10.76-15.32,7.15-31.85,10.76-49.29,10.76-25.42,0-48.57-8.62-66.42-24.5-19.75,14.76-41.22,21.94-65.54,21.94-.43,0-.86,0-1.3-.02-27.4-.31-45.76-10.33-57.5-20.83-10.31,11.11-25,17.83-40.72,17.83h-51.14c-10.18,0-20.01-2.78-28.53-7.88-8.52,5.11-18.35,7.88-28.53,7.88h-51.14c-18.1,0-35.1-8.85-45.47-23.68-10.38-14.83-12.87-33.83-6.67-50.83l37.22-102.09c-1.5-1.7-2.89-3.5-4.18-5.4-4.76-6.98-7.78-14.83-9.01-22.92-17.21,2.94-36.15,4.34-57.94,4.34H73.49c-17.99,0-34.93-8.77-45.32-23.46-10.39-14.69-13-33.59-7-50.55l3.21-9.08c7.41-20.94,26.65-35.37,48.58-36.86l60.87-165.07c-3.7-3.08-7-6.64-9.82-10.63-10.39-14.69-13-33.59-7-50.55l3.21-9.08c7.83-22.12,28.86-36.98,52.32-36.98h128.07c24.85,0,42.27,1.95,58.25,6.51,18.46,5.27,34.36,14.01,50.05,27.51,25.76,22.26,42.65,53.76,48.35,89.11,18.88-8.12,38.31-12.33,57.29-12.33,11.56,0,22.34,1.67,32.19,4.96,3.06-6.6,7.36-12.49,12.71-17.41l.25-.7c-2.06-9.82-1.43-20.13,1.88-29.66l.52-1.51c7.75-22.3,28.82-37.29,52.43-37.29h20.51c3.84,0,7.66.4,11.4,1.18,3.74-.79,7.56-1.18,11.41-1.18h200.93c.29,0,.59,0,.88,0s.59,0,.88,0h150.25c10.89,0,20.85,1.77,29.75,5.29,7.35-3.45,15.44-5.29,23.57-5.29h225.49c.29,0,.59,0,.88,0h20.03c.29,0,.59,0,.88,0h21.38c.29,0,.59,0,.88,0h107.49c1.16,0,2.33.04,3.5.11,1.16-.07,2.34-.11,3.5-.11h19.71c17.92,0,34.83,8.72,45.22,23.32,10.39,14.6,13.09,33.43,7.22,50.36l-.53,1.51c-2.39,6.89-6.11,13.2-10.9,18.6,3.36,11.11,3.23,23.18-.64,34.34l-.53,1.51c-7.74,22.31-28.81,37.31-52.43,37.31h-201.82c.72,7.7.52,15.58-.63,23.45-.76,5.18-1.87,10.22-3.33,15.12,21.71,1.94,40.78,12.67,53.1,30.12,12.11,17.15,16.05,38.46,11.33,59.75,6.51,6.04,12.32,12.79,17.37,20.16,29.11-22.68,62.88-35.4,95.14-35.4,12.87,0,24.79,2.1,35.51,6.24,2.83-.44,5.7-.66,8.57-.66h49.54c10.03,0,19.83,2.79,28.33,7.83,9.41-7.02,20.94-10.93,33.15-10.93h158.37c7.26,0,14.37,1.4,20.99,4.11,6.62-2.71,13.73-4.11,20.99-4.11h118.3c17.79,0,34.63,8.62,45.03,23.05.26.37.52.73.78,1.1,32.32-14.13,67.21-21.3,103.77-21.3,17.61,0,37.15,1.9,58.08,5.64,16.78,3,31.52,13.81,39.42,28.92,7.9,15.11,8.37,33.38,1.26,48.88l-3.94,8.59c-9.02,19.65-28.82,32.34-50.44,32.34h0c-2.84,0-5.7-.22-8.51-.66-3.49-.54-6.33-.77-9.51-.77-11.08,0-19.78,0-28.88,6.99,18.67,6.67,35.2,17.48,48.75,32.02,25.38,27.23,38.3,66.18,35.44,106.86-3.76,53.44-26.38,99.11-65.43,132.07-35.83,30.24-83.54,46.9-134.35,46.9Z"/>
        <path class="cls-2" d="M300.62,36c23.08,0,39.03,1.74,53.31,5.82,15.86,4.53,29.61,12.11,43.25,23.85,28.63,24.73,44.7,63.39,44.22,104.25,23.27-14.91,48.81-23.12,73.17-23.12,12.81,0,24.19,2.4,33.97,7.05,3.4-1.01,6.98-1.54,10.66-1.54h.41c.06-.33.14-.66.21-.99.06-.32.13-.63.2-.95.11-.48.23-.97.36-1.45.09-.33.19-.66.29-.99.14-.47.28-.94.44-1.4.02-.05.03-.11.05-.16l.52-1.5c2.53-7.29,7.16-13.42,13.07-17.81l3.85-10.6c-2.72-7.86-2.78-16.51.02-24.56l.52-1.51c5.24-15.08,19.46-25.19,35.42-25.19h20.51c3.94,0,7.78.62,11.41,1.77,3.62-1.16,7.46-1.77,11.41-1.77h201.07c.25,0,.49,0,.74,0s.49,0,.74,0h150.39c11.95,0,22.18,2.59,30.57,7.72,6.42-4.91,14.37-7.72,22.75-7.72h225.49c.24,0,.48,0,.72,0h20.35c.24,0,.48,0,.72,0h21.38c.24,0,.48,0,.72,0h107.65c1.17,0,2.34.05,3.5.16,1.16-.11,2.32-.16,3.5-.16h19.71c12.13,0,23.52,5.87,30.55,15.76,7.04,9.89,8.85,22.57,4.88,34.03l-.52,1.51c-2.92,8.41-8.62,15.27-15.87,19.7,6.58,9.77,8.2,22.08,4.33,33.24l-.52,1.51c-5.23,15.09-19.46,25.21-35.43,25.21h-224.32c4.61,11.92,6.05,25.16,4.05,38.85-2.15,14.72-7.84,28.24-16.67,39.86,7.71-2.88,15.81-4.46,23.97-4.46,18.72,0,35.34,8.32,45.58,22.82,10.63,15.05,12.86,34.57,6.13,53.54-.24.67-.5,1.34-.76,2.01,10.12,7.56,18.85,17.01,25.7,28.02,2.84,4.57,5.31,9.33,7.42,14.26.53-.52,1.05-1.05,1.59-1.57,28.9-28.04,64.79-44.12,98.46-44.12,12.7,0,23.99,2.4,33.69,7.04,3.32-.96,6.82-1.47,10.4-1.47h49.54c11.64,0,22.57,5.41,29.65,14.56,6.74-10.82,18.68-17.67,31.83-17.67h158.37c7.58,0,14.87,2.29,20.99,6.42,6.06-4.09,13.32-6.42,20.99-6.42h118.3c12.06,0,23.38,5.8,30.42,15.58,3.25,4.51,5.39,9.62,6.4,14.93,4.45-2.37,8.96-4.61,13.56-6.69,30.76-13.91,64.13-20.96,99.19-20.96,16.55,0,35.03,1.8,54.91,5.35,11.42,2.04,21.26,9.25,26.64,19.54,5.38,10.28,5.69,22.48.85,33.02l-3.94,8.59c-6.18,13.47-19.6,21.85-34.08,21.85-1.91,0-3.83-.15-5.76-.44-4.38-.68-8.17-.99-12.27-.99-22.9,0-40.56,2.38-60.91,35.98,26.52,3.02,50.16,14.58,67.62,33.31,21.99,23.59,33.16,57.6,30.65,93.32-3.41,48.48-23.84,89.83-59.09,119.58-32.59,27.5-76.18,42.65-122.74,42.65-31.78,0-55.4-8.09-72.61-18.4-6.96,9.02-17.83,14.59-29.68,14.59h-155.98c-12.05,0-23.38-5.8-30.42-15.58-.12-.16-.23-.32-.34-.48-6.89,9.88-18.29,16.06-30.77,16.06h-118.78c-12.06,0-23.38-5.8-30.42-15.58-7.05-9.78-8.96-22.35-5.15-33.79l3.02-9.06c4.72-14.14,17.36-24.14,32.19-25.48,1.09-.25,9.29-2.56,28.18-17.75,13.8-11.1,27.15-24.13,35.98-32.75,1.94-1.89,3.67-3.58,5.16-5.01.04-.04.09-.09.13-.13l58.15-55.37-42-131.83c-11.29-.07-21.91-5.21-28.95-13.95l-18.68,52.3,4.9,2.42c9.24,4.56,16.2,12.72,19.24,22.56,3.04,9.84,1.9,20.51-3.16,29.49-12.71,22.55-26.36,39.49-41.71,51.78-17.92,14.34-37.53,21.72-58.29,21.93-.32,0-.63.01-.95.01-16.34,0-31-4.9-42.26-13.61-13.97,8.26-30.41,13.61-50.28,13.61-24.52,0-46.39-9.65-61.6-27.19-5.4-6.23-9.83-13.3-13.25-21.04-6.11,6.17-12.67,11.99-19.65,17.42-25.56,19.85-56.01,34.07-88.07,41.12-.14.03-.28.06-.43.09-6.83,1.42-14.07,2.13-21.69,2.13-9.6,0-19.79-1.12-30.49-3.37-26.62-5.48-48.85-19.39-63.77-39.63-17.22,16.2-37.82,27.59-63.44,27.88-.34,0-.68.01-1.01.01-20.82,0-38.97-7.7-51.08-21.68-3.35-3.88-6.18-8.16-8.46-12.79l-2.41,6.68c-5.36,14.87-19.47,24.78-35.28,24.78h-50.15c-9.24,0-18.04-3.41-24.82-9.4-15.5,9.93-32.11,14.97-49.53,14.97-16.34,0-31-4.9-42.26-13.61-13.97,8.26-30.41,13.61-50.28,13.61-24.52,0-46.4-9.65-61.6-27.19-1.18-1.36-2.31-2.77-3.4-4.21-3.34,3.25-6.65,6.17-9.98,8.78-17.16,13.49-35.79,20.05-56.97,20.05-.33,0-.65,0-.98-.01-27.03-.27-42.79-11.97-51.28-21.8-3.13-3.62-6.36-8.27-9.03-14.06l-3,8.22c-5.4,14.79-19.47,24.63-35.22,24.63h-51.14c-11.03,0-21.44-4.85-28.53-13.16-6.99,8.19-17.33,13.16-28.53,13.16h-51.14c-12.24,0-23.71-5.97-30.72-16-7.02-10.03-8.7-22.85-4.51-34.35l41.41-113.56c-4.05-2.66-7.6-6.11-10.4-10.23-6.98-10.25-8.45-23.29-3.91-34.83l.4-1.03c-22.62,6.56-47.92,9.41-78.32,9.41H73.49c-12.18,0-23.59-5.91-30.62-15.85-7.03-9.94-8.79-22.68-4.73-34.16l3.21-9.08c5.3-14.98,19.46-24.99,35.35-24.99h8.85l70.29-190.62c-6.81-2.62-12.81-7.22-17.14-13.35-7.03-9.94-8.79-22.68-4.73-34.16l3.21-9.08c5.3-14.98,19.46-24.99,35.35-24.99h128.07M300.62,0h-128.07c-31.08,0-58.92,19.68-69.29,48.98l-3.21,9.08c-7.95,22.46-4.48,47.49,9.27,66.95,1.16,1.64,2.38,3.23,3.67,4.76l-53.25,144.41c-23.89,5.69-43.88,23.16-52.31,46.98l-3.21,9.08c-7.95,22.46-4.49,47.49,9.27,66.95,13.75,19.46,36.19,31.07,60.02,31.07h130.16c16.33,0,31.18-.76,44.99-2.33,1.63,3.89,3.6,7.66,5.91,11.27l-33.9,92.97c-8.21,22.52-4.91,47.68,8.83,67.32,13.74,19.64,36.25,31.36,60.22,31.36h51.14c9.93,0,19.61-2,28.53-5.75,8.92,3.75,18.6,5.75,28.53,5.75h51.14c14.88,0,29.21-4.43,41.48-12.82,2.7,1.7,5.49,3.27,8.37,4.71,14.32,7.16,30.49,10.9,48.06,11.11.54.01,1.07.02,1.61.02,23.29,0,44.99-5.96,64.71-17.75,19.23,13.23,42.34,20.31,67.25,20.31,17.05,0,33.36-3,48.72-8.95,13.35,5.9,28.17,8.95,43.81,8.95,16.99,0,33.4-3.38,49.04-10.07,8.04,2.95,16.6,4.5,25.31,4.5h50.15c14.85,0,28.98-4.51,40.81-12.42,16.2,10.07,35.5,15.43,56.41,15.43.57,0,1.13,0,1.69-.02,20.86-.28,40.64-5.79,59.14-16.43,3.86,3.02,7.89,5.84,12.1,8.46,14.44,8.99,30.55,15.36,47.9,18.95,13.08,2.75,25.83,4.14,37.89,4.14,10.05,0,19.82-.97,29.01-2.88.24-.05.52-.11.81-.17,33.62-7.4,65.73-21.58,93.53-41.25,21.51,20.56,50,31.77,81.34,31.77,17.05,0,33.36-3,48.72-8.95,13.35,5.9,28.17,8.95,43.81,8.95.53,0,1.05,0,1.58-.02,19.77-.25,38.64-5.02,56.36-14.23-3.39,3-6.86,5.96-10.32,8.74-7.89,6.34-12.85,9.46-15.23,10.8-26.29,4.72-48.16,23.43-56.72,49.09l-3.02,9.06c-7.45,22.35-3.68,47.11,10.1,66.23,13.78,19.11,36.07,30.53,59.63,30.53h118.78c10.78,0,21.27-2.37,30.79-6.76,9.53,4.39,20,6.76,30.75,6.76h155.98c11.29,0,22.6-2.65,32.7-7.68.48-.24.96-.48,1.43-.73,20.56,8.12,43.39,12.22,68.16,12.22,55.05,0,106.89-18.16,145.96-51.14,21.34-18.02,38.35-39.66,50.54-64.33,12.07-24.42,19.22-51.42,21.24-80.23,3.21-45.65-11.45-89.53-40.23-120.4-2.48-2.66-5.06-5.22-7.73-7.67,25.72-2.58,48.58-18.67,59.51-42.46l3.94-8.59c4.66-10.14,6.97-21.4,6.68-32.56-.29-11.16-3.17-22.28-8.34-32.17-5.17-9.89-12.66-18.61-21.66-25.21-9-6.6-19.56-11.13-30.55-13.09-21.97-3.92-42.57-5.91-61.24-5.91-34.43,0-67.51,5.96-98.56,17.74-13.58-13.07-31.88-20.6-51.02-20.6h-118.3c-7.17,0-14.23,1.03-20.99,3.05-6.76-2.01-13.82-3.05-20.99-3.05h-158.37c-11.87,0-23.62,2.9-34.11,8.4-8.67-3.47-18.03-5.29-27.37-5.29h-49.54c-2.17,0-4.33.1-6.49.29-11.6-3.89-24.2-5.86-37.6-5.86-30.89,0-62.86,10.24-91.61,28.83-.53-.59-1.07-1.17-1.61-1.75,2.7-22.85-2.75-45.33-15.91-63.97-8.43-11.94-19.81-21.72-32.9-28.27-4.34-2.17-8.88-3.99-13.56-5.46.29-2.19.52-4.39.69-6.58h183.75c31.28,0,59.19-19.86,69.44-49.41l.52-1.5c4.04-11.65,5-24.04,3.05-35.98,3.53-5.24,6.4-10.94,8.49-16.97l.52-1.49c7.78-22.44,4.21-47.37-9.55-66.71-13.76-19.34-36.15-30.89-59.89-30.89h-19.71c-1.16,0-2.33.03-3.5.08-1.17-.06-2.33-.08-3.5-.08h-107.36c-.34,0-.67,0-1.01,0h-21.38c-.34,0-.67,0-1.01,0h-19.77c-.34,0-.67,0-1.01,0h-225.49c-8.19,0-16.34,1.41-24.06,4.08-9.07-2.72-18.85-4.08-29.27-4.08h-150.13c-.34,0-.67,0-1.01,0s-.67,0-1.01,0h-200.8c-3.83,0-7.64.3-11.41.89-3.76-.59-7.57-.89-11.4-.89h-20.51c-31.27,0-59.17,19.84-69.43,49.38l-.53,1.51c-3.33,9.59-4.61,19.78-3.83,29.83-.84,1-1.66,2.03-2.44,3.08-7.59-1.46-15.52-2.19-23.76-2.19-14.69,0-29.57,2.22-44.29,6.53-1.92-6.7-4.23-13.24-6.9-19.58-9.76-23.13-24.51-43.65-42.66-59.33l-.03-.02-.03-.02c-17.49-15.05-36.09-25.25-56.85-31.17-17.68-5.05-36.58-7.2-63.19-7.2h0ZM1572.71,559.34c1.89-2.86,3.75-5.82,5.59-8.86l.86,2.71-6.46,6.15h0Z"/>
      </g>
      <g>
        <g>
          <g>
            <path class="cls-2" d="M1131.28,541.39c1.22-3.5,4.01-12.55,8.66-24.66,13.34-34.68,33.73-93.49,42.36-116.49.61-1.62-2.5-5.47-6.24-3.1-3.74,2.37-7.2,5.38-8.59,5.38-1.97,0-3.38-.83-3.93-2.69-.6-2.07,1.2-4.85,3.23-7.08,3.74-4.1,13.12-13.31,29.9-22.32.48-.25.2-.99-.33-.85-48.5,12.25-95.55,51.55-113,99.31-18.49,50.63,2.49,92.79,47.28,101.98.64.13,1.17-.5.95-1.11-1.8-4.77-6.57-10.37-.28-28.39h0Z"/>
            <path class="cls-2" d="M1237.38,365.85c-1.93-.21,1,1.98,2.47,4.19,2.86,4.31,3.95,12.55.76,22.53-3.88,12.13-42.14,114.23-47.03,126.19-1.83,4.48-.72,7.68,1.83,8.37,3.19.85,11.34-.64,28.57-15.24,5.94-5.03,10.38-4.76,6.38,2.45-4.34,7.8-16.57,24.54-38.14,42.43-7.1,5.89-17.68,11.12-25.02,14.29-.62.27-.32,1.22.35,1.07,50.35-11.08,103.21-45.49,124.32-103.22,18.95-51.85-8.38-98.07-54.48-103.06Z"/>
            <path class="cls-2" d="M1207.27,334.22c5.17-14.53,20.87-26.31,35.07-26.31s21.53,11.78,16.37,26.31c-5.17,14.53-20.87,26.31-35.07,26.31s-21.53-11.78-16.37-26.31Z"/>
            <path class="cls-2" d="M596.57,158.66l.52-1.51c6.44,0,9.28-7.31,11.98-14.79l11.38-31.33-2.52-6.84h-3.9l.52-1.51h20.51l16.44,41.65h.16l10.44-29.5c.62-1.67,1.14-4.05,1.23-5.17.28-3.34-1.68-5.48-5.58-5.48h-.4l.52-1.51h17.17l-.52,1.51c-5.72,0-7.78,3.65-9.73,8.82l-16.72,45.63h-8.51l-18.03-45.47-9.94,27.43c-1.67,4.69-2.54,8.43-2.71,10.41-.37,4.38,2.42,6.12,6.4,6.12l-.52,1.51h-18.2,0Z"/>
            <path class="cls-2" d="M707.27,101.57c14.47,0,23.32,10.1,22.17,23.77-1.53,18.13-16.97,34.43-37.32,34.43-13.35,0-24.07-8.67-22.8-23.77,1.38-16.3,14.83-34.43,37.96-34.43h0ZM691.24,157.78c4.61,0,8.63-2.38,13.21-12.4,5.46-12.01,10.12-24.8,10.84-33.39.48-5.65-3.51-8.43-7.16-8.43-5.17,0-9,3.02-11.71,7.87-5.15,9.3-12.23,29.1-12.94,37.44-.48,5.65,2.35,8.91,7.75,8.91h0Z"/>
            <path class="cls-2" d="M724.63,158.66l.52-1.51c6.44,0,9.28-7.31,11.98-14.79l11.38-31.33-2.52-6.84h-3.9l.52-1.51h20.51l16.44,41.65h.16l10.44-29.5c.62-1.67,1.14-4.05,1.23-5.17.28-3.34-1.68-5.48-5.58-5.48h-.4l.52-1.51h17.17l-.52,1.51c-5.72,0-7.78,3.65-9.73,8.82l-16.72,45.63h-8.51l-18.03-45.47-9.94,27.43c-1.67,4.69-2.54,8.43-2.71,10.41-.37,4.38,2.42,6.12,6.4,6.12l-.52,1.51h-18.2,0Z"/>
            <path class="cls-2" d="M797.18,139.1h1.75c-.31.79-.38,1.67-.45,2.55-.76,9.06,5,16.14,14.22,16.14,5.72,0,13.48-3.41,14.07-10.41,1.15-13.67-24.52-8.98-22.92-27.98,1.02-12.01,12.47-17.8,23.37-17.8,8.58,0,11.21,2.78,15.67,2.78,1.75,0,3.81-.88,4.87-3.02h1.75l-6.79,18.28h-1.51c.8-9.54-2.22-16.06-12.4-16.06-5.09,0-11.01,3.26-11.48,8.91-1.01,11.92,23.68,7.63,22.1,26.47-1.19,14.15-15.19,20.83-27.43,20.83-7.24,0-13.74-3.98-16.67-3.98-1.43,0-2.61.72-3.2,2.15h-1.75l6.84-18.84h-.02Z"/>
            <path class="cls-2" d="M859.71,102.69h48.73l-6.23,17.33h-1.75c.25-1.03.43-2.31.53-3.5.55-6.6-1.82-12.32-9.38-12.32l-19.01,52.95h5.01l-.61,1.51h-26.31l.61-1.51h5.09l18.85-52.95c-8.98,0-16.57,7.95-20.08,15.66h-1.83l6.38-17.17h0Z"/>
            <path class="cls-2" d="M941.37,101.57c14.47,0,23.32,10.1,22.17,23.77-1.53,18.13-16.97,34.43-37.32,34.43-13.35,0-24.07-8.67-22.8-23.77,1.38-16.3,14.83-34.43,37.96-34.43h0ZM925.34,157.78c4.61,0,8.63-2.38,13.21-12.4,5.46-12.01,10.12-24.8,10.84-33.39.48-5.65-3.51-8.43-7.16-8.43-5.17,0-9,3.02-11.71,7.87-5.15,9.3-12.23,29.1-12.94,37.44-.48,5.65,2.35,8.91,7.75,8.91h0Z"/>
            <path class="cls-2" d="M984.78,104.2h-5.17l.52-1.51h30.69c12.08,0,16,4.45,15.27,13.04-.7,8.27-7.92,17.57-23.5,17.57h-11.92l-8.53,23.85h5.25l-.52,1.51h-26.55l.52-1.51h4.85l19.09-52.95ZM991.2,131.78h4.29c5.25,0,7.27-1.35,9.45-4.61,2-2.94,5.41-11.44,5.88-17.01.42-5.01-2.75-5.96-6.34-5.96h-3.34l-9.96,27.59h0Z"/>
            <path class="cls-2" d="M1043.58,157.14c5.48-.88,8.62-6.12,12.06-15.74l13.39-37.2h-5.65l.76-1.51h20.83l-2.33,37.12h.16l23.96-37.12h21.38l-.76,1.51h-5.01l-19.09,52.95h5.72l-.76,1.51h-25.76l.76-1.51h4.29l19.52-51.44h-.16l-34.19,52.95h-5.8l2.96-51.2h-.16l-12.91,36.25c-1.65,4.53-2.07,6.6-2.18,7.87-.35,4.14,2.39,5.57,5.89,5.57l-.76,1.51h-16.85l.68-1.51h0Z"/>
            <path class="cls-2" d="M1139.61,104.2h-5.17l.52-1.51h45.71l-5.1,18.04h-1.51c1.1-13.04-3.06-16.54-13.24-16.54h-4.85l-8.84,24.64h5.09c5.48,0,10.04-1.19,13.99-8.51h1.75l-7.45,20.43h-1.83c.34-1.19.52-2.31.6-3.34.32-3.74-1.39-7.08-6.95-7.08h-5.72l-9.65,26.79h5.57c9.86,0,20.16-4.29,26.55-15.98h1.75l-7.04,17.49h-48.65l.52-1.51h4.85l19.09-52.95h.02Z"/>
            <path class="cls-2" d="M1241.74,102.69l-7.63,20.75h-1.75c.28-1.43.48-2.78.59-4.21.68-8.11-2.81-15.66-12.44-15.66-4.61,0-8.31,2.46-10.96,7.39-6.58,12.08-12.35,29.57-13.05,37.92-.48,5.64,2.35,8.91,7.75,8.91,5.96,0,9.04-5.48,10.81-10.41l3.24-9.14h-4.05l.53-1.59h23.61l-.52,1.51h-3.5l-4.84,13.11c-6.16,5.17-15.03,8.51-24.57,8.51-13.67,0-24.41-8.43-23.12-23.77,1.38-16.3,15.94-34.43,37.4-34.43,9.22,0,12.33,3.74,15.58,3.74,2.55,0,3.89-.88,5.15-2.62h1.75v.02Z"/>
            <path class="cls-2" d="M1267.62,142.67h-16.85l-2.35,3.41c-2.45,3.58-2.97,5.01-3.08,6.36-.32,3.81,3.5,4.69,6.12,4.69l-.52,1.51h-19.4l.52-1.51c6.76,0,10.12-5.01,15.93-13.59l28.09-40.86h6.36l1.22,54.45h4.61l-.52,1.51h-25.2l.52-1.51h4.69l-.13-14.47h0ZM1251.84,141.17h15.82l-.17-22.5h-.16l-15.49,22.5Z"/>
            <path class="cls-2" d="M1290.87,157.14c5.48-.88,8.62-6.12,12.06-15.74l13.39-37.2h-5.65l.76-1.51h20.83l-2.33,37.12h.16l23.96-37.12h21.38l-.76,1.51h-5.01l-19.09,52.95h5.72l-.76,1.51h-25.76l.76-1.51h4.29l19.52-51.44h-.16l-34.19,52.95h-5.8l2.96-51.2h-.16l-12.91,36.25c-1.65,4.53-2.07,6.6-2.18,7.87-.35,4.14,2.39,5.57,5.89,5.57l-.76,1.51h-16.85l.68-1.51h0Z"/>
            <path class="cls-2" d="M1387.79,104.2h-5.17l.52-1.51h26.87l-.52,1.51h-5.32l-19.01,52.95h5.25l-.52,1.51h-26.55l.52-1.51h4.85l19.09-52.95h0Z"/>
            <path class="cls-2" d="M1399.78,157.14c4.88-.4,12.71-8.34,15.47-10.97l12.69-11.92-9.15-30.05h-4.53l.52-1.51h26.4l-.52,1.51h-4.85l5.35,17.65,7.96-7.71c2.43-2.46,3.47-4.38,3.58-5.65.28-3.34-2.5-4.29-5.05-4.29l.52-1.51h19.71l-.52,1.51c-4.85,0-7.6,2.38-13.38,7.87l-12.27,11.61,9.98,33.47h4.14l-.52,1.51h-26l.52-1.51h4.85l-6.17-21.14-9.94,9.54c-4.23,3.98-4.55,5.01-4.7,6.68-.26,3.1,2.52,4.93,5.71,4.93l-.52,1.51h-19.8l.52-1.51h0Z"/>
            <path class="cls-2" d="M773.04,560.94c-13,0-22.5-5.45-26.07-14.94-2.02-5.15-2.74-9.78-1.65-23.67l.2-2.52-1.57,1.98c-22.27,28.17-40.06,39.15-63.44,39.15-13.67,0-25.18-4.93-33.27-14.26-10.65-12.28-14.76-31.42-11.55-53.88,3.88-27.19,18.73-55.04,40.75-76.4,21.97-21.31,48.34-33.54,72.35-33.54,19.75,0,29.67,8.4,34.26,28.98l.58,2.61,9.25-26.01h49.54l-50.76,142.15-.48,1.79c-.73,2.71-1.36,5.04-1.57,6.51-.24,1.65.06,3.01.85,3.91.49.57,1.44,1.25,3.14,1.25,9.19,0,22.13-13.67,39.54-41.78l8.21,4.05c-20.43,36.25-43.4,54.63-68.29,54.63ZM751.44,392.47c-15.41,0-26.53,14.73-47.58,63.05-15.88,36.92-25.42,64.41-27.57,79.5-.73,5.12-.03,8.96,2.08,11.4,1.85,2.12,4.75,3.2,8.66,3.2,16.07,0,37.46-14.94,53.22-37.19,15.14-21.3,30.07-54.76,33.98-76.18,2.47-13.66-.44-27.46-7.6-36.03-4.23-5.07-9.48-7.74-15.19-7.74Z"/>
            <path class="cls-2" d="M994.77,558.37c-9.93,0-17.79-3.02-22.74-8.74-5.4-6.24-7.38-15.67-5.7-27.26.95-6.56,3.41-16.04,6.76-26.01l31.06-86.58c.22-.72.43-1.36.62-1.97.57-1.78.98-3.06,1.08-3.75.25-1.75-.14-3.28-1.13-4.43-1.15-1.32-2.98-2.02-5.3-2.02-8.29,0-25.03,10.64-38.12,24.24-17.6,18.35-30.22,39.98-40.9,70.15l-22.85,63.36h-50.15l56.44-157.75h-30.18l3.55-9.18h32.7c14.4,0,32.24-1.64,49.15-4.51l-16.17,45.05,1.34.72c24.31-32.26,49.34-47.28,78.76-47.28,11.73,0,20.65,3.15,25.81,9.1,3.89,4.5,5.42,10.54,4.42,17.46-.5,3.48-1.57,8.8-3.78,14.41l-35.52,99.48c-.9,2.61-3.04,8.99-3.5,12.15-.34,2.35,0,4.14,1.04,5.32.89,1.03,2.25,1.55,4.04,1.55,7.57,0,18.7-11.62,37.23-38.85.27-.27.58-.74,1.08-1.47.57-.84,1.32-1.95,2.3-3.2l7.51,4.02c-25.64,39.74-45.62,55.96-68.85,55.96h0Z"/>
            <path class="cls-2" d="M1450.71,560.94c-13,0-22.5-5.45-26.07-14.94-2.02-5.15-2.74-9.78-1.65-23.67l.2-2.52-1.57,1.98c-22.27,28.17-40.06,39.15-63.44,39.15-13.67,0-25.18-4.93-33.27-14.26-10.65-12.28-14.76-31.42-11.55-53.88,3.88-27.19,18.73-55.04,40.75-76.4,21.97-21.31,48.34-33.54,72.35-33.54,19.75,0,29.67,8.4,34.26,28.98l.58,2.61,9.25-26.01h49.54l-50.76,142.15-.48,1.78c-.73,2.71-1.36,5.05-1.57,6.51-.24,1.65.06,3.01.85,3.91.49.57,1.44,1.25,3.14,1.25,9.19,0,22.13-13.67,39.54-41.78l8.21,4.05c-20.43,36.25-43.4,54.63-68.29,54.63h0ZM1429.11,392.47c-15.41,0-26.53,14.73-47.58,63.05-15.89,36.92-25.42,64.41-27.57,79.5-.73,5.12-.03,8.96,2.08,11.4,1.85,2.12,4.75,3.2,8.66,3.2,16.07,0,37.46-14.94,53.22-37.19,15.14-21.3,30.07-54.76,33.98-76.18,2.47-13.66-.44-27.46-7.6-36.03-4.23-5.07-9.48-7.74-15.19-7.74Z"/>
            <path class="cls-2" d="M548.54,558.37c-10.78,0-18.81-2.96-23.86-8.81-5.43-6.29-7.27-15.73-5.46-28.04,1.15-7.83,4.05-18.45,7.58-27.7l30.21-82.74c.29-.98.55-1.85.79-2.61.54-1.76.93-3.03,1.07-3.97.22-1.5-.15-2.86-1.07-3.93-1.17-1.35-3.13-2.1-5.53-2.1-11.16,0-26.86,10.57-43.07,28.98-19.01,21.97-26.57,35.79-40.46,73.98l-19.7,53.94h-51.14l52.66-144.25c.67-1.38.86-2.71,1.18-4.91.42-2.89.06-4.95-1.12-6.32-1.08-1.25-2.76-1.85-5.17-1.85-9.01,0-27.82,12.22-41.92,27.25-17.49,17.89-29.55,39.24-42.99,76.14l-19.7,53.94h-51.14l57.52-157.75h-30.76l3.61-9.18h33.34c14.47,0,32.22-1.6,50.11-4.51l-15.16,42.06,1.29.78c26.75-29.54,52.28-43.9,78.06-43.9,11.98,0,21.17,3.31,26.59,9.59,4.5,5.21,6.22,12.41,4.99,20.83-.42,2.85-1.57,7.89-3.18,12.73l1.3.76c28.26-31.18,50.61-43.9,77.18-43.9,12.5,0,21.91,3.25,27.23,9.41,4.22,4.88,5.77,11.38,4.61,19.29-.52,3.54-1.6,8.84-3.78,13.96l-36.07,98.63c-2.25,6.39-3.17,9.46-3.5,11.73-.32,2.22,0,3.89.94,4.99.84.97,2.13,1.46,3.84,1.46,9.02,0,19.44-10.58,42.71-43.45l7.57,4.76c-27.3,40.9-44.92,54.73-69.57,54.73h0Z"/>
            <path class="cls-2" d="M73.49,354.78l3.21-9.08h34.99L208.72,82.58h-39.39l3.21-9.08h128.07c36.91,0,53.76,4.81,72.1,20.59,23.73,20.5,35.2,55.33,29.94,90.9-6.85,46.27-31.88,93.53-65.32,123.35-38.79,34.73-72.52,46.44-133.69,46.44H73.49ZM171.31,345.7h40.91c25.33,0,43.98-2.4,58.64-14.33,12.87-10.47,22.52-27.4,35.63-62.49,21.04-55.89,37.37-110.54,41.62-139.22,2.36-15.94.24-27.42-6.49-35.1-7.06-8.06-19.27-11.98-37.31-11.98h-35.98l-97.02,263.12h.02Z"/>
            <path class="cls-2" d="M539.13,360.29c-13.17,0-22.8-5.38-26.41-14.76-2.05-5.08-2.77-9.66-1.66-23.39l.2-2.48-1.56,1.93c-22.56,27.85-40.57,38.7-64.24,38.7-14.07,0-25.86-5.02-34.07-14.52-10.5-12.14-14.52-30.9-11.32-52.82,3.92-26.87,18.96-54.4,41.25-75.51,22.24-21.07,48.95-33.16,73.26-33.16,20,0,30.06,8.3,34.69,28.64l.58,2.54,9.36-25.67h50.17l-51.38,140.5-.48,1.76c-.74,2.68-1.38,4.99-1.59,6.45-.24,1.62.05,2.95.84,3.85.5.58,1.45,1.26,3.19,1.26,9.3,0,22.4-13.51,40.02-41.31l8.31,4.01c-20.68,35.83-43.94,53.98-69.14,53.98h0ZM517.27,193.76c-15.6,0-26.85,14.56-48.16,62.32-16.08,36.49-25.74,63.67-27.92,78.6-.73,5.01-.05,8.78,2.04,11.2,1.86,2.15,4.83,3.24,8.83,3.24,16.27,0,37.92-14.77,53.87-36.76,15.34-21.06,30.45-54.14,34.4-75.31,2.47-13.31-.38-26.85-7.44-35.34-4.32-5.2-9.72-7.94-15.61-7.94h0Z"/>
            <path class="cls-2" d="M760.87,360.05c-10,0-17.9-3.02-22.85-8.74-5.33-6.16-7.27-15.44-5.6-26.82.95-6.48,3.41-15.86,6.77-25.71l31.06-85.58c.22-.71.44-1.36.63-1.96.57-1.75.98-3.01,1.08-3.7.25-1.72-.13-3.23-1.11-4.36-1.15-1.32-2.98-2.02-5.32-2.02-8.29,0-25.04,10.53-38.12,23.97-17.61,18.14-30.23,39.52-40.92,69.35l-22.86,62.63h-50.17l56.46-155.94h-30.19l3.54-9.05h32.72c14.41,0,32.25-1.62,49.15-4.45l-16.17,44.52,1.33.73c24.32-31.89,49.35-46.73,78.79-46.73,11.81,0,20.77,3.15,25.9,9.1,3.83,4.43,5.33,10.36,4.34,17.14-.5,3.44-1.57,8.7-3.78,14.23l-35.53,98.34c-.9,2.58-3.04,8.88-3.5,12.01-.34,2.31,0,4.08,1.02,5.25.89,1.04,2.26,1.56,4.05,1.56,7.57,0,18.7-11.48,37.24-38.4.27-.26.58-.73,1.08-1.45.57-.83,1.32-1.93,2.3-3.16l7.51,3.97c-25.64,39.27-45.63,55.31-68.87,55.31v-.02Z"/>
            <path class="cls-2" d="M913.23,360.29c-23.84,0-43.42-7.28-55.11-20.48-10-11.29-13.92-26.32-11.36-43.48,4.71-31.46,28.27-67.19,58.62-88.9,22.42-15.87,44.99-23.58,68.98-23.58,19.58,0,34.79,5,42.84,14.08,5.35,6.05,7.4,13.55,6.08,22.33-2.15,14.34-13.91,24.34-28.61,24.34-6.51,0-12.1-2.27-15.74-6.38-3.71-4.18-5.21-10.04-4.25-16.47.62-4.09,1.35-6.48,5.38-15.48.15-.37.29-.71.43-1.02.53-1.24.98-2.32,1.15-3.41.25-1.72-.22-3.31-1.37-4.61-1.98-2.24-5.78-3.47-10.71-3.47-17.3,0-29.17,13.21-45.36,50.47-14.99,34.43-25.73,65.34-28.03,80.7-1.28,8.56-.15,14.71,3.48,18.8,4.02,4.54,10.99,6.65,21.93,6.65,25.33,0,45.43-11.94,71.56-42.52l7.15,5.05c-26.02,33.63-51.29,47.38-87.06,47.38h0Z"/>
            <path class="cls-2" d="M1088.84,360.29c-25.47,0-46.02-7.54-57.84-21.22-9.37-10.84-13.06-25.17-10.68-41.46,4.02-27.52,20.74-56.06,45.85-78.3,25.14-22.27,55.14-35.03,82.29-35.03,18.18,0,32.98,5.52,41.65,15.56,6.81,7.88,9.52,18.17,7.83,29.75-3.54,24.23-22.83,41.01-55.81,48.52-13.34,3.05-27.09,4.24-58.88,5.07l-.51.02-.19.47c-7.56,18.87-13.14,36.63-14.57,46.36-.81,5.54.27,10.08,3.21,13.47,3.95,4.58,11.03,6.89,21.04,6.89,27.72,0,52.16-13.1,81.61-43.78l6.15,5.37c-29.89,34.31-56.34,48.32-91.15,48.32h0ZM1144.1,194.18c-15.82,0-29.63,12.32-39.95,35.63-4.46,9.78-5.1,11.37-17,42.41l-.42,1.08,2.59-.1c21.44-.8,22.73-.85,31.63-3.37,20.19-5.09,35.24-25.3,39.25-52.75,1.22-8.39.22-14.32-3.08-18.14-2.75-3.18-7.13-4.78-13.03-4.78v.02Z"/>
          </g>
          <g>
            <path class="cls-2" d="M1131.28,541.39c1.22-3.5,4.01-12.55,8.66-24.66,13.34-34.68,33.73-93.49,42.36-116.49.61-1.62-2.5-5.47-6.24-3.1-3.74,2.37-7.2,5.38-8.59,5.38-1.97,0-3.38-.83-3.93-2.69-.6-2.07,1.2-4.85,3.23-7.08,3.74-4.1,13.12-13.31,29.9-22.32.48-.25.2-.99-.33-.85-48.5,12.25-95.55,51.55-113,99.31-18.49,50.63,2.49,92.79,47.28,101.98.64.13,1.17-.5.95-1.11-1.8-4.77-6.57-10.37-.28-28.39h0Z"/>
            <path class="cls-2" d="M1237.38,365.85c-1.93-.21,1,1.98,2.47,4.19,2.86,4.31,3.95,12.55.76,22.53-3.88,12.13-42.14,114.23-47.03,126.19-1.83,4.48-.72,7.68,1.83,8.37,3.19.85,11.34-.64,28.57-15.24,5.94-5.03,10.38-4.76,6.38,2.45-4.34,7.8-16.57,24.54-38.14,42.43-7.1,5.89-17.68,11.12-25.02,14.29-.62.27-.32,1.22.35,1.07,50.35-11.08,103.21-45.49,124.32-103.22,18.95-51.85-8.38-98.07-54.48-103.06Z"/>
            <path class="cls-2" d="M1207.27,334.22c5.17-14.53,20.87-26.31,35.07-26.31s21.53,11.78,16.37,26.31c-5.17,14.53-20.87,26.31-35.07,26.31s-21.53-11.78-16.37-26.31Z"/>
            <path class="cls-2" d="M596.57,158.66l.52-1.51c6.44,0,9.28-7.31,11.98-14.79l11.38-31.33-2.52-6.84h-3.9l.52-1.51h20.51l16.44,41.65h.16l10.44-29.5c.62-1.67,1.14-4.05,1.23-5.17.28-3.34-1.68-5.48-5.58-5.48h-.4l.52-1.51h17.17l-.52,1.51c-5.72,0-7.78,3.65-9.73,8.82l-16.72,45.63h-8.51l-18.03-45.47-9.94,27.43c-1.67,4.69-2.54,8.43-2.71,10.41-.37,4.38,2.42,6.12,6.4,6.12l-.52,1.51h-18.2,0Z"/>
            <path class="cls-2" d="M707.27,101.57c14.47,0,23.32,10.1,22.17,23.77-1.53,18.13-16.97,34.43-37.32,34.43-13.35,0-24.07-8.67-22.8-23.77,1.38-16.3,14.83-34.43,37.96-34.43h0ZM691.24,157.78c4.61,0,8.63-2.38,13.21-12.4,5.46-12.01,10.12-24.8,10.84-33.39.48-5.65-3.51-8.43-7.16-8.43-5.17,0-9,3.02-11.71,7.87-5.15,9.3-12.23,29.1-12.94,37.44-.48,5.65,2.35,8.91,7.75,8.91h0Z"/>
            <path class="cls-2" d="M724.63,158.66l.52-1.51c6.44,0,9.28-7.31,11.98-14.79l11.38-31.33-2.52-6.84h-3.9l.52-1.51h20.51l16.44,41.65h.16l10.44-29.5c.62-1.67,1.14-4.05,1.23-5.17.28-3.34-1.68-5.48-5.58-5.48h-.4l.52-1.51h17.17l-.52,1.51c-5.72,0-7.78,3.65-9.73,8.82l-16.72,45.63h-8.51l-18.03-45.47-9.94,27.43c-1.67,4.69-2.54,8.43-2.71,10.41-.37,4.38,2.42,6.12,6.4,6.12l-.52,1.51h-18.2,0Z"/>
            <path class="cls-2" d="M797.18,139.1h1.75c-.31.79-.38,1.67-.45,2.55-.76,9.06,5,16.14,14.22,16.14,5.72,0,13.48-3.41,14.07-10.41,1.15-13.67-24.52-8.98-22.92-27.98,1.02-12.01,12.47-17.8,23.37-17.8,8.58,0,11.21,2.78,15.67,2.78,1.75,0,3.81-.88,4.87-3.02h1.75l-6.79,18.28h-1.51c.8-9.54-2.22-16.06-12.4-16.06-5.09,0-11.01,3.26-11.48,8.91-1.01,11.92,23.68,7.63,22.1,26.47-1.19,14.15-15.19,20.83-27.43,20.83-7.24,0-13.74-3.98-16.67-3.98-1.43,0-2.61.72-3.2,2.15h-1.75l6.84-18.84h-.02Z"/>
            <path class="cls-2" d="M859.71,102.69h48.73l-6.23,17.33h-1.75c.25-1.03.43-2.31.53-3.5.55-6.6-1.82-12.32-9.38-12.32l-19.01,52.95h5.01l-.61,1.51h-26.31l.61-1.51h5.09l18.85-52.95c-8.98,0-16.57,7.95-20.08,15.66h-1.83l6.38-17.17h0Z"/>
            <path class="cls-2" d="M941.37,101.57c14.47,0,23.32,10.1,22.17,23.77-1.53,18.13-16.97,34.43-37.32,34.43-13.35,0-24.07-8.67-22.8-23.77,1.38-16.3,14.83-34.43,37.96-34.43h0ZM925.34,157.78c4.61,0,8.63-2.38,13.21-12.4,5.46-12.01,10.12-24.8,10.84-33.39.48-5.65-3.51-8.43-7.16-8.43-5.17,0-9,3.02-11.71,7.87-5.15,9.3-12.23,29.1-12.94,37.44-.48,5.65,2.35,8.91,7.75,8.91h0Z"/>
            <path class="cls-2" d="M984.78,104.2h-5.17l.52-1.51h30.69c12.08,0,16,4.45,15.27,13.04-.7,8.27-7.92,17.57-23.5,17.57h-11.92l-8.53,23.85h5.25l-.52,1.51h-26.55l.52-1.51h4.85l19.09-52.95ZM991.2,131.78h4.29c5.25,0,7.27-1.35,9.45-4.61,2-2.94,5.41-11.44,5.88-17.01.42-5.01-2.75-5.96-6.34-5.96h-3.34l-9.96,27.59h0Z"/>
            <path class="cls-2" d="M1043.58,157.14c5.48-.88,8.62-6.12,12.06-15.74l13.39-37.2h-5.65l.76-1.51h20.83l-2.33,37.12h.16l23.96-37.12h21.38l-.76,1.51h-5.01l-19.09,52.95h5.72l-.76,1.51h-25.76l.76-1.51h4.29l19.52-51.44h-.16l-34.19,52.95h-5.8l2.96-51.2h-.16l-12.91,36.25c-1.65,4.53-2.07,6.6-2.18,7.87-.35,4.14,2.39,5.57,5.89,5.57l-.76,1.51h-16.85l.68-1.51h0Z"/>
            <path class="cls-2" d="M1139.61,104.2h-5.17l.52-1.51h45.71l-5.1,18.04h-1.51c1.1-13.04-3.06-16.54-13.24-16.54h-4.85l-8.84,24.64h5.09c5.48,0,10.04-1.19,13.99-8.51h1.75l-7.45,20.43h-1.83c.34-1.19.52-2.31.6-3.34.32-3.74-1.39-7.08-6.95-7.08h-5.72l-9.65,26.79h5.57c9.86,0,20.16-4.29,26.55-15.98h1.75l-7.04,17.49h-48.65l.52-1.51h4.85l19.09-52.95h.02Z"/>
            <path class="cls-2" d="M1241.74,102.69l-7.63,20.75h-1.75c.28-1.43.48-2.78.59-4.21.68-8.11-2.81-15.66-12.44-15.66-4.61,0-8.31,2.46-10.96,7.39-6.58,12.08-12.35,29.57-13.05,37.92-.48,5.64,2.35,8.91,7.75,8.91,5.96,0,9.04-5.48,10.81-10.41l3.24-9.14h-4.05l.53-1.59h23.61l-.52,1.51h-3.5l-4.84,13.11c-6.16,5.17-15.03,8.51-24.57,8.51-13.67,0-24.41-8.43-23.12-23.77,1.38-16.3,15.94-34.43,37.4-34.43,9.22,0,12.33,3.74,15.58,3.74,2.55,0,3.89-.88,5.15-2.62h1.75v.02Z"/>
            <path class="cls-2" d="M1267.62,142.67h-16.85l-2.35,3.41c-2.45,3.58-2.97,5.01-3.08,6.36-.32,3.81,3.5,4.69,6.12,4.69l-.52,1.51h-19.4l.52-1.51c6.76,0,10.12-5.01,15.93-13.59l28.09-40.86h6.36l1.22,54.45h4.61l-.52,1.51h-25.2l.52-1.51h4.69l-.13-14.47h0ZM1251.84,141.17h15.82l-.17-22.5h-.16l-15.49,22.5Z"/>
            <path class="cls-2" d="M1290.87,157.14c5.48-.88,8.62-6.12,12.06-15.74l13.39-37.2h-5.65l.76-1.51h20.83l-2.33,37.12h.16l23.96-37.12h21.38l-.76,1.51h-5.01l-19.09,52.95h5.72l-.76,1.51h-25.76l.76-1.51h4.29l19.52-51.44h-.16l-34.19,52.95h-5.8l2.96-51.2h-.16l-12.91,36.25c-1.65,4.53-2.07,6.6-2.18,7.87-.35,4.14,2.39,5.57,5.89,5.57l-.76,1.51h-16.85l.68-1.51h0Z"/>
            <path class="cls-2" d="M1387.79,104.2h-5.17l.52-1.51h26.87l-.52,1.51h-5.32l-19.01,52.95h5.25l-.52,1.51h-26.55l.52-1.51h4.85l19.09-52.95h0Z"/>
            <path class="cls-2" d="M1399.78,157.14c4.88-.4,12.71-8.34,15.47-10.97l12.69-11.92-9.15-30.05h-4.53l.52-1.51h26.4l-.52,1.51h-4.85l5.35,17.65,7.96-7.71c2.43-2.46,3.47-4.38,3.58-5.65.28-3.34-2.5-4.29-5.05-4.29l.52-1.51h19.71l-.52,1.51c-4.85,0-7.6,2.38-13.38,7.87l-12.27,11.61,9.98,33.47h4.14l-.52,1.51h-26l.52-1.51h4.85l-6.17-21.14-9.94,9.54c-4.23,3.98-4.55,5.01-4.7,6.68-.26,3.1,2.52,4.93,5.71,4.93l-.52,1.51h-19.8l.52-1.51h0Z"/>
            <path class="cls-2" d="M773.04,560.94c-13,0-22.5-5.45-26.07-14.94-2.02-5.15-2.74-9.78-1.65-23.67l.2-2.52-1.57,1.98c-22.27,28.17-40.06,39.15-63.44,39.15-13.67,0-25.18-4.93-33.27-14.26-10.65-12.28-14.76-31.42-11.55-53.88,3.88-27.19,18.73-55.04,40.75-76.4,21.97-21.31,48.34-33.54,72.35-33.54,19.75,0,29.67,8.4,34.26,28.98l.58,2.61,9.25-26.01h49.54l-50.76,142.15-.48,1.79c-.73,2.71-1.36,5.04-1.57,6.51-.24,1.65.06,3.01.85,3.91.49.57,1.44,1.25,3.14,1.25,9.19,0,22.13-13.67,39.54-41.78l8.21,4.05c-20.43,36.25-43.4,54.63-68.29,54.63ZM751.44,392.47c-15.41,0-26.53,14.73-47.58,63.05-15.88,36.92-25.42,64.41-27.57,79.5-.73,5.12-.03,8.96,2.08,11.4,1.85,2.12,4.75,3.2,8.66,3.2,16.07,0,37.46-14.94,53.22-37.19,15.14-21.3,30.07-54.76,33.98-76.18,2.47-13.66-.44-27.46-7.6-36.03-4.23-5.07-9.48-7.74-15.19-7.74Z"/>
            <path class="cls-2" d="M994.77,558.37c-9.93,0-17.79-3.02-22.74-8.74-5.4-6.24-7.38-15.67-5.7-27.26.95-6.56,3.41-16.04,6.76-26.01l31.06-86.58c.22-.72.43-1.36.62-1.97.57-1.78.98-3.06,1.08-3.75.25-1.75-.14-3.28-1.13-4.43-1.15-1.32-2.98-2.02-5.3-2.02-8.29,0-25.03,10.64-38.12,24.24-17.6,18.35-30.22,39.98-40.9,70.15l-22.85,63.36h-50.15l56.44-157.75h-30.18l3.55-9.18h32.7c14.4,0,32.24-1.64,49.15-4.51l-16.17,45.05,1.34.72c24.31-32.26,49.34-47.28,78.76-47.28,11.73,0,20.65,3.15,25.81,9.1,3.89,4.5,5.42,10.54,4.42,17.46-.5,3.48-1.57,8.8-3.78,14.41l-35.52,99.48c-.9,2.61-3.04,8.99-3.5,12.15-.34,2.35,0,4.14,1.04,5.32.89,1.03,2.25,1.55,4.04,1.55,7.57,0,18.7-11.62,37.23-38.85.27-.27.58-.74,1.08-1.47.57-.84,1.32-1.95,2.3-3.2l7.51,4.02c-25.64,39.74-45.62,55.96-68.85,55.96h0Z"/>
            <path class="cls-2" d="M1450.71,560.94c-13,0-22.5-5.45-26.07-14.94-2.02-5.15-2.74-9.78-1.65-23.67l.2-2.52-1.57,1.98c-22.27,28.17-40.06,39.15-63.44,39.15-13.67,0-25.18-4.93-33.27-14.26-10.65-12.28-14.76-31.42-11.55-53.88,3.88-27.19,18.73-55.04,40.75-76.4,21.97-21.31,48.34-33.54,72.35-33.54,19.75,0,29.67,8.4,34.26,28.98l.58,2.61,9.25-26.01h49.54l-50.76,142.15-.48,1.78c-.73,2.71-1.36,5.05-1.57,6.51-.24,1.65.06,3.01.85,3.91.49.57,1.44,1.25,3.14,1.25,9.19,0,22.13-13.67,39.54-41.78l8.21,4.05c-20.43,36.25-43.4,54.63-68.29,54.63h0ZM1429.11,392.47c-15.41,0-26.53,14.73-47.58,63.05-15.89,36.92-25.42,64.41-27.57,79.5-.73,5.12-.03,8.96,2.08,11.4,1.85,2.12,4.75,3.2,8.66,3.2,16.07,0,37.46-14.94,53.22-37.19,15.14-21.3,30.07-54.76,33.98-76.18,2.47-13.66-.44-27.46-7.6-36.03-4.23-5.07-9.48-7.74-15.19-7.74Z"/>
            <path class="cls-2" d="M548.54,558.37c-10.78,0-18.81-2.96-23.86-8.81-5.43-6.29-7.27-15.73-5.46-28.04,1.15-7.83,4.05-18.45,7.58-27.7l30.21-82.74c.29-.98.55-1.85.79-2.61.54-1.76.93-3.03,1.07-3.97.22-1.5-.15-2.86-1.07-3.93-1.17-1.35-3.13-2.1-5.53-2.1-11.16,0-26.86,10.57-43.07,28.98-19.01,21.97-26.57,35.79-40.46,73.98l-19.7,53.94h-51.14l52.66-144.25c.67-1.38.86-2.71,1.18-4.91.42-2.89.06-4.95-1.12-6.32-1.08-1.25-2.76-1.85-5.17-1.85-9.01,0-27.82,12.22-41.92,27.25-17.49,17.89-29.55,39.24-42.99,76.14l-19.7,53.94h-51.14l57.52-157.75h-30.76l3.61-9.18h33.34c14.47,0,32.22-1.6,50.11-4.51l-15.16,42.06,1.29.78c26.75-29.54,52.28-43.9,78.06-43.9,11.98,0,21.17,3.31,26.59,9.59,4.5,5.21,6.22,12.41,4.99,20.83-.42,2.85-1.57,7.89-3.18,12.73l1.3.76c28.26-31.18,50.61-43.9,77.18-43.9,12.5,0,21.91,3.25,27.23,9.41,4.22,4.88,5.77,11.38,4.61,19.29-.52,3.54-1.6,8.84-3.78,13.96l-36.07,98.63c-2.25,6.39-3.17,9.46-3.5,11.73-.32,2.22,0,3.89.94,4.99.84.97,2.13,1.46,3.84,1.46,9.02,0,19.44-10.58,42.71-43.45l7.57,4.76c-27.3,40.9-44.92,54.73-69.57,54.73h0Z"/>
            <path class="cls-2" d="M73.49,354.78l3.21-9.08h34.99L208.72,82.58h-39.39l3.21-9.08h128.07c36.91,0,53.76,4.81,72.1,20.59,23.73,20.5,35.2,55.33,29.94,90.9-6.85,46.27-31.88,93.53-65.32,123.35-38.79,34.73-72.52,46.44-133.69,46.44H73.49ZM171.31,345.7h40.91c25.33,0,43.98-2.4,58.64-14.33,12.87-10.47,22.52-27.4,35.63-62.49,21.04-55.89,37.37-110.54,41.62-139.22,2.36-15.94.24-27.42-6.49-35.1-7.06-8.06-19.27-11.98-37.31-11.98h-35.98l-97.02,263.12h.02Z"/>
            <path class="cls-2" d="M539.13,360.29c-13.17,0-22.8-5.38-26.41-14.76-2.05-5.08-2.77-9.66-1.66-23.39l.2-2.48-1.56,1.93c-22.56,27.85-40.57,38.7-64.24,38.7-14.07,0-25.86-5.02-34.07-14.52-10.5-12.14-14.52-30.9-11.32-52.82,3.92-26.87,18.96-54.4,41.25-75.51,22.24-21.07,48.95-33.16,73.26-33.16,20,0,30.06,8.3,34.69,28.64l.58,2.54,9.36-25.67h50.17l-51.38,140.5-.48,1.76c-.74,2.68-1.38,4.99-1.59,6.45-.24,1.62.05,2.95.84,3.85.5.58,1.45,1.26,3.19,1.26,9.3,0,22.4-13.51,40.02-41.31l8.31,4.01c-20.68,35.83-43.94,53.98-69.14,53.98h0ZM517.27,193.76c-15.6,0-26.85,14.56-48.16,62.32-16.08,36.49-25.74,63.67-27.92,78.6-.73,5.01-.05,8.78,2.04,11.2,1.86,2.15,4.83,3.24,8.83,3.24,16.27,0,37.92-14.77,53.87-36.76,15.34-21.06,30.45-54.14,34.4-75.31,2.47-13.31-.38-26.85-7.44-35.34-4.32-5.2-9.72-7.94-15.61-7.94h0Z"/>
            <path class="cls-2" d="M760.87,360.05c-10,0-17.9-3.02-22.85-8.74-5.33-6.16-7.27-15.44-5.6-26.82.95-6.48,3.41-15.86,6.77-25.71l31.06-85.58c.22-.71.44-1.36.63-1.96.57-1.75.98-3.01,1.08-3.7.25-1.72-.13-3.23-1.11-4.36-1.15-1.32-2.98-2.02-5.32-2.02-8.29,0-25.04,10.53-38.12,23.97-17.61,18.14-30.23,39.52-40.92,69.35l-22.86,62.63h-50.17l56.46-155.94h-30.19l3.54-9.05h32.72c14.41,0,32.25-1.62,49.15-4.45l-16.17,44.52,1.33.73c24.32-31.89,49.35-46.73,78.79-46.73,11.81,0,20.77,3.15,25.9,9.1,3.83,4.43,5.33,10.36,4.34,17.14-.5,3.44-1.57,8.7-3.78,14.23l-35.53,98.34c-.9,2.58-3.04,8.88-3.5,12.01-.34,2.31,0,4.08,1.02,5.25.89,1.04,2.26,1.56,4.05,1.56,7.57,0,18.7-11.48,37.24-38.4.27-.26.58-.73,1.08-1.45.57-.83,1.32-1.93,2.3-3.16l7.51,3.97c-25.64,39.27-45.63,55.31-68.87,55.31v-.02Z"/>
            <path class="cls-2" d="M913.23,360.29c-23.84,0-43.42-7.28-55.11-20.48-10-11.29-13.92-26.32-11.36-43.48,4.71-31.46,28.27-67.19,58.62-88.9,22.42-15.87,44.99-23.58,68.98-23.58,19.58,0,34.79,5,42.84,14.08,5.35,6.05,7.4,13.55,6.08,22.33-2.15,14.34-13.91,24.34-28.61,24.34-6.51,0-12.1-2.27-15.74-6.38-3.71-4.18-5.21-10.04-4.25-16.47.62-4.09,1.35-6.48,5.38-15.48.15-.37.29-.71.43-1.02.53-1.24.98-2.32,1.15-3.41.25-1.72-.22-3.31-1.37-4.61-1.98-2.24-5.78-3.47-10.71-3.47-17.3,0-29.17,13.21-45.36,50.47-14.99,34.43-25.73,65.34-28.03,80.7-1.28,8.56-.15,14.71,3.48,18.8,4.02,4.54,10.99,6.65,21.93,6.65,25.33,0,45.43-11.94,71.56-42.52l7.15,5.05c-26.02,33.63-51.29,47.38-87.06,47.38h0Z"/>
            <path class="cls-2" d="M1088.84,360.29c-25.47,0-46.02-7.54-57.84-21.22-9.37-10.84-13.06-25.17-10.68-41.46,4.02-27.52,20.74-56.06,45.85-78.3,25.14-22.27,55.14-35.03,82.29-35.03,18.18,0,32.98,5.52,41.65,15.56,6.81,7.88,9.52,18.17,7.83,29.75-3.54,24.23-22.83,41.01-55.81,48.52-13.34,3.05-27.09,4.24-58.88,5.07l-.51.02-.19.47c-7.56,18.87-13.14,36.63-14.57,46.36-.81,5.54.27,10.08,3.21,13.47,3.95,4.58,11.03,6.89,21.04,6.89,27.72,0,52.16-13.1,81.61-43.78l6.15,5.37c-29.89,34.31-56.34,48.32-91.15,48.32h0ZM1144.1,194.18c-15.82,0-29.63,12.32-39.95,35.63-4.46,9.78-5.1,11.37-17,42.41l-.42,1.08,2.59-.1c21.44-.8,22.73-.85,31.63-3.37,20.19-5.09,35.24-25.3,39.25-52.75,1.22-8.39.22-14.32-3.08-18.14-2.75-3.18-7.13-4.78-13.03-4.78v.02Z"/>
          </g>
        </g>
        <g>
          <path class="cls-2" d="M1496.09,712.08c29.27-2.38,75.55-50.08,91.92-65.83l75.15-71.55-57.44-180.31h-27.19l3.02-9.06h158.37l-3.02,9.06h-29.1l33.58,105.89,47.14-46.27c14.4-14.79,20.45-26.23,20.98-33.87,1.41-20.03-15.36-25.76-30.63-25.76l3.02-9.06h118.3l-3.02,9.06c-29.1,0-45.37,14.31-79.64,47.22l-72.63,69.64,62.68,200.82h24.8l-3.02,9.06h-155.98l3.02-9.06h29.1l-38.78-126.88-58.88,57.24c-25.05,23.85-26.92,30.05-27.62,40.07-1.31,18.6,15.57,29.57,34.65,29.57l-3.02,9.06h-118.78l3.02-9.06Z"/>
          <path class="cls-2" d="M2099.67,396.37c-6.23-.97-12.02-1.45-18.32-1.45-60.6,0-91.7,28.6-128.47,130.9h1.94c12.35-10.18,25.57-18.91,50.3-18.91,51.88,0,79.49,41.69,76.18,88.72-5.69,80.97-69.7,129.45-146.79,129.45-72.24,0-100.69-50.42-95.75-120.72,8.35-118.78,91.21-221.56,215.81-221.56,16,0,32.83,1.94,49.11,4.85l-4.01,8.73ZM1965.27,673.69c33.01-90.18,37.17-114.9,37.85-124.6,1.09-15.51-9.45-24.24-23.51-24.24-15.51,0-29.29,9.7-39.57,38.79-24.2,68.36-36.38,110.54-37.33,124.11-1.06,15.03,9.17,28.12,26.14,28.12,17.94,0,27.2-14.54,36.42-42.18Z"/>
        </g>
      </g>
      <path class="cls-1" d="M2131.32,375.59c-5.38-10.28-15.21-17.5-26.64-19.54-19.89-3.55-38.36-5.35-54.91-5.35-35.06,0-68.43,7.05-99.19,20.96-4.6,2.08-9.12,4.32-13.56,6.69-1.01-5.31-3.15-10.42-6.4-14.93-7.05-9.78-18.37-15.58-30.42-15.58h-118.3c-7.67,0-14.93,2.33-20.99,6.42-6.12-4.13-13.41-6.42-20.99-6.42h-158.37c-13.15,0-25.09,6.85-31.83,17.67-7.08-9.16-18.01-14.56-29.65-14.56h-49.54c-3.58,0-7.07.51-10.4,1.47-9.7-4.65-20.99-7.04-33.69-7.04-33.67,0-69.56,16.08-98.46,44.12-.53.52-1.06,1.04-1.59,1.57-2.11-4.92-4.58-9.69-7.42-14.26-6.85-11.02-15.58-20.46-25.7-28.02.26-.67.52-1.33.76-2.01,6.73-18.97,4.5-38.49-6.13-53.54-10.24-14.5-26.85-22.82-45.58-22.82-8.16,0-16.27,1.58-23.97,4.46,8.83-11.62,14.52-25.14,16.67-39.86,2-13.69.55-26.93-4.05-38.85h224.32c15.97,0,30.2-10.12,35.43-25.21l.52-1.51c3.87-11.16,2.25-23.47-4.33-33.24,7.24-4.43,12.95-11.3,15.87-19.7l.52-1.51c3.98-11.46,2.16-24.14-4.88-34.03-7.04-9.89-18.42-15.76-30.55-15.76h-19.71c-1.18,0-2.35.05-3.5.16-1.16-.11-2.32-.16-3.5-.16h-107.65c-.24,0-.48,0-.72,0h-21.38c-.24,0-.48,0-.72,0h-20.35c-.24,0-.48,0-.72,0h-225.49c-8.38,0-16.33,2.81-22.75,7.72-8.39-5.13-18.62-7.72-30.57-7.72h-150.39c-.49,0-.99,0-1.48,0h-201.07c-3.95,0-7.78.62-11.41,1.77-3.62-1.16-7.46-1.77-11.41-1.77h-20.51c-15.97,0-30.18,10.11-35.42,25.19l-.52,1.51c-2.8,8.05-2.74,16.7-.02,24.56l-3.85,10.6c-5.91,4.39-10.54,10.52-13.07,17.81l-.52,1.5c-.02.05-.03.11-.05.16-.16.47-.3.93-.44,1.4-.1.33-.2.66-.29.99-.13.48-.25.96-.36,1.45-.07.31-.13.63-.2.95-.07.33-.15.66-.21.99h-.41c-3.67,0-7.26.54-10.66,1.54-9.78-4.65-21.17-7.05-33.97-7.05-24.35,0-49.9,8.21-73.17,23.12.48-40.86-15.58-79.51-44.22-104.25-13.64-11.74-27.39-19.32-43.25-23.85-14.28-4.08-30.23-5.82-53.31-5.82h-128.07c-15.89,0-30.05,10.01-35.35,24.99l-3.21,9.08c-4.06,11.48-2.3,24.21,4.73,34.16,4.33,6.12,10.32,10.72,17.14,13.35l-70.29,190.62h-8.85c-15.89,0-30.05,10.01-35.35,24.99l-3.21,9.08c-4.06,11.48-2.3,24.21,4.73,34.16,7.03,9.94,18.45,15.85,30.62,15.85h130.16c30.39,0,55.69-2.86,78.32-9.41l-.4,1.03c-4.54,11.54-3.07,24.58,3.91,34.83,2.81,4.12,6.35,7.57,10.4,10.23l-41.41,113.56c-4.19,11.5-2.51,24.32,4.51,34.35,7.02,10.03,18.49,16,30.72,16h51.14c11.19,0,21.54-4.97,28.53-13.16,7.08,8.3,17.49,13.16,28.53,13.16h51.14c15.75,0,29.82-9.84,35.22-24.63l3-8.22c2.67,5.79,5.9,10.43,9.03,14.06,8.48,9.83,24.24,21.53,51.28,21.8.33,0,.65.01.98.01,21.18,0,39.82-6.56,56.97-20.05,3.33-2.62,6.65-5.54,9.98-8.79,1.09,1.44,2.22,2.84,3.4,4.21,15.21,17.53,37.08,27.19,61.6,27.19,19.86,0,36.3-5.34,50.28-13.61,11.26,8.71,25.91,13.61,42.26,13.61,17.42,0,34.03-5.04,49.53-14.97,6.78,5.99,15.58,9.4,24.82,9.4h50.15c15.81,0,29.91-9.91,35.28-24.78l2.41-6.68c2.28,4.63,5.1,8.91,8.46,12.79,12.12,13.98,30.26,21.68,51.08,21.68.34,0,.68,0,1.01-.01,25.63-.29,46.22-11.69,63.44-27.88,14.93,20.24,37.15,34.14,63.77,39.63,10.7,2.25,20.9,3.37,30.49,3.37,7.62,0,14.86-.71,21.69-2.13.14-.03.28-.06.42-.09,32.06-7.05,62.52-21.27,88.07-41.12,6.98-5.42,13.54-11.25,19.65-17.42,3.42,7.74,7.84,14.81,13.25,21.04,15.21,17.53,37.08,27.19,61.6,27.19,19.86,0,36.3-5.34,50.28-13.61,11.26,8.71,25.91,13.61,42.26,13.61.32,0,.63,0,.95-.01,20.76-.22,40.37-7.6,58.29-21.93,15.36-12.29,29-29.22,41.71-51.78,5.06-8.98,6.2-19.64,3.16-29.49-3.04-9.84-10-18-19.24-22.56l-4.9-2.42,18.68-52.3c7.05,8.73,17.67,13.88,28.95,13.95l42,131.83-58.15,55.37s-.09.09-.13.13c-1.49,1.43-3.22,3.12-5.16,5.01-8.83,8.62-22.18,21.65-35.98,32.75-18.89,15.19-27.09,17.49-28.18,17.75-14.83,1.34-27.47,11.34-32.19,25.48l-3.02,9.06c-3.81,11.44-1.9,24.01,5.15,33.79,7.05,9.78,18.37,15.58,30.42,15.58h118.78c12.48,0,23.88-6.18,30.77-16.06.11.16.23.32.34.48,7.05,9.78,18.37,15.58,30.42,15.58h155.98c11.85,0,22.72-5.57,29.68-14.59,17.2,10.31,40.83,18.4,72.61,18.4,46.57,0,90.16-15.15,122.74-42.65,35.25-29.75,55.68-71.1,59.09-119.58,2.51-35.72-8.66-69.73-30.65-93.32-17.46-18.73-41.1-30.29-67.62-33.31,20.35-33.6,38.01-35.98,60.91-35.98,4.1,0,7.88.3,12.27.99,16.57,2.56,32.84-6.17,39.84-21.41l3.94-8.59c4.84-10.55,4.53-22.74-.85-33.02Z"/>
    </g>
  </g>
</svg>