<?xml version="1.0" encoding="UTF-8"?>
<svg id="Layer_2" data-name="Layer 2" xmlns="http://www.w3.org/2000/svg" viewBox="0 0 2235.3 799.58">
  <defs>
    <style>
      .cls-1 {
        fill: #ffe91a;
      }

      .cls-2 {
        fill: #fff;
      }

      .cls-3 {
        fill: #102060;
      }
    </style>
  </defs>
  <g id="Layer_1-2" data-name="Layer 1">
    <g>
      <g>
        <path class="cls-1" d="M1950.79,782.58c-30.2,0-57.3-10.94-76.51-30.85-10.23,16.49-28.38,26.91-48.42,26.91h-155.98c-11.06,0-21.7-3.18-30.77-9-9.07,5.82-19.7,9-30.77,9h-118.78c-18.27,0-35.56-8.85-46.24-23.67-10.68-14.82-13.61-34.02-7.83-51.36l3.02-9.06c6.87-20.61,24.87-35.47,46.25-38.43,2.17-1,8.78-4.45,20.83-14.18,12.92-10.44,25.68-22.9,34.13-31.15,1.99-1.95,3.75-3.66,5.27-5.12l49.52-47.15-18.34-57.56c1.18,11.64-1.22,23.53-7.03,33.83-13.96,24.77-29.18,43.56-46.52,57.43-21.37,17.1-44.97,25.91-70.14,26.21-.43,0-.86.01-1.28.01-15.73,0-30.5-3.62-43.28-10.56-15.3,7.01-31.83,10.56-49.26,10.56-30.26,0-57.36-12.04-76.33-33.91-1.01-1.17-2-2.36-2.96-3.57-1.08.87-2.16,1.73-3.25,2.58-27.83,21.62-60.97,37.1-95.84,44.77l-.67.14c-8.07,1.68-16.7,2.53-25.63,2.53-10.92,0-22.53-1.27-34.5-3.79-24.15-4.97-45.27-15.85-61.92-31.75-18.85,13.29-39.28,20.15-60.93,20.42-.46.01-.91.02-1.37.02-21.99,0-41.8-6.91-56.97-19.68-10.48,10.43-24.87,16.68-40.25,16.68h-50.15c-8.88,0-17.66-2.11-25.55-6.07-15.46,7.73-31.83,11.65-48.8,11.65-15.73,0-30.5-3.63-43.28-10.56-15.3,7.01-31.83,10.56-49.25,10.56-25.36,0-48.5-8.46-66.5-24.07-19.75,14.47-41.21,21.51-65.46,21.51-.44,0-.88,0-1.32-.02-27.01-.31-45.39-9.92-57.38-20.25-10.53,10.78-25.17,17.25-40.81,17.25h-51.14c-10.04,0-19.91-2.71-28.53-7.68-8.62,4.97-18.49,7.68-28.52,7.68h-51.14c-18.59,0-36.05-9.09-46.7-24.32-10.66-15.23-13.22-34.75-6.85-52.21l36.92-101.26c-1.32-1.55-2.56-3.17-3.71-4.87-4.58-6.73-7.61-14.23-9.01-22.02-16.87,2.77-35.37,4.09-56.7,4.09H73.99c-18.48,0-35.88-9.01-46.55-24.1-10.67-15.09-13.35-34.5-7.19-51.92l3.22-9.08c7.5-21.19,26.8-35.9,48.92-37.78l60.18-163.19c-3.48-3.01-6.6-6.44-9.28-10.22-10.67-15.09-13.35-34.5-7.19-51.92l3.21-9.08c8.04-22.72,29.63-37.98,53.73-37.98h128.07c42.79,0,76,5.75,109.28,34.38,25.42,21.96,42.41,53.19,48.51,88.15,18.56-7.73,37.62-11.74,56.16-11.74,11.24,0,21.77,1.55,31.42,4.61,3.04-6.15,7.15-11.7,12.18-16.39-2-9.95-1.32-20.4,2.02-30.01l.52-1.51c7.96-22.9,29.59-38.29,53.84-38.29h396.27c10.8,0,20.74,1.73,29.65,5.15,7.39-3.39,15.42-5.15,23.67-5.15h403.74c18.41,0,35.77,8.96,46.44,23.96,10.67,15,13.44,34.33,7.41,51.73l-.53,1.51c-2.38,6.85-5.97,13.09-10.61,18.48,3.23,11.19,2.98,23.22-.92,34.46l-.53,1.51c-7.95,22.92-29.59,38.32-53.85,38.32h-200.16c.55,7.25.28,14.66-.82,22.17-.67,4.63-1.64,9.16-2.88,13.59,21.4,2.4,40.16,13.24,52.39,30.56,12.2,17.28,16.28,38.69,11.74,60.11,5.96,5.61,11.33,11.81,16.06,18.52,29.09-22.28,62.73-34.75,94.8-34.75,12.95,0,24.95,2.08,35.75,6.19,2.76-.41,5.54-.61,8.33-.61h49.54c9.18,0,18.09,2.19,26.09,6.32,9.22-6.09,20.11-9.42,31.39-9.42h158.37c7.22,0,14.33,1.37,20.99,4,6.65-2.64,13.77-4,20.99-4h114.02c9.58-6.75,21-10.41,32.84-10.41,5.94,0,11.83.93,17.51,2.76l9.14,2.95c10.66,3.44,19.97,9.89,26.89,18.51,15.42,2.23,32.42,3.32,51.73,3.32,25.32,0,69.63-7.88,101.87-22.47,7.44-3.37,15.34-5.07,23.49-5.07,17.6,0,33.93,7.93,44.81,21.76l5.42,6.88c18.7,23.77,15.57,58.04-7.13,78.03-19.39,17.07-69.17,62.16-112.45,111.92-44.24,50.86-53.67,75-55.51,81.18.99,2.44,2.99,6.44,4.28,9.03,6.94,13.87,17.42,34.83,15.51,62.03-1.85,26.38-12.85,50.21-30.96,67.11-18.11,16.91-42.64,26.22-69.06,26.22ZM1554.94,462.18c5.74,4.57,10.56,10.22,14.18,16.6l-9.21-28.92c-.17-.05-.34-.1-.52-.14l-4.45,12.46Z"/>
        <path class="cls-3" d="M301.12,34c39.91,0,68.77,4.95,98.19,30.27,28.13,24.3,44.36,61.75,45.07,101.66,22.63-13.65,47.19-21.13,70.68-21.13,12.86,0,24.34,2.34,34.25,6.87,2.82-.76,5.75-1.19,8.74-1.31,0-.02.01-.04.02-.06.12-.51.24-1.01.38-1.52.1-.37.21-.73.31-1.09.15-.49.29-.98.46-1.47.02-.06.04-.12.06-.18l.52-1.5c2.61-7.53,7.32-13.89,13.33-18.54l3.3-9.09c-2.61-8.16-2.58-17.05.31-25.34l.52-1.51c5.59-16.09,20.75-26.87,37.79-26.87h396.27c11.75,0,21.91,2.44,30.4,7.23,6.6-4.62,14.56-7.23,22.92-7.23h403.74c12.94,0,25.09,6.27,32.59,16.82,7.5,10.54,9.44,24.07,5.2,36.3l-.52,1.51c-2.82,8.13-8.09,14.91-14.81,19.63,5.88,10.04,7.12,22.21,3.27,33.32l-.52,1.51c-5.58,16.1-20.75,26.89-37.79,26.89h-220.76c3.78,11.41,4.84,23.88,2.96,36.71-1.84,12.63-6.22,24.4-12.89,34.89,5.79-1.53,11.74-2.35,17.72-2.35,19.55,0,36.9,8.7,47.62,23.88,11.1,15.73,13.45,36.07,6.44,55.82-.04.11-.08.21-.12.32,9.73,7.55,18.15,16.82,24.83,27.55,2.27,3.65,4.3,7.42,6.11,11.29,29.2-27.91,65.29-43.91,99.23-43.91,12.76,0,24.14,2.34,33.98,6.87,3.25-.85,6.64-1.3,10.1-1.3h49.54c10.21,0,19.9,3.91,27.23,10.72,7.44-8.6,18.39-13.83,30.25-13.83h158.37c7.51,0,14.76,2.11,20.99,5.95,6.17-3.8,13.39-5.95,20.99-5.95h118.3c.53,0,1.06.03,1.59.05,7.32-6.67,16.95-10.46,26.97-10.46,4.07,0,8.21.63,12.29,1.94l9.14,2.95c9.43,3.05,17.36,9.47,22.3,17.99,18.14,3.13,38.5,4.67,61.54,4.67,27.78,0,74.1-8.24,108.88-23.98,5.31-2.4,10.93-3.56,16.48-3.56,11.98,0,23.68,5.39,31.45,15.27l5.42,6.88c13.13,16.69,10.93,40.73-5,54.76-19.65,17.3-70.09,62.98-114.04,113.52-56.6,65.07-59.84,89.77-60.02,92.37-.23,3.32,3.15,10.07,6.42,16.61,6.47,12.94,15.34,30.67,13.75,53.23-3.21,45.64-37.36,77.52-83.06,77.52-26.04,0-49.2-9.46-65.22-26.65-7.58-8.13-13.2-17.61-16.73-27.94.19,4.77-.47,9.59-2.02,14.24l-3.02,9.06c-5.45,16.33-20.73,27.35-37.95,27.35h-155.98c-11.94,0-23.2-5.33-30.77-14.44-7.45,8.96-18.63,14.44-30.77,14.44h-118.78c-12.86,0-24.93-6.18-32.45-16.61-7.52-10.43-9.56-23.84-5.49-36.04l3.02-9.06c5.01-15.02,18.4-25.66,34.13-27.16,1.33-.36,9.45-3,27.52-17.61,13.54-10.94,26.65-23.74,35.32-32.21,1.94-1.9,3.68-3.59,5.17-5.03.05-.04.1-.09.14-.14l57.02-54.29-40.99-128.65c-8.53-.44-16.61-3.61-23.13-8.9l-15.55,43.55,2.9,1.43c9.86,4.86,17.28,13.56,20.53,24.06,3.25,10.5,2.03,21.88-3.37,31.45-12.87,22.84-26.72,40.01-42.33,52.5-18.37,14.69-38.49,22.26-59.82,22.48-.33,0-.66.01-.99.01-16.27,0-30.93-4.7-42.42-13.09-13.98,7.98-30.39,13.09-50.11,13.09-25.25,0-47.8-9.96-63.49-28.05-4.8-5.53-8.84-11.7-12.12-18.4-5.46,5.32-11.25,10.37-17.35,15.11-25.85,20.08-56.65,34.46-89.07,41.59-.15.03-.3.07-.45.1-6.99,1.45-14.41,2.18-22.2,2.18-9.77,0-20.13-1.14-31-3.43-26.25-5.41-48.33-18.83-63.58-38.36-17.19,15.56-37.69,26.37-63.07,26.67-.35,0-.71.01-1.07.01-21.56,0-40.37-8.01-52.97-22.54-2.27-2.62-4.3-5.41-6.1-8.37l-.53,1.47c-5.72,15.86-20.77,26.43-37.63,26.43h-50.15c-9.21,0-18.01-3.19-25.02-8.81-15.46,9.55-32,14.39-49.33,14.39-16.27,0-30.93-4.7-42.42-13.09-13.98,7.98-30.39,13.09-50.11,13.09-25.25,0-47.8-9.96-63.49-28.05-.61-.7-1.2-1.41-1.78-2.13-2.73,2.55-5.44,4.89-8.17,7.04-17.61,13.85-36.76,20.58-58.52,20.58-.34,0-.68,0-1.02-.01-27.95-.29-44.3-12.45-53.12-22.67-2.27-2.63-4.6-5.78-6.74-9.49l-1.05,2.88c-5.76,15.78-20.77,26.27-37.57,26.27h-51.14c-10.82,0-21.07-4.37-28.53-11.96-7.37,7.49-17.57,11.96-28.53,11.96h-51.14c-13.05,0-25.29-6.37-32.77-17.07-7.48-10.7-9.28-24.37-4.81-36.64l40.75-111.75c-3.64-2.66-6.85-5.95-9.46-9.77-6.73-9.88-8.64-22.2-5.37-33.57-21.65,5.7-45.79,8.21-74.39,8.21H73.99c-12.99,0-25.17-6.31-32.66-16.91-7.5-10.61-9.38-24.19-5.04-36.43l3.22-9.08c5.65-15.97,20.76-26.65,37.71-26.65h7.11l68.86-186.74c-6.32-2.9-11.88-7.44-16.01-13.28-7.5-10.61-9.38-24.19-5.04-36.43l3.22-9.08c5.65-15.98,20.76-26.66,37.71-26.66h128.07M301.12,0h-128.07c-31.29,0-59.32,19.82-69.76,49.31l-3.21,9.08c-8,22.62-4.52,47.81,9.33,67.4,1.11,1.57,2.28,3.1,3.51,4.57l-53.06,143.9c-23.94,5.79-43.95,23.34-52.41,47.24l-3.22,9.08c-8,22.62-4.52,47.81,9.33,67.4,13.85,19.59,36.44,31.29,60.43,31.29h130.16c16.26,0,30.99-.74,44.67-2.28,1.58,3.71,3.47,7.32,5.67,10.78l-33.82,92.74c-8.27,22.67-4.94,48.01,8.89,67.78,13.83,19.77,36.5,31.57,60.63,31.57h51.14c9.83,0,19.54-2.01,28.53-5.76,8.98,3.75,18.69,5.76,28.53,5.76h51.14c14.87,0,29.19-4.39,41.48-12.72,2.59,1.62,5.27,3.12,8.03,4.51,14.41,7.23,30.69,11,48.39,11.21.54.01,1.07.02,1.61.02,23.28,0,44.97-5.93,64.69-17.65,19.26,13.17,42.37,20.21,67.27,20.21,17.07,0,33.39-2.99,48.74-8.9,13.38,5.86,28.21,8.9,43.79,8.9,16.99,0,33.43-3.37,49.08-10.05,8.06,2.93,16.62,4.47,25.27,4.47h50.15c14.83,0,28.96-4.47,40.82-12.33,16.22,10.01,35.51,15.34,56.4,15.34.56,0,1.11,0,1.66-.02,20.85-.28,40.64-5.74,59.11-16.29,17.05,13.32,37.35,22.59,59.99,27.27,13.11,2.75,25.88,4.15,37.96,4.15,10.09,0,19.88-.97,29.11-2.89.28-.06.57-.12.85-.18,33.52-7.37,65.56-21.5,93.34-41.08,21.57,20.47,50.06,31.62,81.38,31.62,17.07,0,33.39-2.99,48.74-8.9,13.38,5.86,28.21,8.9,43.79,8.9.52,0,1.04,0,1.55-.02,15.52-.19,30.49-3.16,44.78-8.86-.87.72-1.75,1.44-2.62,2.15-8.04,6.5-13.1,9.68-15.51,11.05-26.42,4.78-48.42,23.63-57.02,49.41l-3.02,9.06c-7.5,22.5-3.7,47.43,10.16,66.67,13.87,19.25,36.31,30.74,60.04,30.74h118.78c10.78,0,21.24-2.32,30.77-6.67,9.53,4.35,19.99,6.67,30.77,6.67h155.98c19.14,0,36.94-7.32,50.31-19.7,20.71,15.36,46.55,23.64,74.62,23.64,30.74,0,59.39-10.93,80.66-30.79,21.26-19.84,34.16-47.67,36.32-78.35,2.24-31.84-9.97-56.24-17.26-70.82-.31-.62-.67-1.35-1.05-2.11,4.29-9.37,16.48-30.92,49.9-69.34,42.6-48.98,91.72-93.46,110.86-110.31,29.47-25.94,33.54-70.44,9.26-101.3l-5.42-6.89c-14.12-17.95-35.32-28.24-58.17-28.24-10.58,0-20.84,2.22-30.5,6.59-30.07,13.61-71.32,20.96-94.86,20.96-15.97,0-30.23-.77-43.24-2.34-8.32-8.51-18.63-14.94-30.15-18.66l-9.14-2.95c-7.38-2.38-15.02-3.59-22.74-3.59-13.44,0-26.48,3.63-37.85,10.41h-109.01c-7.15,0-14.21,1.03-20.99,3.04-6.78-2.01-13.84-3.04-20.99-3.04h-158.37c-11.37,0-22.43,2.61-32.41,7.47-7.96-2.87-16.43-4.37-25.07-4.37h-49.54c-2.12,0-4.24.09-6.35.27-11.64-3.89-24.28-5.85-37.73-5.85-21.65,0-43.58,4.84-65.15,14.4-9.09,4.02-17.9,8.79-26.39,14.26-.38-.42-.76-.83-1.14-1.24,2.66-22.89-2.83-45.41-16.03-64.1-11.51-16.3-27.66-27.94-46.31-33.85.25-1.9.45-3.79.6-5.67h183.28c31.5,0,59.59-19.99,69.91-49.75l.52-1.51c4.06-11.72,5.08-24.09,3.15-36.04,3.47-5.2,6.29-10.87,8.39-16.9l.52-1.51c7.83-22.58,4.23-47.68-9.62-67.15-13.85-19.47-36.39-31.09-60.29-31.09h-403.74c-8.31,0-16.44,1.37-24.15,4.03-9.06-2.69-18.81-4.04-29.17-4.04h-396.27c-31.48,0-59.57,19.98-69.9,49.72l-.52,1.5c-3.32,9.56-4.62,19.77-3.87,29.84-.73.88-1.44,1.77-2.13,2.68-7.53-1.42-15.39-2.14-23.56-2.14-14.52,0-29.29,2.18-43.91,6.42-8.99-30.92-26.06-58.32-49.62-78.67l-.03-.02-.03-.02c-17.85-15.36-36.9-25.7-58.26-31.62-17.39-4.82-35.96-6.88-62.11-6.88h0Z"/>
      </g>
      <g>
        <g>
          <path class="cls-3" d="M1492.59,712.58c29.27-2.38,75.55-50.08,91.92-65.83l75.15-71.55-57.44-180.31h-27.19l3.02-9.06h158.37l-3.02,9.06h-29.1l33.58,105.89,47.14-46.27c14.4-14.79,20.45-26.23,20.98-33.87,1.41-20.03-15.36-25.76-30.63-25.76l3.02-9.06h118.3l-3.02,9.06c-29.1,0-45.37,14.31-79.64,47.22l-72.63,69.64,62.68,200.82h24.8l-3.02,9.06h-155.98l3.02-9.06h29.1l-38.78-126.88-58.88,57.24c-25.05,23.85-26.92,30.05-27.62,40.07-1.31,18.6,15.57,29.57,34.65,29.57l-3.02,9.06h-118.78l3.02-9.06Z"/>
          <path class="cls-3" d="M1925.24,375.43l9.14,2.95-4.27,11.8c32.26,9.84,66.97,12.79,100.41,12.79s86.26-9.84,125.38-27.54l5.42,6.88c-68.15,60-183.45,175.08-187.53,233.11-1.94,27.54,21.87,45.74,20.17,69.83-1.69,24.1-18.08,40.33-43.16,40.33-29.51,0-43.9-19.18-42.13-44.26,3.94-56.06,102.04-164.25,154.07-218.84l-1.41-.98c-34.9,13.77-72.3,21.15-108.7,21.15-19.18,0-37.73-1.97-55.58-6.88l-13.63,32.95-10.09-3.44,51.91-129.83Z"/>
        </g>
        <g>
          <g>
            <path class="cls-2" d="M1131.78,541.89c1.22-3.5,4.01-12.55,8.66-24.66,13.34-34.68,33.73-93.49,42.36-116.49.61-1.62-2.5-5.47-6.24-3.1-3.74,2.37-7.2,5.38-8.59,5.38-1.97,0-3.38-.83-3.93-2.69-.6-2.07,1.2-4.85,3.23-7.08,3.74-4.1,13.12-13.31,29.9-22.32.48-.25.2-.99-.33-.85-48.5,12.25-95.55,51.55-113,99.31-18.49,50.63,2.49,92.79,47.28,101.98.64.13,1.17-.5.95-1.11-1.8-4.77-6.57-10.37-.28-28.39h0Z"/>
            <path class="cls-2" d="M1237.88,366.35c-1.93-.21,1,1.98,2.47,4.19,2.86,4.31,3.95,12.55.76,22.53-3.88,12.13-42.14,114.23-47.03,126.19-1.83,4.48-.72,7.68,1.83,8.37,3.19.85,11.34-.64,28.57-15.24,5.94-5.03,10.38-4.76,6.38,2.45-4.34,7.8-16.57,24.54-38.14,42.43-7.1,5.89-17.68,11.12-25.02,14.29-.62.27-.32,1.22.35,1.07,50.35-11.08,103.21-45.49,124.32-103.22,18.95-51.85-8.38-98.07-54.48-103.06Z"/>
            <path class="cls-2" d="M1207.77,334.72c5.17-14.53,20.87-26.31,35.07-26.31s21.53,11.78,16.37,26.31c-5.17,14.53-20.87,26.31-35.07,26.31s-21.53-11.78-16.37-26.31Z"/>
            <path class="cls-2" d="M597.07,159.16l.52-1.51c6.44,0,9.28-7.31,11.98-14.79l11.38-31.33-2.52-6.84h-3.9l.52-1.51h20.51l16.44,41.65h.16l10.44-29.5c.62-1.67,1.14-4.05,1.23-5.17.28-3.34-1.68-5.48-5.58-5.48h-.4l.52-1.51h17.17l-.52,1.51c-5.72,0-7.78,3.65-9.73,8.82l-16.72,45.63h-8.51l-18.03-45.47-9.94,27.43c-1.67,4.69-2.54,8.43-2.71,10.41-.37,4.38,2.42,6.12,6.4,6.12l-.52,1.51h-18.2,0Z"/>
            <path class="cls-2" d="M707.77,102.07c14.47,0,23.32,10.1,22.17,23.77-1.53,18.13-16.97,34.43-37.32,34.43-13.35,0-24.07-8.67-22.8-23.77,1.38-16.3,14.83-34.43,37.96-34.43h0ZM691.74,158.28c4.61,0,8.63-2.38,13.21-12.4,5.46-12.01,10.12-24.8,10.84-33.39.48-5.65-3.51-8.43-7.16-8.43-5.17,0-9,3.02-11.71,7.87-5.15,9.3-12.23,29.1-12.94,37.44-.48,5.65,2.35,8.91,7.75,8.91h0Z"/>
            <path class="cls-2" d="M725.13,159.16l.52-1.51c6.44,0,9.28-7.31,11.98-14.79l11.38-31.33-2.52-6.84h-3.9l.52-1.51h20.51l16.44,41.65h.16l10.44-29.5c.62-1.67,1.14-4.05,1.23-5.17.28-3.34-1.68-5.48-5.58-5.48h-.4l.52-1.51h17.17l-.52,1.51c-5.72,0-7.78,3.65-9.73,8.82l-16.72,45.63h-8.51l-18.03-45.47-9.94,27.43c-1.67,4.69-2.54,8.43-2.71,10.41-.37,4.38,2.42,6.12,6.4,6.12l-.52,1.51h-18.2,0Z"/>
            <path class="cls-2" d="M797.68,139.6h1.75c-.31.79-.38,1.67-.45,2.55-.76,9.06,5,16.14,14.22,16.14,5.72,0,13.48-3.41,14.07-10.41,1.15-13.67-24.52-8.98-22.92-27.98,1.02-12.01,12.47-17.8,23.37-17.8,8.58,0,11.21,2.78,15.67,2.78,1.75,0,3.81-.88,4.87-3.02h1.75l-6.79,18.28h-1.51c.8-9.54-2.22-16.06-12.4-16.06-5.09,0-11.01,3.26-11.48,8.91-1.01,11.92,23.68,7.63,22.1,26.47-1.19,14.15-15.19,20.83-27.43,20.83-7.24,0-13.74-3.98-16.67-3.98-1.43,0-2.61.72-3.2,2.15h-1.75l6.84-18.84h-.02Z"/>
            <path class="cls-2" d="M860.21,103.19h48.73l-6.23,17.33h-1.75c.25-1.03.43-2.31.53-3.5.55-6.6-1.82-12.32-9.38-12.32l-19.01,52.95h5.01l-.61,1.51h-26.31l.61-1.51h5.09l18.85-52.95c-8.98,0-16.57,7.95-20.08,15.66h-1.83l6.38-17.17h0Z"/>
            <path class="cls-2" d="M941.87,102.07c14.47,0,23.32,10.1,22.17,23.77-1.53,18.13-16.97,34.43-37.32,34.43-13.35,0-24.07-8.67-22.8-23.77,1.38-16.3,14.83-34.43,37.96-34.43h0ZM925.84,158.28c4.61,0,8.63-2.38,13.21-12.4,5.46-12.01,10.12-24.8,10.84-33.39.48-5.65-3.51-8.43-7.16-8.43-5.17,0-9,3.02-11.71,7.87-5.15,9.3-12.23,29.1-12.94,37.44-.48,5.65,2.35,8.91,7.75,8.91h0Z"/>
            <path class="cls-2" d="M985.28,104.7h-5.17l.52-1.51h30.69c12.08,0,16,4.45,15.27,13.04-.7,8.27-7.92,17.57-23.5,17.57h-11.92l-8.53,23.85h5.25l-.52,1.51h-26.55l.52-1.51h4.85l19.09-52.95ZM991.7,132.28h4.29c5.25,0,7.27-1.35,9.45-4.61,2-2.94,5.41-11.44,5.88-17.01.42-5.01-2.75-5.96-6.34-5.96h-3.34l-9.96,27.59h0Z"/>
            <path class="cls-2" d="M1044.08,157.64c5.48-.88,8.62-6.12,12.06-15.74l13.39-37.2h-5.65l.76-1.51h20.83l-2.33,37.12h.16l23.96-37.12h21.38l-.76,1.51h-5.01l-19.09,52.95h5.72l-.76,1.51h-25.76l.76-1.51h4.29l19.52-51.44h-.16l-34.19,52.95h-5.8l2.96-51.2h-.16l-12.91,36.25c-1.65,4.53-2.07,6.6-2.18,7.87-.35,4.14,2.39,5.57,5.89,5.57l-.76,1.51h-16.85l.68-1.51h0Z"/>
            <path class="cls-2" d="M1140.11,104.7h-5.17l.52-1.51h45.71l-5.1,18.04h-1.51c1.1-13.04-3.06-16.54-13.24-16.54h-4.85l-8.84,24.64h5.09c5.48,0,10.04-1.19,13.99-8.51h1.75l-7.45,20.43h-1.83c.34-1.19.52-2.31.6-3.34.32-3.74-1.39-7.08-6.95-7.08h-5.72l-9.65,26.79h5.57c9.86,0,20.16-4.29,26.55-15.98h1.75l-7.04,17.49h-48.65l.52-1.51h4.85l19.09-52.95h.02Z"/>
            <path class="cls-2" d="M1242.24,103.19l-7.63,20.75h-1.75c.28-1.43.48-2.78.59-4.21.68-8.11-2.81-15.66-12.44-15.66-4.61,0-8.31,2.46-10.96,7.39-6.58,12.08-12.35,29.57-13.05,37.92-.48,5.64,2.35,8.91,7.75,8.91,5.96,0,9.04-5.48,10.81-10.41l3.24-9.14h-4.05l.53-1.59h23.61l-.52,1.51h-3.5l-4.84,13.11c-6.16,5.17-15.03,8.51-24.57,8.51-13.67,0-24.41-8.43-23.12-23.77,1.38-16.3,15.94-34.43,37.4-34.43,9.22,0,12.33,3.74,15.58,3.74,2.55,0,3.89-.88,5.15-2.62h1.75v.02Z"/>
            <path class="cls-2" d="M1268.12,143.17h-16.85l-2.35,3.41c-2.45,3.58-2.97,5.01-3.08,6.36-.32,3.81,3.5,4.69,6.12,4.69l-.52,1.51h-19.4l.52-1.51c6.76,0,10.12-5.01,15.93-13.59l28.09-40.86h6.36l1.22,54.45h4.61l-.52,1.51h-25.2l.52-1.51h4.69l-.13-14.47h0ZM1252.34,141.67h15.82l-.17-22.5h-.16l-15.49,22.5Z"/>
            <path class="cls-2" d="M1291.37,157.64c5.48-.88,8.62-6.12,12.06-15.74l13.39-37.2h-5.65l.76-1.51h20.83l-2.33,37.12h.16l23.96-37.12h21.38l-.76,1.51h-5.01l-19.09,52.95h5.72l-.76,1.51h-25.76l.76-1.51h4.29l19.52-51.44h-.16l-34.19,52.95h-5.8l2.96-51.2h-.16l-12.91,36.25c-1.65,4.53-2.07,6.6-2.18,7.87-.35,4.14,2.39,5.57,5.89,5.57l-.76,1.51h-16.85l.68-1.51h0Z"/>
            <path class="cls-2" d="M1388.29,104.7h-5.17l.52-1.51h26.87l-.52,1.51h-5.32l-19.01,52.95h5.25l-.52,1.51h-26.55l.52-1.51h4.85l19.09-52.95h0Z"/>
            <path class="cls-2" d="M1400.28,157.64c4.88-.4,12.71-8.34,15.47-10.97l12.69-11.92-9.15-30.05h-4.53l.52-1.51h26.4l-.52,1.51h-4.85l5.35,17.65,7.96-7.71c2.43-2.46,3.47-4.38,3.58-5.65.28-3.34-2.5-4.29-5.05-4.29l.52-1.51h19.71l-.52,1.51c-4.85,0-7.6,2.38-13.38,7.87l-12.27,11.61,9.98,33.47h4.14l-.52,1.51h-26l.52-1.51h4.85l-6.17-21.14-9.94,9.54c-4.23,3.98-4.55,5.01-4.7,6.68-.26,3.1,2.52,4.93,5.71,4.93l-.52,1.51h-19.8l.52-1.51h0Z"/>
            <path class="cls-2" d="M773.54,561.44c-13,0-22.5-5.45-26.07-14.94-2.02-5.15-2.74-9.78-1.65-23.67l.2-2.52-1.57,1.98c-22.27,28.17-40.06,39.15-63.44,39.15-13.67,0-25.18-4.93-33.27-14.26-10.65-12.28-14.76-31.42-11.55-53.88,3.88-27.19,18.73-55.04,40.75-76.4,21.97-21.31,48.34-33.54,72.35-33.54,19.75,0,29.67,8.4,34.26,28.98l.58,2.61,9.25-26.01h49.54l-50.76,142.15-.48,1.79c-.73,2.71-1.36,5.04-1.57,6.51-.24,1.65.06,3.01.85,3.91.49.57,1.44,1.25,3.14,1.25,9.19,0,22.13-13.67,39.54-41.78l8.21,4.05c-20.43,36.25-43.4,54.63-68.29,54.63ZM751.94,392.96c-15.41,0-26.53,14.73-47.58,63.05-15.88,36.92-25.42,64.41-27.57,79.5-.73,5.12-.03,8.96,2.08,11.4,1.85,2.12,4.75,3.2,8.66,3.2,16.07,0,37.46-14.94,53.22-37.19,15.14-21.3,30.07-54.76,33.98-76.18,2.47-13.66-.44-27.46-7.6-36.03-4.23-5.07-9.48-7.74-15.19-7.74Z"/>
            <path class="cls-2" d="M995.27,558.87c-9.93,0-17.79-3.02-22.74-8.74-5.4-6.24-7.38-15.67-5.7-27.26.95-6.56,3.41-16.04,6.76-26.01l31.06-86.58c.22-.72.43-1.36.62-1.97.57-1.78.98-3.06,1.08-3.75.25-1.75-.14-3.28-1.13-4.43-1.15-1.32-2.98-2.02-5.3-2.02-8.29,0-25.03,10.64-38.12,24.24-17.6,18.35-30.22,39.98-40.9,70.15l-22.85,63.36h-50.15l56.44-157.75h-30.18l3.55-9.18h32.7c14.4,0,32.24-1.64,49.15-4.51l-16.17,45.05,1.34.72c24.31-32.26,49.34-47.28,78.76-47.28,11.73,0,20.65,3.15,25.81,9.1,3.89,4.5,5.42,10.54,4.42,17.46-.5,3.48-1.57,8.8-3.78,14.41l-35.52,99.48c-.9,2.61-3.04,8.99-3.5,12.15-.34,2.35,0,4.14,1.04,5.32.89,1.03,2.25,1.55,4.04,1.55,7.57,0,18.7-11.62,37.23-38.85.27-.27.58-.74,1.08-1.47.57-.84,1.32-1.95,2.3-3.2l7.51,4.02c-25.64,39.74-45.62,55.96-68.85,55.96h0Z"/>
            <path class="cls-2" d="M1451.21,561.44c-13,0-22.5-5.45-26.07-14.94-2.02-5.15-2.74-9.78-1.65-23.67l.2-2.52-1.57,1.98c-22.27,28.17-40.06,39.15-63.44,39.15-13.67,0-25.18-4.93-33.27-14.26-10.65-12.28-14.76-31.42-11.55-53.88,3.88-27.19,18.73-55.04,40.75-76.4,21.97-21.31,48.34-33.54,72.35-33.54,19.75,0,29.67,8.4,34.26,28.98l.58,2.61,9.25-26.01h49.54l-50.76,142.15-.48,1.78c-.73,2.71-1.36,5.05-1.57,6.51-.24,1.65.06,3.01.85,3.91.49.57,1.44,1.25,3.14,1.25,9.19,0,22.13-13.67,39.54-41.78l8.21,4.05c-20.43,36.25-43.4,54.63-68.29,54.63h0ZM1429.61,392.96c-15.41,0-26.53,14.73-47.58,63.05-15.89,36.92-25.42,64.41-27.57,79.5-.73,5.12-.03,8.96,2.08,11.4,1.85,2.12,4.75,3.2,8.66,3.2,16.07,0,37.46-14.94,53.22-37.19,15.14-21.3,30.07-54.76,33.98-76.18,2.47-13.66-.44-27.46-7.6-36.03-4.23-5.07-9.48-7.74-15.19-7.74Z"/>
            <path class="cls-2" d="M549.04,558.87c-10.78,0-18.81-2.96-23.86-8.81-5.43-6.29-7.27-15.73-5.46-28.04,1.15-7.83,4.05-18.45,7.58-27.7l30.21-82.74c.29-.98.55-1.85.79-2.61.54-1.76.93-3.03,1.07-3.97.22-1.5-.15-2.86-1.07-3.93-1.17-1.35-3.13-2.1-5.53-2.1-11.16,0-26.86,10.57-43.07,28.98-19.01,21.97-26.57,35.79-40.46,73.98l-19.7,53.94h-51.14l52.66-144.25c.67-1.38.86-2.71,1.18-4.91.42-2.89.06-4.95-1.12-6.32-1.08-1.25-2.76-1.85-5.17-1.85-9.01,0-27.82,12.22-41.92,27.25-17.49,17.89-29.55,39.24-42.99,76.14l-19.7,53.94h-51.14l57.52-157.75h-30.76l3.61-9.18h33.34c14.47,0,32.22-1.6,50.11-4.51l-15.16,42.06,1.29.78c26.75-29.54,52.28-43.9,78.06-43.9,11.98,0,21.17,3.31,26.59,9.59,4.5,5.21,6.22,12.41,4.99,20.83-.42,2.85-1.57,7.89-3.18,12.73l1.3.76c28.26-31.18,50.61-43.9,77.18-43.9,12.5,0,21.91,3.25,27.23,9.41,4.22,4.88,5.77,11.38,4.61,19.29-.52,3.54-1.6,8.84-3.78,13.96l-36.07,98.63c-2.25,6.39-3.17,9.46-3.5,11.73-.32,2.22,0,3.89.94,4.99.84.97,2.13,1.46,3.84,1.46,9.02,0,19.44-10.58,42.71-43.45l7.57,4.76c-27.3,40.9-44.92,54.73-69.57,54.73h0Z"/>
            <path class="cls-2" d="M73.99,355.28l3.21-9.08h34.99L209.22,83.08h-39.39l3.21-9.08h128.07c36.91,0,53.76,4.81,72.1,20.59,23.73,20.5,35.2,55.33,29.94,90.9-6.85,46.27-31.88,93.53-65.32,123.35-38.79,34.73-72.52,46.44-133.69,46.44H73.99ZM171.81,346.2h40.91c25.33,0,43.98-2.4,58.64-14.33,12.87-10.47,22.52-27.4,35.63-62.49,21.04-55.89,37.37-110.54,41.62-139.22,2.36-15.94.24-27.42-6.49-35.1-7.06-8.06-19.27-11.98-37.31-11.98h-35.98l-97.02,263.12h.02Z"/>
            <path class="cls-2" d="M539.63,360.79c-13.17,0-22.8-5.38-26.41-14.76-2.05-5.08-2.77-9.66-1.66-23.39l.2-2.48-1.56,1.93c-22.56,27.85-40.57,38.7-64.24,38.7-14.07,0-25.86-5.02-34.07-14.52-10.5-12.14-14.52-30.9-11.32-52.82,3.92-26.87,18.96-54.4,41.25-75.51,22.24-21.07,48.95-33.16,73.26-33.16,20,0,30.06,8.3,34.69,28.64l.58,2.54,9.36-25.67h50.17l-51.38,140.5-.48,1.76c-.74,2.68-1.38,4.99-1.59,6.45-.24,1.62.05,2.95.84,3.85.5.58,1.45,1.26,3.19,1.26,9.3,0,22.4-13.51,40.02-41.31l8.31,4.01c-20.68,35.83-43.94,53.98-69.14,53.98h0ZM517.77,194.26c-15.6,0-26.85,14.56-48.16,62.32-16.08,36.49-25.74,63.67-27.92,78.6-.73,5.01-.05,8.78,2.04,11.2,1.86,2.15,4.83,3.24,8.83,3.24,16.27,0,37.92-14.77,53.87-36.76,15.34-21.06,30.45-54.14,34.4-75.31,2.47-13.31-.38-26.85-7.44-35.34-4.32-5.2-9.72-7.94-15.61-7.94h0Z"/>
            <path class="cls-2" d="M761.37,360.55c-10,0-17.9-3.02-22.85-8.74-5.33-6.16-7.27-15.44-5.6-26.82.95-6.48,3.41-15.86,6.77-25.71l31.06-85.58c.22-.71.44-1.36.63-1.96.57-1.75.98-3.01,1.08-3.7.25-1.72-.13-3.23-1.11-4.36-1.15-1.32-2.98-2.02-5.32-2.02-8.29,0-25.04,10.53-38.12,23.97-17.61,18.14-30.23,39.52-40.92,69.35l-22.86,62.63h-50.17l56.46-155.94h-30.19l3.54-9.05h32.72c14.41,0,32.25-1.62,49.15-4.45l-16.17,44.52,1.33.73c24.32-31.89,49.35-46.73,78.79-46.73,11.81,0,20.77,3.15,25.9,9.1,3.83,4.43,5.33,10.36,4.34,17.14-.5,3.44-1.57,8.7-3.78,14.23l-35.53,98.34c-.9,2.58-3.04,8.88-3.5,12.01-.34,2.31,0,4.08,1.02,5.25.89,1.04,2.26,1.56,4.05,1.56,7.57,0,18.7-11.48,37.24-38.4.27-.26.58-.73,1.08-1.45.57-.83,1.32-1.93,2.3-3.16l7.51,3.97c-25.64,39.27-45.63,55.31-68.87,55.31v-.02Z"/>
            <path class="cls-2" d="M913.73,360.79c-23.84,0-43.42-7.28-55.11-20.48-10-11.29-13.92-26.32-11.36-43.48,4.71-31.46,28.27-67.19,58.62-88.9,22.42-15.87,44.99-23.58,68.98-23.58,19.58,0,34.79,5,42.84,14.08,5.35,6.05,7.4,13.55,6.08,22.33-2.15,14.34-13.91,24.34-28.61,24.34-6.51,0-12.1-2.27-15.74-6.38-3.71-4.18-5.21-10.04-4.25-16.47.62-4.09,1.35-6.48,5.38-15.48.15-.37.29-.71.43-1.02.53-1.24.98-2.32,1.15-3.41.25-1.72-.22-3.31-1.37-4.61-1.98-2.24-5.78-3.47-10.71-3.47-17.3,0-29.17,13.21-45.36,50.47-14.99,34.43-25.73,65.34-28.03,80.7-1.28,8.56-.15,14.71,3.48,18.8,4.02,4.54,10.99,6.65,21.93,6.65,25.33,0,45.43-11.94,71.56-42.52l7.15,5.05c-26.02,33.63-51.29,47.38-87.06,47.38h0Z"/>
            <path class="cls-2" d="M1089.34,360.79c-25.47,0-46.02-7.54-57.84-21.22-9.37-10.84-13.06-25.17-10.68-41.46,4.02-27.52,20.74-56.06,45.85-78.3,25.14-22.27,55.14-35.03,82.29-35.03,18.18,0,32.98,5.52,41.65,15.56,6.81,7.88,9.52,18.17,7.83,29.75-3.54,24.23-22.83,41.01-55.81,48.52-13.34,3.05-27.09,4.24-58.88,5.07l-.51.02-.19.47c-7.56,18.87-13.14,36.63-14.57,46.36-.81,5.54.27,10.08,3.21,13.47,3.95,4.58,11.03,6.89,21.04,6.89,27.72,0,52.16-13.1,81.61-43.78l6.15,5.37c-29.89,34.31-56.34,48.32-91.15,48.32h0ZM1144.6,194.68c-15.82,0-29.63,12.32-39.95,35.63-4.46,9.78-5.1,11.37-17,42.41l-.42,1.08,2.59-.1c21.44-.8,22.73-.85,31.63-3.37,20.19-5.09,35.24-25.3,39.25-52.75,1.22-8.39.22-14.32-3.08-18.14-2.75-3.18-7.13-4.78-13.03-4.78v.02Z"/>
          </g>
          <g>
            <path class="cls-3" d="M1131.78,541.89c1.22-3.5,4.01-12.55,8.66-24.66,13.34-34.68,33.73-93.49,42.36-116.49.61-1.62-2.5-5.47-6.24-3.1-3.74,2.37-7.2,5.38-8.59,5.38-1.97,0-3.38-.83-3.93-2.69-.6-2.07,1.2-4.85,3.23-7.08,3.74-4.1,13.12-13.31,29.9-22.32.48-.25.2-.99-.33-.85-48.5,12.25-95.55,51.55-113,99.31-18.49,50.63,2.49,92.79,47.28,101.98.64.13,1.17-.5.95-1.11-1.8-4.77-6.57-10.37-.28-28.39h0Z"/>
            <path class="cls-3" d="M1237.88,366.35c-1.93-.21,1,1.98,2.47,4.19,2.86,4.31,3.95,12.55.76,22.53-3.88,12.13-42.14,114.23-47.03,126.19-1.83,4.48-.72,7.68,1.83,8.37,3.19.85,11.34-.64,28.57-15.24,5.94-5.03,10.38-4.76,6.38,2.45-4.34,7.8-16.57,24.54-38.14,42.43-7.1,5.89-17.68,11.12-25.02,14.29-.62.27-.32,1.22.35,1.07,50.35-11.08,103.21-45.49,124.32-103.22,18.95-51.85-8.38-98.07-54.48-103.06Z"/>
            <path class="cls-3" d="M1207.77,334.72c5.17-14.53,20.87-26.31,35.07-26.31s21.53,11.78,16.37,26.31c-5.17,14.53-20.87,26.31-35.07,26.31s-21.53-11.78-16.37-26.31Z"/>
            <path class="cls-3" d="M597.07,159.16l.52-1.51c6.44,0,9.28-7.31,11.98-14.79l11.38-31.33-2.52-6.84h-3.9l.52-1.51h20.51l16.44,41.65h.16l10.44-29.5c.62-1.67,1.14-4.05,1.23-5.17.28-3.34-1.68-5.48-5.58-5.48h-.4l.52-1.51h17.17l-.52,1.51c-5.72,0-7.78,3.65-9.73,8.82l-16.72,45.63h-8.51l-18.03-45.47-9.94,27.43c-1.67,4.69-2.54,8.43-2.71,10.41-.37,4.38,2.42,6.12,6.4,6.12l-.52,1.51h-18.2,0Z"/>
            <path class="cls-3" d="M707.77,102.07c14.47,0,23.32,10.1,22.17,23.77-1.53,18.13-16.97,34.43-37.32,34.43-13.35,0-24.07-8.67-22.8-23.77,1.38-16.3,14.83-34.43,37.96-34.43h0ZM691.74,158.28c4.61,0,8.63-2.38,13.21-12.4,5.46-12.01,10.12-24.8,10.84-33.39.48-5.65-3.51-8.43-7.16-8.43-5.17,0-9,3.02-11.71,7.87-5.15,9.3-12.23,29.1-12.94,37.44-.48,5.65,2.35,8.91,7.75,8.91h0Z"/>
            <path class="cls-3" d="M725.13,159.16l.52-1.51c6.44,0,9.28-7.31,11.98-14.79l11.38-31.33-2.52-6.84h-3.9l.52-1.51h20.51l16.44,41.65h.16l10.44-29.5c.62-1.67,1.14-4.05,1.23-5.17.28-3.34-1.68-5.48-5.58-5.48h-.4l.52-1.51h17.17l-.52,1.51c-5.72,0-7.78,3.65-9.73,8.82l-16.72,45.63h-8.51l-18.03-45.47-9.94,27.43c-1.67,4.69-2.54,8.43-2.71,10.41-.37,4.38,2.42,6.12,6.4,6.12l-.52,1.51h-18.2,0Z"/>
            <path class="cls-3" d="M797.68,139.6h1.75c-.31.79-.38,1.67-.45,2.55-.76,9.06,5,16.14,14.22,16.14,5.72,0,13.48-3.41,14.07-10.41,1.15-13.67-24.52-8.98-22.92-27.98,1.02-12.01,12.47-17.8,23.37-17.8,8.58,0,11.21,2.78,15.67,2.78,1.75,0,3.81-.88,4.87-3.02h1.75l-6.79,18.28h-1.51c.8-9.54-2.22-16.06-12.4-16.06-5.09,0-11.01,3.26-11.48,8.91-1.01,11.92,23.68,7.63,22.1,26.47-1.19,14.15-15.19,20.83-27.43,20.83-7.24,0-13.74-3.98-16.67-3.98-1.43,0-2.61.72-3.2,2.15h-1.75l6.84-18.84h-.02Z"/>
            <path class="cls-3" d="M860.21,103.19h48.73l-6.23,17.33h-1.75c.25-1.03.43-2.31.53-3.5.55-6.6-1.82-12.32-9.38-12.32l-19.01,52.95h5.01l-.61,1.51h-26.31l.61-1.51h5.09l18.85-52.95c-8.98,0-16.57,7.95-20.08,15.66h-1.83l6.38-17.17h0Z"/>
            <path class="cls-3" d="M941.87,102.07c14.47,0,23.32,10.1,22.17,23.77-1.53,18.13-16.97,34.43-37.32,34.43-13.35,0-24.07-8.67-22.8-23.77,1.38-16.3,14.83-34.43,37.96-34.43h0ZM925.84,158.28c4.61,0,8.63-2.38,13.21-12.4,5.46-12.01,10.12-24.8,10.84-33.39.48-5.65-3.51-8.43-7.16-8.43-5.17,0-9,3.02-11.71,7.87-5.15,9.3-12.23,29.1-12.94,37.44-.48,5.65,2.35,8.91,7.75,8.91h0Z"/>
            <path class="cls-3" d="M985.28,104.7h-5.17l.52-1.51h30.69c12.08,0,16,4.45,15.27,13.04-.7,8.27-7.92,17.57-23.5,17.57h-11.92l-8.53,23.85h5.25l-.52,1.51h-26.55l.52-1.51h4.85l19.09-52.95ZM991.7,132.28h4.29c5.25,0,7.27-1.35,9.45-4.61,2-2.94,5.41-11.44,5.88-17.01.42-5.01-2.75-5.96-6.34-5.96h-3.34l-9.96,27.59h0Z"/>
            <path class="cls-3" d="M1044.08,157.64c5.48-.88,8.62-6.12,12.06-15.74l13.39-37.2h-5.65l.76-1.51h20.83l-2.33,37.12h.16l23.96-37.12h21.38l-.76,1.51h-5.01l-19.09,52.95h5.72l-.76,1.51h-25.76l.76-1.51h4.29l19.52-51.44h-.16l-34.19,52.95h-5.8l2.96-51.2h-.16l-12.91,36.25c-1.65,4.53-2.07,6.6-2.18,7.87-.35,4.14,2.39,5.57,5.89,5.57l-.76,1.51h-16.85l.68-1.51h0Z"/>
            <path class="cls-3" d="M1140.11,104.7h-5.17l.52-1.51h45.71l-5.1,18.04h-1.51c1.1-13.04-3.06-16.54-13.24-16.54h-4.85l-8.84,24.64h5.09c5.48,0,10.04-1.19,13.99-8.51h1.75l-7.45,20.43h-1.83c.34-1.19.52-2.31.6-3.34.32-3.74-1.39-7.08-6.95-7.08h-5.72l-9.65,26.79h5.57c9.86,0,20.16-4.29,26.55-15.98h1.75l-7.04,17.49h-48.65l.52-1.51h4.85l19.09-52.95h.02Z"/>
            <path class="cls-3" d="M1242.24,103.19l-7.63,20.75h-1.75c.28-1.43.48-2.78.59-4.21.68-8.11-2.81-15.66-12.44-15.66-4.61,0-8.31,2.46-10.96,7.39-6.58,12.08-12.35,29.57-13.05,37.92-.48,5.64,2.35,8.91,7.75,8.91,5.96,0,9.04-5.48,10.81-10.41l3.24-9.14h-4.05l.53-1.59h23.61l-.52,1.51h-3.5l-4.84,13.11c-6.16,5.17-15.03,8.51-24.57,8.51-13.67,0-24.41-8.43-23.12-23.77,1.38-16.3,15.94-34.43,37.4-34.43,9.22,0,12.33,3.74,15.58,3.74,2.55,0,3.89-.88,5.15-2.62h1.75v.02Z"/>
            <path class="cls-3" d="M1268.12,143.17h-16.85l-2.35,3.41c-2.45,3.58-2.97,5.01-3.08,6.36-.32,3.81,3.5,4.69,6.12,4.69l-.52,1.51h-19.4l.52-1.51c6.76,0,10.12-5.01,15.93-13.59l28.09-40.86h6.36l1.22,54.45h4.61l-.52,1.51h-25.2l.52-1.51h4.69l-.13-14.47h0ZM1252.34,141.67h15.82l-.17-22.5h-.16l-15.49,22.5Z"/>
            <path class="cls-3" d="M1291.37,157.64c5.48-.88,8.62-6.12,12.06-15.74l13.39-37.2h-5.65l.76-1.51h20.83l-2.33,37.12h.16l23.96-37.12h21.38l-.76,1.51h-5.01l-19.09,52.95h5.72l-.76,1.51h-25.76l.76-1.51h4.29l19.52-51.44h-.16l-34.19,52.95h-5.8l2.96-51.2h-.16l-12.91,36.25c-1.65,4.53-2.07,6.6-2.18,7.87-.35,4.14,2.39,5.57,5.89,5.57l-.76,1.51h-16.85l.68-1.51h0Z"/>
            <path class="cls-3" d="M1388.29,104.7h-5.17l.52-1.51h26.87l-.52,1.51h-5.32l-19.01,52.95h5.25l-.52,1.51h-26.55l.52-1.51h4.85l19.09-52.95h0Z"/>
            <path class="cls-3" d="M1400.28,157.64c4.88-.4,12.71-8.34,15.47-10.97l12.69-11.92-9.15-30.05h-4.53l.52-1.51h26.4l-.52,1.51h-4.85l5.35,17.65,7.96-7.71c2.43-2.46,3.47-4.38,3.58-5.65.28-3.34-2.5-4.29-5.05-4.29l.52-1.51h19.71l-.52,1.51c-4.85,0-7.6,2.38-13.38,7.87l-12.27,11.61,9.98,33.47h4.14l-.52,1.51h-26l.52-1.51h4.85l-6.17-21.14-9.94,9.54c-4.23,3.98-4.55,5.01-4.7,6.68-.26,3.1,2.52,4.93,5.71,4.93l-.52,1.51h-19.8l.52-1.51h0Z"/>
            <path class="cls-3" d="M773.54,561.44c-13,0-22.5-5.45-26.07-14.94-2.02-5.15-2.74-9.78-1.65-23.67l.2-2.52-1.57,1.98c-22.27,28.17-40.06,39.15-63.44,39.15-13.67,0-25.18-4.93-33.27-14.26-10.65-12.28-14.76-31.42-11.55-53.88,3.88-27.19,18.73-55.04,40.75-76.4,21.97-21.31,48.34-33.54,72.35-33.54,19.75,0,29.67,8.4,34.26,28.98l.58,2.61,9.25-26.01h49.54l-50.76,142.15-.48,1.79c-.73,2.71-1.36,5.04-1.57,6.51-.24,1.65.06,3.01.85,3.91.49.57,1.44,1.25,3.14,1.25,9.19,0,22.13-13.67,39.54-41.78l8.21,4.05c-20.43,36.25-43.4,54.63-68.29,54.63ZM751.94,392.96c-15.41,0-26.53,14.73-47.58,63.05-15.88,36.92-25.42,64.41-27.57,79.5-.73,5.12-.03,8.96,2.08,11.4,1.85,2.12,4.75,3.2,8.66,3.2,16.07,0,37.46-14.94,53.22-37.19,15.14-21.3,30.07-54.76,33.98-76.18,2.47-13.66-.44-27.46-7.6-36.03-4.23-5.07-9.48-7.74-15.19-7.74Z"/>
            <path class="cls-3" d="M995.27,558.87c-9.93,0-17.79-3.02-22.74-8.74-5.4-6.24-7.38-15.67-5.7-27.26.95-6.56,3.41-16.04,6.76-26.01l31.06-86.58c.22-.72.43-1.36.62-1.97.57-1.78.98-3.06,1.08-3.75.25-1.75-.14-3.28-1.13-4.43-1.15-1.32-2.98-2.02-5.3-2.02-8.29,0-25.03,10.64-38.12,24.24-17.6,18.35-30.22,39.98-40.9,70.15l-22.85,63.36h-50.15l56.44-157.75h-30.18l3.55-9.18h32.7c14.4,0,32.24-1.64,49.15-4.51l-16.17,45.05,1.34.72c24.31-32.26,49.34-47.28,78.76-47.28,11.73,0,20.65,3.15,25.81,9.1,3.89,4.5,5.42,10.54,4.42,17.46-.5,3.48-1.57,8.8-3.78,14.41l-35.52,99.48c-.9,2.61-3.04,8.99-3.5,12.15-.34,2.35,0,4.14,1.04,5.32.89,1.03,2.25,1.55,4.04,1.55,7.57,0,18.7-11.62,37.23-38.85.27-.27.58-.74,1.08-1.47.57-.84,1.32-1.95,2.3-3.2l7.51,4.02c-25.64,39.74-45.62,55.96-68.85,55.96h0Z"/>
            <path class="cls-3" d="M1451.21,561.44c-13,0-22.5-5.45-26.07-14.94-2.02-5.15-2.74-9.78-1.65-23.67l.2-2.52-1.57,1.98c-22.27,28.17-40.06,39.15-63.44,39.15-13.67,0-25.18-4.93-33.27-14.26-10.65-12.28-14.76-31.42-11.55-53.88,3.88-27.19,18.73-55.04,40.75-76.4,21.97-21.31,48.34-33.54,72.35-33.54,19.75,0,29.67,8.4,34.26,28.98l.58,2.61,9.25-26.01h49.54l-50.76,142.15-.48,1.78c-.73,2.71-1.36,5.05-1.57,6.51-.24,1.65.06,3.01.85,3.91.49.57,1.44,1.25,3.14,1.25,9.19,0,22.13-13.67,39.54-41.78l8.21,4.05c-20.43,36.25-43.4,54.63-68.29,54.63h0ZM1429.61,392.96c-15.41,0-26.53,14.73-47.58,63.05-15.89,36.92-25.42,64.41-27.57,79.5-.73,5.12-.03,8.96,2.08,11.4,1.85,2.12,4.75,3.2,8.66,3.2,16.07,0,37.46-14.94,53.22-37.19,15.14-21.3,30.07-54.76,33.98-76.18,2.47-13.66-.44-27.46-7.6-36.03-4.23-5.07-9.48-7.74-15.19-7.74Z"/>
            <path class="cls-3" d="M549.04,558.87c-10.78,0-18.81-2.96-23.86-8.81-5.43-6.29-7.27-15.73-5.46-28.04,1.15-7.83,4.05-18.45,7.58-27.7l30.21-82.74c.29-.98.55-1.85.79-2.61.54-1.76.93-3.03,1.07-3.97.22-1.5-.15-2.86-1.07-3.93-1.17-1.35-3.13-2.1-5.53-2.1-11.16,0-26.86,10.57-43.07,28.98-19.01,21.97-26.57,35.79-40.46,73.98l-19.7,53.94h-51.14l52.66-144.25c.67-1.38.86-2.71,1.18-4.91.42-2.89.06-4.95-1.12-6.32-1.08-1.25-2.76-1.85-5.17-1.85-9.01,0-27.82,12.22-41.92,27.25-17.49,17.89-29.55,39.24-42.99,76.14l-19.7,53.94h-51.14l57.52-157.75h-30.76l3.61-9.18h33.34c14.47,0,32.22-1.6,50.11-4.51l-15.16,42.06,1.29.78c26.75-29.54,52.28-43.9,78.06-43.9,11.98,0,21.17,3.31,26.59,9.59,4.5,5.21,6.22,12.41,4.99,20.83-.42,2.85-1.57,7.89-3.18,12.73l1.3.76c28.26-31.18,50.61-43.9,77.18-43.9,12.5,0,21.91,3.25,27.23,9.41,4.22,4.88,5.77,11.38,4.61,19.29-.52,3.54-1.6,8.84-3.78,13.96l-36.07,98.63c-2.25,6.39-3.17,9.46-3.5,11.73-.32,2.22,0,3.89.94,4.99.84.97,2.13,1.46,3.84,1.46,9.02,0,19.44-10.58,42.71-43.45l7.57,4.76c-27.3,40.9-44.92,54.73-69.57,54.73h0Z"/>
            <path class="cls-3" d="M73.99,355.28l3.21-9.08h34.99L209.22,83.08h-39.39l3.21-9.08h128.07c36.91,0,53.76,4.81,72.1,20.59,23.73,20.5,35.2,55.33,29.94,90.9-6.85,46.27-31.88,93.53-65.32,123.35-38.79,34.73-72.52,46.44-133.69,46.44H73.99ZM171.81,346.2h40.91c25.33,0,43.98-2.4,58.64-14.33,12.87-10.47,22.52-27.4,35.63-62.49,21.04-55.89,37.37-110.54,41.62-139.22,2.36-15.94.24-27.42-6.49-35.1-7.06-8.06-19.27-11.98-37.31-11.98h-35.98l-97.02,263.12h.02Z"/>
            <path class="cls-3" d="M539.63,360.79c-13.17,0-22.8-5.38-26.41-14.76-2.05-5.08-2.77-9.66-1.66-23.39l.2-2.48-1.56,1.93c-22.56,27.85-40.57,38.7-64.24,38.7-14.07,0-25.86-5.02-34.07-14.52-10.5-12.14-14.52-30.9-11.32-52.82,3.92-26.87,18.96-54.4,41.25-75.51,22.24-21.07,48.95-33.16,73.26-33.16,20,0,30.06,8.3,34.69,28.64l.58,2.54,9.36-25.67h50.17l-51.38,140.5-.48,1.76c-.74,2.68-1.38,4.99-1.59,6.45-.24,1.62.05,2.95.84,3.85.5.58,1.45,1.26,3.19,1.26,9.3,0,22.4-13.51,40.02-41.31l8.31,4.01c-20.68,35.83-43.94,53.98-69.14,53.98h0ZM517.77,194.26c-15.6,0-26.85,14.56-48.16,62.32-16.08,36.49-25.74,63.67-27.92,78.6-.73,5.01-.05,8.78,2.04,11.2,1.86,2.15,4.83,3.24,8.83,3.24,16.27,0,37.92-14.77,53.87-36.76,15.34-21.06,30.45-54.14,34.4-75.31,2.47-13.31-.38-26.85-7.44-35.34-4.32-5.2-9.72-7.94-15.61-7.94h0Z"/>
            <path class="cls-3" d="M761.37,360.55c-10,0-17.9-3.02-22.85-8.74-5.33-6.16-7.27-15.44-5.6-26.82.95-6.48,3.41-15.86,6.77-25.71l31.06-85.58c.22-.71.44-1.36.63-1.96.57-1.75.98-3.01,1.08-3.7.25-1.72-.13-3.23-1.11-4.36-1.15-1.32-2.98-2.02-5.32-2.02-8.29,0-25.04,10.53-38.12,23.97-17.61,18.14-30.23,39.52-40.92,69.35l-22.86,62.63h-50.17l56.46-155.94h-30.19l3.54-9.05h32.72c14.41,0,32.25-1.62,49.15-4.45l-16.17,44.52,1.33.73c24.32-31.89,49.35-46.73,78.79-46.73,11.81,0,20.77,3.15,25.9,9.1,3.83,4.43,5.33,10.36,4.34,17.14-.5,3.44-1.57,8.7-3.78,14.23l-35.53,98.34c-.9,2.58-3.04,8.88-3.5,12.01-.34,2.31,0,4.08,1.02,5.25.89,1.04,2.26,1.56,4.05,1.56,7.57,0,18.7-11.48,37.24-38.4.27-.26.58-.73,1.08-1.45.57-.83,1.32-1.93,2.3-3.16l7.51,3.97c-25.64,39.27-45.63,55.31-68.87,55.31v-.02Z"/>
            <path class="cls-3" d="M913.73,360.79c-23.84,0-43.42-7.28-55.11-20.48-10-11.29-13.92-26.32-11.36-43.48,4.71-31.46,28.27-67.19,58.62-88.9,22.42-15.87,44.99-23.58,68.98-23.58,19.58,0,34.79,5,42.84,14.08,5.35,6.05,7.4,13.55,6.08,22.33-2.15,14.34-13.91,24.34-28.61,24.34-6.51,0-12.1-2.27-15.74-6.38-3.71-4.18-5.21-10.04-4.25-16.47.62-4.09,1.35-6.48,5.38-15.48.15-.37.29-.71.43-1.02.53-1.24.98-2.32,1.15-3.41.25-1.72-.22-3.31-1.37-4.61-1.98-2.24-5.78-3.47-10.71-3.47-17.3,0-29.17,13.21-45.36,50.47-14.99,34.43-25.73,65.34-28.03,80.7-1.28,8.56-.15,14.71,3.48,18.8,4.02,4.54,10.99,6.65,21.93,6.65,25.33,0,45.43-11.94,71.56-42.52l7.15,5.05c-26.02,33.63-51.29,47.38-87.06,47.38h0Z"/>
            <path class="cls-3" d="M1089.34,360.79c-25.47,0-46.02-7.54-57.84-21.22-9.37-10.84-13.06-25.17-10.68-41.46,4.02-27.52,20.74-56.06,45.85-78.3,25.14-22.27,55.14-35.03,82.29-35.03,18.18,0,32.98,5.52,41.65,15.56,6.81,7.88,9.52,18.17,7.83,29.75-3.54,24.23-22.83,41.01-55.81,48.52-13.34,3.05-27.09,4.24-58.88,5.07l-.51.02-.19.47c-7.56,18.87-13.14,36.63-14.57,46.36-.81,5.54.27,10.08,3.21,13.47,3.95,4.58,11.03,6.89,21.04,6.89,27.72,0,52.16-13.1,81.61-43.78l6.15,5.37c-29.89,34.31-56.34,48.32-91.15,48.32h0ZM1144.6,194.68c-15.82,0-29.63,12.32-39.95,35.63-4.46,9.78-5.1,11.37-17,42.41l-.42,1.08,2.59-.1c21.44-.8,22.73-.85,31.63-3.37,20.19-5.09,35.24-25.3,39.25-52.75,1.22-8.39.22-14.32-3.08-18.14-2.75-3.18-7.13-4.78-13.03-4.78v.02Z"/>
          </g>
        </g>
      </g>
    </g>
  </g>
</svg>